<?xml version="1.0" standalone="no"?>
<!DOCTYPE svg PUBLIC "-//W3C//DTD SVG 1.1//EN" "http://www.w3.org/Graphics/SVG/1.1/DTD/svg11.dtd" >
<svg xmlns="http://www.w3.org/2000/svg" xmlns:xlink="http://www.w3.org/1999/xlink" version="1.1">
<metadata>
Created by FontForge 20170731 at Mon Jan 25 13:22:32 2021
 By Aleksey,,,
Copyright (c) 2015 Berton Hasebe, under exclusive license to Schwartzco Inc./ Commercial Type. All rights reserved.
</metadata>
<defs>
<font id="DrukXXCondensed-Super" horiz-adv-x="253" >
  <font-face 
    font-family="Druk XXCondensed"
    font-weight="950"
    font-stretch="ultra-condensed"
    units-per-em="2048"
    panose-1="0 0 0 0 0 0 0 0 0 0"
    ascent="1638"
    descent="-410"
    x-height="1102"
    cap-height="1524"
    bbox="-35 -426 1008 1819"
    underline-thickness="102"
    underline-position="-307"
    unicode-range="U+000D-FB04"
  />
<missing-glyph horiz-adv-x="1007" 
d="M0 1413h1008v-1413h-1008v1413zM907 193v1030l-344 -516zM100 1223v-1030l344 514zM504 797l344 516h-686zM504 616l-342 -516h684z" />
    <glyph glyph-name="f_f" unicode="ff" horiz-adv-x="331" 
d="M145 0h-106v1004h-33v98h33v362q0 28 15.5 44t41.5 16h80v-99h-20q-11 0 -11 -12v-311h43v362q0 28 16 44t42 16h80v-99h-21q-10 0 -10 -12v-311h31v-98h-31v-1004h-107v1004h-43v-1004z" />
    <glyph glyph-name="fi" unicode="fi" horiz-adv-x="305" 
d="M176 1524v-99h-20q-11 0 -11 -12v-311h31v-98h-31v-1004h-106v1004h-33v98h33v362q0 28 15.5 44t41.5 16h80zM295 1270v-154h-107v154h107zM295 1102v-1102h-107v1102h107z" />
    <glyph glyph-name="fl" unicode="fl" horiz-adv-x="305" 
d="M176 1524v-99h-20q-11 0 -11 -12v-311h31v-98h-31v-1004h-106v1004h-33v98h33v362q0 28 15.5 44t41.5 16h80zM295 1524v-1524h-107v1524h107z" />
    <glyph glyph-name=".notdef" horiz-adv-x="1007" 
d="M0 1413h1008v-1413h-1008v1413zM907 193v1030l-344 -516zM100 1223v-1030l344 514zM504 797l344 516h-686zM504 616l-342 -516h684z" />
    <glyph glyph-name=".null" horiz-adv-x="0" 
 />
    <glyph glyph-name="nonmarkingreturn" horiz-adv-x="682" 
 />
    <glyph glyph-name="NULL" horiz-adv-x="0" 
 />
    <glyph glyph-name="NULL" horiz-adv-x="0" 
 />
    <glyph glyph-name="CR" unicode="&#xd;" horiz-adv-x="81" 
 />
    <glyph glyph-name="space" unicode=" " horiz-adv-x="81" 
 />
    <glyph glyph-name="exclam" unicode="!" horiz-adv-x="129" 
d="M12 1524h105q0 -59 -23 -1350h-59q-23 1291 -23 1350zM115 158v-158h-101v158h101z" />
    <glyph glyph-name="quotedbl" unicode="&#x22;" horiz-adv-x="194" 
d="M184 1524v-181h-80v181h80zM90 1524v-181h-80v181h80z" />
    <glyph glyph-name="numbersign" unicode="#" horiz-adv-x="227" 
d="M121 643l6 281h-16l-7 -281h17zM109 0l12 571h-17l-12 -571h-67l10 571h-31v72h33l4 281h-31v73h33l10 527h70l-10 -527h16l10 527h70l-12 -527h26v-73h-26l-7 -281h27v-72h-29l-12 -571h-67z" />
    <glyph glyph-name="dollar" unicode="$" horiz-adv-x="264" 
d="M111 1411v-457q0 -28 2 -39t12 -24v543q-14 -3 -14 -23zM156 115v526q0 47 -15 66v-613q15 0 15 21zM143 -4h-2v-51h-16v51h-4q-109 0 -109 108v590h99v-579q0 -24 14 -21v633l-66 78q-45 55 -45 135v473q0 58 25.5 86.5t83.5 28.5h2v49h16v-49h4q60 0 83.5 -27t23.5 -80
v-516h-96v506q0 11 -4 16.5t-11 4.5v-562l66 -77q28 -34 36.5 -62t8.5 -78v-540q0 -117 -109 -117z" />
    <glyph glyph-name="percent" unicode="%" horiz-adv-x="374" 
d="M12 963v489q0 76 74 76h12q74 0 74 -76v-489q0 -37 -20 -56.5t-54 -19.5h-12q-74 0 -74 76zM268 1524h62l-224 -1524h-61zM100 961v493q0 12 -8 12t-8 -12v-493q0 -13 8 -13t8 13zM203 72v489q0 76 73 76h13q73 0 73 -76v-489q0 -37 -20 -56.5t-53 -19.5h-13
q-73 0 -73 76zM283 57q8 0 8 13v493q0 12 -8 12q-9 0 -9 -12v-493q0 -13 9 -13z" />
    <glyph glyph-name="ampersand" unicode="&#x26;" horiz-adv-x="315" 
d="M313 96l-32 -100q-46 0 -78 14q-25 -14 -62 -14q-69 0 -99 42t-30 124v303q0 128 12.5 198t53.5 181l-15 108q-18 133 -18 217v261q0 49 24.5 73.5t82.5 24.5h4q54 0 76 -24.5t22 -71.5v-271q0 -27 -3 -53t-5 -41.5t-12.5 -48.5t-13.5 -42.5t-20 -56t-22 -59.5l49 -639
q0 122 -6.5 330t-9.5 358h92q0 -680 -31 -807q4 -3 10.5 -4t16 -1t14.5 -1zM150 1012l2 -41q12 131 12 174v289q0 14 -10 14q-11 0 -11 -14v-306q0 -61 7 -116zM117 162q3 -74 35 -74l-48 619q0 -138 13 -545z" />
    <glyph glyph-name="quotesingle" unicode="'" horiz-adv-x="100" 
d="M90 1524v-181h-80v181h80z" />
    <glyph glyph-name="parenleft" unicode="(" horiz-adv-x="143" 
d="M12 729q0 538 64 883h61q-35 -359 -35 -881q0 -526 35 -889h-61q-64 355 -64 887z" />
    <glyph glyph-name="parenright" unicode=")" horiz-adv-x="143" 
d="M68 -158h-62q35 363 35 889q0 522 -35 881h62q63 -340 63 -883q0 -537 -63 -887z" />
    <glyph glyph-name="asterisk" unicode="*" horiz-adv-x="190" 
d="M119 1473l35 30l32 -53l-45 -18l45 -17l-32 -55l-35 33l8 -52h-66l11 52l-35 -31l-33 53l47 17l-47 18l31 53l37 -30l-11 51h66z" />
    <glyph glyph-name="plus" unicode="+" horiz-adv-x="229" 
d="M219 584h-65v-76h-78v76h-66v73h66v76h78v-76h65v-73z" />
    <glyph glyph-name="comma" unicode="," horiz-adv-x="120" 
d="M86 -109h-61q20 60 20 109h-35v158h101v-131q0 -64 -25 -136z" />
    <glyph glyph-name="hyphen" unicode="-" horiz-adv-x="139" 
d="M10 672h119v-113h-119v113z" />
    <glyph glyph-name="period" unicode="." horiz-adv-x="120" 
d="M111 158v-158h-101v158h101z" />
    <glyph glyph-name="slash" unicode="/" horiz-adv-x="161" 
d="M154 1612l-78 -1770h-72l78 1770h72z" />
    <glyph glyph-name="zero" unicode="0" horiz-adv-x="268" 
d="M256 1401v-1278q0 -127 -115 -127h-12q-117 0 -117 127v1278q0 127 117 127h12q115 0 115 -127zM145 115v1296q0 19 -10 19q-12 0 -12 -19v-1296q0 -19 12 -19q10 0 10 19z" />
    <glyph glyph-name="one" unicode="1" horiz-adv-x="172" 
d="M51 1382h-45v95q57 0 60 47h92v-1524h-107v1382z" />
    <glyph glyph-name="two" unicode="2" horiz-adv-x="260" 
d="M125 1438q-10 0 -10 -15v-419h-99v421q0 49 26.5 77t78.5 28h8q115 0 115 -117v-315q0 -74 -7 -125.5t-32 -157.5l-43 -178q-33 -144 -43 -208t-10 -146v-183h43v437h96v-537h-238v293q0 101 9 165.5t42 196.5l41 172q22 103 27.5 138t5.5 82v376q0 15 -10 15z" />
    <glyph glyph-name="three" unicode="3" horiz-adv-x="262" 
d="M119 952h-99v473q0 48 23 75.5t82 27.5h12q61 0 85 -26.5t24 -74.5v-532q0 -32 -31 -55q35 -18 35 -58v-684q0 -102 -113 -102h-14q-111 0 -111 94v606h105v-581q0 -19 12 -19q10 0 10 19v647q0 10 -10 10h-49v107h47q12 0 12 12v524q0 17 -10 17t-10 -17v-463z" />
    <glyph glyph-name="four" unicode="4" horiz-adv-x="247" 
d="M8 283v88q58 839 84 1153h123v-1137h27v-104h-27v-283h-106v283h-101zM109 387v657q-3 -83 -12.5 -291.5t-14.5 -365.5h27z" />
    <glyph glyph-name="five" unicode="5" horiz-adv-x="260" 
d="M115 776h-101v748h232v-103h-131v-309q8 19 26.5 33t42.5 14h4q27 0 43.5 -19t16.5 -53v-995q0 -43 -28 -69.5t-83 -26.5h-22q-54 0 -78.5 26t-24.5 68v578h103v-564q0 -16 10 -16q12 0 12 16v947q0 16 -12 16q-10 0 -10 -16v-275z" />
    <glyph glyph-name="six" unicode="6" horiz-adv-x="268" 
d="M193 934h4q59 0 59 -76v-749q0 -53 -30 -83t-81 -30h-22q-111 0 -111 113v1304q0 54 27.5 84.5t85.5 30.5h18q111 0 111 -115v-438h-109v436q0 19 -12 19q-10 0 -10 -19v-524q27 47 70 47zM123 825v-710q0 -19 10 -19q12 0 12 19v710q0 19 -10 19q-12 0 -12 -19z" />
    <glyph glyph-name="seven" unicode="7" horiz-adv-x="245" 
d="M12 1524h224v-72q0 -147 -5.5 -264t-16 -267t-15.5 -262q-15 -337 -15 -610v-49h-131v51q0 260 31 541q4 35 12.5 112t11 100.5t8.5 83t8 82.5t5.5 74t4.5 84.5t2.5 86.5t2 106t0.5 119h-30v-430h-97v514z" />
    <glyph glyph-name="eight" unicode="8" horiz-adv-x="268" 
d="M252 1423v-561q0 -50 -37 -69q41 -21 41 -70v-619q0 -54 -30.5 -81t-82.5 -27h-16q-115 0 -115 108v619q0 51 39 70q-35 22 -35 69v561q0 49 28 77t83 28h16q54 0 81.5 -28t27.5 -77zM145 848v563q0 19 -12 19q-10 0 -10 -19v-563q0 -19 12 -19q10 0 10 19zM145 115v614
q0 19 -12 19q-10 0 -10 -19v-614q0 -19 12 -19q10 0 10 19z" />
    <glyph glyph-name="nine" unicode="9" horiz-adv-x="268" 
d="M145 705v704q0 18 -10 18q-12 0 -12 -18v-704q0 -19 10 -19q12 0 12 19zM76 596h-4q-60 0 -60 76v743q0 53 30 83t81 30h22q111 0 111 -113v-1304q0 -54 -27.5 -84.5t-85.5 -30.5h-18q-111 0 -111 115v444h109v-442q0 -19 12 -19q10 0 10 19v530q-27 -47 -69 -47z" />
    <glyph glyph-name="colon" unicode=":" horiz-adv-x="120" 
d="M111 829v-157h-101v157h101zM111 158v-158h-101v158h101z" />
    <glyph glyph-name="semicolon" unicode=";" horiz-adv-x="120" 
d="M111 829v-157h-101v157h101zM86 -109h-61q20 60 20 109h-35v158h101v-131q0 -64 -25 -136z" />
    <glyph glyph-name="less" unicode="&#x3c;" horiz-adv-x="198" 
d="M188 512l-178 72v73l178 72v-80l-96 -31l96 -28v-78z" />
    <glyph glyph-name="equal" unicode="=" horiz-adv-x="225" 
d="M12 694h201v-63h-201v63zM12 612h201v-65h-201v65z" />
    <glyph glyph-name="greater" unicode="&#x3e;" horiz-adv-x="198" 
d="M10 512v78l96 28l-96 31v80l178 -72v-73z" />
    <glyph glyph-name="question" unicode="?" horiz-adv-x="256" 
d="M162 174h-86v391q0 59 3.5 86t16.5 74l27 98q14 47 14 131v461q0 19 -12 19q-10 0 -10 -19v-512h-103v506q0 119 109 119h10q61 0 87 -28.5t26 -90.5v-416q0 -66 -5 -102.5t-22 -89.5l-29 -96q-13 -41 -18.5 -68.5t-6.5 -43.5t-1 -58v-361zM168 158v-158h-98v158h98z" />
    <glyph glyph-name="at" unicode="@" horiz-adv-x="407" 
d="M197 -113q-81 0 -134 61.5t-53 182.5v926q0 117 52.5 181.5t144.5 64.5t141 -59.5t49 -170.5v-846q0 -168 -102 -168q-60 0 -76 50q-26 -50 -67 -50q-29 0 -45.5 24.5t-16.5 66.5l6 884q0 70 58 70q39 0 65 -43v41h100l-10 -965q0 -22 8 -22q21 0 21 112v844
q0 180 -131 180q-137 0 -137 -196v-924q0 -97 37 -144.5t90 -47.5q57 0 95.5 37t53.5 81l43 -26q-16 -52 -65 -98t-127 -46zM211 154l6 856q0 16 -10 16t-10 -16l-7 -856q0 -17 11 -17q10 0 10 17z" />
    <glyph glyph-name="A" unicode="A" horiz-adv-x="249" 
d="M133 463l-12 782l-17 -782h29zM141 0l-6 360h-33l-8 -360h-92l51 1524h144l51 -1524h-107z" />
    <glyph glyph-name="B" unicode="B" horiz-adv-x="264" 
d="M12 0v1524h164q72 0 72 -82v-561q0 -55 -41 -66q45 -16 45 -76v-643q0 -96 -80 -96h-160zM129 758h-8v-662h8q14 0 14 17v624q0 21 -14 21zM129 1430h-8v-580h8q14 0 14 16v547q0 17 -14 17z" />
    <glyph glyph-name="C" unicode="C" horiz-adv-x="262" 
d="M133 96q10 0 10 19v618h107v-618q0 -56 -26.5 -87.5t-80.5 -31.5h-16q-61 0 -88 30t-27 89v1298q0 115 115 115h16q107 0 107 -115v-565h-107v563q0 19 -10 19q-12 0 -12 -19v-1296q0 -19 12 -19z" />
    <glyph glyph-name="D" unicode="D" horiz-adv-x="264" 
d="M12 0v1524h154q86 0 86 -94v-1332q0 -46 -21 -72t-61 -26h-158zM121 1430v-1334h8q14 0 14 23v1290q0 21 -14 21h-8z" />
    <glyph glyph-name="E" unicode="E" horiz-adv-x="198" 
d="M12 1524h176v-103h-67v-559h63v-106h-63v-652h69v-104h-178v1524z" />
    <glyph glyph-name="F" unicode="F" horiz-adv-x="196" 
d="M12 0v1524h176v-103h-67v-559h63v-106h-63v-756h-109z" />
    <glyph glyph-name="G" unicode="G" horiz-adv-x="262" 
d="M90 -4h-2q-36 0 -56 29t-20 73v1323q0 107 113 107h12q111 0 111 -107v-497h-107v487q0 19 -10 19t-10 -19v-1296q0 -19 12 -19q14 0 14 19v676h-16v90h119v-881h-74q-4 32 -12 57q-32 -61 -74 -61z" />
    <glyph glyph-name="H" unicode="H" horiz-adv-x="264" 
d="M12 0v1524h109v-666h22v666h109v-1524h-109v741h-22v-741h-109z" />
    <glyph glyph-name="I" unicode="I" horiz-adv-x="133" 
d="M121 1524v-1524h-109v1524h109z" />
    <glyph glyph-name="J" unicode="J" horiz-adv-x="251" 
d="M135 -4h-29q-96 0 -96 98v529h101v-514q0 -15 10 -15q8 0 8 15v1415h111v-1430q0 -44 -26 -71t-79 -27z" />
    <glyph glyph-name="K" unicode="K" horiz-adv-x="272" 
d="M121 0h-109v1524h109l-4 -701l35 701h106l-49 -719l61 -805h-116l-37 743z" />
    <glyph glyph-name="L" unicode="L" horiz-adv-x="194" 
d="M12 1524h109v-1420h65v-104h-174v1524z" />
    <glyph glyph-name="M" unicode="M" horiz-adv-x="313" 
d="M12 0v1524h121l25 -830l22 830h121v-1524h-92v946l-33 -946h-41l-35 946v-946h-88z" />
    <glyph glyph-name="N" unicode="N" horiz-adv-x="266" 
d="M12 1524h119l41 -959l-4 959h86v-1524h-109l-51 1077l2 -1077h-84v1524z" />
    <glyph glyph-name="O" unicode="O" horiz-adv-x="268" 
d="M256 1401v-1278q0 -127 -115 -127h-12q-117 0 -117 127v1278q0 127 117 127h12q115 0 115 -127zM145 115v1296q0 19 -10 19q-12 0 -12 -19v-1296q0 -19 12 -19q10 0 10 19z" />
    <glyph glyph-name="P" unicode="P" horiz-adv-x="260" 
d="M172 696h-51v-696h-109v1524h158q78 0 78 -84v-660q0 -40 -21 -62t-55 -22zM121 1430v-635h8q14 0 14 18v598q0 19 -14 19h-8z" />
    <glyph glyph-name="Q" unicode="Q" horiz-adv-x="270" 
d="M98 -193v191q-86 18 -86 125v1278q0 127 117 127h12q115 0 115 -127v-1278q0 -103 -74 -121l39 -195h-123zM145 115v1296q0 19 -10 19q-12 0 -12 -19v-1296q0 -19 12 -19q10 0 10 19z" />
    <glyph glyph-name="R" unicode="R" horiz-adv-x="264" 
d="M121 745v-745h-109v1524h170q32 0 50 -21.5t18 -58.5v-565q0 -53 -39 -68q15 -6 28 -23t13 -43v-716q0 -11 4 -27v-2h-106q-7 7 -7 27v704q0 14 -14 14h-8zM121 1430v-580h8q14 0 14 16v547q0 17 -12 17h-10z" />
    <glyph glyph-name="S" unicode="S" horiz-adv-x="264" 
d="M143 -4h-22q-109 0 -109 108v588h109v-581q0 -19 10 -19q12 0 12 19v538q0 23 -3.5 34t-14.5 30l-70 92q-24 34 -32.5 66t-8.5 81v461q0 58 25 86.5t84 28.5h22q58 0 81.5 -27t23.5 -80v-516h-105v514q0 15 -10 15q-12 0 -12 -15v-475q0 -23 3 -32.5t15 -28.5l70 -95
q27 -34 34 -63t7 -84v-528q0 -117 -109 -117z" />
    <glyph glyph-name="T" unicode="T" horiz-adv-x="221" 
d="M57 0v1421h-49v103h205v-103h-49v-1421h-107z" />
    <glyph glyph-name="U" unicode="U" horiz-adv-x="264" 
d="M139 -4h-14q-59 0 -86 28.5t-27 75.5v1424h109v-1411q0 -17 10 -17q12 0 12 17v1411h109v-1424q0 -46 -28 -75t-85 -29z" />
    <glyph glyph-name="V" unicode="V" horiz-adv-x="272" 
d="M63 0l-59 1524h117l20 -1268l21 1268h106l-57 -1524h-148z" />
    <glyph glyph-name="W" unicode="W" horiz-adv-x="401" 
d="M186 0h-133l-49 1524h115l8 -1196l25 1196h104l25 -1196l8 1196h108l-51 -1524h-125l-16 1071z" />
    <glyph glyph-name="X" unicode="X" horiz-adv-x="260" 
d="M113 0h-109l39 786l-35 738h113l12 -672l17 672h102l-37 -738l41 -786h-109l-20 705z" />
    <glyph glyph-name="Y" unicode="Y" horiz-adv-x="245" 
d="M70 0v649l-68 875h109l16 -670l20 670h97l-66 -875v-649h-108z" />
    <glyph glyph-name="Z" unicode="Z" horiz-adv-x="219" 
d="M12 1524h195v-92l-90 -1332h94v-100h-203v92l88 1331h-84v101z" />
    <glyph glyph-name="bracketleft" unicode="[" horiz-adv-x="133" 
d="M12 -158v1770h115v-74h-31v-1622h31v-74h-115z" />
    <glyph glyph-name="backslash" unicode="\" horiz-adv-x="161" 
d="M86 -158l-78 1770h72l78 -1770h-72z" />
    <glyph glyph-name="bracketright" unicode="]" horiz-adv-x="133" 
d="M6 -158v74h31v1622h-31v74h115v-1770h-115z" />
    <glyph glyph-name="asciicircum" unicode="^" horiz-adv-x="172" 
d="M96 856l-10 557l-10 -557h-72l29 668h106l29 -668h-72z" />
    <glyph glyph-name="underscore" unicode="_" horiz-adv-x="241" 
d="M4 -117v82h234v-82h-234z" />
    <glyph glyph-name="grave" unicode="`" horiz-adv-x="200" 
d="M129 1270l35 -154h-92l-37 154h94z" />
    <glyph glyph-name="a" unicode="a" horiz-adv-x="251" 
d="M133 96v508q-13 -11 -16.5 -17.5t-3.5 -19.5v-471q0 -14 10 -14t10 14zM133 53q-21 -57 -67 -57h-3q-27 0 -40 19t-13 46v494q0 35 8 52t33 34q39 24 74 39q8 3 8 16v318q0 14 -10 14t-10 -14v-326h-101v330q0 90 105 90h10q54 0 81.5 -19.5t27.5 -70.5v-918q0 -4 4 -4h8
v-96h-86q-15 0 -22 11.5t-7 41.5z" />
    <glyph glyph-name="b" unicode="b" 
d="M10 1524h107v-469q29 51 71 51h2q26 0 40 -20t14 -52v-962q0 -32 -17 -54t-45 -22h-2q-53 0 -74 59l-6 -55h-90v1524zM127 82q10 0 10 14v914q0 14 -10 14t-10 -14v-914q0 -14 10 -14z" />
    <glyph glyph-name="c" unicode="c" horiz-adv-x="247" 
d="M137 -6h-24q-45 0 -74 24t-29 72v922q0 45 25.5 70.5t77.5 25.5h30q47 0 71 -25t24 -65v-395h-101v389q0 14 -10 14t-10 -14v-920q0 -14 10 -14t10 14v432h101v-436q0 -44 -28 -69t-73 -25z" />
    <glyph glyph-name="d" unicode="d" 
d="M127 82q10 0 10 14v916q0 14 -10 14t-10 -14v-916q0 -14 10 -14zM137 1524h107v-1524h-107v49q-24 -53 -65 -53h-2q-28 0 -44 23t-16 59v954q0 32 16.5 53t41.5 21h4q40 0 65 -45v463z" />
    <glyph glyph-name="e" unicode="e" horiz-adv-x="247" 
d="M115 1014v-379h20v379q0 14 -10 14t-10 -14zM238 520v-430q0 -46 -28.5 -71t-74.5 -25h-20q-49 0 -77 24.5t-28 73.5v916q0 100 105 100h20q45 0 74 -23.5t29 -74.5v-451h-123v-467q0 -14 10 -14t10 14v428h103z" />
    <glyph glyph-name="f" unicode="f" horiz-adv-x="182" 
d="M176 1524v-99h-20q-11 0 -11 -12v-311h31v-98h-31v-1004h-106v1004h-33v98h33v362q0 28 15.5 44t41.5 16h80z" />
    <glyph glyph-name="g" unicode="g" 
d="M127 82q10 0 10 12v916q0 14 -10 14t-10 -14v-916q0 -12 10 -12zM139 -305h-26q-99 0 -99 88v199h103v-189q0 -14 10 -14t10 14v254q-26 -51 -69 -51q-26 0 -42 19t-16 53v962q0 33 15 54.5t41 21.5h4q38 0 67 -47v43h107v-1317q0 -40 -25.5 -65t-79.5 -25z" />
    <glyph glyph-name="h" unicode="h" 
d="M10 0v1524h107v-465q29 47 69 47h4q54 0 54 -62v-1044h-107v1010q0 14 -10 14t-10 -14v-1010h-107z" />
    <glyph glyph-name="i" unicode="i" horiz-adv-x="126" 
d="M117 1270v-154h-107v154h107zM117 1102v-1102h-107v1102h107z" />
    <glyph glyph-name="j" unicode="j" horiz-adv-x="126" 
d="M117 1270v-154h-107v154h107zM-20 -201h20q10 0 10 11v1292h107v-1348q0 -53 -47 -53h-90v98z" />
    <glyph glyph-name="k" unicode="k" horiz-adv-x="260" 
d="M117 0h-107v1524h107v-422l-2 -451l30 451h105l-43 -473l51 -629h-111l-32 553z" />
    <glyph glyph-name="l" unicode="l" horiz-adv-x="126" 
d="M117 1524v-1524h-107v1524h107z" />
    <glyph glyph-name="m" unicode="m" horiz-adv-x="376" 
d="M117 0h-107v1102h105v-45q27 49 69 49h4q40 0 52 -45q35 45 69 45h4q27 0 40.5 -18t13.5 -44v-1044h-107v1010q0 14 -8 14q-10 0 -10 -14v-1010h-107v1010q0 14 -8 14q-10 0 -10 -14v-1010z" />
    <glyph glyph-name="n" unicode="n" 
d="M10 0v1102h105v-45q27 49 71 49h4q54 0 54 -62v-1044h-107v1010q0 14 -10 14t-10 -14v-1010h-107z" />
    <glyph glyph-name="o" unicode="o" 
d="M133 -6h-12q-111 0 -111 110v893q0 111 111 111h14q109 0 109 -111v-893q0 -110 -111 -110zM127 78q10 0 10 14v920q0 14 -10 14t-10 -14v-920q0 -14 10 -14z" />
    <glyph glyph-name="p" unicode="p" 
d="M127 82q10 0 10 14v914q0 14 -10 14t-10 -14v-914q0 -14 10 -14zM10 1102h105v-49q30 53 69 53h2q58 0 58 -78v-954q0 -32 -15 -55t-43 -23h-2q-49 0 -67 51v-346h-107v1401z" />
    <glyph glyph-name="q" unicode="q" horiz-adv-x="251" 
d="M160 1102h82v-1401h-105v348q-27 -53 -67 -53h-2q-28 0 -43 24t-15 62v934q0 39 16.5 64.5t49.5 25.5h6q18 0 32.5 -9t21.5 -18.5t16 -25.5zM127 82q10 0 10 14v916q0 14 -10 14t-10 -14v-916q0 -14 10 -14z" />
    <glyph glyph-name="r" unicode="r" horiz-adv-x="239" 
d="M117 1008v-1008h-107v1102h105v-47q25 51 65 51h4q45 0 45 -53v-396h-94v351q0 12 -8 12q-10 0 -10 -12z" />
    <glyph glyph-name="s" unicode="s" horiz-adv-x="233" 
d="M127 -6h-27q-90 0 -90 92v408h92v-404q0 -12 11 -12q10 0 10 12v365q0 24 -3.5 33.5t-21.5 33.5l-43 56q-28 35 -35.5 60t-7.5 75v305q0 90 97 90h22q90 0 90 -88v-344h-90v338q0 14 -10 14t-10 -14v-301q0 -28 3 -37t17 -29l43 -55q32 -44 40.5 -68t8.5 -71v-367
q0 -44 -25.5 -68t-70.5 -24z" />
    <glyph glyph-name="t" unicode="t" horiz-adv-x="182" 
d="M176 0h-100q-37 0 -37 43v961h-33v98h33v336h106v-336h31v-98h-31v-893q0 -13 11 -13h20v-98z" />
    <glyph glyph-name="u" unicode="u" 
d="M244 1102v-1102h-103v45q-30 -49 -73 -49h-5q-27 0 -40 17.5t-13 43.5v1045h107v-1008q0 -14 10 -14t10 14v1008h107z" />
    <glyph glyph-name="v" unicode="v" horiz-adv-x="243" 
d="M51 0l-49 1102h111l12 -930l10 930h107l-52 -1102h-139z" />
    <glyph glyph-name="w" unicode="w" horiz-adv-x="370" 
d="M174 0h-123l-49 1102h111l6 -858l16 858h101l20 -869l4 869h109l-52 -1102h-118l-15 827z" />
    <glyph glyph-name="x" unicode="x" horiz-adv-x="235" 
d="M102 0h-100l39 584l-39 518h102l13 -455l12 455h104l-40 -516l40 -586h-104l-12 524z" />
    <glyph glyph-name="y" unicode="y" horiz-adv-x="235" 
d="M37 -299v92h29q8 0 8 10q0 5 1 36.5t1 49.5q0 45 -2 76l-72 1137h104l17 -811l8 811h102l-71 -1356q-3 -45 -47 -45h-78z" />
    <glyph glyph-name="z" unicode="z" horiz-adv-x="194" 
d="M8 1102h178v-78l-80 -930h82v-94h-182v80l78 930h-76v92z" />
    <glyph glyph-name="braceleft" unicode="{" horiz-adv-x="141" 
d="M135 -158h-45q-70 0 -70 64q0 12 8.5 378t8.5 384q0 22 -17 22h-12v76h12q17 0 17 22q0 21 -8.5 379t-8.5 377q0 68 70 68h45v-74h-16q-19 0 -19 -22q0 -8 8.5 -361.5t8.5 -368.5q0 -45 -37 -57q37 -12 37 -51q0 -18 -8.5 -373.5t-8.5 -365.5q0 -23 19 -23h16v-74z" />
    <glyph glyph-name="bar" unicode="|" horiz-adv-x="141" 
d="M106 1612v-1770h-71v1770h71z" />
    <glyph glyph-name="braceright" unicode="}" horiz-adv-x="141" 
d="M6 -158v74h17q18 0 18 23q0 10 -8 365.5t-8 373.5q0 39 36 51q-36 12 -36 57q0 15 8 368.5t8 361.5q0 22 -18 22h-17v74h45q70 0 70 -68q0 -19 -8.5 -377t-8.5 -379q0 -22 17 -22h12v-76h-12q-17 0 -17 -22q0 -18 8.5 -384t8.5 -378q0 -64 -70 -64h-45z" />
    <glyph glyph-name="asciitilde" unicode="~" horiz-adv-x="229" 
d="M168 559q-22 0 -55 19q-17 10 -21 10q-6 0 -6 -8v-27h-76v57q0 70 51 70q24 0 56 -18q18 -11 20 -11q6 0 6 8v27h76v-57q0 -70 -51 -70z" />
    <glyph glyph-name="nbspace" unicode="&#xa0;" horiz-adv-x="81" 
 />
    <glyph glyph-name="exclamdown" unicode="&#xa1;" horiz-adv-x="129" 
d="M113 -422h-105q0 59 23 1350h59q23 -1291 23 -1350zM10 944v158h101v-158h-101z" />
    <glyph glyph-name="cent" unicode="&#xa2;" horiz-adv-x="247" 
d="M135 -55h-16v49h-6q-45 0 -74 24t-29 72v920q0 98 101 98h8v43h16v-43h6q97 0 97 -92v-393h-88v378q0 27 -15 27v-952q15 3 15 26v422h88v-436q0 -44 -28 -69t-73 -25h-2v-49zM104 1001v-899q0 -26 15 -26v950q-15 -3 -15 -25z" />
    <glyph glyph-name="sterling" unicode="&#xa3;" horiz-adv-x="276" 
d="M264 653v-653h-258v90q27 0 35 20t8 93v4q0 29 -12 483h-31v84h29q-6 516 -6 561v72q0 121 114 121h4q113 0 113 -107v-608h-100v606q0 15 -13 15q-10 0 -10 -15q0 -45 1 -274t1 -371h72v-84h-72q2 -188 2 -434q0 -58 -6.5 -95t-13 -48.5t-17.5 -22.5h60v563h100z" />
    <glyph glyph-name="yen" unicode="&#xa5;" horiz-adv-x="245" 
d="M70 0v612h-52v72h52v14h-52v72h45l-61 754h109l12 -469l4 -203l6 203l14 469h97l-60 -754h47v-72h-51v-14h51v-72h-51v-612h-110z" />
    <glyph glyph-name="brokenbar" unicode="&#xa6;" horiz-adv-x="141" 
d="M106 1612v-885h-71v885h71zM106 713v-871h-71v871h71z" />
    <glyph glyph-name="section" unicode="&#xa7;" horiz-adv-x="315" 
d="M166 -305h-27q-90 0 -90 92v434h92v-430q0 -6 4 -10q2 -2 7 -2q10 0 10 12v367q0 38 -15 96l-131 471q-15 52 -12 94t31 70q23 23 55 31l-16 61q-21 83 -21 143v314q0 90 97 90h22q90 0 90 -88v-371h-90v365q0 14 -10 14t-10 -14v-308q0 -40 16 -102l129 -475
q32 -122 -16 -170q-19 -19 -56 -31l17 -59q20 -79 20 -131v-371q0 -44 -25.5 -68t-70.5 -24zM109 770l96 -350l6 4q12 12 -6 74l-96 354l-9 -6q-11 -11 9 -76z" />
    <glyph glyph-name="dieresis" unicode="&#xa8;" horiz-adv-x="200" 
d="M190 1233v-117h-81v117h81zM92 1233v-117h-82v117h82z" />
    <glyph glyph-name="copyright" unicode="&#xa9;" horiz-adv-x="348" 
d="M178 -4h-6q-72 0 -116 37.5t-44 113.5v1229q0 73 45 112.5t117 39.5h4q72 0 115 -38t43 -114v-1229q0 -74 -45.5 -112.5t-112.5 -38.5zM63 1364v-1206q0 -121 111 -121h4q109 0 109 121v1206q0 123 -109 123h-4q-55 0 -83 -29.5t-28 -93.5zM166 1374v-1218q0 -17 12 -17
q10 0 10 17v614h78v-618q0 -41 -21 -66t-63 -25h-10q-88 0 -88 91v1218q0 92 88 92h10q84 0 84 -84v-506h-78v502q0 15 -10 15q-12 0 -12 -15z" />
    <glyph glyph-name="ordfeminine" unicode="&#xaa;" horiz-adv-x="161" 
d="M88 924q-15 -35 -41 -35h-2q-35 0 -35 43v268q0 22 4.5 31.5t20.5 19.5l45 23q8 3 8 12v180q0 11 -8 11t-8 -11v-186h-60v190q0 58 64 58h8q66 0 66 -58v-516q0 -6 4 -6h6v-57h-54q-18 0 -18 33zM72 1202v-246q0 -12 8 -12t8 12v271q-16 -10 -16 -25z" />
    <glyph glyph-name="guillemotleft" unicode="&#xab;" horiz-adv-x="225" 
d="M184 557l29 -252h-76l-33 252l35 244h78zM88 557l33 -252h-76l-35 234v39l35 223h78z" />
    <glyph glyph-name="registered" unicode="&#xae;" horiz-adv-x="208" 
d="M111 915h-13q-39 0 -62.5 22t-23.5 64v443q0 84 86 84h15q84 0 84 -82v-445q0 -40 -24 -63t-62 -23zM41 1444v-443q0 -61 57 -61h13q59 0 59 61v445q0 57 -57 57h-15q-31 0 -44 -12.5t-13 -46.5zM98 1438v-187h8q7 0 7 6v173q0 8 -7 8h-8zM98 1210v-243h-41v512h62
q23 0 30 -7.5t7 -31.5v-183q0 -16 -15 -22q15 -6 15 -21v-235v-8q0 -2 2 -2v-2h-41q-2 0 -2 2q-2 2 -2 8v225q0 8 -7 8h-8z" />
    <glyph glyph-name="macron" unicode="&#xaf;" horiz-adv-x="200" 
d="M20 1126v86h162v-86h-162z" />
    <glyph glyph-name="degree" unicode="&#xb0;" horiz-adv-x="212" 
d="M8 1436q0 42 26 67t72 25q47 0 73 -25t26 -67t-26.5 -67.5t-72.5 -25.5t-72 25.5t-26 67.5zM70 1436q0 -37 36 -37q37 0 37 37t-37 37q-36 0 -36 -37z" />
    <glyph glyph-name="acute" unicode="&#xb4;" horiz-adv-x="200" 
d="M37 1116l35 154h94l-37 -154h-92z" />
    <glyph glyph-name="paragraph" unicode="&#xb6;" horiz-adv-x="274" 
d="M98 0v758h-4q-35 0 -58.5 22.5t-23.5 67.5v582q0 43 20.5 68.5t61.5 25.5h174v-76h-20v-1448h-66v1448h-18v-1448h-66z" />
    <glyph glyph-name="periodcentered" unicode="&#xb7;" horiz-adv-x="120" 
d="M111 723v-158h-101v158h101z" />
    <glyph glyph-name="cedilla" unicode="&#xb8;" horiz-adv-x="200" 
d="M37 -164v64h39q14 0 14 10t-14 10h-31v80h53v-25q68 0 68 -65q0 -74 -72 -74h-57z" />
    <glyph glyph-name="ordmasculine" unicode="&#xba;" horiz-adv-x="163" 
d="M86 881h-8q-68 0 -68 63v520q0 64 68 64h8q68 0 68 -64v-520q0 -63 -68 -63zM82 936q8 0 8 12v512q0 13 -8 13t-8 -13v-512q0 -12 8 -12z" />
    <glyph glyph-name="guillemotright" unicode="&#xbb;" horiz-adv-x="225" 
d="M12 305l29 252l-33 244h78l35 -244l-33 -252h-76zM104 305l33 252l-35 244h78l35 -223v-39l-35 -234h-76z" />
    <glyph glyph-name="onequarter" unicode="&#xbc;" horiz-adv-x="319" 
d="M37 1427h-31v70q34 0 37 27h74v-703h-80v606zM213 1524h66l-185 -1524h-65zM147 121v63l54 521h90v-512h22v-72h-22v-121h-76v121h-68zM195 193h20l2 366z" />
    <glyph glyph-name="onehalf" unicode="&#xbd;" horiz-adv-x="372" 
d="M213 1524h66l-185 -1524h-65zM37 1427h-31v70q34 0 37 27h74v-703h-80v606zM360 0h-178v121q0 47 6.5 84.5t14 60t35.5 99.5q29 77 35 105t6 81v74q0 14 -11 14q-8 0 -8 -14v-158h-76v160q0 80 80 80h8q50 0 69 -20.5t19 -59.5v-74q0 -61 -9 -94t-44 -123
q-34 -84 -42.5 -118.5t-8.5 -90.5v-64h27v181h77v-244z" />
    <glyph glyph-name="threequarters" unicode="&#xbe;" horiz-adv-x="387" 
d="M281 1524h65l-184 -1524h-66zM86 1264h-74v192q0 72 78 72h10q46 0 65 -17.5t19 -54.5v-211q0 -30 -26 -41q32 -14 32 -49v-260q0 -78 -88 -78h-10q-45 0 -63.5 20t-18.5 58v235h78v-229q0 -14 10 -14q8 0 8 14v254q0 8 -8 8h-39v70h39q6 0 6 8v207q0 14 -8 14
q-10 0 -10 -14v-184zM215 121v63l53 521h90v-512h23v-72h-23v-121h-75v121h-68zM262 193h21l2 366z" />
    <glyph glyph-name="questiondown" unicode="&#xbf;" horiz-adv-x="256" 
d="M90 928h86v-391q0 -59 -3.5 -86t-16.5 -74l-27 -98q-14 -47 -14 -132v-460q0 -19 12 -19q10 0 10 19v512h103v-506q0 -119 -109 -119h-10q-61 0 -87 28.5t-26 90.5v416q0 66 5 102.5t22 89.5l28 96q19 59 23 87t4 83v361zM84 944v158h98v-158h-98z" />
    <glyph glyph-name="Agrave" unicode="&#xc0;" horiz-adv-x="249" 
d="M133 463l-12 782l-17 -782h29zM141 0l-6 360h-33l-8 -360h-92l51 1524h144l51 -1524h-107zM131 1661l45 -123h-96l-49 123h100z" />
    <glyph glyph-name="Aacute" unicode="&#xc1;" horiz-adv-x="249" 
d="M133 463l-12 782l-17 -782h29zM141 0l-6 360h-33l-8 -360h-92l51 1524h144l51 -1524h-107zM76 1538l45 123h100l-49 -123h-96z" />
    <glyph glyph-name="Acircumflex" unicode="&#xc2;" horiz-adv-x="249" 
d="M133 463l-12 782l-17 -782h29zM141 0l-6 360h-33l-8 -360h-92l51 1524h144l51 -1524h-107zM176 1661l49 -123h-84l-16 57l-16 -57h-84l49 123h102z" />
    <glyph glyph-name="Atilde" unicode="&#xc3;" horiz-adv-x="249" 
d="M133 463l-12 782l-17 -782h29zM141 0l-6 360h-33l-8 -360h-92l51 1524h144l51 -1524h-107zM92 1538h-63v47q0 60 47 60q10 0 49 -17q24 -12 27 -12q6 0 6 8v23h63v-48q0 -59 -43 -59q-16 0 -53 16q-26 13 -27 13q-6 0 -6 -8v-23z" />
    <glyph glyph-name="Adieresis" unicode="&#xc4;" horiz-adv-x="249" 
d="M133 463l-12 782l-17 -782h29zM141 0l-6 360h-33l-8 -360h-92l51 1524h144l51 -1524h-107zM117 1653v-115h-84v115h84zM217 1653v-115h-84v115h84z" />
    <glyph glyph-name="Aring" unicode="&#xc5;" horiz-adv-x="249" 
d="M133 463l-12 782l-17 -782h29zM141 0l-6 360h-33l-8 -360h-92l51 1524h144l51 -1524h-107zM47 1612q0 34 22.5 55t55.5 21t55.5 -21t22.5 -55t-22.5 -55t-55.5 -21t-55.5 21t-22.5 55zM125 1642q-29 0 -29 -30q0 -31 29 -31t29 31q0 30 -29 30z" />
    <glyph glyph-name="AE" unicode="&#xc6;" horiz-adv-x="335" 
d="M150 377v921l-31 -921h31zM150 0v274h-35l-9 -274h-104l72 1524h252v-103h-68v-559h64v-106h-64v-652h70v-104h-178z" />
    <glyph glyph-name="Ccedilla" unicode="&#xc7;" horiz-adv-x="262" 
d="M78 -164v64h39q14 0 14 10t-14 10h-31v80q-34 6 -49 27q-25 31 -25 88v1298q0 115 115 115h16q107 0 107 -115v-565h-107v563q0 19 -10 19q-12 0 -12 -19v-1296q0 -19 12 -19q10 0 10 19v618h107v-618q0 -56 -26.5 -87.5t-80.5 -31.5h-4v-21q68 0 68 -65q0 -74 -72 -74
h-57z" />
    <glyph glyph-name="Egrave" unicode="&#xc8;" horiz-adv-x="198" 
d="M12 1524h176v-103h-67v-559h63v-106h-63v-652h69v-104h-178v1524zM104 1661l46 -123h-97l-49 123h100z" />
    <glyph glyph-name="Eacute" unicode="&#xc9;" horiz-adv-x="198" 
d="M12 1524h176v-103h-67v-559h63v-106h-63v-652h69v-104h-178v1524zM55 1538l45 123h101l-49 -123h-97z" />
    <glyph glyph-name="Ecircumflex" unicode="&#xca;" horiz-adv-x="198" 
d="M12 1524h176v-103h-67v-559h63v-106h-63v-652h69v-104h-178v1524zM152 1661l49 -123h-84l-17 57l-16 -57h-84l49 123h103z" />
    <glyph glyph-name="Edieresis" unicode="&#xcb;" horiz-adv-x="198" 
d="M12 1524h176v-103h-67v-559h63v-106h-63v-652h69v-104h-178v1524zM92 1653v-115h-84v115h84zM193 1653v-115h-84v115h84z" />
    <glyph glyph-name="Igrave" unicode="&#xcc;" horiz-adv-x="133" 
d="M121 1524v-1524h-109v1524h109zM70 1661l45 -123h-97l-49 123h101z" />
    <glyph glyph-name="Iacute" unicode="&#xcd;" horiz-adv-x="133" 
d="M121 1524v-1524h-109v1524h109zM18 1538l45 123h101l-49 -123h-97z" />
    <glyph glyph-name="Icircumflex" unicode="&#xce;" horiz-adv-x="133" 
d="M121 1524v-1524h-109v1524h109zM117 1661l49 -123h-84l-16 57l-17 -57h-84l49 123h103z" />
    <glyph glyph-name="Idieresis" unicode="&#xcf;" horiz-adv-x="133" 
d="M121 1524v-1524h-109v1524h109zM57 1653v-115h-84v115h84zM158 1653v-115h-84v115h84z" />
    <glyph glyph-name="Eth" unicode="&#xd0;" horiz-adv-x="266" 
d="M14 0v725h-12v96h12v703h154q86 0 86 -94v-1332q0 -46 -21 -72t-61 -26h-158zM123 1430v-609h12v-96h-12v-629h8q14 0 14 23v1290q0 21 -14 21h-8z" />
    <glyph glyph-name="Ntilde" unicode="&#xd1;" horiz-adv-x="266" 
d="M12 1524h119l41 -959l-4 959h86v-1524h-109l-51 1077l2 -1077h-84v1524zM104 1538h-63v47q0 60 47 60q10 0 49 -17q24 -12 27 -12q6 0 6 8v23h63v-48q0 -59 -43 -59q-16 0 -53 16l-26 13q-7 0 -7 -8v-23z" />
    <glyph glyph-name="Ograve" unicode="&#xd2;" horiz-adv-x="268" 
d="M256 1401v-1278q0 -127 -115 -127h-12q-117 0 -117 127v1278q0 127 117 127h12q115 0 115 -127zM145 115v1296q0 19 -10 19q-12 0 -12 -19v-1296q0 -19 12 -19q10 0 10 19zM137 1661l45 -123h-96l-49 123h100z" />
    <glyph glyph-name="Oacute" unicode="&#xd3;" horiz-adv-x="268" 
d="M256 1401v-1278q0 -127 -115 -127h-12q-117 0 -117 127v1278q0 127 117 127h12q115 0 115 -127zM145 115v1296q0 19 -10 19q-12 0 -12 -19v-1296q0 -19 12 -19q10 0 10 19zM88 1538l45 123h100l-49 -123h-96z" />
    <glyph glyph-name="Ocircumflex" unicode="&#xd4;" horiz-adv-x="268" 
d="M256 1401v-1278q0 -127 -115 -127h-12q-117 0 -117 127v1278q0 127 117 127h12q115 0 115 -127zM145 115v1296q0 19 -10 19q-12 0 -12 -19v-1296q0 -19 12 -19q10 0 10 19zM186 1661l50 -123h-84l-17 57l-16 -57h-84l49 123h102z" />
    <glyph glyph-name="Otilde" unicode="&#xd5;" horiz-adv-x="268" 
d="M256 1401v-1278q0 -127 -115 -127h-12q-117 0 -117 127v1278q0 127 117 127h12q115 0 115 -127zM145 115v1296q0 19 -10 19q-12 0 -12 -19v-1296q0 -19 12 -19q10 0 10 19zM102 1540h-63v47q0 60 47 60q10 0 49 -17q24 -12 27 -12q6 0 6 8v23h63v-47q0 -60 -43 -60
q-8 0 -15 1.5t-11 3t-12.5 6t-14.5 6.5q-24 12 -26 12q-7 0 -7 -8v-23z" />
    <glyph glyph-name="Odieresis" unicode="&#xd6;" horiz-adv-x="268" 
d="M256 1401v-1278q0 -127 -115 -127h-12q-117 0 -117 127v1278q0 127 117 127h12q115 0 115 -127zM145 115v1296q0 19 -10 19q-12 0 -12 -19v-1296q0 -19 12 -19q10 0 10 19zM127 1653v-115h-84v115h84zM227 1653v-115h-84v115h84z" />
    <glyph glyph-name="multiply" unicode="&#xd7;" horiz-adv-x="210" 
d="M158 520l-52 53l-53 -53l-49 49l51 54l-51 51l49 51l53 -53l52 53l49 -51l-51 -51l51 -54z" />
    <glyph glyph-name="Oslash" unicode="&#xd8;" horiz-adv-x="274" 
d="M262 1411v-1296q0 -52 -31 -85.5t-86 -33.5h-8q-39 0 -61 16l-4 -30h-43l8 59q-25 29 -25 80v1290q0 50 30 83.5t87 33.5h8q32 0 53 -15l7 29h45l-11 -51q31 -40 31 -80zM137 96q15 0 15 21v219l16 770l-45 -879v-110q0 -21 14 -21zM123 1409v-225l-17 -750l46 905v70
q0 21 -15 21q-14 0 -14 -21z" />
    <glyph glyph-name="Ugrave" unicode="&#xd9;" horiz-adv-x="264" 
d="M139 -4h-14q-59 0 -86 28.5t-27 75.5v1424h109v-1411q0 -17 10 -17q12 0 12 17v1411h109v-1424q0 -46 -28 -75t-85 -29zM137 1661l45 -123h-96l-49 123h100z" />
    <glyph glyph-name="Uacute" unicode="&#xda;" horiz-adv-x="264" 
d="M139 -4h-14q-59 0 -86 28.5t-27 75.5v1424h109v-1411q0 -17 10 -17q12 0 12 17v1411h109v-1424q0 -46 -28 -75t-85 -29zM84 1538l45 123h100l-49 -123h-96z" />
    <glyph glyph-name="Ucircumflex" unicode="&#xdb;" horiz-adv-x="264" 
d="M139 -4h-14q-59 0 -86 28.5t-27 75.5v1424h109v-1411q0 -17 10 -17q12 0 12 17v1411h109v-1424q0 -46 -28 -75t-85 -29zM182 1661l49 -123h-84l-16 57l-16 -57h-84l49 123h102z" />
    <glyph glyph-name="Udieresis" unicode="&#xdc;" horiz-adv-x="264" 
d="M139 -4h-14q-59 0 -86 28.5t-27 75.5v1424h109v-1411q0 -17 10 -17q12 0 12 17v1411h109v-1424q0 -46 -28 -75t-85 -29zM123 1653v-115h-84v115h84zM223 1653v-115h-84v115h84z" />
    <glyph glyph-name="Yacute" unicode="&#xdd;" horiz-adv-x="245" 
d="M70 0v649l-68 875h109l16 -670l20 670h97l-66 -875v-649h-108zM82 1538l45 123h100l-49 -123h-96z" />
    <glyph glyph-name="Thorn" unicode="&#xde;" horiz-adv-x="266" 
d="M178 334h-57v-334h-109v1524h109v-277h59q74 0 74 -86v-745q0 -82 -76 -82zM121 1153v-723h10q14 0 14 16v691q0 16 -14 16h-10z" />
    <glyph glyph-name="germandbls" unicode="&#xdf;" 
d="M117 1430v-1430h-107v1434q0 41 25.5 67.5t77.5 26.5h30q51 0 75 -22t24 -56v-408q0 -24 -14 -40.5t-29 -22.5q45 -12 45 -66v-839q0 -33 -18 -53.5t-48 -20.5h-51v84h4q6 0 6 8v815q0 11 -6 11h-4v83h4q6 0 6 9v420q0 14 -10 14t-10 -14z" />
    <glyph glyph-name="agrave" unicode="&#xe0;" horiz-adv-x="251" 
d="M133 96v508q-13 -11 -16.5 -17.5t-3.5 -19.5v-471q0 -14 10 -14t10 14zM133 53q-21 -57 -67 -57h-3q-27 0 -40 19t-13 46v494q0 35 8 52t33 34q39 24 74 39q8 3 8 16v318q0 14 -10 14t-10 -14v-326h-101v330q0 90 105 90h10q54 0 81.5 -19.5t27.5 -70.5v-918q0 -4 4 -4h8
v-96h-86q-15 0 -22 11.5t-7 41.5zM133 1270l35 -154h-92l-37 154h94z" />
    <glyph glyph-name="aacute" unicode="&#xe1;" horiz-adv-x="251" 
d="M133 96v508q-13 -11 -16.5 -17.5t-3.5 -19.5v-471q0 -14 10 -14t10 14zM133 53q-21 -57 -67 -57h-3q-27 0 -40 19t-13 46v494q0 35 8 52t33 34q39 24 74 39q8 3 8 16v318q0 14 -10 14t-10 -14v-326h-101v330q0 90 105 90h10q54 0 81.5 -19.5t27.5 -70.5v-918q0 -4 4 -4h8
v-96h-86q-15 0 -22 11.5t-7 41.5zM78 1116l35 154h94l-37 -154h-92z" />
    <glyph glyph-name="acircumflex" unicode="&#xe2;" horiz-adv-x="251" 
d="M133 96v508q-13 -11 -16.5 -17.5t-3.5 -19.5v-471q0 -14 10 -14t10 14zM133 53q-21 -57 -67 -57h-3q-27 0 -40 19t-13 46v494q0 35 8 52t33 34q39 24 74 39q8 3 8 16v318q0 14 -10 14t-10 -14v-326h-101v330q0 90 105 90h10q54 0 81.5 -19.5t27.5 -70.5v-918q0 -4 4 -4h8
v-96h-86q-15 0 -22 11.5t-7 41.5zM170 1270l41 -154h-76l-12 86l-12 -86h-78l43 154h94z" />
    <glyph glyph-name="atilde" unicode="&#xe3;" horiz-adv-x="251" 
d="M133 96v508q-13 -11 -16.5 -17.5t-3.5 -19.5v-471q0 -14 10 -14t10 14zM133 53q-21 -57 -67 -57h-3q-27 0 -40 19t-13 46v494q0 35 8 52t33 34q39 24 74 39q8 3 8 16v318q0 14 -10 14t-10 -14v-326h-101v330q0 90 105 90h10q54 0 81.5 -19.5t27.5 -70.5v-918q0 -4 4 -4h8
v-96h-86q-15 0 -22 11.5t-7 41.5zM94 1118h-63v58q0 61 45 61q23 0 51 -20q18 -11 20 -11q5 0 5 8v25h63v-57q0 -62 -45 -62q-8 0 -15.5 2t-11 4t-11.5 7.5t-11 7.5q-17 12 -23 12q-4 0 -4 -8v-27z" />
    <glyph glyph-name="adieresis" unicode="&#xe4;" horiz-adv-x="251" 
d="M133 96v508q-13 -11 -16.5 -17.5t-3.5 -19.5v-471q0 -14 10 -14t10 14zM133 53q-21 -57 -67 -57h-3q-27 0 -40 19t-13 46v494q0 35 8 52t33 34q39 24 74 39q8 3 8 16v318q0 14 -10 14t-10 -14v-326h-101v330q0 90 105 90h10q54 0 81.5 -19.5t27.5 -70.5v-918q0 -4 4 -4h8
v-96h-86q-15 0 -22 11.5t-7 41.5zM213 1233v-117h-82v117h82zM115 1233v-117h-82v117h82z" />
    <glyph glyph-name="aring" unicode="&#xe5;" horiz-adv-x="251" 
d="M133 96v508q-13 -11 -16.5 -17.5t-3.5 -19.5v-471q0 -14 10 -14t10 14zM133 53q-21 -57 -67 -57h-3q-27 0 -40 19t-13 46v494q0 35 8 52t33 34q39 24 74 39q8 3 8 16v318q0 14 -10 14t-10 -14v-326h-101v330q0 90 105 90h10q54 0 81.5 -19.5t27.5 -70.5v-918q0 -4 4 -4h8
v-96h-86q-15 0 -22 11.5t-7 41.5zM201 1192q0 -34 -22.5 -55t-55.5 -21t-55.5 21t-22.5 55t22.5 55t55.5 21t55.5 -21t22.5 -55zM94 1192q0 -31 29 -31t29 31t-29 31t-29 -31z" />
    <glyph glyph-name="ae" unicode="&#xe6;" horiz-adv-x="370" 
d="M238 1014v-371h20v371q0 14 -10 14t-10 -14zM133 96v477q-13 -11 -16.5 -17t-3.5 -19v-441q0 -14 10 -14t10 14zM360 528v-438q0 -46 -28 -71t-74 -25h-20q-77 0 -95 57q-11 -17 -17 -25.5t-22 -19t-36 -10.5h-2q-27 0 -41.5 19.5t-14.5 45.5v463q0 35 8 52t33 34
q39 24 74 39q8 3 8 17v348q0 14 -10 14t-10 -14v-357h-101v361q0 90 97 90h10q48 0 69 -21q21 21 62 21h16q40 0 67 -24t27 -74v-443h-122v-475q0 -14 10 -14t10 14v436h102z" />
    <glyph glyph-name="ccedilla" unicode="&#xe7;" horiz-adv-x="247" 
d="M63 -164v64h39q15 0 15 10t-15 10h-30v80q-13 5 -31 16q-31 22 -31 74v922q0 45 25.5 70.5t77.5 25.5h30q47 0 71 -25t24 -65v-395h-101v389q0 14 -10 14t-10 -14v-920q0 -14 10 -14t10 14v432h101v-436q0 -44 -28 -69t-73 -25h-12v-19q68 0 68 -65q0 -74 -72 -74h-58z
" />
    <glyph glyph-name="egrave" unicode="&#xe8;" horiz-adv-x="247" 
d="M115 1014v-379h20v379q0 14 -10 14t-10 -14zM238 520v-430q0 -46 -28.5 -71t-74.5 -25h-20q-49 0 -77 24.5t-28 73.5v916q0 100 105 100h20q45 0 74 -23.5t29 -74.5v-451h-123v-467q0 -14 10 -14t10 14v428h103zM137 1270l35 -154h-92l-37 154h94z" />
    <glyph glyph-name="eacute" unicode="&#xe9;" horiz-adv-x="247" 
d="M115 1014v-379h20v379q0 14 -10 14t-10 -14zM238 520v-430q0 -46 -28.5 -71t-74.5 -25h-20q-49 0 -77 24.5t-28 73.5v916q0 100 105 100h20q45 0 74 -23.5t29 -74.5v-451h-123v-467q0 -14 10 -14t10 14v428h103zM80 1116l35 154h94l-37 -154h-92z" />
    <glyph glyph-name="ecircumflex" unicode="&#xea;" horiz-adv-x="247" 
d="M115 1014v-379h20v379q0 14 -10 14t-10 -14zM238 520v-430q0 -46 -28.5 -71t-74.5 -25h-20q-49 0 -77 24.5t-28 73.5v916q0 100 105 100h20q45 0 74 -23.5t29 -74.5v-451h-123v-467q0 -14 10 -14t10 14v428h103zM172 1270l41 -154h-76l-12 86l-12 -86h-78l43 154h94z" />
    <glyph glyph-name="edieresis" unicode="&#xeb;" horiz-adv-x="247" 
d="M115 1014v-379h20v379q0 14 -10 14t-10 -14zM238 520v-430q0 -46 -28.5 -71t-74.5 -25h-20q-49 0 -77 24.5t-28 73.5v916q0 100 105 100h20q45 0 74 -23.5t29 -74.5v-451h-123v-467q0 -14 10 -14t10 14v428h103zM215 1233v-117h-82v117h82zM117 1233v-117h-82v117h82z
" />
    <glyph glyph-name="igrave" unicode="&#xec;" horiz-adv-x="126" 
d="M117 1102v-1102h-107v1102h107zM74 1270l35 -154h-93l-36 154h94z" />
    <glyph glyph-name="iacute" unicode="&#xed;" horiz-adv-x="126" 
d="M117 1102v-1102h-107v1102h107zM18 1116l35 154h94l-36 -154h-93z" />
    <glyph glyph-name="icircumflex" unicode="&#xee;" horiz-adv-x="126" 
d="M113 1270l24 -154h-63l-11 88l-10 -88h-63l28 154h95zM117 1102v-1102h-107v1102h107z" />
    <glyph glyph-name="idieresis" unicode="&#xef;" horiz-adv-x="126" 
d="M137 1233v-117h-67v117h67zM57 1233v-117h-67v117h67zM117 1102v-1102h-107v1102h107z" />
    <glyph glyph-name="eth" unicode="&#xf0;" 
d="M127 -8q-65 0 -91 25.5t-26 82.5v914q0 92 60 92q41 0 67 -37l-35 170l-69 -82v92l53 66l-43 209h104l23 -109l57 70v-94l-41 -50l37 -172q21 -95 21 -163v-906q0 -108 -117 -108zM127 78q10 0 10 14v918q0 14 -10 14t-10 -14v-918q0 -14 10 -14z" />
    <glyph glyph-name="ntilde" unicode="&#xf1;" 
d="M10 0v1102h105v-45q27 49 71 49h4q54 0 54 -62v-1044h-107v1010q0 14 -10 14t-10 -14v-1010h-107zM100 1116h-63v58q0 61 45 61q22 0 51 -21q17 -10 21 -10t4 8v25h63v-57q0 -62 -45 -62q-8 0 -15.5 2t-11 4t-11.5 7.5t-11 7.5q-17 12 -23 12q-4 0 -4 -8v-27z" />
    <glyph glyph-name="ograve" unicode="&#xf2;" 
d="M133 -6h-12q-111 0 -111 110v893q0 111 111 111h14q109 0 109 -111v-893q0 -110 -111 -110zM127 78q10 0 10 14v920q0 14 -10 14t-10 -14v-920q0 -14 10 -14zM137 1270l35 -154h-92l-37 154h94z" />
    <glyph glyph-name="oacute" unicode="&#xf3;" 
d="M133 -6h-12q-111 0 -111 110v893q0 111 111 111h14q109 0 109 -111v-893q0 -110 -111 -110zM127 78q10 0 10 14v920q0 14 -10 14t-10 -14v-920q0 -14 10 -14zM82 1116l35 154h94l-37 -154h-92z" />
    <glyph glyph-name="ocircumflex" unicode="&#xf4;" 
d="M133 -6h-12q-111 0 -111 110v893q0 111 111 111h14q109 0 109 -111v-893q0 -110 -111 -110zM127 78q10 0 10 14v920q0 14 -10 14t-10 -14v-920q0 -14 10 -14zM176 1270l41 -154h-76l-12 86l-12 -86h-78l43 154h94z" />
    <glyph glyph-name="otilde" unicode="&#xf5;" 
d="M133 -6h-12q-111 0 -111 110v893q0 111 111 111h14q109 0 109 -111v-893q0 -110 -111 -110zM127 78q10 0 10 14v920q0 14 -10 14t-10 -14v-920q0 -14 10 -14zM98 1118h-63v58q0 61 45 61q23 0 51 -20q18 -11 21 -11q4 0 4 8v25h63v-57q0 -62 -45 -62q-8 0 -15.5 2t-11 4
t-11.5 7.5t-11 7.5q-17 12 -23 12q-4 0 -4 -8v-27z" />
    <glyph glyph-name="odieresis" unicode="&#xf6;" 
d="M133 -6h-12q-111 0 -111 110v893q0 111 111 111h14q109 0 109 -111v-893q0 -110 -111 -110zM127 78q10 0 10 14v920q0 14 -10 14t-10 -14v-920q0 -14 10 -14zM217 1233v-117h-82v117h82zM119 1233v-117h-82v117h82z" />
    <glyph glyph-name="divide" unicode="&#xf7;" horiz-adv-x="229" 
d="M156 752v-80h-80v80h80zM10 657h209v-73h-209v73zM156 569v-80h-80v80h80z" />
    <glyph glyph-name="oslash" unicode="&#xf8;" 
d="M115 844l-17 -541l41 600v107q0 16 -12 16t-12 -16v-166zM127 78q12 0 12 16v133l15 531l-39 -559v-105q0 -16 12 -16zM74 -16h-39l6 41q-31 36 -31 88v876q0 119 113 119h4q33 0 51 -12l4 22h39l-10 -41q33 -26 33 -88v-876q0 -56 -29 -86.5t-84 -30.5h-4q-26 0 -49 10z
" />
    <glyph glyph-name="ugrave" unicode="&#xf9;" 
d="M244 1102v-1102h-103v45q-30 -49 -73 -49h-5q-27 0 -40 17.5t-13 43.5v1045h107v-1008q0 -14 10 -14t10 14v1008h107zM139 1270l35 -154h-92l-37 154h94z" />
    <glyph glyph-name="uacute" unicode="&#xfa;" 
d="M244 1102v-1102h-103v45q-30 -49 -73 -49h-5q-27 0 -40 17.5t-13 43.5v1045h107v-1008q0 -14 10 -14t10 14v1008h107zM82 1116l35 154h94l-37 -154h-92z" />
    <glyph glyph-name="ucircumflex" unicode="&#xfb;" 
d="M244 1102v-1102h-103v45q-30 -49 -73 -49h-5q-27 0 -40 17.5t-13 43.5v1045h107v-1008q0 -14 10 -14t10 14v1008h107zM174 1270l41 -154h-76l-12 86l-12 -86h-78l43 154h94z" />
    <glyph glyph-name="udieresis" unicode="&#xfc;" 
d="M244 1102v-1102h-103v45q-30 -49 -73 -49h-5q-27 0 -40 17.5t-13 43.5v1045h107v-1008q0 -14 10 -14t10 14v1008h107zM217 1233v-117h-82v117h82zM119 1233v-117h-82v117h82z" />
    <glyph glyph-name="yacute" unicode="&#xfd;" horiz-adv-x="235" 
d="M37 -299v92h29q8 0 8 10q0 5 1 36.5t1 49.5q0 45 -2 76l-72 1137h104l17 -811l8 811h102l-71 -1356q-3 -45 -47 -45h-78zM72 1116l34 154h95l-37 -154h-92z" />
    <glyph glyph-name="thorn" unicode="&#xfe;" 
d="M127 82q10 0 10 14v914q0 14 -10 14t-10 -14v-914q0 -14 10 -14zM10 1524h107v-469q9 20 26.5 35.5t40.5 15.5h2q58 0 58 -78v-954q0 -32 -15 -55t-43 -23h-2q-49 0 -67 51v-346h-107v1823z" />
    <glyph glyph-name="ydieresis" unicode="&#xff;" horiz-adv-x="235" 
d="M37 -299v92h29q8 0 8 10q0 5 1 36.5t1 49.5q0 45 -2 76l-72 1137h104l17 -811l8 811h102l-71 -1356q-3 -45 -47 -45h-78zM209 1233v-117h-82v117h82zM111 1233v-117h-82v117h82z" />
    <glyph glyph-name="Amacron" unicode="&#x100;" horiz-adv-x="249" 
d="M133 463l-12 782l-17 -782h29zM141 0l-6 360h-33l-8 -360h-92l51 1524h144l51 -1524h-107zM45 1542v86h162v-86h-162z" />
    <glyph glyph-name="amacron" unicode="&#x101;" horiz-adv-x="251" 
d="M133 96v508q-13 -11 -16.5 -17.5t-3.5 -19.5v-471q0 -14 10 -14t10 14zM133 53q-21 -57 -67 -57h-3q-27 0 -40 19t-13 46v494q0 35 8 52t33 34q39 24 74 39q8 3 8 16v318q0 14 -10 14t-10 -14v-326h-101v330q0 90 105 90h10q54 0 81.5 -19.5t27.5 -70.5v-918q0 -4 4 -4h8
v-96h-86q-15 0 -22 11.5t-7 41.5zM41 1126v86h162v-86h-162z" />
    <glyph glyph-name="Abreve" unicode="&#x102;" horiz-adv-x="249" 
d="M133 463l-12 782l-17 -782h29zM141 0l-6 360h-33l-8 -360h-92l51 1524h144l51 -1524h-107zM127 1536h-2q-46 0 -70 25.5t-24 68.5v15h80v-15q0 -22 14 -22t14 22v15h80v-15q0 -42 -25 -68t-67 -26z" />
    <glyph glyph-name="abreve" unicode="&#x103;" horiz-adv-x="251" 
d="M133 96v508q-13 -11 -16.5 -17.5t-3.5 -19.5v-471q0 -14 10 -14t10 14zM133 53q-21 -57 -67 -57h-3q-27 0 -40 19t-13 46v494q0 35 8 52t33 34q39 24 74 39q8 3 8 16v318q0 14 -10 14t-10 -14v-326h-101v330q0 90 105 90h10q54 0 81.5 -19.5t27.5 -70.5v-918q0 -4 4 -4h8
v-96h-86q-15 0 -22 11.5t-7 41.5zM123 1116h-2q-94 0 -94 94v21h79v-17q0 -26 15 -26q14 0 14 26v17h80v-21q0 -43 -23 -68.5t-69 -25.5z" />
    <glyph glyph-name="Aogonek" unicode="&#x104;" horiz-adv-x="249" 
d="M133 463l-12 782l-17 -782h29zM141 0l-6 360h-33l-8 -360h-92l51 1524h144l51 -1524h-107zM248 -299h-2q-111 0 -111 100v2q0 79 72 197h41q-27 -105 -27 -164v-2q0 -49 27 -53v-80z" />
    <glyph glyph-name="aogonek" unicode="&#x105;" horiz-adv-x="251" 
d="M133 96v508q-13 -11 -16.5 -17.5t-3.5 -19.5v-471q0 -14 10 -14t10 14zM133 53q-21 -57 -67 -57h-3q-27 0 -40 19t-13 46v494q0 35 8 52t33 34q39 24 74 39q8 3 8 16v318q0 14 -10 14t-10 -14v-326h-101v330q0 90 105 90h10q54 0 81.5 -19.5t27.5 -70.5v-918q0 -4 4 -4h8
v-96h-86q-15 0 -22 11.5t-7 41.5zM248 -299h-2q-111 0 -111 100v2q0 79 72 197h41q-27 -105 -27 -164v-2q0 -49 27 -53v-80z" />
    <glyph glyph-name="Cacute" unicode="&#x106;" horiz-adv-x="262" 
d="M88 1540l45 121h100l-49 -121h-96zM133 96q10 0 10 19v618h107v-618q0 -56 -26.5 -87.5t-80.5 -31.5h-16q-61 0 -88 30t-27 89v1298q0 115 115 115h16q107 0 107 -115v-565h-107v563q0 19 -10 19q-12 0 -12 -19v-1296q0 -19 12 -19z" />
    <glyph glyph-name="cacute" unicode="&#x107;" horiz-adv-x="247" 
d="M80 1118l35 152h94l-37 -152h-92zM137 -6h-24q-45 0 -74 24t-29 72v922q0 45 25.5 70.5t77.5 25.5h30q47 0 71 -25t24 -65v-395h-101v389q0 14 -10 14t-10 -14v-920q0 -14 10 -14t10 14v432h101v-436q0 -44 -28 -69t-73 -25z" />
    <glyph glyph-name="Ccircumflex" unicode="&#x108;" horiz-adv-x="262" 
d="M184 1661l49 -121h-83l-17 55l-16 -55h-84l49 121h102zM133 96q10 0 10 19v618h107v-618q0 -56 -26.5 -87.5t-80.5 -31.5h-16q-61 0 -88 30t-27 89v1298q0 115 115 115h16q107 0 107 -115v-565h-107v563q0 19 -10 19q-12 0 -12 -19v-1296q0 -19 12 -19z" />
    <glyph glyph-name="ccircumflex" unicode="&#x109;" horiz-adv-x="247" 
d="M174 1270l41 -152h-76l-12 84l-12 -84h-78l43 152h94zM137 -6h-24q-45 0 -74 24t-29 72v922q0 45 25.5 70.5t77.5 25.5h30q47 0 71 -25t24 -65v-395h-101v389q0 14 -10 14t-10 -14v-920q0 -14 10 -14t10 14v432h101v-436q0 -44 -28 -69t-73 -25z" />
    <glyph glyph-name="Cdotaccent" unicode="&#x10a;" horiz-adv-x="262" 
d="M186 1661v-121h-106v121h106zM133 96q10 0 10 19v618h107v-618q0 -56 -26.5 -87.5t-80.5 -31.5h-16q-61 0 -88 30t-27 89v1298q0 115 115 115h16q107 0 107 -115v-565h-107v563q0 19 -10 19q-12 0 -12 -19v-1296q0 -19 12 -19z" />
    <glyph glyph-name="cdotaccent" unicode="&#x10b;" horiz-adv-x="247" 
d="M178 1270v-152h-106v152h106zM137 -6h-24q-45 0 -74 24t-29 72v922q0 45 25.5 70.5t77.5 25.5h30q47 0 71 -25t24 -65v-395h-101v389q0 14 -10 14t-10 -14v-920q0 -14 10 -14t10 14v432h101v-436q0 -44 -28 -69t-73 -25z" />
    <glyph glyph-name="Ccaron" unicode="&#x10c;" horiz-adv-x="262" 
d="M84 1540l-49 121h84l16 -57l17 57h81l-47 -121h-102zM133 96q10 0 10 19v618h107v-618q0 -56 -26.5 -87.5t-80.5 -31.5h-16q-61 0 -88 30t-27 89v1298q0 115 115 115h16q107 0 107 -115v-565h-107v563q0 19 -10 19q-12 0 -12 -19v-1296q0 -19 12 -19z" />
    <glyph glyph-name="ccaron" unicode="&#x10d;" horiz-adv-x="247" 
d="M80 1118l-43 152h78l12 -86l12 86h76l-41 -152h-94zM137 -6h-24q-45 0 -74 24t-29 72v922q0 45 25.5 70.5t77.5 25.5h30q47 0 71 -25t24 -65v-395h-101v389q0 14 -10 14t-10 -14v-920q0 -14 10 -14t10 14v432h101v-436q0 -44 -28 -69t-73 -25z" />
    <glyph glyph-name="Dcaron" unicode="&#x10e;" horiz-adv-x="264" 
d="M12 0v1524h154q86 0 86 -94v-1332q0 -46 -21 -72t-61 -26h-158zM121 1430v-1334h8q14 0 14 23v1290q0 21 -14 21h-8zM72 1538l-49 123h83l17 -57l16 57h82l-47 -123h-102z" />
    <glyph glyph-name="dcaron" unicode="&#x10f;" 
d="M127 82q10 0 10 14v916q0 14 -10 14t-10 -14v-916q0 -14 10 -14zM137 1524h107v-1524h-107v49q-24 -53 -65 -53h-2q-28 0 -44 23t-16 59v954q0 32 16.5 53t41.5 21h4q40 0 65 -45v463zM254 1372l4 152h84l-10 -152h-78z" />
    <glyph glyph-name="Dcroat" unicode="&#x110;" horiz-adv-x="266" 
d="M14 0v725h-12v96h12v703h154q86 0 86 -94v-1332q0 -46 -21 -72t-61 -26h-158zM123 1430v-609h12v-96h-12v-629h8q14 0 14 23v1290q0 21 -14 21h-8z" />
    <glyph glyph-name="dcroat" unicode="&#x111;" 
d="M72 1255v91h194v-91h-194zM127 82q10 0 10 14v916q0 14 -10 14t-10 -14v-916q0 -14 10 -14zM137 1524h107v-1524h-107v49q-24 -53 -65 -53h-2q-28 0 -44 23t-16 59v954q0 32 16.5 53t41.5 21h4q40 0 65 -45v463z" />
    <glyph glyph-name="Emacron" unicode="&#x112;" horiz-adv-x="198" 
d="M12 1524h176v-103h-67v-559h63v-106h-63v-652h69v-104h-178v1524zM20 1542v86h162v-86h-162z" />
    <glyph glyph-name="emacron" unicode="&#x113;" horiz-adv-x="247" 
d="M115 1014v-379h20v379q0 14 -10 14t-10 -14zM238 520v-430q0 -46 -28.5 -71t-74.5 -25h-20q-49 0 -77 24.5t-28 73.5v916q0 100 105 100h20q45 0 74 -23.5t29 -74.5v-451h-123v-467q0 -14 10 -14t10 14v428h103zM45 1128v86h162v-86h-162z" />
    <glyph glyph-name="Ebreve" unicode="&#x114;" horiz-adv-x="198" 
d="M12 1524h176v-103h-67v-559h63v-106h-63v-652h69v-104h-178v1524zM102 1536h-2q-46 0 -70 25.5t-24 68.5v15h80v-15q0 -22 14 -22q15 0 15 22v15h80v-15q0 -42 -25.5 -68t-67.5 -26z" />
    <glyph glyph-name="ebreve" unicode="&#x115;" horiz-adv-x="247" 
d="M115 1014v-379h20v379q0 14 -10 14t-10 -14zM238 520v-430q0 -46 -28.5 -71t-74.5 -25h-20q-49 0 -77 24.5t-28 73.5v916q0 100 105 100h20q45 0 74 -23.5t29 -74.5v-451h-123v-467q0 -14 10 -14t10 14v428h103zM127 1116h-2q-94 0 -94 94v21h80v-17q0 -26 14 -26t14 26
v17h80v-21q0 -43 -23 -68.5t-69 -25.5z" />
    <glyph glyph-name="Edotaccent" unicode="&#x116;" horiz-adv-x="198" 
d="M12 1524h176v-103h-67v-559h63v-106h-63v-652h69v-104h-178v1524zM154 1661v-123h-107v123h107z" />
    <glyph glyph-name="edotaccent" unicode="&#x117;" horiz-adv-x="247" 
d="M178 1270v-152h-106v152h106zM115 1014v-379h20v379q0 14 -10 14t-10 -14zM238 520v-430q0 -46 -28.5 -71t-74.5 -25h-20q-49 0 -77 24.5t-28 73.5v916q0 100 105 100h20q45 0 74 -23.5t29 -74.5v-451h-123v-467q0 -14 10 -14t10 14v428h103z" />
    <glyph glyph-name="Eogonek" unicode="&#x118;" horiz-adv-x="198" 
d="M166 -299h-6q-111 0 -111 100v2q0 79 72 197h41q-27 -105 -27 -164v-2q0 -49 31 -53v-80zM12 1524h176v-103h-67v-559h63v-106h-63v-652h69v-104h-178v1524z" />
    <glyph glyph-name="eogonek" unicode="&#x119;" horiz-adv-x="247" 
d="M115 1014v-379h20v379q0 14 -10 14t-10 -14zM217 -219v-80h-6q-111 0 -111 100v2q0 89 74 197q-18 -6 -39 -6h-20q-49 0 -77 24.5t-28 73.5v916q0 100 105 100h20q45 0 74 -23.5t29 -74.5v-451h-123v-467q0 -14 10 -14t10 14v428h103v-430q0 -12 -3 -27.5t-5 -24
t-9.5 -32t-9.5 -31.5q-25 -77 -25 -139v-2q0 -49 31 -53z" />
    <glyph glyph-name="Ecaron" unicode="&#x11a;" horiz-adv-x="198" 
d="M12 1524h176v-103h-67v-559h63v-106h-63v-652h69v-104h-178v1524zM51 1538l-49 123h84l16 -57l17 57h82l-47 -123h-103z" />
    <glyph glyph-name="ecaron" unicode="&#x11b;" horiz-adv-x="247" 
d="M78 1118l-43 152h78l12 -86l12 86h76l-41 -152h-94zM115 1014v-379h20v379q0 14 -10 14t-10 -14zM238 520v-430q0 -46 -28.5 -71t-74.5 -25h-20q-49 0 -77 24.5t-28 73.5v916q0 100 105 100h20q45 0 74 -23.5t29 -74.5v-451h-123v-467q0 -14 10 -14t10 14v428h103z" />
    <glyph glyph-name="Gcircumflex" unicode="&#x11c;" horiz-adv-x="262" 
d="M182 1661l49 -121h-84l-16 55l-16 -55h-84l49 121h102zM90 -4h-2q-36 0 -56 29t-20 73v1323q0 107 113 107h12q111 0 111 -107v-497h-107v487q0 19 -10 19t-10 -19v-1296q0 -19 12 -19q14 0 14 19v676h-16v90h119v-881h-74q-4 32 -12 57q-32 -61 -74 -61z" />
    <glyph glyph-name="gcircumflex" unicode="&#x11d;" 
d="M127 82q10 0 10 12v916q0 14 -10 14t-10 -14v-916q0 -12 10 -12zM139 -305h-26q-99 0 -99 88v199h103v-189q0 -14 10 -14t10 14v254q-26 -51 -69 -51q-26 0 -42 19t-16 53v962q0 33 15 54.5t41 21.5h4q38 0 67 -47v43h107v-1317q0 -40 -25.5 -65t-79.5 -25zM170 1270
l41 -154h-76l-12 86l-12 -86h-78l43 154h94z" />
    <glyph glyph-name="Gbreve" unicode="&#x11e;" horiz-adv-x="262" 
d="M90 -4h-2q-36 0 -56 29t-20 73v1323q0 107 113 107h12q111 0 111 -107v-497h-107v487q0 19 -10 19t-10 -19v-1296q0 -19 12 -19q14 0 14 19v676h-16v90h119v-881h-74q-4 32 -12 57q-32 -61 -74 -61zM133 1538h-2q-46 0 -70 25.5t-24 68.5v15h80v-15q0 -22 14 -22t14 22
v15h80v-15q0 -42 -25 -68t-67 -26z" />
    <glyph glyph-name="gbreve" unicode="&#x11f;" 
d="M127 82q10 0 10 12v916q0 14 -10 14t-10 -14v-916q0 -12 10 -12zM139 -305h-26q-99 0 -99 88v199h103v-189q0 -14 10 -14t10 14v254q-26 -51 -69 -51q-26 0 -42 19t-16 53v962q0 33 15 54.5t41 21.5h4q38 0 67 -47v43h107v-1317q0 -40 -25.5 -65t-79.5 -25zM123 1114h-2
q-94 0 -94 94v21h79v-17q0 -26 15 -26q14 0 14 26v17h80v-21q0 -43 -23 -68.5t-69 -25.5z" />
    <glyph glyph-name="Gdotaccent" unicode="&#x120;" horiz-adv-x="262" 
d="M184 1661v-121h-106v121h106zM90 -4h-2q-36 0 -56 29t-20 73v1323q0 107 113 107h12q111 0 111 -107v-497h-107v487q0 19 -10 19t-10 -19v-1296q0 -19 12 -19q14 0 14 19v676h-16v90h119v-881h-74q-4 32 -12 57q-32 -61 -74 -61z" />
    <glyph glyph-name="gdotaccent" unicode="&#x121;" 
d="M127 82q10 0 10 12v916q0 14 -10 14t-10 -14v-916q0 -12 10 -12zM139 -305h-26q-99 0 -99 88v199h103v-189q0 -14 10 -14t10 14v254q-26 -51 -69 -51q-26 0 -42 19t-16 53v962q0 33 15 54.5t41 21.5h4q38 0 67 -47v43h107v-1317q0 -40 -25.5 -65t-79.5 -25zM176 1270
v-154h-106v154h106z" />
    <glyph glyph-name="uni0122" unicode="&#x122;" horiz-adv-x="262" 
d="M90 -4h-2q-36 0 -56 29t-20 73v1323q0 107 113 107h12q111 0 111 -107v-497h-107v487q0 19 -10 19t-10 -19v-1296q0 -19 12 -19q14 0 14 19v676h-16v90h119v-881h-74q-4 32 -12 57q-32 -61 -74 -61zM156 -213h-50q17 53 17 84h-35v115h88v-97q0 -52 -20 -102z" />
    <glyph glyph-name="uni0123" unicode="&#x123;" 
d="M127 82q10 0 10 12v916q0 14 -10 14t-10 -14v-916q0 -12 10 -12zM139 -305h-26q-99 0 -99 88v199h103v-189q0 -14 10 -14t10 14v254q-26 -51 -69 -51q-26 0 -42 19t-16 53v962q0 33 15 54.5t41 21.5h4q38 0 67 -47v43h107v-1317q0 -40 -25.5 -65t-79.5 -25zM98 1315h49
q-16 -50 -16 -84h35v-115h-88v96q0 53 20 103z" />
    <glyph glyph-name="Hcircumflex" unicode="&#x124;" horiz-adv-x="264" 
d="M12 0v1524h109v-666h22v666h109v-1524h-109v741h-22v-741h-109zM182 1661l49 -123h-84l-16 57l-16 -57h-84l49 123h102z" />
    <glyph glyph-name="hcircumflex" unicode="&#x125;" 
d="M10 0v1524h107v-465q29 47 69 47h4q54 0 54 -62v-1044h-107v1010q0 14 -10 14t-10 -14v-1010h-107zM172 1659l49 -123h-84l-16 57l-17 -57h-84l50 123h102z" />
    <glyph glyph-name="Hbar" unicode="&#x126;" horiz-adv-x="268" 
d="M4 1141v92h260v-92h-260zM14 0v1524h109v-666h22v666h109v-1524h-109v741h-22v-741h-109z" />
    <glyph glyph-name="hbar" unicode="&#x127;" 
d="M-12 1255v91h192v-91h-192zM10 0v1524h107v-465q29 47 69 47h4q54 0 54 -62v-1044h-107v1010q0 14 -10 14t-10 -14v-1010h-107z" />
    <glyph glyph-name="Itilde" unicode="&#x128;" horiz-adv-x="133" 
d="M121 1524v-1524h-109v1524h109zM33 1538h-64v47q0 60 47 60q11 0 50 -17q24 -12 26 -12q6 0 6 8v23h64v-48q0 -59 -43 -59q-16 0 -53 16q-26 13 -27 13q-6 0 -6 -8v-23z" />
    <glyph glyph-name="itilde" unicode="&#x129;" horiz-adv-x="126" 
d="M47 1116h-59v72q0 47 30 47q18 0 39 -18q4 -2 8 -5l6 -4.5t3 -1.5q6 0 6 11v20h59v-72q0 -47 -30 -47q-17 0 -39 19l-17 10q-6 0 -6 -10v-21zM117 1102v-1102h-107v1102h107z" />
    <glyph glyph-name="Imacron" unicode="&#x12a;" horiz-adv-x="133" 
d="M121 1524v-1524h-109v1524h109zM-14 1542v86h161v-86h-161z" />
    <glyph glyph-name="imacron" unicode="&#x12b;" horiz-adv-x="126" 
d="M-4 1126v86h135v-86h-135zM117 1102v-1102h-107v1102h107z" />
    <glyph glyph-name="Ibreve" unicode="&#x12c;" horiz-adv-x="133" 
d="M121 1524v-1524h-109v1524h109zM68 1536h-2q-46 0 -70.5 25.5t-24.5 68.5v15h80v-15q0 -22 15 -22q14 0 14 22v15h80v-15q0 -42 -25 -68t-67 -26z" />
    <glyph glyph-name="ibreve" unicode="&#x12d;" horiz-adv-x="126" 
d="M66 1114h-3q-73 0 -73 72v43h63v-25q0 -20 10 -20q11 0 11 20v25h63v-43q0 -28 -17 -50t-54 -22zM117 1102v-1102h-107v1102h107z" />
    <glyph glyph-name="Iogonek" unicode="&#x12e;" horiz-adv-x="133" 
d="M121 1524v-1524h-109v1524h109zM121 -299h-2q-111 0 -111 100v2q0 79 72 197h41q-27 -105 -27 -164v-2q0 -49 27 -53v-80z" />
    <glyph glyph-name="iogonek" unicode="&#x12f;" horiz-adv-x="126" 
d="M117 1270v-154h-107v154h107zM117 1102v-1102h-107v1102h107zM117 -299h-2q-111 0 -111 100v2q0 79 72 197h41q-27 -105 -27 -164v-2q0 -49 27 -53v-80z" />
    <glyph glyph-name="Idotaccent" unicode="&#x130;" horiz-adv-x="133" 
d="M121 1524v-1524h-109v1524h109zM119 1661v-123h-107v123h107z" />
    <glyph glyph-name="dotlessi" unicode="&#x131;" horiz-adv-x="126" 
d="M117 1102v-1102h-107v1102h107z" />
    <glyph glyph-name="IJ" unicode="&#x132;" horiz-adv-x="380" 
d="M121 1524v-1524h-109v1524h109zM264 -4h-28q-97 0 -97 98v529h101v-514q0 -15 10 -15q8 0 8 15v1415h111v-1430q0 -44 -26 -71t-79 -27z" />
    <glyph glyph-name="ij" unicode="&#x133;" horiz-adv-x="249" 
d="M117 1270v-154h-107v154h107zM117 1102v-1102h-107v1102h107zM240 1270v-154h-107v154h107zM102 -201h21q10 0 10 11v1292h107v-1348q0 -53 -47 -53h-91v98z" />
    <glyph glyph-name="Jcircumflex" unicode="&#x134;" horiz-adv-x="251" 
d="M135 -4h-29q-96 0 -96 98v529h101v-514q0 -15 10 -15q8 0 8 15v1415h111v-1430q0 -44 -26 -71t-79 -27zM236 1661l49 -123h-84l-17 57l-16 -57h-84l49 123h103z" />
    <glyph glyph-name="jcircumflex" unicode="&#x135;" horiz-adv-x="126" 
d="M111 1270l24 -154h-63l-11 88l-10 -88h-63l28 154h95zM-20 -201h20q10 0 10 11v1292h107v-1348q0 -53 -47 -53h-90v98z" />
    <glyph glyph-name="uni0136" unicode="&#x136;" horiz-adv-x="272" 
d="M121 0h-109v1524h109l-4 -701l35 701h106l-49 -719l61 -805h-116l-37 743zM164 -213h-49q16 50 16 84h-35v115h88v-97q0 -52 -20 -102z" />
    <glyph glyph-name="uni0137" unicode="&#x137;" horiz-adv-x="260" 
d="M117 0h-107v1524h107v-422l-2 -451l30 451h105l-43 -473l51 -629h-111l-32 553zM158 -213h-49q16 50 16 84h-35v115h88v-97q0 -52 -20 -102z" />
    <glyph glyph-name="Lacute" unicode="&#x139;" horiz-adv-x="194" 
d="M12 1524h109v-1420h65v-104h-174v1524zM20 1538l46 123h100l-49 -123h-97z" />
    <glyph glyph-name="lacute" unicode="&#x13a;" horiz-adv-x="126" 
d="M117 1524v-1524h-107v1524h107zM16 1536l45 123h101l-49 -123h-97z" />
    <glyph glyph-name="uni013B" unicode="&#x13b;" horiz-adv-x="194" 
d="M12 1524h109v-1420h65v-104h-174v1524zM123 -213h-49q16 50 16 84h-35v115h88v-97q0 -52 -20 -102z" />
    <glyph glyph-name="uni013C" unicode="&#x13c;" horiz-adv-x="126" 
d="M117 1524v-1524h-107v1524h107zM88 -213h-49q16 50 16 84h-35v115h89v-97q0 -49 -21 -102z" />
    <glyph glyph-name="Lcaron" unicode="&#x13d;" horiz-adv-x="194" 
d="M12 1524h109v-1420h65v-104h-174v1524zM131 1372l4 152h84l-10 -152h-78z" />
    <glyph glyph-name="lcaron" unicode="&#x13e;" horiz-adv-x="126" 
d="M117 1524v-1524h-107v1524h107zM127 1372l4 152h84l-10 -152h-78z" />
    <glyph glyph-name="Ldot" unicode="&#x13f;" horiz-adv-x="245" 
d="M238 846v-158h-101v158h101zM12 1524h109v-1420h65v-104h-174v1524z" />
    <glyph glyph-name="ldot" unicode="&#x140;" horiz-adv-x="239" 
d="M231 881v-158h-100v158h100zM117 1524v-1524h-107v1524h107z" />
    <glyph glyph-name="Lslash" unicode="&#x141;" horiz-adv-x="206" 
d="M25 1524h108v-609l49 84v-129l-49 -82v-684h66v-104h-174v606l-21 -35v123l21 35v795z" />
    <glyph glyph-name="lslash" unicode="&#x142;" horiz-adv-x="155" 
d="M131 950v-950h-106v774l-21 -33v119l21 33v631h106v-453l21 35v-121z" />
    <glyph glyph-name="Nacute" unicode="&#x143;" horiz-adv-x="266" 
d="M12 1524h119l41 -959l-4 959h86v-1524h-109l-51 1077l2 -1077h-84v1524zM88 1538l45 123h100l-49 -123h-96z" />
    <glyph glyph-name="nacute" unicode="&#x144;" 
d="M10 0v1102h105v-45q27 49 71 49h4q54 0 54 -62v-1044h-107v1010q0 14 -10 14t-10 -14v-1010h-107zM84 1116l35 154h94l-37 -154h-92z" />
    <glyph glyph-name="uni0145" unicode="&#x145;" horiz-adv-x="266" 
d="M12 1524h119l41 -959l-4 959h86v-1524h-109l-51 1077l2 -1077h-84v1524zM158 -213h-49q16 50 16 84h-35v115h88v-97q0 -52 -20 -102z" />
    <glyph glyph-name="uni0146" unicode="&#x146;" 
d="M10 0v1102h105v-45q27 49 71 49h4q54 0 54 -62v-1044h-107v1010q0 14 -10 14t-10 -14v-1010h-107zM152 -213h-50q17 53 17 84h-35v115h88v-97q0 -52 -20 -102z" />
    <glyph glyph-name="Ncaron" unicode="&#x147;" horiz-adv-x="266" 
d="M12 1524h119l41 -959l-4 959h86v-1524h-109l-51 1077l2 -1077h-84v1524zM84 1538l-49 123h84l16 -57l17 57h81l-47 -123h-102z" />
    <glyph glyph-name="ncaron" unicode="&#x148;" 
d="M10 0v1102h105v-45q27 49 71 49h4q54 0 54 -62v-1044h-107v1010q0 14 -10 14t-10 -14v-1010h-107zM80 1116l-43 154h78l12 -86l12 86h76l-41 -154h-94z" />
    <glyph glyph-name="napostrophe" unicode="&#x149;" horiz-adv-x="311" 
d="M68 0v1102h104v-45q27 49 72 49h4q53 0 53 -62v-1044h-106v1010q0 14 -11 14q-10 0 -10 -14v-1010h-106zM72 1288h-52q17 66 17 101h-35v135h88v-117q0 -63 -18 -119z" />
    <glyph glyph-name="Eng" unicode="&#x14a;" horiz-adv-x="266" 
d="M254 1524v-1770q0 -53 -47 -53h-98v98h24q10 0 10 11v190l-49 1077l2 -1077h-84v1524h119l41 -983l-4 983h86z" />
    <glyph glyph-name="eng" unicode="&#x14b;" 
d="M137 -190v1200q0 14 -10 14t-10 -14v-1010h-107v1102h105v-45q27 49 71 49h4q54 0 54 -62v-1290q0 -53 -47 -53h-91v98h21q10 0 10 11z" />
    <glyph glyph-name="Omacron" unicode="&#x14c;" horiz-adv-x="268" 
d="M256 1401v-1278q0 -127 -115 -127h-12q-117 0 -117 127v1278q0 127 117 127h12q115 0 115 -127zM145 115v1296q0 19 -10 19q-12 0 -12 -19v-1296q0 -19 12 -19q10 0 10 19zM55 1544v86h162v-86h-162z" />
    <glyph glyph-name="omacron" unicode="&#x14d;" 
d="M133 -6h-12q-111 0 -111 110v893q0 111 111 111h14q109 0 109 -111v-893q0 -110 -111 -110zM127 78q10 0 10 14v920q0 14 -10 14t-10 -14v-920q0 -14 10 -14zM47 1128v86h162v-86h-162z" />
    <glyph glyph-name="Obreve" unicode="&#x14e;" horiz-adv-x="268" 
d="M256 1401v-1278q0 -127 -115 -127h-12q-117 0 -117 127v1278q0 127 117 127h12q115 0 115 -127zM145 115v1296q0 19 -10 19q-12 0 -12 -19v-1296q0 -19 12 -19q10 0 10 19zM137 1538h-2q-46 0 -70 25.5t-24 68.5v15h80v-15q0 -22 14 -22q15 0 15 22v15h79v-15
q0 -42 -25 -68t-67 -26z" />
    <glyph glyph-name="obreve" unicode="&#x14f;" 
d="M133 -6h-12q-111 0 -111 110v893q0 111 111 111h14q109 0 109 -111v-893q0 -110 -111 -110zM127 78q10 0 10 14v920q0 14 -10 14t-10 -14v-920q0 -14 10 -14zM129 1116h-2q-94 0 -94 94v21h80v-17q0 -26 14 -26t14 26v17h80v-21q0 -43 -23 -68.5t-69 -25.5z" />
    <glyph glyph-name="Ohungarumlaut" unicode="&#x150;" horiz-adv-x="268" 
d="M147 1540l39 121h82l-39 -121h-82zM49 1540l39 121h82l-39 -121h-82zM256 1401v-1278q0 -127 -115 -127h-12q-117 0 -117 127v1278q0 127 117 127h12q115 0 115 -127zM145 115v1296q0 19 -10 19q-12 0 -12 -19v-1296q0 -19 12 -19q10 0 10 19z" />
    <glyph glyph-name="ohungarumlaut" unicode="&#x151;" 
d="M139 1118l33 152h78l-33 -152h-78zM45 1118l33 152h78l-33 -152h-78zM133 -6h-12q-111 0 -111 110v893q0 111 111 111h14q109 0 109 -111v-893q0 -110 -111 -110zM127 78q10 0 10 14v920q0 14 -10 14t-10 -14v-920q0 -14 10 -14z" />
    <glyph glyph-name="OE" unicode="&#x152;" horiz-adv-x="329" 
d="M145 115v1296q0 19 -10 19q-12 0 -12 -19v-1296q0 -19 12 -19q10 0 10 19zM152 0v37q-19 -43 -62 -43h-2q-76 0 -76 117v1304q0 50 19.5 81.5t58.5 31.5h2q38 0 60 -39v35h167v-103h-65v-559h59v-106h-59v-652h68v-104h-170z" />
    <glyph glyph-name="oe" unicode="&#x153;" horiz-adv-x="374" 
d="M242 1014v-379h20v379q0 14 -10 14t-10 -14zM127 78q10 0 10 14v920q0 14 -10 14t-10 -14v-920q0 -14 10 -14zM188 16q-22 -22 -67 -22h-10q-46 0 -73.5 28.5t-27.5 86.5v886q0 57 28.5 85t74.5 28h12q44 0 65 -21q21 21 60 21h16q45 0 72 -23.5t27 -74.5v-451h-123v-467
q0 -14 10 -14t10 14v428h103v-430q0 -44 -26.5 -70t-68.5 -26h-18q-42 0 -64 22z" />
    <glyph glyph-name="Racute" unicode="&#x154;" horiz-adv-x="264" 
d="M121 745v-745h-109v1524h170q32 0 50 -21.5t18 -58.5v-565q0 -53 -39 -68q15 -6 28 -23t13 -43v-716q0 -11 4 -27v-2h-106q-7 7 -7 27v704q0 14 -14 14h-8zM121 1430v-580h8q14 0 14 16v547q0 17 -12 17h-10zM76 1538l45 123h100l-49 -123h-96z" />
    <glyph glyph-name="racute" unicode="&#x155;" horiz-adv-x="239" 
d="M117 1008v-1008h-107v1102h105v-47q25 51 65 51h4q45 0 45 -53v-396h-94v351q0 12 -8 12q-10 0 -10 -12zM78 1116l35 154h94l-37 -154h-92z" />
    <glyph glyph-name="uni0156" unicode="&#x156;" horiz-adv-x="264" 
d="M121 745v-745h-109v1524h170q32 0 50 -21.5t18 -58.5v-565q0 -53 -39 -68q15 -6 28 -23t13 -43v-716q0 -11 4 -27v-2h-106q-7 7 -7 27v704q0 14 -14 14h-8zM121 1430v-580h8q14 0 14 16v547q0 17 -12 17h-10zM158 -213h-49q16 50 16 84h-35v115h88v-97q0 -52 -20 -102z
" />
    <glyph glyph-name="uni0157" unicode="&#x157;" horiz-adv-x="239" 
d="M117 1008v-1008h-107v1102h105v-47q25 51 65 51h4q45 0 45 -53v-396h-94v351q0 12 -8 12q-10 0 -10 -12zM86 -213h-49q16 50 16 84h-35v115h88v-97q0 -52 -20 -102z" />
    <glyph glyph-name="Rcaron" unicode="&#x158;" horiz-adv-x="264" 
d="M121 745v-745h-109v1524h170q32 0 50 -21.5t18 -58.5v-565q0 -53 -39 -68q15 -6 28 -23t13 -43v-716q0 -11 4 -27v-2h-106q-7 7 -7 27v704q0 14 -14 14h-8zM121 1430v-580h8q14 0 14 16v547q0 17 -12 17h-10zM74 1538l-49 123h84l16 -57l16 57h82l-47 -123h-102z" />
    <glyph glyph-name="rcaron" unicode="&#x159;" horiz-adv-x="239" 
d="M117 1008v-1008h-107v1102h105v-47q25 51 65 51h4q45 0 45 -53v-396h-94v351q0 12 -8 12q-10 0 -10 -12zM76 1116l-43 154h78l12 -86l12 86h76l-41 -154h-94z" />
    <glyph glyph-name="Sacute" unicode="&#x15a;" horiz-adv-x="264" 
d="M88 1540l45 121h100l-49 -121h-96zM143 -4h-22q-109 0 -109 108v588h109v-581q0 -19 10 -19q12 0 12 19v538q0 23 -3.5 34t-14.5 30l-70 92q-24 34 -32.5 66t-8.5 81v461q0 58 25 86.5t84 28.5h22q58 0 81.5 -27t23.5 -80v-516h-105v514q0 15 -10 15q-12 0 -12 -15v-475
q0 -23 3 -32.5t15 -28.5l70 -95q27 -34 34 -63t7 -84v-528q0 -117 -109 -117z" />
    <glyph glyph-name="sacute" unicode="&#x15b;" horiz-adv-x="233" 
d="M74 1118l35 152h94l-37 -152h-92zM127 -6h-27q-90 0 -90 92v408h92v-404q0 -12 11 -12q10 0 10 12v365q0 24 -3.5 33.5t-21.5 33.5l-43 56q-28 35 -35.5 60t-7.5 75v305q0 90 97 90h22q90 0 90 -88v-344h-90v338q0 14 -10 14t-10 -14v-301q0 -28 3 -37t17 -29l43 -55
q32 -44 40.5 -68t8.5 -71v-367q0 -44 -25.5 -68t-70.5 -24z" />
    <glyph glyph-name="Scircumflex" unicode="&#x15c;" horiz-adv-x="264" 
d="M184 1661l49 -121h-83l-17 55l-16 -55h-84l49 121h102zM143 -4h-22q-109 0 -109 108v588h109v-581q0 -19 10 -19q12 0 12 19v538q0 23 -3.5 34t-14.5 30l-70 92q-24 34 -32.5 66t-8.5 81v461q0 58 25 86.5t84 28.5h22q58 0 81.5 -27t23.5 -80v-516h-105v514q0 15 -10 15
q-12 0 -12 -15v-475q0 -23 3 -32.5t15 -28.5l70 -95q27 -34 34 -63t7 -84v-528q0 -117 -109 -117z" />
    <glyph glyph-name="scircumflex" unicode="&#x15d;" horiz-adv-x="233" 
d="M168 1270l41 -152h-76l-12 84l-12 -84h-78l43 152h94zM127 -6h-27q-90 0 -90 92v408h92v-404q0 -12 11 -12q10 0 10 12v365q0 24 -3.5 33.5t-21.5 33.5l-43 56q-28 35 -35.5 60t-7.5 75v305q0 90 97 90h22q90 0 90 -88v-344h-90v338q0 14 -10 14t-10 -14v-301
q0 -28 3 -37t17 -29l43 -55q32 -44 40.5 -68t8.5 -71v-367q0 -44 -25.5 -68t-70.5 -24z" />
    <glyph glyph-name="uni015E" unicode="&#x15e;" horiz-adv-x="264" 
d="M143 -4h-22q-109 0 -109 108v588h109v-581q0 -19 10 -19q12 0 12 19v538q0 23 -3.5 34t-14.5 30l-70 92q-24 34 -32.5 66t-8.5 81v461q0 58 25 86.5t84 28.5h22q58 0 81.5 -27t23.5 -80v-516h-105v514q0 15 -10 15q-12 0 -12 -15v-475q0 -23 3 -32.5t15 -28.5l70 -95
q27 -34 34 -63t7 -84v-528q0 -117 -109 -117zM78 -164v64h39q14 0 14 10t-14 10h-31v80h53v-25q68 0 68 -65q0 -74 -72 -74h-57z" />
    <glyph glyph-name="uni015F" unicode="&#x15f;" horiz-adv-x="233" 
d="M127 -6h-27q-90 0 -90 92v408h92v-404q0 -12 11 -12q10 0 10 12v365q0 24 -3.5 33.5t-21.5 33.5l-43 56q-28 35 -35.5 60t-7.5 75v305q0 90 97 90h22q90 0 90 -88v-344h-90v338q0 14 -10 14t-10 -14v-301q0 -28 3 -37t17 -29l43 -55q32 -44 40.5 -68t8.5 -71v-367
q0 -44 -25.5 -68t-70.5 -24zM55 -164v64h39q15 0 15 10t-15 10h-31v80h54v-25q67 0 67 -65q0 -74 -71 -74h-58z" />
    <glyph glyph-name="Scaron" unicode="&#x160;" horiz-adv-x="264" 
d="M143 -4h-22q-109 0 -109 108v588h109v-581q0 -19 10 -19q12 0 12 19v538q0 23 -3.5 34t-14.5 30l-70 92q-24 34 -32.5 66t-8.5 81v461q0 58 25 86.5t84 28.5h22q58 0 81.5 -27t23.5 -80v-516h-105v514q0 15 -10 15q-12 0 -12 -15v-475q0 -23 3 -32.5t15 -28.5l70 -95
q27 -34 34 -63t7 -84v-528q0 -117 -109 -117zM84 1538l-49 123h84l16 -57l17 57h81l-47 -123h-102z" />
    <glyph glyph-name="scaron" unicode="&#x161;" horiz-adv-x="233" 
d="M127 -6h-27q-90 0 -90 92v408h92v-404q0 -12 11 -12q10 0 10 12v365q0 24 -3.5 33.5t-21.5 33.5l-43 56q-28 35 -35.5 60t-7.5 75v305q0 90 97 90h22q90 0 90 -88v-344h-90v338q0 14 -10 14t-10 -14v-301q0 -28 3 -37t17 -29l43 -55q32 -44 40.5 -68t8.5 -71v-367
q0 -44 -25.5 -68t-70.5 -24zM72 1116l-43 154h77l13 -86l12 86h76l-41 -154h-94z" />
    <glyph glyph-name="Tcommaaccent" unicode="&#x162;" horiz-adv-x="221" 
d="M57 0v1421h-49v103h205v-103h-49v-1421h-107zM135 -213h-49q16 50 16 84h-34v115h88v-97q0 -49 -21 -102z" />
    <glyph glyph-name="tcommaaccent" unicode="&#x163;" horiz-adv-x="182" 
d="M176 0h-100q-37 0 -37 43v961h-33v98h33v336h106v-336h31v-98h-31v-893q0 -13 11 -13h20v-98zM137 -213h-49q16 50 16 84h-34v115h88v-97q0 -49 -21 -102z" />
    <glyph glyph-name="Tcaron" unicode="&#x164;" horiz-adv-x="221" 
d="M57 0v1421h-49v103h205v-103h-49v-1421h-107zM61 1538l-49 123h84l17 -57l16 57h82l-47 -123h-103z" />
    <glyph glyph-name="tcaron" unicode="&#x165;" horiz-adv-x="182" 
d="M156 1372l4 152h84l-11 -152h-77zM176 0h-100q-37 0 -37 43v961h-33v98h33v336h106v-336h31v-98h-31v-893q0 -13 11 -13h20v-98z" />
    <glyph glyph-name="Tbar" unicode="&#x166;" horiz-adv-x="221" 
d="M199 864h-176v92h176v-92zM57 0v1421h-49v103h205v-103h-49v-1421h-107z" />
    <glyph glyph-name="tbar" unicode="&#x167;" horiz-adv-x="182" 
d="M176 98v-98h-100q-37 0 -37 43v653h-33v90h33v218h-33v98h33v336h106v-336h31v-98h-31v-218h31v-90h-31v-585q0 -13 11 -13h20z" />
    <glyph glyph-name="Utilde" unicode="&#x168;" horiz-adv-x="264" 
d="M139 -4h-14q-59 0 -86 28.5t-27 75.5v1424h109v-1411q0 -17 10 -17q12 0 12 17v1411h109v-1424q0 -46 -28 -75t-85 -29zM102 1538h-63v47q0 60 47 60q10 0 49 -17q24 -12 27 -12q6 0 6 8v23h63v-48q0 -59 -43 -59q-16 0 -53 16l-26 13q-7 0 -7 -8v-23z" />
    <glyph glyph-name="utilde" unicode="&#x169;" 
d="M244 1102v-1102h-103v45q-30 -49 -73 -49h-5q-27 0 -40 17.5t-13 43.5v1045h107v-1008q0 -14 10 -14t10 14v1008h107zM98 1116h-63v58q0 61 45 61q22 0 51 -21q17 -10 21 -10t4 8v25h63v-57q0 -62 -45 -62q-8 0 -15.5 2t-11 4t-11.5 7.5t-11 7.5q-17 12 -23 12
q-4 0 -4 -8v-27z" />
    <glyph glyph-name="Umacron" unicode="&#x16a;" horiz-adv-x="264" 
d="M139 -4h-14q-59 0 -86 28.5t-27 75.5v1424h109v-1411q0 -17 10 -17q12 0 12 17v1411h109v-1424q0 -46 -28 -75t-85 -29zM51 1542v86h162v-86h-162z" />
    <glyph glyph-name="umacron" unicode="&#x16b;" 
d="M244 1102v-1102h-103v45q-30 -49 -73 -49h-5q-27 0 -40 17.5t-13 43.5v1045h107v-1008q0 -14 10 -14t10 14v1008h107zM47 1126v86h162v-86h-162z" />
    <glyph glyph-name="Ubreve" unicode="&#x16c;" horiz-adv-x="264" 
d="M139 -4h-14q-59 0 -86 28.5t-27 75.5v1424h109v-1411q0 -17 10 -17q12 0 12 17v1411h109v-1424q0 -46 -28 -75t-85 -29zM133 1536h-2q-46 0 -70 25.5t-24 68.5v15h80v-15q0 -22 14 -22t14 22v15h80v-15q0 -42 -25 -68t-67 -26z" />
    <glyph glyph-name="ubreve" unicode="&#x16d;" 
d="M244 1102v-1102h-103v45q-30 -49 -73 -49h-5q-27 0 -40 17.5t-13 43.5v1045h107v-1008q0 -14 10 -14t10 14v1008h107zM129 1114h-2q-94 0 -94 94v21h80v-17q0 -26 14 -26t14 26v17h80v-21q0 -43 -23 -68.5t-69 -25.5z" />
    <glyph glyph-name="Uring" unicode="&#x16e;" horiz-adv-x="264" 
d="M139 -4h-14q-59 0 -86 28.5t-27 75.5v1424h109v-1411q0 -17 10 -17q12 0 12 17v1411h109v-1424q0 -46 -28 -75t-85 -29zM53 1612q0 34 22.5 55t55.5 21t55.5 -21t22.5 -55t-22.5 -55t-55.5 -21t-55.5 21t-22.5 55zM131 1642q-29 0 -29 -30q0 -31 29 -31t29 31
q0 30 -29 30z" />
    <glyph glyph-name="uring" unicode="&#x16f;" 
d="M244 1102v-1102h-103v45q-30 -49 -73 -49h-5q-27 0 -40 17.5t-13 43.5v1045h107v-1008q0 -14 10 -14t10 14v1008h107zM205 1190q0 -34 -22.5 -55t-55.5 -21t-55.5 21t-22.5 55t22.5 55t55.5 21t55.5 -21t22.5 -55zM98 1190q0 -31 29 -31t29 31t-29 31t-29 -31z" />
    <glyph glyph-name="Uhungarumlaut" unicode="&#x170;" horiz-adv-x="264" 
d="M139 -4h-14q-59 0 -86 28.5t-27 75.5v1424h109v-1411q0 -17 10 -17q12 0 12 17v1411h109v-1424q0 -46 -28 -75t-85 -29zM141 1538l39 123h82l-39 -123h-82zM43 1538l39 123h82l-39 -123h-82z" />
    <glyph glyph-name="uhungarumlaut" unicode="&#x171;" 
d="M244 1102v-1102h-103v45q-30 -49 -73 -49h-5q-27 0 -40 17.5t-13 43.5v1045h107v-1008q0 -14 10 -14t10 14v1008h107zM135 1116l33 154h78l-33 -154h-78zM41 1116l33 154h78l-33 -154h-78z" />
    <glyph glyph-name="Uogonek" unicode="&#x172;" horiz-adv-x="264" 
d="M209 -299h-6q-111 0 -111 100v2q0 74 78 195q-3 0 -13 -1t-18 -1h-14q-59 0 -86 28.5t-27 75.5v1424h109v-1411q0 -17 10 -17q12 0 12 17v1411h109v-1420q0 -17 -4 -33.5t-8.5 -26.5t-13.5 -28t-13 -28q-35 -81 -35 -152v-2q0 -49 31 -53v-80z" />
    <glyph glyph-name="uogonek" unicode="&#x173;" 
d="M244 1102v-1102h-103v45q-30 -49 -73 -49h-5q-27 0 -40 17.5t-13 43.5v1045h107v-1008q0 -14 10 -14t10 14v1008h107zM244 -299h-2q-111 0 -111 100v2q0 79 72 197h41q-27 -105 -27 -164v-2q0 -49 27 -53v-80z" />
    <glyph glyph-name="Wcircumflex" unicode="&#x174;" horiz-adv-x="401" 
d="M186 0h-133l-49 1524h115l8 -1196l25 1196h104l25 -1196l8 1196h108l-51 -1524h-125l-16 1071zM254 1661l49 -123h-84l-16 57l-17 -57h-84l50 123h102z" />
    <glyph glyph-name="wcircumflex" unicode="&#x175;" horiz-adv-x="370" 
d="M174 0h-123l-49 1102h111l6 -858l16 858h101l20 -869l4 869h109l-52 -1102h-118l-15 827zM229 1270l41 -154h-75l-13 86l-12 -86h-78l43 154h94z" />
    <glyph glyph-name="Ycircumflex" unicode="&#x176;" horiz-adv-x="245" 
d="M70 0v649l-68 875h109l16 -670l20 670h97l-66 -875v-649h-108zM180 1661l49 -123h-84l-16 57l-16 -57h-84l49 123h102z" />
    <glyph glyph-name="ycircumflex" unicode="&#x177;" horiz-adv-x="235" 
d="M37 -299v92h29q8 0 8 10q0 5 1 36.5t1 49.5q0 45 -2 76l-72 1137h104l17 -811l8 811h102l-71 -1356q-3 -45 -47 -45h-78zM166 1270l41 -154h-76l-12 86l-13 -86h-77l43 154h94z" />
    <glyph glyph-name="Ydieresis" unicode="&#x178;" horiz-adv-x="245" 
d="M70 0v649l-68 875h109l16 -670l20 670h97l-66 -875v-649h-108zM121 1653v-115h-84v115h84zM221 1653v-115h-84v115h84z" />
    <glyph glyph-name="Zacute" unicode="&#x179;" horiz-adv-x="219" 
d="M12 1524h195v-92l-90 -1332h94v-100h-203v92l88 1331h-84v101zM61 1538l45 123h101l-49 -123h-97z" />
    <glyph glyph-name="zacute" unicode="&#x17a;" horiz-adv-x="194" 
d="M8 1102h178v-78l-80 -930h82v-94h-182v80l78 930h-76v92zM51 1116l35 154h94l-37 -154h-92z" />
    <glyph glyph-name="Zdotaccent" unicode="&#x17b;" horiz-adv-x="219" 
d="M12 1524h195v-92l-90 -1332h94v-100h-203v92l88 1331h-84v101zM162 1661v-123h-107v123h107z" />
    <glyph glyph-name="zdotaccent" unicode="&#x17c;" horiz-adv-x="194" 
d="M8 1102h178v-78l-80 -930h82v-94h-182v80l78 930h-76v92zM152 1270v-154h-107v154h107z" />
    <glyph glyph-name="Zcaron" unicode="&#x17d;" horiz-adv-x="219" 
d="M12 1524h195v-92l-90 -1332h94v-100h-203v92l88 1331h-84v101zM59 1538l-49 123h84l17 -57l16 57h82l-47 -123h-103z" />
    <glyph glyph-name="zcaron" unicode="&#x17e;" horiz-adv-x="194" 
d="M8 1102h178v-78l-80 -930h82v-94h-182v80l78 930h-76v92zM51 1116l-43 154h78l12 -86l13 86h75l-41 -154h-94z" />
    <glyph glyph-name="florin" unicode="&#x192;" horiz-adv-x="188" 
d="M180 807h-37l-14 -1106h-104l12 1106h-29v96h29l6 553q1 37 20 52.5t60 15.5h57v-99h-16q-12 0 -12 -12l-7 -510h35v-96z" />
    <glyph glyph-name="Aringacute" unicode="&#x1fa;" horiz-adv-x="249" 
d="M47 1612q0 34 22.5 55t55.5 21t55.5 -21t22.5 -55t-22.5 -55t-55.5 -21t-55.5 21t-22.5 55zM125 1642q-29 0 -29 -30q0 -31 29 -31t29 31q0 30 -29 30zM133 463l-12 782l-17 -782h29zM141 0l-6 360h-33l-8 -360h-92l51 1524h144l51 -1524h-107zM78 1696l45 123h100
l-49 -123h-96z" />
    <glyph glyph-name="aringacute" unicode="&#x1fb;" horiz-adv-x="251" 
d="M133 96v508q-13 -11 -16.5 -17.5t-3.5 -19.5v-471q0 -14 10 -14t10 14zM133 53q-21 -57 -67 -57h-3q-27 0 -40 19t-13 46v494q0 35 8 52t33 34q39 24 74 39q8 3 8 16v318q0 14 -10 14t-10 -14v-326h-101v330q0 90 105 90h10q54 0 81.5 -19.5t27.5 -70.5v-918q0 -4 4 -4h8
v-96h-86q-15 0 -22 11.5t-7 41.5zM201 1192q0 -34 -22.5 -55t-55.5 -21t-55.5 21t-22.5 55t22.5 55t55.5 21t55.5 -21t22.5 -55zM94 1192q0 -31 29 -31t29 31t-29 31t-29 -31zM78 1276l35 154h94l-37 -154h-92z" />
    <glyph glyph-name="AEacute" unicode="&#x1fc;" horiz-adv-x="335" 
d="M150 377v921l-31 -921h31zM150 0v274h-35l-9 -274h-104l72 1524h252v-103h-68v-559h64v-106h-64v-652h70v-104h-178zM147 1538l46 123h100l-49 -123h-97z" />
    <glyph glyph-name="aeacute" unicode="&#x1fd;" horiz-adv-x="370" 
d="M238 1014v-371h20v371q0 14 -10 14t-10 -14zM133 96v477q-13 -11 -16.5 -17t-3.5 -19v-441q0 -14 10 -14t10 14zM360 528v-438q0 -46 -28 -71t-74 -25h-20q-77 0 -95 57q-11 -17 -17 -25.5t-22 -19t-36 -10.5h-2q-27 0 -41.5 19.5t-14.5 45.5v463q0 35 8 52t33 34
q39 24 74 39q8 3 8 17v348q0 14 -10 14t-10 -14v-357h-101v361q0 90 97 90h10q48 0 69 -21q21 21 62 21h16q40 0 67 -24t27 -74v-443h-122v-475q0 -14 10 -14t10 14v436h102zM143 1116l35 154h94l-36 -154h-93z" />
    <glyph glyph-name="Oslashacute" unicode="&#x1fe;" horiz-adv-x="274" 
d="M88 1540l45 121h100l-49 -121h-96zM262 1411v-1296q0 -52 -31 -85.5t-86 -33.5h-8q-39 0 -61 16l-4 -30h-43l8 59q-25 29 -25 80v1290q0 50 30 83.5t87 33.5h8q32 0 53 -15l7 29h45l-11 -51q31 -40 31 -80zM137 96q15 0 15 21v219l16 770l-45 -879v-110q0 -21 14 -21z
M123 1409v-225l-17 -750l46 905v70q0 21 -15 21q-14 0 -14 -21z" />
    <glyph glyph-name="oslashacute" unicode="&#x1ff;" 
d="M76 1118l35 152h94l-37 -152h-92zM115 844l-17 -541l41 600v107q0 16 -12 16t-12 -16v-166zM127 78q12 0 12 16v133l15 531l-39 -559v-105q0 -16 12 -16zM74 -16h-39l6 41q-31 36 -31 88v876q0 119 113 119h4q33 0 51 -12l4 22h39l-10 -41q33 -26 33 -88v-876
q0 -56 -29 -86.5t-84 -30.5h-4q-26 0 -49 10z" />
    <glyph glyph-name="uni0218" unicode="&#x218;" horiz-adv-x="264" 
d="M143 -4h-22q-109 0 -109 108v588h109v-581q0 -19 10 -19q12 0 12 19v538q0 23 -3.5 34t-14.5 30l-70 92q-24 34 -32.5 66t-8.5 81v461q0 58 25 86.5t84 28.5h22q58 0 81.5 -27t23.5 -80v-516h-105v514q0 15 -10 15q-12 0 -12 -15v-475q0 -23 3 -32.5t15 -28.5l70 -95
q27 -34 34 -63t7 -84v-528q0 -117 -109 -117zM158 -215h-49q16 50 16 84h-35v115h88v-97q0 -52 -20 -102z" />
    <glyph glyph-name="uni0219" unicode="&#x219;" horiz-adv-x="233" 
d="M127 -6h-27q-90 0 -90 92v408h92v-404q0 -12 11 -12q10 0 10 12v365q0 24 -3.5 33.5t-21.5 33.5l-43 56q-28 35 -35.5 60t-7.5 75v305q0 90 97 90h22q90 0 90 -88v-344h-90v338q0 14 -10 14t-10 -14v-301q0 -28 3 -37t17 -29l43 -55q32 -44 40.5 -68t8.5 -71v-367
q0 -44 -25.5 -68t-70.5 -24zM139 -215h-49q16 50 16 84h-34v115h88v-97q0 -49 -21 -102z" />
    <glyph glyph-name="uni021A" unicode="&#x21a;" horiz-adv-x="221" 
d="M57 0v1421h-49v103h205v-103h-49v-1421h-107zM135 -213h-49q16 50 16 84h-34v115h88v-97q0 -49 -21 -102z" />
    <glyph glyph-name="uni021B" unicode="&#x21b;" horiz-adv-x="182" 
d="M176 0h-100q-37 0 -37 43v961h-33v98h33v336h106v-336h31v-98h-31v-893q0 -13 11 -13h20v-98zM137 -213h-49q16 50 16 84h-34v115h88v-97q0 -49 -21 -102z" />
    <glyph glyph-name="uni0237" unicode="&#x237;" horiz-adv-x="126" 
d="M-20 -201h20q10 0 10 11v1292h107v-1348q0 -53 -47 -53h-90v98z" />
    <glyph glyph-name="circumflex" unicode="&#x2c6;" horiz-adv-x="200" 
d="M147 1270l41 -154h-75l-13 86l-12 -86h-78l43 154h94z" />
    <glyph glyph-name="caron" unicode="&#x2c7;" horiz-adv-x="200" 
d="M53 1116l-43 154h78l12 -86l13 86h75l-41 -154h-94z" />
    <glyph glyph-name="breve" unicode="&#x2d8;" horiz-adv-x="200" 
d="M102 1114h-2q-94 0 -94 94v21h80v-17q0 -26 14 -26q15 0 15 26v17h80v-21q0 -43 -23.5 -68.5t-69.5 -25.5z" />
    <glyph glyph-name="dotaccent" unicode="&#x2d9;" horiz-adv-x="200" 
d="M154 1270v-154h-107v154h107z" />
    <glyph glyph-name="ring" unicode="&#x2da;" horiz-adv-x="200" 
d="M178 1190q0 -34 -22.5 -55t-55.5 -21t-55 21t-22 55t22 55t55 21t55.5 -21t22.5 -55zM72 1190q0 -31 28 -31q29 0 29 31t-29 31q-28 0 -28 -31z" />
    <glyph glyph-name="ogonek" unicode="&#x2db;" horiz-adv-x="200" 
d="M158 -299h-2q-111 0 -111 100v2q0 79 72 197h41q-27 -105 -27 -164v-2q0 -49 27 -53v-80z" />
    <glyph glyph-name="tilde" unicode="&#x2dc;" horiz-adv-x="200" 
d="M72 1116h-64v58q0 61 45 61q22 0 51 -21q17 -10 21 -10t4 8v25h64v-57q0 -62 -46 -62q-8 0 -15.5 2t-11 4t-11.5 7.5t-11 7.5q-17 12 -22 12q-4 0 -4 -8v-27z" />
    <glyph glyph-name="hungarumlaut" unicode="&#x2dd;" horiz-adv-x="200" 
d="M94 1116l33 154h78l-33 -154h-78zM0 1116l33 154h78l-33 -154h-78z" />
    <glyph glyph-name="Wgrave" unicode="&#x1e80;" horiz-adv-x="401" 
d="M186 0h-133l-49 1524h115l8 -1196l25 1196h104l25 -1196l8 1196h108l-51 -1524h-125l-16 1071zM207 1661l45 -123h-96l-50 123h101z" />
    <glyph glyph-name="wgrave" unicode="&#x1e81;" horiz-adv-x="370" 
d="M174 0h-123l-49 1102h111l6 -858l16 858h101l20 -869l4 869h109l-52 -1102h-118l-15 827zM197 1270l34 -154h-92l-37 154h95z" />
    <glyph glyph-name="Wacute" unicode="&#x1e82;" horiz-adv-x="401" 
d="M186 0h-133l-49 1524h115l8 -1196l25 1196h104l25 -1196l8 1196h108l-51 -1524h-125l-16 1071zM156 1538l45 123h100l-49 -123h-96z" />
    <glyph glyph-name="wacute" unicode="&#x1e83;" horiz-adv-x="370" 
d="M174 0h-123l-49 1102h111l6 -858l16 858h101l20 -869l4 869h109l-52 -1102h-118l-15 827zM139 1116l35 154h94l-37 -154h-92z" />
    <glyph glyph-name="Wdieresis" unicode="&#x1e84;" horiz-adv-x="401" 
d="M186 0h-133l-49 1524h115l8 -1196l25 1196h104l25 -1196l8 1196h108l-51 -1524h-125l-16 1071zM195 1653v-115h-84v115h84zM295 1653v-115h-84v115h84z" />
    <glyph glyph-name="wdieresis" unicode="&#x1e85;" horiz-adv-x="370" 
d="M174 0h-123l-49 1102h111l6 -858l16 858h101l20 -869l4 869h109l-52 -1102h-118l-15 827zM272 1233v-117h-82v117h82zM174 1233v-117h-82v117h82z" />
    <glyph glyph-name="Ygrave" unicode="&#x1ef2;" horiz-adv-x="245" 
d="M70 0v649l-68 875h109l16 -670l20 670h97l-66 -875v-649h-108zM133 1661l45 -123h-96l-49 123h100z" />
    <glyph glyph-name="ygrave" unicode="&#x1ef3;" horiz-adv-x="235" 
d="M37 -299v92h29q8 0 8 10q0 5 1 36.5t1 49.5q0 45 -2 76l-72 1137h104l17 -811l8 811h102l-71 -1356q-3 -45 -47 -45h-78zM131 1270l35 -154h-92l-37 154h94z" />
    <glyph glyph-name="uni2009" unicode="&#x2009;" horiz-adv-x="4" 
 />
    <glyph glyph-name="endash" unicode="&#x2013;" 
d="M10 657h234v-82h-234v82z" />
    <glyph glyph-name="emdash" unicode="&#x2014;" horiz-adv-x="376" 
d="M10 657h357v-82h-357v82z" />
    <glyph glyph-name="quoteleft" unicode="&#x2018;" horiz-adv-x="108" 
d="M29 1524h51q-17 -66 -17 -101h35v-135h-88v117q0 60 19 119z" />
    <glyph glyph-name="quoteright" unicode="&#x2019;" horiz-adv-x="108" 
d="M80 1288h-51q16 62 16 101h-35v135h88v-117q0 -63 -18 -119z" />
    <glyph glyph-name="quotesinglbase" unicode="&#x201a;" horiz-adv-x="108" 
d="M98 135v-117q0 -62 -18 -118h-51q16 62 16 100h-35v135h88z" />
    <glyph glyph-name="quotedblleft" unicode="&#x201c;" horiz-adv-x="210" 
d="M131 1524h51q-16 -62 -16 -101h35v-135h-88v117q0 63 18 119zM29 1524h51q-17 -66 -17 -101h35v-135h-88v117q0 60 19 119z" />
    <glyph glyph-name="quotedblright" unicode="&#x201d;" horiz-adv-x="210" 
d="M182 1288h-51q16 62 16 101h-34v135h88v-117q0 -60 -19 -119zM80 1288h-51q16 62 16 101h-35v135h88v-117q0 -63 -18 -119z" />
    <glyph glyph-name="quotedblbase" unicode="&#x201e;" horiz-adv-x="210" 
d="M201 135v-117q0 -59 -19 -118h-51q16 62 16 100h-34v135h88zM98 135v-117q0 -62 -18 -118h-51q16 62 16 100h-35v135h88z" />
    <glyph glyph-name="dagger" unicode="&#x2020;" horiz-adv-x="210" 
d="M55 0v1296h-47v95h47v133h101v-133h47v-95h-47v-1296h-101z" />
    <glyph glyph-name="daggerdbl" unicode="&#x2021;" horiz-adv-x="210" 
d="M55 143h-47v97h47v1056h-47v95h47v133h101v-133h47v-95h-47v-1056h47v-97h-47v-143h-101v143z" />
    <glyph glyph-name="bullet" unicode="&#x2022;" horiz-adv-x="204" 
d="M102 584q-40 0 -65 26t-25 64q0 39 24.5 64.5t65.5 25.5t66 -25.5t25 -64.5q0 -38 -25.5 -64t-65.5 -26z" />
    <glyph glyph-name="ellipsis" unicode="&#x2026;" horiz-adv-x="350" 
d="M111 0h-101v158h101v-158zM125 0v158h100v-158h-100zM240 158h100v-158h-100v158z" />
    <glyph glyph-name="perthousand" unicode="&#x2030;" horiz-adv-x="548" 
d="M12 963v489q0 76 74 76h12q74 0 74 -76v-489q0 -37 -20 -56.5t-54 -19.5h-12q-74 0 -74 76zM268 1524h62l-224 -1524h-61zM100 961v493q0 12 -8 12t-8 -12v-493q0 -13 8 -13t8 13zM289 -4h-13q-73 0 -73 76v489q0 76 73 76h13q73 0 73 -76v-489q0 -37 -20 -56.5
t-53 -19.5zM463 -4h-12q-74 0 -74 76v489q0 76 74 76h12q74 0 74 -76v-489q0 -37 -20 -56.5t-54 -19.5zM283 57q8 0 8 13v493q0 12 -8 12q-9 0 -9 -12v-493q0 -13 9 -13zM457 57q8 0 8 13v493q0 12 -8 12t-8 -12v-493q0 -13 8 -13z" />
    <glyph glyph-name="uni2032" unicode="&#x2032;" horiz-adv-x="104" 
d="M98 1524l-12 -181h-80l12 181h80z" />
    <glyph glyph-name="uni2033" unicode="&#x2033;" horiz-adv-x="194" 
d="M188 1524l-12 -181h-78l13 181h77zM96 1524l-12 -181h-78l12 181h78z" />
    <glyph glyph-name="guilsinglleft" unicode="&#x2039;" horiz-adv-x="133" 
d="M90 557l33 -252h-76l-37 234v39l37 223h78z" />
    <glyph glyph-name="guilsinglright" unicode="&#x203a;" horiz-adv-x="133" 
d="M43 557l-35 244h78l37 -223v-39l-37 -234h-76z" />
    <glyph glyph-name="fraction" unicode="&#x2044;" 
d="M186 1524h66l-184 -1524h-66z" />
    <glyph glyph-name="Euro" unicode="&#x20ac;" horiz-adv-x="282" 
d="M164 -4h-17q-61 0 -87.5 30t-26.5 89v598h-29v71h29v15h-29v71h29v543q0 115 114 115h17q106 0 106 -115v-528h-106v526q0 19 -10 19q-13 0 -13 -19v-541h60v-71h-60v-15h60v-71h-60v-598q0 -19 13 -19q10 0 10 19v583h106v-583q0 -119 -106 -119z" />
    <glyph glyph-name="published" unicode="&#x2117;" horiz-adv-x="354" 
d="M182 -4h-12q-158 0 -158 147v1237q0 74 41.5 111t118.5 37h8q75 0 118.5 -36.5t43.5 -111.5v-1233q0 -73 -43 -112t-117 -39zM63 1380v-1237q0 -56 27 -81t82 -25h8q111 0 111 110v1233q0 107 -111 107h-8q-58 0 -83.5 -24t-25.5 -83zM207 715h-39v-633h-82v1366h117
q36 0 51.5 -16t15.5 -54v-594q0 -69 -63 -69zM168 1374v-586h10q12 0 12 15v555q0 16 -12 16h-10z" />
    <glyph glyph-name="trademark" unicode="&#x2122;" horiz-adv-x="266" 
d="M98 1470h-18v-538h-55v538h-19v54h92v-54zM156 1298v-366h-47v592h63l10 -254l2 -70l2 70l7 254h63v-592h-49v256l2 110l-6 -104l-8 -262h-25l-10 262z" />
    <glyph glyph-name="onethird" unicode="&#x2153;" horiz-adv-x="372" 
d="M213 1524h66l-185 -1524h-65zM37 1427h-31v70q34 0 37 27h74v-703h-80v606zM258 442h-74v193q0 72 78 72h10q46 0 65 -17.5t19 -54.5v-211q0 -30 -26 -41q32 -14 32 -49v-260q0 -78 -88 -78h-10q-45 0 -63.5 20t-18.5 58v235h78v-229q0 -14 10 -14q9 0 9 14v254q0 8 -9 8
h-39v70h39q6 0 6 8v207q0 14 -8 14q-10 0 -10 -14v-185z" />
    <glyph glyph-name="twothirds" unicode="&#x2154;" horiz-adv-x="444" 
d="M285 1524h65l-184 -1524h-66zM188 821h-178v121q0 47 6.5 84.5t14 60t35.5 99.5q28 76 34 104t6 82v74q0 14 -10 14q-8 0 -8 -14v-158h-76v160q0 80 80 80h8q50 0 69 -20.5t19 -59.5v-74q0 -61 -9 -94t-44 -123q-34 -84 -42.5 -118.5t-8.5 -90.5v-63h27v180h77v-244z
M330 442h-74v193q0 72 78 72h10q46 0 65 -17.5t19 -54.5v-211q0 -29 -27 -41q33 -14 33 -49v-260q0 -78 -88 -78h-10q-45 0 -63.5 20t-18.5 58v235h78v-229q0 -14 10 -14q8 0 8 14v254q0 8 -8 8h-39v70h39q6 0 6 8v207q0 14 -8 14q-10 0 -10 -14v-185z" />
    <glyph glyph-name="oneeighth" unicode="&#x215b;" horiz-adv-x="374" 
d="M213 1524h66l-185 -1524h-65zM37 1427h-31v70q34 0 37 27h74v-703h-80v606zM362 629v-203q0 -16 -6 -27.5t-9.5 -14t-12.5 -7.5q31 -13 31 -55v-242q0 -84 -82 -84h-15q-46 0 -66 20.5t-20 63.5v242q0 43 29 55q-27 12 -27 49v203q0 78 82 78h17q79 0 79 -78zM283 84v244
q0 16 -9 16q-10 0 -10 -16v-244q0 -16 10 -16q9 0 9 16zM283 424v199q0 16 -9 16q-10 0 -10 -16v-199q0 -16 10 -16q9 0 9 16z" />
    <glyph glyph-name="threeeighths" unicode="&#x215c;" horiz-adv-x="442" 
d="M281 1524h65l-184 -1524h-66zM86 1264h-74v192q0 72 78 72h10q46 0 65 -17.5t19 -54.5v-211q0 -30 -26 -41q32 -14 32 -49v-260q0 -78 -88 -78h-10q-45 0 -63.5 20t-18.5 58v235h78v-229q0 -14 10 -14q8 0 8 14v254q0 8 -8 8h-39v70h39q6 0 6 8v207q0 14 -8 14
q-10 0 -10 -14v-184zM430 629v-203q0 -16 -6.5 -27.5t-9.5 -13.5t-13 -8q31 -13 31 -55v-242q0 -84 -82 -84h-14q-46 0 -66 20.5t-20 63.5v242q0 43 29 55q-27 12 -27 49v203q0 78 82 78h16q80 0 80 -78zM350 84v244q0 16 -8 16q-10 0 -10 -16v-244q0 -16 10 -16q8 0 8 16z
M350 424v199q0 16 -8 16q-10 0 -10 -16v-199q0 -16 10 -16q8 0 8 16z" />
    <glyph glyph-name="fiveeighths" unicode="&#x215d;" horiz-adv-x="440" 
d="M279 1524h65l-184 -1524h-66zM88 1157h-76v367h170v-76h-94v-156q18 37 53 37h2q45 0 45 -53v-373q0 -43 -19 -64.5t-65 -21.5h-14q-44 0 -62 20.5t-18 59.5v207h78v-207q0 -12 8 -12q10 0 10 12v344q0 16 -10 16q-8 0 -8 -16v-84zM428 629v-203q0 -16 -6.5 -27.5
t-9.5 -13.5t-13 -8q31 -13 31 -55v-242q0 -84 -82 -84h-14q-46 0 -66 20.5t-20 63.5v242q0 43 28 55q-26 11 -26 49v203q0 78 82 78h16q80 0 80 -78zM348 84v244q0 16 -8 16q-10 0 -10 -16v-244q0 -16 10 -16q8 0 8 16zM348 424v199q0 16 -8 16q-10 0 -10 -16v-199
q0 -16 10 -16q8 0 8 16z" />
    <glyph glyph-name="seveneighths" unicode="&#x215e;" horiz-adv-x="395" 
d="M233 1524h66l-184 -1524h-66zM8 1524h166v-47q0 -66 -11.5 -188.5t-15.5 -180.5q-10 -144 -10 -281v-6h-92v4q0 124 23 279q22 149 29 213t7 147h-24v-178h-72v238zM383 629v-203q0 -16 -6.5 -27.5t-9.5 -13.5t-13 -8q31 -13 31 -55v-242q0 -84 -82 -84h-14
q-46 0 -66 20.5t-20 63.5v242q0 43 28 55q-26 11 -26 49v203q0 78 82 78h16q80 0 80 -78zM303 84v244q0 16 -8 16q-10 0 -10 -16v-244q0 -16 10 -16q8 0 8 16zM303 424v199q0 16 -8 16q-10 0 -10 -16v-199q0 -16 10 -16q8 0 8 16z" />
    <glyph glyph-name="minus" unicode="&#x2212;" horiz-adv-x="223" 
d="M10 657h203v-73h-203v73z" />
    <glyph glyph-name="f_b" unicode="&#xe227;" horiz-adv-x="432" 
d="M176 1524v-99h-20q-11 0 -11 -12v-311h31v-98h-31v-1004h-106v1004h-33v98h33v362q0 28 15.5 44t41.5 16h80zM188 1524h107v-469q29 51 72 51h2q25 0 39 -20t14 -52v-962q0 -32 -17 -54t-45 -22h-2q-52 0 -73 59l-6 -55h-91v1524zM305 82q10 0 10 14v914q0 14 -10 14
t-10 -14v-914q0 -14 10 -14z" />
    <glyph glyph-name="f_f_b" unicode="&#xe228;" horiz-adv-x="581" 
d="M145 0h-106v1004h-33v98h33v362q0 28 15.5 44t41.5 16h80v-99h-20q-11 0 -11 -12v-311h43v362q0 28 16 44t42 16h80v-99h-21q-10 0 -10 -12v-311h31v-98h-31v-1004h-107v1004h-43v-1004zM338 1524h106v-469q29 51 72 51h2q25 0 39 -20t14 -52v-962q0 -32 -16.5 -54
t-44.5 -22h-2q-53 0 -74 59l-6 -55h-90v1524zM455 82q10 0 10 14v914q0 14 -10 14q-11 0 -11 -14v-914q0 -14 11 -14z" />
    <glyph glyph-name="f_f_h" unicode="&#xe229;" horiz-adv-x="581" 
d="M145 0h-106v1004h-33v98h33v362q0 28 15.5 44t41.5 16h80v-99h-20q-11 0 -11 -12v-311h43v362q0 28 16 44t42 16h80v-99h-21q-10 0 -10 -12v-311h31v-98h-31v-1004h-107v1004h-43v-1004zM338 0v1524h106v-465q29 47 70 47h4q53 0 53 -62v-1044h-106v1010q0 14 -10 14
q-11 0 -11 -14v-1010h-106z" />
    <glyph glyph-name="f_f_j" unicode="&#xe22a;" horiz-adv-x="454" 
d="M145 0h-106v1004h-33v98h33v362q0 28 15.5 44t41.5 16h80v-99h-20q-11 0 -11 -12v-311h43v362q0 28 16 44t42 16h80v-99h-21q-10 0 -10 -12v-311h31v-98h-31v-1004h-107v1004h-43v-1004zM444 1270v-154h-106v154h106zM307 -201h21q10 0 10 11v1292h106v-1348
q0 -53 -47 -53h-90v98z" />
    <glyph glyph-name="f_f_k" unicode="&#xe22b;" horiz-adv-x="587" 
d="M145 0h-106v1004h-33v98h33v362q0 28 15.5 44t41.5 16h80v-99h-20q-11 0 -11 -12v-311h43v362q0 28 16 44t42 16h80v-99h-21q-10 0 -10 -12v-311h31v-98h-31v-1004h-107v1004h-43v-1004zM444 0h-106v1524h106v-422l-2 -451l31 451h105l-43 -473l51 -629h-111l-33 553z
" />
    <glyph glyph-name="f_h" unicode="&#xe22c;" horiz-adv-x="432" 
d="M176 1524v-99h-20q-11 0 -11 -12v-311h31v-98h-31v-1004h-106v1004h-33v98h33v362q0 28 15.5 44t41.5 16h80zM188 0v1524h107v-465q29 47 70 47h4q53 0 53 -62v-1044h-107v1010q0 14 -10 14t-10 -14v-1010h-107z" />
    <glyph glyph-name="f_j" unicode="&#xe22d;" horiz-adv-x="305" 
d="M176 1524v-99h-20q-11 0 -11 -12v-311h31v-98h-31v-1004h-106v1004h-33v98h33v362q0 28 15.5 44t41.5 16h80zM295 1270v-154h-107v154h107zM158 -201h20q10 0 10 11v1292h107v-1348q0 -53 -47 -53h-90v98z" />
    <glyph glyph-name="f_k" unicode="&#xe22e;" horiz-adv-x="438" 
d="M176 1524v-99h-20q-11 0 -11 -12v-311h31v-98h-31v-1004h-106v1004h-33v98h33v362q0 28 15.5 44t41.5 16h80zM295 0h-107v1524h107v-422l-2 -451l31 451h104l-43 -473l51 -629h-110l-33 553z" />
    <glyph glyph-name="E.alt" unicode="&#xe484;" horiz-adv-x="198" 
d="M12 1524h176v-103h-67v-559h65v-106h-65v-652h69v-104h-178v1524z" />
    <glyph glyph-name="F.alt" unicode="&#xe485;" horiz-adv-x="196" 
d="M12 1524h176v-103h-67v-559h65v-106h-65v-756h-109v1524z" />
    <glyph glyph-name="J.alt" unicode="&#xe489;" horiz-adv-x="176" 
d="M8 0v104h29q16 0 16 21v1399h111v-1440q0 -39 -19.5 -61.5t-56.5 -22.5h-80z" />
    <glyph glyph-name="a.alt" unicode="&#xe4c0;" horiz-adv-x="245" 
d="M133 96v508q-13 -11 -16.5 -17.5t-3.5 -19.5v-471q0 -14 10 -14t10 14zM133 53q-21 -57 -67 -57h-3q-27 0 -40 19t-13 46v494q0 35 8 52t33 34q39 24 74 39q8 3 8 16v318q0 14 -10 14t-10 -14v-326h-101v330q0 90 105 90h10q54 0 81.5 -19.5t27.5 -70.5v-928q0 -62 6 -86
v-4h-103q-6 18 -6 53z" />
    <glyph glyph-name="r.alt" unicode="&#xe4d1;" horiz-adv-x="192" 
d="M115 1102v-58q10 35 21.5 48.5t29.5 13.5h2q3 0 6 -1t6 -1q2 -2 6 -2v-127q-18 6 -30 6h-4q-22 0 -29.5 -6.5t-7.5 -20.5v-954h-105v1102h105z" />
    <glyph glyph-name="f_f_i" unicode="&#xfb03;" horiz-adv-x="454" 
d="M145 0h-106v1004h-33v98h33v362q0 28 15.5 44t41.5 16h80v-99h-20q-11 0 -11 -12v-311h43v362q0 28 16 44t42 16h80v-99h-21q-10 0 -10 -12v-311h31v-98h-31v-1004h-107v1004h-43v-1004zM444 1270v-154h-106v154h106zM444 1102v-1102h-106v1102h106z" />
    <glyph glyph-name="f_f_l" unicode="&#xfb04;" horiz-adv-x="454" 
d="M145 0h-106v1004h-33v98h33v362q0 28 15.5 44t41.5 16h80v-99h-20q-11 0 -11 -12v-311h43v362q0 28 16 44t42 16h80v-99h-21q-10 0 -10 -12v-311h31v-98h-31v-1004h-107v1004h-43v-1004zM444 1524v-1524h-106v1524h106z" />
    <glyph glyph-name="idotaccent" horiz-adv-x="126" 
d="M117 1270v-154h-107v154h107zM117 1102v-1102h-107v1102h107z" />
    <glyph glyph-name="space_uni0326" horiz-adv-x="200" 
d="M125 -213h-49q16 50 16 84h-35v115h88v-97q0 -52 -20 -102z" />
    <glyph glyph-name="zero.num" horiz-adv-x="206" 
d="M98 1528h13q86 0 86 -88v-535q0 -36 -21 -62t-65 -26h-13q-47 0 -67.5 25.5t-20.5 62.5v535q0 37 20.5 62.5t67.5 25.5zM113 907v533q0 14 -11 14q-8 0 -8 -14v-533q0 -14 8 -14q11 0 11 14z" />
    <glyph glyph-name="one.num" horiz-adv-x="126" 
d="M37 1427h-31v70q34 0 37 27h74v-703h-80v606z" />
    <glyph glyph-name="two.num" horiz-adv-x="198" 
d="M188 821h-178v121q0 47 6.5 84.5t14 60t35.5 99.5q28 76 34 104t6 82v74q0 14 -10 14q-8 0 -8 -14v-158h-76v160q0 80 80 80h8q50 0 69 -20.5t19 -59.5v-74q0 -61 -9 -94t-44 -123q-34 -84 -42.5 -118.5t-8.5 -90.5v-63h27v180h77v-244z" />
    <glyph glyph-name="three.num" horiz-adv-x="200" 
d="M86 1264h-74v192q0 72 78 72h10q46 0 65 -17.5t19 -54.5v-211q0 -30 -26 -41q32 -14 32 -49v-260q0 -78 -88 -78h-10q-45 0 -63.5 20t-18.5 58v235h78v-229q0 -14 10 -14q8 0 8 14v254q0 8 -8 8h-39v70h39q6 0 6 8v207q0 14 -8 14q-10 0 -10 -14v-184z" />
    <glyph glyph-name="four.num" horiz-adv-x="180" 
d="M8 942v64l53 520h91v-512h22v-72h-22v-121h-76v121h-68zM55 1014h21l2 366z" />
    <glyph glyph-name="five.num" horiz-adv-x="198" 
d="M88 1157h-76v367h170v-76h-94v-156q18 37 53 37h2q45 0 45 -53v-373q0 -43 -19 -64.5t-65 -21.5h-14q-44 0 -62 20.5t-18 59.5v207h78v-207q0 -12 8 -12q10 0 10 12v344q0 16 -10 16q-8 0 -8 -16v-84z" />
    <glyph glyph-name="six.num" horiz-adv-x="206" 
d="M94 1442v-211q6 13 20.5 25t35.5 12h2q45 0 45 -56v-305q0 -90 -84 -90h-17q-86 0 -86 90v535q0 86 88 86h13q47 0 65.5 -21.5t18.5 -62.5v-152h-82v150q0 14 -9 14q-10 0 -10 -14zM94 1188v-285q0 -14 10 -14q9 0 9 14v285q0 14 -9 14q-10 0 -10 -14z" />
    <glyph glyph-name="seven.num" horiz-adv-x="180" 
d="M8 1524h166v-47q0 -66 -11.5 -188.5t-15.5 -180.5q-10 -144 -10 -281v-6h-92v4q0 124 23 279q22 149 29 213t7 147h-24v-178h-72v238z" />
    <glyph glyph-name="eight.num" horiz-adv-x="202" 
d="M190 1450v-203q0 -16 -6 -27.5t-9.5 -14t-12.5 -7.5q31 -13 31 -55v-242q0 -84 -82 -84h-15q-46 0 -66 20.5t-20 63.5v242q0 43 29 55q-27 12 -27 49v203q0 78 82 78h17q79 0 79 -78zM111 905v244q0 16 -9 16q-10 0 -10 -16v-244q0 -16 10 -16q9 0 9 16zM111 1245v199
q0 16 -9 16q-10 0 -10 -16v-199q0 -16 10 -16q9 0 9 16z" />
    <glyph glyph-name="nine.num" horiz-adv-x="206" 
d="M102 1456q-8 0 -8 -14v-285q0 -14 8 -14q11 0 11 14v285q0 14 -11 14zM10 1133v305q0 90 84 90h17q86 0 86 -90v-535q0 -86 -88 -86h-13q-47 0 -65.5 21.5t-18.5 62.5v152h82v-150q0 -14 8 -14q11 0 11 14v211q-6 -13 -20.5 -25t-35.5 -12h-2q-45 0 -45 56z" />
    <glyph glyph-name="zero.den" horiz-adv-x="206" 
d="M98 707h13q86 0 86 -89v-534q0 -36 -21 -62t-65 -26h-13q-47 0 -67.5 25.5t-20.5 62.5v534q0 37 20.5 63t67.5 26zM113 86v532q0 15 -11 15q-8 0 -8 -15v-532q0 -14 8 -14q11 0 11 14z" />
    <glyph glyph-name="one.den" horiz-adv-x="129" 
d="M37 606h-31v70q34 0 37 26h74v-702h-80v606z" />
    <glyph glyph-name="two.den" horiz-adv-x="198" 
d="M188 0h-178v121q0 47 6.5 84.5t14 60t35.5 99.5q28 76 34 104t6 82v74q0 14 -10 14q-8 0 -8 -14v-158h-76v160q0 80 80 80h8q50 0 69 -20.5t19 -59.5v-74q0 -61 -9 -94t-44 -123q-34 -84 -42.5 -118.5t-8.5 -90.5v-64h27v181h77v-244z" />
    <glyph glyph-name="three.den" horiz-adv-x="200" 
d="M86 442h-74v193q0 72 78 72h10q46 0 65 -17.5t19 -54.5v-211q0 -30 -26 -41q32 -14 32 -49v-260q0 -78 -88 -78h-10q-45 0 -63.5 20t-18.5 58v235h78v-229q0 -14 10 -14q8 0 8 14v254q0 8 -8 8h-39v70h39q6 0 6 8v207q0 14 -8 14q-10 0 -10 -14v-185z" />
    <glyph glyph-name="four.den" horiz-adv-x="180" 
d="M8 121v63l53 521h91v-512h22v-72h-22v-121h-76v121h-68zM55 193h21l2 366z" />
    <glyph glyph-name="five.den" horiz-adv-x="198" 
d="M88 336h-76v366h170v-75h-94v-156q18 37 53 37h2q45 0 45 -53v-373q0 -43 -19 -64.5t-65 -21.5h-14q-44 0 -62 20.5t-18 59.5v207h78v-207q0 -13 8 -13q10 0 10 13v344q0 16 -10 16q-8 0 -8 -16v-84z" />
    <glyph glyph-name="six.den" horiz-adv-x="206" 
d="M94 621v-211q6 13 20.5 24.5t35.5 11.5h2q45 0 45 -55v-305q0 -90 -84 -90h-17q-86 0 -86 90v535q0 86 88 86h13q47 0 65.5 -21.5t18.5 -62.5v-152h-82v150q0 14 -9 14q-10 0 -10 -14zM94 367v-285q0 -14 10 -14q9 0 9 14v285q0 14 -9 14q-10 0 -10 -14z" />
    <glyph glyph-name="seven.den" horiz-adv-x="180" 
d="M8 702h166v-47q0 -66 -11.5 -188t-15.5 -180q-10 -144 -10 -281v-6h-92v4q0 124 23 279q22 149 29 213t7 147h-24v-178h-72v237z" />
    <glyph glyph-name="eight.den" horiz-adv-x="202" 
d="M190 629v-203q0 -16 -6 -27.5t-9.5 -14t-12.5 -7.5q31 -13 31 -55v-242q0 -84 -82 -84h-15q-46 0 -66 20.5t-20 63.5v242q0 43 29 55q-27 12 -27 49v203q0 78 82 78h17q79 0 79 -78zM111 84v244q0 16 -9 16q-10 0 -10 -16v-244q0 -16 10 -16q9 0 9 16zM111 424v199
q0 16 -9 16q-10 0 -10 -16v-199q0 -16 10 -16q9 0 9 16z" />
    <glyph glyph-name="nine.den" horiz-adv-x="206" 
d="M102 635q-8 0 -8 -14v-285q0 -14 8 -14q11 0 11 14v285q0 14 -11 14zM10 311v305q0 91 84 91h17q86 0 86 -91v-534q0 -86 -88 -86h-13q-47 0 -65.5 21.5t-18.5 62.5v151h82v-149q0 -14 8 -14q11 0 11 14v211q-6 -13 -20.5 -25t-35.5 -12h-2q-45 0 -45 55z" />
    <glyph glyph-name="zero.sub" horiz-adv-x="206" 
d="M98 444h13q86 0 86 -88v-534q0 -36 -21 -62t-65 -26h-13q-47 0 -67.5 25.5t-20.5 62.5v534q0 37 20.5 62.5t67.5 25.5zM113 -176v532q0 15 -11 15q-8 0 -8 -15v-532q0 -14 8 -14q11 0 11 14z" />
    <glyph glyph-name="one.sub" horiz-adv-x="129" 
d="M37 344h-31v70q34 0 37 26h74v-702h-80v606z" />
    <glyph glyph-name="two.sub" horiz-adv-x="198" 
d="M188 -262h-178v121q0 62 8.5 99t38.5 119q6 16 9 25q28 76 34 104t6 83v73q0 15 -10 15q-8 0 -8 -15v-157h-76v160q0 79 80 79h8q51 0 69.5 -20t18.5 -59v-74q0 -61 -9 -94t-44 -123q-34 -84 -42.5 -118.5t-8.5 -90.5v-64h27v181h77v-244z" />
    <glyph glyph-name="three.sub" horiz-adv-x="200" 
d="M86 180h-74v193q0 71 78 71h10q46 0 65 -17t19 -54v-211q0 -30 -26 -41q32 -14 32 -49v-260q0 -78 -88 -78h-10q-45 0 -63.5 20t-18.5 58v235h78v-229q0 -15 10 -15q8 0 8 15v254q0 8 -8 8h-39v70h39q6 0 6 8v207q0 14 -8 14q-10 0 -10 -14v-185z" />
    <glyph glyph-name="four.sub" horiz-adv-x="180" 
d="M8 -141v63l53 520h91v-512h22v-71h-22v-121h-76v121h-68zM55 -70h21l2 367z" />
    <glyph glyph-name="five.sub" horiz-adv-x="198" 
d="M88 74h-76v366h170v-75h-94v-156q18 37 53 37h2q45 0 45 -53v-373q0 -43 -19 -64.5t-65 -21.5h-14q-44 0 -62 20.5t-18 59.5v206h78v-206q0 -13 8 -13q10 0 10 13v344q0 16 -10 16q-8 0 -8 -16v-84z" />
    <glyph glyph-name="six.sub" horiz-adv-x="206" 
d="M94 358v-211q6 13 20.5 25t35.5 12h2q45 0 45 -55v-305q0 -90 -84 -90h-17q-86 0 -86 90v534q0 86 88 86h13q47 0 65.5 -21.5t18.5 -62.5v-151h-82v149q0 15 -9 15q-10 0 -10 -15zM94 104v-284q0 -15 10 -15q9 0 9 15v284q0 15 -9 15q-10 0 -10 -15z" />
    <glyph glyph-name="seven.sub" horiz-adv-x="180" 
d="M8 440h166v-47q0 -66 -11.5 -188t-15.5 -180q-10 -144 -10 -281v-6h-92v4q0 123 23 278q22 149 29 213t7 148h-24v-178h-72v237z" />
    <glyph glyph-name="eight.sub" horiz-adv-x="202" 
d="M190 367v-203q0 -16 -6 -27.5t-9.5 -14t-12.5 -7.5q31 -13 31 -56v-241q0 -84 -82 -84h-15q-46 0 -66 20.5t-20 63.5v241q0 44 29 56q-27 12 -27 49v203q0 77 82 77h17q79 0 79 -77zM111 -178v244q0 16 -9 16q-10 0 -10 -16v-244q0 -17 10 -17q9 0 9 17zM111 162v198
q0 17 -9 17q-10 0 -10 -17v-198q0 -17 10 -17q9 0 9 17z" />
    <glyph glyph-name="nine.sub" horiz-adv-x="206" 
d="M102 373q-8 0 -8 -15v-284q0 -15 8 -15q11 0 11 15v284q0 15 -11 15zM10 49v305q0 90 84 90h17q86 0 86 -90v-534q0 -86 -88 -86h-13q-47 0 -65.5 21.5t-18.5 62.5v151h82v-149q0 -15 8 -15q11 0 11 15v211q-6 -13 -20.5 -25t-35.5 -12h-2q-45 0 -45 55z" />
    <glyph glyph-name="zero.sup" horiz-adv-x="206" 
d="M98 1528h13q86 0 86 -88v-535q0 -36 -21 -62t-65 -26h-13q-47 0 -67.5 25.5t-20.5 62.5v535q0 37 20.5 62.5t67.5 25.5zM113 907v533q0 14 -11 14q-8 0 -8 -14v-533q0 -14 8 -14q11 0 11 14z" />
    <glyph glyph-name="one.sup" horiz-adv-x="126" 
d="M37 1427h-31v70q34 0 37 27h74v-703h-80v606z" />
    <glyph glyph-name="two.sup" horiz-adv-x="198" 
d="M188 821h-178v121q0 47 6.5 84.5t14 60t35.5 99.5q28 76 34 104t6 82v74q0 14 -10 14q-8 0 -8 -14v-158h-76v160q0 80 80 80h8q50 0 69 -20.5t19 -59.5v-74q0 -61 -9 -94t-44 -123q-34 -84 -42.5 -118.5t-8.5 -90.5v-63h27v180h77v-244z" />
    <glyph glyph-name="three.sup" horiz-adv-x="200" 
d="M86 1264h-74v192q0 72 78 72h10q46 0 65 -17.5t19 -54.5v-211q0 -30 -26 -41q32 -14 32 -49v-260q0 -78 -88 -78h-10q-45 0 -63.5 20t-18.5 58v235h78v-229q0 -14 10 -14q8 0 8 14v254q0 8 -8 8h-39v70h39q6 0 6 8v207q0 14 -8 14q-10 0 -10 -14v-184z" />
    <glyph glyph-name="four.sup" horiz-adv-x="180" 
d="M8 1006l53 520h91v-512h22v-72h-22v-121h-76v121h-68v64zM55 1014h21l2 366z" />
    <glyph glyph-name="five.sup" horiz-adv-x="198" 
d="M88 1157h-76v367h170v-76h-94v-156q18 37 53 37h2q45 0 45 -53v-373q0 -43 -19 -64.5t-65 -21.5h-14q-44 0 -62 20.5t-18 59.5v207h78v-207q0 -12 8 -12q10 0 10 12v344q0 16 -10 16q-8 0 -8 -16v-84z" />
    <glyph glyph-name="six.sup" horiz-adv-x="206" 
d="M94 1442v-211q6 13 20.5 25t35.5 12h2q45 0 45 -56v-305q0 -90 -84 -90h-17q-86 0 -86 90v535q0 86 88 86h13q47 0 65.5 -21.5t18.5 -62.5v-152h-82v150q0 14 -9 14q-10 0 -10 -14zM94 1188v-285q0 -14 10 -14q9 0 9 14v285q0 14 -9 14q-10 0 -10 -14z" />
    <glyph glyph-name="seven.sup" horiz-adv-x="180" 
d="M8 1524h166v-47q0 -66 -11.5 -188.5t-15.5 -180.5q-10 -144 -10 -281v-6h-94v4q0 122 25 281q36 218 36 358h-24v-178h-72v238z" />
    <glyph glyph-name="eight.sup" horiz-adv-x="202" 
d="M190 1450v-203q0 -16 -6 -27.5t-9.5 -14t-12.5 -7.5q31 -13 31 -55v-242q0 -84 -82 -84h-15q-46 0 -66 20.5t-20 63.5v242q0 43 29 55q-27 12 -27 49v203q0 78 82 78h17q79 0 79 -78zM111 905v244q0 16 -9 16q-10 0 -10 -16v-244q0 -16 10 -16q9 0 9 16zM111 1245v199
q0 16 -9 16q-10 0 -10 -16v-199q0 -16 10 -16q9 0 9 16z" />
    <glyph glyph-name="nine.sup" horiz-adv-x="206" 
d="M102 1456q-8 0 -8 -14v-285q0 -14 8 -14q11 0 11 14v285q0 14 -11 14zM10 1133v305q0 90 84 90h17q86 0 86 -90v-535q0 -86 -88 -86h-13q-47 0 -65.5 21.5t-18.5 62.5v152h82v-150q0 -14 8 -14q11 0 11 14v211q-6 -13 -20.5 -25t-35.5 -12h-2q-45 0 -45 56z" />
    <glyph glyph-name="IJ.alt" horiz-adv-x="305" 
d="M121 1524v-1524h-109v1524h109zM137 0v104h29q16 0 16 21v1399h111v-1440q0 -39 -19.5 -61.5t-56.5 -22.5h-80z" />
    <glyph glyph-name="a.alt2" 
d="M127 82q10 0 10 14v916q0 14 -10 14t-10 -14v-916q0 -14 10 -14zM137 1102h107v-1102h-107v49q-24 -53 -65 -53h-2q-28 0 -44 23t-16 59v954q0 32 16.5 53t41.5 21h4q40 0 65 -45v41z" />
    <glyph glyph-name="Eacute.alt" horiz-adv-x="198" 
d="M12 1524h176v-103h-67v-559h65v-106h-65v-652h69v-104h-178v1524zM55 1538l45 123h101l-49 -123h-97z" />
    <glyph glyph-name="Ebreve.alt" horiz-adv-x="198" 
d="M12 1524h176v-103h-67v-559h65v-106h-65v-652h69v-104h-178v1524zM102 1536h-2q-46 0 -70 25.5t-24 68.5v15h80v-15q0 -22 14 -22q15 0 15 22v15h80v-15q0 -42 -25.5 -68t-67.5 -26z" />
    <glyph glyph-name="Ecaron.alt" horiz-adv-x="198" 
d="M12 1524h176v-103h-67v-559h65v-106h-65v-652h69v-104h-178v1524zM51 1538l-49 123h84l16 -57l17 57h82l-47 -123h-103z" />
    <glyph glyph-name="Ecircumflex.alt" horiz-adv-x="198" 
d="M12 1524h176v-103h-67v-559h65v-106h-65v-652h69v-104h-178v1524zM152 1661l49 -123h-84l-17 57l-16 -57h-84l49 123h103z" />
    <glyph glyph-name="Edieresis.alt" horiz-adv-x="198" 
d="M12 1524h176v-103h-67v-559h65v-106h-65v-652h69v-104h-178v1524zM92 1653v-115h-84v115h84zM193 1653v-115h-84v115h84z" />
    <glyph glyph-name="Edotaccent.alt" horiz-adv-x="198" 
d="M12 1524h176v-103h-67v-559h65v-106h-65v-652h69v-104h-178v1524zM154 1661v-123h-107v123h107z" />
    <glyph glyph-name="Egrave.alt" horiz-adv-x="198" 
d="M12 1524h176v-103h-67v-559h65v-106h-65v-652h69v-104h-178v1524zM104 1661l46 -123h-97l-49 123h100z" />
    <glyph glyph-name="Emacron.alt" horiz-adv-x="198" 
d="M12 1524h176v-103h-67v-559h65v-106h-65v-652h69v-104h-178v1524zM20 1542v86h162v-86h-162z" />
    <glyph glyph-name="Eogonek.alt" horiz-adv-x="198" 
d="M166 -299h-6q-111 0 -111 100v2q0 79 72 197h41q-27 -105 -27 -164v-2q0 -49 31 -53v-80zM12 1524h176v-103h-67v-559h65v-106h-65v-652h69v-104h-178v1524z" />
    <glyph glyph-name="Jcircumflex.alt" horiz-adv-x="176" 
d="M8 0v104h29q16 0 16 21v1399h111v-1440q0 -39 -19.5 -61.5t-56.5 -22.5h-80zM158 1661l49 -123h-84l-17 57l-16 -57h-84l49 123h103z" />
    <glyph glyph-name="aacute.alt" horiz-adv-x="245" 
d="M76 1118l35 152h94l-37 -152h-92zM133 96v508q-13 -11 -16.5 -17.5t-3.5 -19.5v-471q0 -14 10 -14t10 14zM133 53q-21 -57 -67 -57h-3q-27 0 -40 19t-13 46v494q0 35 8 52t33 34q39 24 74 39q8 3 8 16v318q0 14 -10 14t-10 -14v-326h-101v330q0 90 105 90h10
q54 0 81.5 -19.5t27.5 -70.5v-928q0 -62 6 -86v-4h-103q-6 18 -6 53z" />
    <glyph glyph-name="aacute.alt2" 
d="M127 82q10 0 10 14v916q0 14 -10 14t-10 -14v-916q0 -14 10 -14zM137 1102h107v-1102h-107v49q-24 -53 -65 -53h-2q-28 0 -44 23t-16 59v954q0 32 16.5 53t41.5 21h4q40 0 65 -45v41zM80 1116l35 154h94l-37 -154h-92z" />
    <glyph glyph-name="abreve.alt" horiz-adv-x="245" 
d="M133 96v508q-13 -11 -16.5 -17.5t-3.5 -19.5v-471q0 -14 10 -14t10 14zM133 53q-21 -57 -67 -57h-3q-27 0 -40 19t-13 46v494q0 35 8 52t33 34q39 24 74 39q8 3 8 16v318q0 14 -10 14t-10 -14v-326h-101v330q0 90 105 90h10q54 0 81.5 -19.5t27.5 -70.5v-928q0 -62 6 -86
v-4h-103q-6 18 -6 53zM123 1116h-2q-94 0 -94 94v21h79v-17q0 -26 15 -26q14 0 14 26v17h80v-21q0 -43 -23 -68.5t-69 -25.5z" />
    <glyph glyph-name="abreve.alt2" 
d="M127 82q10 0 10 14v916q0 14 -10 14t-10 -14v-916q0 -14 10 -14zM137 1102h107v-1102h-107v49q-24 -53 -65 -53h-2q-28 0 -44 23t-16 59v954q0 32 16.5 53t41.5 21h4q40 0 65 -45v41zM123 1114h-2q-94 0 -94 94v21h79v-17q0 -26 15 -26q14 0 14 26v17h80v-21
q0 -43 -23 -68.5t-69 -25.5z" />
    <glyph glyph-name="acircumflex.alt" horiz-adv-x="245" 
d="M170 1270l41 -152h-76l-12 84l-12 -84h-78l43 152h94zM133 96v508q-13 -11 -16.5 -17.5t-3.5 -19.5v-471q0 -14 10 -14t10 14zM133 53q-21 -57 -67 -57h-3q-27 0 -40 19t-13 46v494q0 35 8 52t33 34q39 24 74 39q8 3 8 16v318q0 14 -10 14t-10 -14v-326h-101v330
q0 90 105 90h10q54 0 81.5 -19.5t27.5 -70.5v-928q0 -62 6 -86v-4h-103q-6 18 -6 53z" />
    <glyph glyph-name="acircumflex.alt2" 
d="M127 82q10 0 10 14v916q0 14 -10 14t-10 -14v-916q0 -14 10 -14zM137 1102h107v-1102h-107v49q-24 -53 -65 -53h-2q-28 0 -44 23t-16 59v954q0 32 16.5 53t41.5 21h4q40 0 65 -45v41zM172 1270l41 -154h-76l-12 86l-12 -86h-78l43 154h94z" />
    <glyph glyph-name="adieresis.alt" horiz-adv-x="245" 
d="M213 1233v-115h-82v115h82zM115 1233v-115h-82v115h82zM133 96v508q-13 -11 -16.5 -17.5t-3.5 -19.5v-471q0 -14 10 -14t10 14zM133 53q-21 -57 -67 -57h-3q-27 0 -40 19t-13 46v494q0 35 8 52t33 34q39 24 74 39q8 3 8 16v318q0 14 -10 14t-10 -14v-326h-101v330
q0 90 105 90h10q54 0 81.5 -19.5t27.5 -70.5v-928q0 -62 6 -86v-4h-103q-6 18 -6 53z" />
    <glyph glyph-name="adieresis.alt2" 
d="M127 82q10 0 10 14v916q0 14 -10 14t-10 -14v-916q0 -14 10 -14zM137 1102h107v-1102h-107v49q-24 -53 -65 -53h-2q-28 0 -44 23t-16 59v954q0 32 16.5 53t41.5 21h4q40 0 65 -45v41zM217 1233v-117h-82v117h82zM119 1233v-117h-82v117h82z" />
    <glyph glyph-name="agrave.alt" horiz-adv-x="245" 
d="M133 1270l35 -152h-92l-37 152h94zM133 96v508q-13 -11 -16.5 -17.5t-3.5 -19.5v-471q0 -14 10 -14t10 14zM133 53q-21 -57 -67 -57h-3q-27 0 -40 19t-13 46v494q0 35 8 52t33 34q39 24 74 39q8 3 8 16v318q0 14 -10 14t-10 -14v-326h-101v330q0 90 105 90h10
q54 0 81.5 -19.5t27.5 -70.5v-928q0 -62 6 -86v-4h-103q-6 18 -6 53z" />
    <glyph glyph-name="agrave.alt2" 
d="M127 82q10 0 10 14v916q0 14 -10 14t-10 -14v-916q0 -14 10 -14zM137 1102h107v-1102h-107v49q-24 -53 -65 -53h-2q-28 0 -44 23t-16 59v954q0 32 16.5 53t41.5 21h4q40 0 65 -45v41zM137 1270l35 -154h-92l-37 154h94z" />
    <glyph glyph-name="amacron.alt" horiz-adv-x="245" 
d="M133 96v508q-13 -11 -16.5 -17.5t-3.5 -19.5v-471q0 -14 10 -14t10 14zM133 53q-21 -57 -67 -57h-3q-27 0 -40 19t-13 46v494q0 35 8 52t33 34q39 24 74 39q8 3 8 16v318q0 14 -10 14t-10 -14v-326h-101v330q0 90 105 90h10q54 0 81.5 -19.5t27.5 -70.5v-928q0 -62 6 -86
v-4h-103q-6 18 -6 53zM41 1126v86h162v-86h-162z" />
    <glyph glyph-name="amacron.alt2" 
d="M127 82q10 0 10 14v916q0 14 -10 14t-10 -14v-916q0 -14 10 -14zM137 1102h107v-1102h-107v49q-24 -53 -65 -53h-2q-28 0 -44 23t-16 59v954q0 32 16.5 53t41.5 21h4q40 0 65 -45v41zM41 1126v86h162v-86h-162z" />
    <glyph glyph-name="aogonek.alt" horiz-adv-x="245" 
d="M133 96v508q-13 -11 -16.5 -17.5t-3.5 -19.5v-471q0 -14 10 -14t10 14zM133 53q-21 -57 -67 -57h-3q-27 0 -40 19t-13 46v494q0 35 8 52t33 34q39 24 74 39q8 3 8 16v318q0 14 -10 14t-10 -14v-326h-101v330q0 90 105 90h10q54 0 81.5 -19.5t27.5 -70.5v-928q0 -62 6 -86
v-4h-103q-6 18 -6 53zM242 -299h-2q-111 0 -111 100v2q0 79 72 197h41q-27 -105 -27 -164v-2q0 -49 27 -53v-80z" />
    <glyph glyph-name="aogonek.alt2" 
d="M127 82q10 0 10 14v916q0 14 -10 14t-10 -14v-916q0 -14 10 -14zM137 1102h107v-1102h-107v49q-24 -53 -65 -53h-2q-28 0 -44 23t-16 59v954q0 32 16.5 53t41.5 21h4q40 0 65 -45v41zM244 -299h-2q-111 0 -111 100v2q0 79 72 197h41q-27 -105 -27 -164v-2q0 -49 27 -53
v-80z" />
    <glyph glyph-name="aring.alt" horiz-adv-x="245" 
d="M133 96v508q-13 -11 -16.5 -17.5t-3.5 -19.5v-471q0 -14 10 -14t10 14zM133 53q-21 -57 -67 -57h-3q-27 0 -40 19t-13 46v494q0 35 8 52t33 34q39 24 74 39q8 3 8 16v318q0 14 -10 14t-10 -14v-326h-101v330q0 90 105 90h10q54 0 81.5 -19.5t27.5 -70.5v-928q0 -62 6 -86
v-4h-103q-6 18 -6 53zM201 1192q0 -34 -22.5 -55t-55.5 -21t-55.5 21t-22.5 55t22.5 55t55.5 21t55.5 -21t22.5 -55zM94 1192q0 -31 29 -31t29 31t-29 31t-29 -31z" />
    <glyph glyph-name="aring.alt2" 
d="M127 82q10 0 10 14v916q0 14 -10 14t-10 -14v-916q0 -14 10 -14zM137 1102h107v-1102h-107v49q-24 -53 -65 -53h-2q-28 0 -44 23t-16 59v954q0 32 16.5 53t41.5 21h4q40 0 65 -45v41zM203 1190q0 -34 -22.5 -55t-55.5 -21t-55.5 21t-22.5 55t22.5 55t55.5 21t55.5 -21
t22.5 -55zM96 1190q0 -31 29 -31t29 31t-29 31t-29 -31z" />
    <glyph glyph-name="aringacute.alt" horiz-adv-x="245" 
d="M78 1276l35 154h94l-37 -154h-92zM201 1192q0 -34 -22.5 -55t-55.5 -21t-55.5 21t-22.5 55t22.5 55t55.5 21t55.5 -21t22.5 -55zM94 1192q0 -31 29 -31t29 31t-29 31t-29 -31zM133 96v508q-13 -11 -16.5 -17.5t-3.5 -19.5v-471q0 -14 10 -14t10 14zM133 53
q-21 -57 -67 -57h-3q-27 0 -40 19t-13 46v494q0 35 8 52t33 34q39 24 74 39q8 3 8 16v318q0 14 -10 14t-10 -14v-326h-101v330q0 90 105 90h10q54 0 81.5 -19.5t27.5 -70.5v-928q0 -62 6 -86v-4h-103q-6 18 -6 53z" />
    <glyph glyph-name="aringacute.alt2" 
d="M199 1190q0 -34 -22.5 -55t-55.5 -21t-55.5 21t-22.5 55t22.5 55t55.5 21t55.5 -21t22.5 -55zM92 1190q0 -31 29 -31t29 31t-29 31t-29 -31zM76 1274l35 153h94l-37 -153h-92zM127 82q10 0 10 14v916q0 14 -10 14t-10 -14v-916q0 -14 10 -14zM137 1102h107v-1102h-107v49
q-24 -53 -65 -53h-2q-28 0 -44 23t-16 59v954q0 32 16.5 53t41.5 21h4q40 0 65 -45v41z" />
    <glyph glyph-name="atilde.alt" horiz-adv-x="245" 
d="M133 96v508q-13 -11 -16.5 -17.5t-3.5 -19.5v-471q0 -14 10 -14t10 14zM133 53q-21 -57 -67 -57h-3q-27 0 -40 19t-13 46v494q0 35 8 52t33 34q39 24 74 39q8 3 8 16v318q0 14 -10 14t-10 -14v-326h-101v330q0 90 105 90h10q54 0 81.5 -19.5t27.5 -70.5v-928q0 -62 6 -86
v-4h-103q-6 18 -6 53zM94 1118h-63v58q0 61 45 61q23 0 51 -20q18 -11 20 -11q5 0 5 8v25h63v-57q0 -62 -45 -62q-8 0 -15.5 2t-11 4t-11.5 7.5t-11 7.5q-17 12 -23 12q-4 0 -4 -8v-27z" />
    <glyph glyph-name="atilde.alt2" 
d="M127 82q10 0 10 14v916q0 14 -10 14t-10 -14v-916q0 -14 10 -14zM137 1102h107v-1102h-107v49q-24 -53 -65 -53h-2q-28 0 -44 23t-16 59v954q0 32 16.5 53t41.5 21h4q40 0 65 -45v41zM98 1116h-63v58q0 61 45 61q22 0 51 -21q17 -10 21 -10t4 8v25h63v-57q0 -62 -45 -62
q-8 0 -15.5 2t-11 4t-11.5 7.5t-11 7.5q-17 12 -23 12q-4 0 -4 -8v-27z" />
    <glyph glyph-name="racute.alt" horiz-adv-x="192" 
d="M115 1102v-58q10 35 21.5 48.5t29.5 13.5h2q3 0 6 -1t6 -1q2 -2 6 -2v-127q-18 6 -30 6h-4q-22 0 -29.5 -6.5t-7.5 -20.5v-954h-105v1102h105zM57 1116l35 154h94l-36 -154h-93z" />
    <glyph glyph-name="rcaron.alt" horiz-adv-x="192" 
d="M115 1102v-58q10 35 21.5 48.5t29.5 13.5h2q3 0 6 -1t6 -1q2 -2 6 -2v-127q-18 6 -30 6h-4q-22 0 -29.5 -6.5t-7.5 -20.5v-954h-105v1102h105zM55 1116l-43 154h78l12 -86l13 86h75l-40 -154h-95z" />
    <glyph glyph-name="rcommaaccent.alt" horiz-adv-x="192" 
d="M115 1102v-58q10 35 21.5 48.5t29.5 13.5h2q3 0 6 -1t6 -1q2 -2 6 -2v-127q-18 6 -30 6h-4q-22 0 -29.5 -6.5t-7.5 -20.5v-954h-105v1102h105zM88 -213h-49q16 50 16 84h-35v115h89v-97q0 -49 -21 -102z" />
    <glyph glyph-name="space_uni0326.alt" horiz-adv-x="200" 
d="M78 1315h49q-16 -50 -16 -84h34v-115h-88v96q0 50 21 103z" />
    <glyph glyph-name="ordfeminine.alt" horiz-adv-x="159" 
d="M88 924q-15 -35 -41 -35h-2q-35 0 -35 43v268q0 22 4.5 31.5t20.5 19.5l45 23q8 3 8 12v180q0 11 -8 11t-8 -11v-186h-60v190q0 58 64 58h8q66 0 66 -58v-522q0 -41 4 -53v-4h-62q-4 12 -4 33zM72 1202v-246q0 -12 8 -12t8 12v271q-16 -10 -16 -25z" />
    <glyph glyph-name="ordfeminine.alt2" horiz-adv-x="163" 
d="M82 942q8 0 8 12v508q0 13 -8 13t-8 -13v-508q0 -12 8 -12zM90 891v33q-15 -35 -43 -35q-37 0 -37 47v547q0 43 35 43h2q27 0 43 -31v29h64v-633h-64z" />
    <glyph glyph-name="emdash.alt" horiz-adv-x="733" 
d="M10 657h713v-82h-713v82z" />
    <glyph glyph-name="caron.alt" horiz-adv-x="200" 
d="M55 1372l4 152h84l-10 -152h-78z" />
    <glyph glyph-name="plus.uc" horiz-adv-x="229" 
d="M219 664h-65v-76h-78v76h-66v73h66v76h78v-76h65v-73z" />
    <glyph glyph-name="minus.uc" horiz-adv-x="223" 
d="M10 737h203v-73h-203v73z" />
    <glyph glyph-name="multiply.uc" horiz-adv-x="210" 
d="M158 600l-52 53l-53 -53l-49 49l51 53l-51 52l49 51l53 -53l52 53l49 -51l-51 -52l51 -53z" />
    <glyph glyph-name="divide.uc" horiz-adv-x="229" 
d="M156 831v-79h-80v79h80zM10 737h209v-73h-209v73zM156 649v-80h-80v80h80z" />
    <glyph glyph-name="equal.uc" horiz-adv-x="225" 
d="M12 774h201v-63h-201v63zM12 692h201v-65h-201v65z" />
    <glyph glyph-name="less.uc" horiz-adv-x="198" 
d="M188 592l-178 72v73l178 72v-80l-96 -31l96 -28v-78z" />
    <glyph glyph-name="greater.uc" horiz-adv-x="198" 
d="M10 592v78l96 28l-96 31v80l178 -72v-73z" />
    <glyph glyph-name="questiondown.uc" horiz-adv-x="256" 
d="M90 1350h86v-392q0 -59 -3.5 -85.5t-16.5 -73.5l-27 -99q-14 -47 -14 -131v-460q0 -19 12 -19q10 0 10 19v512h103v-506q0 -119 -109 -119h-10q-61 0 -87 28.5t-26 90.5v415q0 66 5 103t22 90l28 96q19 59 23 87t4 83v361zM84 1366v158h98v-158h-98z" />
    <glyph glyph-name="exclamdown.uc" horiz-adv-x="129" 
d="M117 0h-105q0 59 23 1350h59q23 -1291 23 -1350zM115 1524v-158h-101v158h101z" />
    <glyph glyph-name="hyphen.uc" horiz-adv-x="139" 
d="M10 758h119v-113h-119v113z" />
    <glyph glyph-name="endash.uc" 
d="M10 743h234v-81h-234v81z" />
    <glyph glyph-name="emdash.uc" horiz-adv-x="376" 
d="M10 743h357v-81h-357v81z" />
    <glyph glyph-name="guilsinglleft.uc" horiz-adv-x="133" 
d="M90 598l33 -252h-76l-37 234v38l37 224h78z" />
    <glyph glyph-name="guilsinglright.uc" horiz-adv-x="133" 
d="M43 598l-35 244h78l37 -224v-38l-37 -234h-76z" />
    <glyph glyph-name="guillemotleft.uc" horiz-adv-x="225" 
d="M184 598l29 -252h-76l-33 252l35 244h78zM88 598l33 -252h-76l-35 234v38l35 224h78z" />
    <glyph glyph-name="guillemotright.uc" horiz-adv-x="225" 
d="M12 346l29 252l-33 244h78l35 -244l-33 -252h-76zM104 346l33 252l-35 244h78l35 -224v-38l-35 -234h-76z" />
    <glyph glyph-name="parenleft.uc" horiz-adv-x="143" 
d="M137 -123h-61q-64 355 -64 879q0 513 64 872h61q-35 -354 -35 -870q0 -518 35 -881z" />
    <glyph glyph-name="parenright.uc" horiz-adv-x="143" 
d="M68 -123h-62q35 363 35 881q0 516 -35 870h62q63 -354 63 -872q0 -529 -63 -879z" />
    <glyph glyph-name="bracketleft.uc" horiz-adv-x="133" 
d="M12 -123v1751h115v-76h-31v-1601h31v-74h-115z" />
    <glyph glyph-name="bracketright.uc" horiz-adv-x="133" 
d="M6 -123v74h31v1601h-31v76h115v-1751h-115z" />
    <glyph glyph-name="braceleft.uc" horiz-adv-x="141" 
d="M135 -123h-45q-70 0 -70 64q0 12 8.5 374.5t8.5 380.5q0 23 -17 23h-12v76h12q17 0 17 22q0 21 -8.5 373t-8.5 371q0 67 70 67h45v-76h-16q-19 0 -19 -22q0 -7 8.5 -354t8.5 -361q0 -45 -37 -57q37 -12 37 -51q0 -17 -8.5 -371.5t-8.5 -364.5q0 -22 19 -22h16v-72z" />
    <glyph glyph-name="braceright.uc" horiz-adv-x="141" 
d="M51 -123h-45v72h17q18 0 18 22q0 10 -8 364.5t-8 371.5q0 43 38 51q-38 8 -38 57q0 14 8 361t8 354q0 22 -18 22h-17v76h45q70 0 70 -67q0 -19 -8.5 -371t-8.5 -373q0 -22 17 -22h12v-76h-12q-17 0 -17 -23q0 -18 8.5 -380.5t8.5 -374.5q0 -64 -70 -64z" />
    <glyph glyph-name="slash.uc" horiz-adv-x="161" 
d="M154 1628l-78 -1751h-70l76 1751h72z" />
    <glyph glyph-name="backslash.uc" horiz-adv-x="161" 
d="M86 -123l-78 1751h72l76 -1751h-70z" />
    <glyph glyph-name="bar.uc" horiz-adv-x="141" 
d="M106 1628v-1751h-71v1751h71z" />
    <glyph glyph-name="at.uc" horiz-adv-x="411" 
d="M205 -6q-85 0 -139 60.5t-54 183.5v1042q0 117 52.5 181.5t144.5 64.5t141 -58.5t49 -167.5v-942q0 -168 -102 -168q-60 0 -76 50q-26 -50 -67 -50q-29 0 -45.5 24.5t-16.5 66.5l6 948q0 69 58 69q39 0 65 -43v41h101l-11 -1028q0 -22 8 -22q21 0 21 112v940
q0 87 -34.5 132t-96.5 45q-137 0 -137 -197v-1040q0 -99 37 -146t96 -47q56 0 91.5 44t51.5 99l43 -26q-49 -168 -186 -168zM213 285l6 919q0 17 -10 17t-10 -17l-6 -919q0 -17 10 -17t10 17z" />
    <glyph glyph-name="grave.uc" horiz-adv-x="200" 
d="M127 1661l45 -123h-96l-49 123h100z" />
    <glyph glyph-name="dieresis.uc" horiz-adv-x="200" 
d="M92 1653v-115h-84v115h84zM193 1653v-115h-84v115h84z" />
    <glyph glyph-name="macron.uc" horiz-adv-x="200" 
d="M20 1542v86h162v-86h-162z" />
    <glyph glyph-name="acute.uc" horiz-adv-x="200" 
d="M31 1538l45 123h100l-49 -123h-96z" />
    <glyph glyph-name="circumflex.uc" horiz-adv-x="200" 
d="M152 1661l49 -123h-84l-17 57l-16 -57h-84l49 123h103z" />
    <glyph glyph-name="caron.uc" horiz-adv-x="200" 
d="M49 1538l-49 123h84l16 -57l17 57h82l-47 -123h-103z" />
    <glyph glyph-name="breve.uc" horiz-adv-x="200" 
d="M102 1536h-2q-46 0 -70 25.5t-24 68.5v15h80v-15q0 -22 14 -22q15 0 15 22v15h80v-15q0 -42 -25.5 -68t-67.5 -26z" />
    <glyph glyph-name="dotaccent.uc" horiz-adv-x="200" 
d="M154 1661v-123h-107v123h107z" />
    <glyph glyph-name="ring.uc" horiz-adv-x="200" 
d="M23 1612q0 34 22 55t55 21t55.5 -21t22.5 -55t-22.5 -55t-55.5 -21t-55 21t-22 55zM100 1642q-28 0 -28 -30q0 -31 28 -31q29 0 29 31q0 30 -29 30z" />
    <glyph glyph-name="tilde.uc" horiz-adv-x="200" 
d="M68 1538h-64v47q0 60 47 60q10 0 49 -17q24 -12 27 -12q6 0 6 8v23h64v-48q0 -59 -43 -59q-17 0 -54 16l-26 13q-6 0 -6 -8v-23z" />
    <glyph glyph-name="hungarumlaut.uc" horiz-adv-x="200" 
d="M90 1538l39 123h82l-39 -123h-82zM-8 1538l39 123h82l-39 -123h-82z" />
    <glyph glyph-name="emdash.altuc" horiz-adv-x="733" 
d="M10 743h713v-81h-713v81z" />
    <glyph glyph-name="f.short" horiz-adv-x="182" 
d="M176 1524v-99h-20q-11 0 -11 -12v-311h31v-98h-31v-1004h-106v1004h-33v98h33v362q0 28 15.5 44t41.5 16h80z" />
    <glyph glyph-name="f_f.short" horiz-adv-x="331" 
d="M145 0h-106v1004h-33v98h33v362q0 28 15.5 44t41.5 16h80v-99h-20q-11 0 -11 -12v-311h43v362q0 28 16 44t42 16h80v-99h-21q-10 0 -10 -12v-311h31v-98h-31v-1004h-107v1004h-43v-1004z" />
    <glyph glyph-name="j.short" horiz-adv-x="126" 
d="M117 1270v-154h-107v154h107zM-8 -201h8q10 0 10 11v1292h107v-1348q0 -53 -47 -53h-78v98z" />
    </font>
</defs>
</svg>
