<?xml version="1.0" standalone="no"?>
<!DOCTYPE svg PUBLIC "-//W3C//DTD SVG 1.1//EN" "http://www.w3.org/Graphics/SVG/1.1/DTD/svg11.dtd" >
<svg xmlns="http://www.w3.org/2000/svg" xmlns:xlink="http://www.w3.org/1999/xlink" version="1.1">
<metadata>
Created by FontForge 20170731 at Mon Jan 25 13:52:15 2021
 By Aleksey,,,
Copyright (c) 2015 Berton Hasebe, under exclusive license to Schwartzco Inc./ Commercial Type. All rights reserved.
</metadata>
<defs>
<font id="DrukTextWide-Bold" horiz-adv-x="1884" >
  <font-face 
    font-family="Druk Text Wide"
    font-weight="700"
    font-stretch="expanded"
    units-per-em="2048"
    panose-1="0 0 0 0 0 0 0 0 0 0"
    ascent="1665"
    descent="-383"
    x-height="1141"
    cap-height="1524"
    bbox="-133 -586 4741 2546"
    underline-thickness="186"
    underline-position="-227"
    unicode-range="U+000D-FB02"
  />
<missing-glyph horiz-adv-x="606" 
 />
    <glyph glyph-name="f_t" unicode="ft" horiz-adv-x="2072" 
d="M778 825v-825h-459v825h-243v316h243v73q0 84 16.5 143t57 104t113 67t180.5 22h328v-264h-150q-45 0 -65.5 -20.5t-20.5 -67.5v-57h479v344h461v-344h248v-316h-248v-366q0 -68 24 -94.5t91 -26.5h133v-338h-405q-141 0 -222.5 77.5t-81.5 227.5v520h-479z" />
    <glyph glyph-name="f_f_t" unicode="fft" horiz-adv-x="3010" 
d="M778 825v-825h-459v825h-243v316h243v73q0 84 16.5 143t57 104t113 67t180.5 22h338v-264h-160q-45 0 -65.5 -20.5t-20.5 -67.5v-57h479v73q0 84 17 143t57.5 104t113.5 67t181 22h328v-264h-152q-44 0 -64 -20.5t-20 -67.5v-57h480v344h458v-344h248v-316h-248v-366
q0 -68 23.5 -94.5t93.5 -26.5h131v-338h-403q-141 0 -222 77.5t-81 227.5v520h-480v-825h-461v825h-479z" />
    <glyph glyph-name="f_f" unicode="ff" horiz-adv-x="2041" 
d="M319 0v825h-243v316h243v73q0 84 16.5 143t57 104t113 67t180.5 22h338v-264h-160q-45 0 -65.5 -20.5t-20.5 -67.5v-57h479v73q0 84 17 143t57.5 104t113.5 67t181 22h338v-264h-162q-44 0 -64 -20.5t-20 -67.5v-57h246v-316h-246v-825h-461v825h-479v-825h-459z" />
    <glyph glyph-name="f_i" unicode="fi" horiz-adv-x="1882" 
d="M1722 1255h-469v299h469v-299zM1720 0h-465v1141h465v-1141zM1020 1286h-156q-45 0 -65.5 -20.5t-20.5 -67.5v-57h242v-316h-242v-825h-459v825h-243v316h243v73q0 84 16.5 143t57 104t113 67t180.5 22h334v-264z" />
    <glyph glyph-name="f_l" unicode="fl" horiz-adv-x="1882" 
d="M1020 1286h-156q-45 0 -65.5 -20.5t-20.5 -67.5v-57h242v-316h-242v-825h-459v825h-243v316h243v73q0 84 16.5 143t57 104t113 67t180.5 22h334v-264zM1720 0h-465v1550h465v-1550z" />
    <glyph glyph-name="emdash.alt" unicode="&#x2014;&#x2014;" horiz-adv-x="4882" 
d="M4741 461h-4600v307h4600v-307z" />
    <glyph glyph-name=".notdef" horiz-adv-x="606" 
 />
    <glyph glyph-name=".null" horiz-adv-x="0" 
 />
    <glyph glyph-name="nonmarkingreturn" horiz-adv-x="682" 
 />
    <glyph glyph-name="NULL" horiz-adv-x="0" 
 />
    <glyph glyph-name="NULL" horiz-adv-x="0" 
 />
    <glyph glyph-name="CR" unicode="&#xd;" horiz-adv-x="606" 
 />
    <glyph glyph-name="space" unicode=" " horiz-adv-x="606" 
 />
    <glyph glyph-name="exclam" unicode="!" horiz-adv-x="831" 
d="M698 1524l-170 -1000h-225l-172 1000h567zM668 0h-502v401h502v-401z" />
    <glyph glyph-name="quotedbl" unicode="&#x22;" horiz-adv-x="1288" 
d="M1128 889h-385v635h385v-635zM545 889h-385v635h385v-635z" />
    <glyph glyph-name="numbersign" unicode="#" horiz-adv-x="1699" 
d="M1022 938h-283l-65 -283h284zM901 403h-285l-94 -403h-317l90 403h-246l60 252h243l64 283h-244l57 252h244l76 334h325l-75 -334h282l76 334h328l-78 -334h244l-60 -252h-241l-66 -283h242l-60 -252h-241l-92 -403h-324z" />
    <glyph glyph-name="dollar" unicode="$" horiz-adv-x="1996" 
d="M631 1104q0 -29 10 -51t36.5 -42.5t81.5 -33t138 -16.5v274q-111 -5 -170.5 -22.5t-77.5 -41.5t-18 -65v-2zM1376 469q0 33 -10.5 56t-39 43.5t-86 32t-144.5 15.5v-321q72 5 124.5 17t82 27.5t46.5 38t22 42.5t5 47v2zM897 -182v157q-146 5 -265 26.5t-199 52t-139.5 74
t-93 86t-53.5 94.5t-26 93.5t-6 87.5v19h514q3 -25 6.5 -42.5t20 -48.5t42.5 -52t77.5 -40.5t121.5 -27.5v326h-66q-163 5 -287 31.5t-201.5 68.5t-126 102t-67 124t-18.5 143v18q0 73 19 132t71 115.5t136 94.5t221 62.5t319 27.5v160h199v-160q192 -5 333 -35t220.5 -73
t126.5 -105.5t61 -119t14 -126.5v-16h-503q-6 30 -15 50t-33.5 46t-76 44t-127.5 26v-279l71 -2q171 -5 297 -29.5t205 -64t127 -99t66 -125t18 -151.5v-24q0 -52 -8 -97.5t-30 -95.5t-58 -90t-96.5 -77.5t-141 -63.5t-195 -42t-255.5 -18v-157h-199z" />
    <glyph glyph-name="percent" unicode="%" horiz-adv-x="2844" 
d="M614 653q-127 0 -225 29.5t-154.5 74t-92.5 105t-48 113.5t-12 108v35q0 55 12 107.5t48 111.5t92.5 102.5t154.5 72t225 28.5h41q93 0 170.5 -15t132 -40t96.5 -60t67 -72t41 -80t22 -80t6 -75v-35q0 -55 -12 -108t-47.5 -113.5t-92.5 -105t-155.5 -74t-227.5 -29.5h-41
zM2324 1524l-1427 -1524h-381l1428 1524h380zM852 1108q0 81 -53.5 131.5t-163.5 50.5q-109 0 -161 -50.5t-52 -131.5v-10q0 -80 53 -133.5t160 -53.5q109 0 163 53t54 132v12zM2187 -16q-128 0 -227 30t-155.5 75t-92 106t-47.5 114.5t-12 108.5v33q0 55 12 107t47.5 111
t92 102t155 72t227.5 29h39q129 0 228.5 -29t156 -72t92.5 -102t48 -111t12 -107v-33q0 -55 -12 -108.5t-48 -114.5t-92.5 -106t-156 -75t-228.5 -30h-39zM2206 621q-109 0 -161 -50t-52 -131v-10q0 -81 53 -134.5t160 -53.5q108 0 162.5 53.5t54.5 132.5v12q0 81 -53 131
t-164 50z" />
    <glyph glyph-name="ampersand" unicode="&#x26;" horiz-adv-x="2183" 
d="M795 1159q0 -51 41 -98t143 -125q118 37 175.5 86.5t57.5 116.5q0 145 -217 145q-107 0 -153.5 -32t-46.5 -93zM950 270q148 0 260 25l-520 381q-117 -70 -117 -174v-6q0 -94 94 -160t283 -66zM2023 -23q-180 0 -299 27t-219 84q-235 -115 -573 -115q-188 0 -336 23
t-244.5 62t-159.5 95t-89.5 118.5t-26.5 136.5v20q0 297 450 379q-104 90 -152 171.5t-48 182.5v15q0 56 16.5 106t60.5 100.5t112.5 86.5t181 58.5t257.5 22.5h82q145 0 255 -23t174 -59t103.5 -87t52.5 -98.5t13 -102.5v-11q0 -136 -117 -232.5t-360 -139.5l373 -281
q102 162 106 373h437q-9 -291 -228 -535q100 -20 303 -20z" />
    <glyph glyph-name="quotesingle" unicode="'" horiz-adv-x="708" 
d="M551 887h-391v637h391v-637z" />
    <glyph glyph-name="parenleft" unicode="(" horiz-adv-x="796" 
d="M481 698q0 -269 77.5 -518.5t197.5 -447.5h-256q-391 442 -391 966q0 529 391 957h256q-120 -188 -197.5 -437.5t-77.5 -519.5z" />
    <glyph glyph-name="parenright" unicode=")" horiz-adv-x="798" 
d="M315 698q0 270 -77 520t-197 437h258q391 -428 391 -957q0 -524 -391 -966h-258q120 200 197 448.5t77 517.5z" />
    <glyph glyph-name="asterisk" unicode="*" horiz-adv-x="1085" 
d="M694 684h-301l70 285l-244 -183l-117 232l306 86l-306 86l117 231l244 -180l-70 283h301l-67 -283l243 180l113 -231l-305 -86l305 -86l-113 -232l-243 183z" />
    <glyph glyph-name="plus" unicode="+" horiz-adv-x="1390" 
d="M864 512v-391h-338v391h-385v293h385v389h338v-389h383v-293h-383z" />
    <glyph glyph-name="comma" unicode="," horiz-adv-x="790" 
d="M242 -305q43 71 79.5 155.5t49.5 149.5h-240v428h528v-330q0 -187 -120 -403h-297z" />
    <glyph glyph-name="hyphen" unicode="-" horiz-adv-x="985" 
d="M844 801v-373h-703v373h703z" />
    <glyph glyph-name="period" unicode="." horiz-adv-x="790" 
d="M659 0h-528v428h528v-428z" />
    <glyph glyph-name="slash" unicode="/" horiz-adv-x="974" 
d="M299 -268h-336l655 1923h340z" />
    <glyph glyph-name="zero" unicode="0" horiz-adv-x="2125" 
d="M1108 1548q157 0 288.5 -27t222.5 -72t161.5 -108t112.5 -129t68.5 -142.5t36 -141.5t9.5 -131v-62q0 -65 -9.5 -130t-36.5 -142t-69 -144.5t-113 -132t-162 -110t-221.5 -73.5t-287.5 -28h-90q-157 0 -287.5 28t-221.5 73.5t-162 110t-113 132t-69 144.5t-36.5 142
t-9.5 130v62q0 67 9.5 132.5t36.5 141.5t69.5 142.5t113 129t161.5 107t221.5 71.5t287.5 27h90zM1497 782q0 46 -8.5 91t-37 100.5t-73.5 96.5t-126.5 69t-188.5 28q-79 0 -144.5 -14.5t-109.5 -38.5t-77.5 -57.5t-52.5 -67.5t-31 -73.5t-15.5 -70.5t-3.5 -63v-26
q0 -46 9 -92.5t37.5 -103.5t73.5 -99.5t127 -71.5t189 -29t189 29t126.5 71.5t72.5 99.5t36 103t8 93v26z" />
    <glyph glyph-name="one" unicode="1" horiz-adv-x="1140" 
d="M100 946v334q160 0 253 22.5t147 74t86 147.5h368v-1524h-485v946h-369z" />
    <glyph glyph-name="two" unicode="2" horiz-adv-x="1906" 
d="M121 0v244q0 54 4.5 95.5t20 92t42.5 90.5t74.5 85t114 83t163.5 77t220 73l231 63q108 27 165.5 52t77 49t19.5 59v2q0 30 -12 52.5t-41.5 41.5t-88.5 29t-146 10q-60 0 -108 -8.5t-79.5 -21.5t-55.5 -33.5t-36 -38t-20.5 -42t-10.5 -39t-4 -34.5h-504v14q0 49 7 95.5
t27.5 103t54.5 104t92.5 94.5t136 79.5t191 52.5t251.5 20h103q173 0 305 -24.5t216.5 -66t138.5 -103.5t75.5 -131t21.5 -154v-16q0 -103 -35 -176.5t-114.5 -129t-197 -93.5t-294.5 -70q-115 -22 -239 -50q-346 -71 -346 -143h1259v-387h-1679z" />
    <glyph glyph-name="three" unicode="3" horiz-adv-x="1927" 
d="M891 -23q-144 0 -264 21t-200.5 55t-142.5 81t-97 94.5t-57 101t-29 95t-7 81.5v22h508q25 -182 346 -182q92 0 159.5 10.5t105 26t59.5 38t28.5 42t6.5 43.5v2q0 56 -42 86.5t-147 30.5h-469v327h467q170 0 170 107q0 22 -5 38.5t-25 36t-55.5 31.5t-101.5 20.5
t-157 8.5q-65 0 -117.5 -7t-85.5 -16t-58 -25t-37 -26.5t-20.5 -29.5t-10 -24t-3.5 -19h-495v24q0 35 5.5 70t25 83.5t51 90.5t89 85.5t134 74t191.5 50t255 19.5h119q787 0 787 -389v-14q0 -113 -68 -182t-172 -97q56 -13 104.5 -39t91.5 -67t68 -104t25 -140v-12
q0 -53 -9 -102t-34 -102.5t-64 -98.5t-104 -86.5t-150 -70.5t-206 -46t-267 -17h-96z" />
    <glyph glyph-name="four" unicode="4" horiz-adv-x="1986" 
d="M100 606l848 928h623v-868h336v-357h-336v-309h-484v309h-987v297zM1087 1219l-501 -553h501v553z" />
    <glyph glyph-name="five" unicode="5" horiz-adv-x="1875" 
d="M915 -23q-142 0 -259.5 19t-196 48.5t-138.5 71.5t-93 83t-53.5 88t-27 81.5t-6.5 67.5v27h512q2 -12 8.5 -24.5t27.5 -30.5t52.5 -31.5t89 -23t132.5 -9.5q171 0 246 48t75 124v10q0 51 -27.5 85.5t-100.5 56.5t-193 22q-74 0 -131.5 -8.5t-90 -20t-54 -27t-29 -27
t-9.5 -21.5h-485v938h1501v-365h-1018v-266q171 119 449 119h22q154 0 272.5 -28.5t189.5 -74.5t115.5 -110t60.5 -127t16 -135v-25q0 -51 -8.5 -99.5t-32 -103t-60.5 -101t-97.5 -90t-139 -74t-190 -49t-245.5 -18.5h-84z" />
    <glyph glyph-name="six" unicode="6" horiz-adv-x="2004" 
d="M975 -23q-156 0 -284 28.5t-215 74t-153.5 111t-104 131.5t-61 143t-31 138.5t-7.5 125.5v49q0 58 8 118.5t31.5 137.5t61 145.5t103.5 136.5t152 117t212.5 79t279.5 30h71q140 0 257 -16t198.5 -43t144 -65.5t100.5 -79t62 -89t32.5 -91t8.5 -87.5v-2h-500
q-4 14 -11 26.5t-29.5 32t-55 33.5t-92.5 24.5t-137 10.5q-100 0 -175 -26t-115.5 -63.5t-65.5 -89.5t-32 -93t-7 -84v-15q162 138 534 138h37q156 0 278.5 -23.5t201 -63t130 -95.5t73 -116.5t21.5 -129.5v-35q0 -49 -8.5 -95.5t-32 -100t-61 -99t-101 -88.5t-146.5 -73.5
t-203 -48.5t-265 -18h-104zM670 492q0 -168 360 -168q363 0 363 165v9q0 159 -363 159q-360 0 -360 -159v-6z" />
    <glyph glyph-name="seven" unicode="7" horiz-adv-x="1843" 
d="M1741 1524v-342q-202 -286 -320 -467q-74 -115 -119 -207.5t-65 -176t-25.5 -144.5t-5.5 -154v-33h-532v143q0 67 3 111.5t13 98.5t30 98.5t54 100t84 116t121 133.5q35 37 100 103.5t95 97.5t67.5 71t52.5 60t15 28h-699v-256h-481v619h1612z" />
    <glyph glyph-name="eight" unicode="8" horiz-adv-x="1974" 
d="M942 -25q-156 0 -283.5 17t-212.5 44t-149 67t-99.5 79.5t-57 87.5t-28 85.5t-6.5 78.5v23q0 134 101.5 225t251.5 117q-130 22 -222 104t-92 203v20q0 39 5.5 72.5t25 77t52 78.5t93 70.5t142.5 59.5t204.5 39t274.5 15h88q152 0 275 -15t204.5 -38.5t142.5 -59
t94 -70.5t52.5 -78.5t25 -77.5t5.5 -73v-20q0 -122 -90 -203.5t-221 -103.5q154 -26 251 -116t97 -226v-23q0 -41 -6.5 -78.5t-28.5 -85.5t-57.5 -87.5t-100 -79.5t-149.5 -67t-212 -44t-282 -17h-88zM1313 1085q0 25 -11.5 45t-43 40.5t-101 32t-172.5 11.5t-172.5 -11.5
t-101 -32t-43 -40.5t-11.5 -45v-6q0 -25 12 -45t44 -40t101 -31t171 -11q103 0 172.5 11t101 31t43 39.5t11.5 45.5v6zM1352 479q0 24 -7 43.5t-30 40t-61.5 34.5t-107 23t-161.5 9q-94 0 -162 -9t-106.5 -22.5t-60.5 -34.5t-28.5 -40t-6.5 -44v-4q0 -153 364 -153
q367 0 367 153v4z" />
    <glyph glyph-name="nine" unicode="9" horiz-adv-x="2004" 
d="M1335 1028q0 168 -362 168q-361 0 -361 -166v-8q0 -160 361 -160q362 0 362 160v6zM967 -23q-141 0 -257.5 17t-198 44.5t-144 66.5t-100 80.5t-61 89t-32 88.5t-8.5 83v3h498q3 -12 8.5 -23.5t27 -31.5t53.5 -34t93.5 -25t142.5 -11q100 0 175 25.5t115.5 63t65.5 89
t32 93t7 85.5v14q-28 -20 -39 -28t-62 -33.5t-101 -38t-139.5 -25t-192.5 -12.5h-37q-156 0 -278 23.5t-201 63.5t-130.5 97.5t-73 120.5t-21.5 137v33q0 49 8.5 94.5t32 98t61 96.5t100.5 86t145.5 71t200.5 46.5t261 17.5h118q154 0 281 -28t213 -73t152 -109.5
t104 -130.5t61.5 -142.5t31 -138t7.5 -125.5v-47q0 -62 -7.5 -123.5t-30 -140t-59.5 -147t-101.5 -136.5t-149.5 -116t-211 -78t-278 -30h-82z" />
    <glyph glyph-name="colon" unicode=":" horiz-adv-x="811" 
d="M670 0h-529v428h529v-428zM670 678h-529v428h529v-428z" />
    <glyph glyph-name="semicolon" unicode=";" horiz-adv-x="811" 
d="M252 -305q43 71 79.5 155.5t49.5 149.5h-240v428h529v-330q0 -186 -121 -403h-297zM670 678h-529v428h529v-428z" />
    <glyph glyph-name="less" unicode="&#x3c;" horiz-adv-x="1245" 
d="M150 498v321l946 352v-323l-607 -191l607 -188v-319z" />
    <glyph glyph-name="equal" unicode="=" horiz-adv-x="1363" 
d="M1212 1016v-275h-1060v275h1060zM1212 580v-275h-1060v275h1060z" />
    <glyph glyph-name="greater" unicode="&#x3e;" horiz-adv-x="1245" 
d="M150 469l604 188l-604 191v323l946 -352v-321l-946 -348v319z" />
    <glyph glyph-name="question" unicode="?" horiz-adv-x="1734" 
d="M575 524v90q0 65 11.5 109.5t44.5 86t93 73.5t155 63l108 35q94 30 127 56t33 65q0 25 -10.5 42.5t-39 33.5t-86 24t-143.5 8q-250 0 -280 -139q-2 -9 -6 -43h-502v27q0 45 5 84t23 90.5t48 93t85.5 84t130.5 71t187.5 46.5t251.5 18h100q736 0 736 -430v-18
q0 -146 -91 -241t-301 -155l-102 -30q-71 -22 -95 -47.5t-24 -77.5v-19h-459zM1057 0h-502v401h502v-401z" />
    <glyph glyph-name="at" unicode="@" horiz-adv-x="2631" 
d="M1311 -340q-209 0 -381 29t-294.5 78t-216 121t-150.5 151.5t-93 176.5t-49.5 188.5t-13.5 195.5v25q0 107 17 202.5t57.5 188.5t103 169.5t158 142.5t218.5 110.5t288.5 70t363.5 25.5h20q232 0 417.5 -30t307 -75.5t210 -117t134.5 -137t72.5 -153.5t32.5 -149.5
t6 -140.5v-18q0 -95 -18.5 -182t-64 -171t-115 -145.5t-180.5 -99t-251 -37.5h-22q-281 0 -355 158q-16 -21 -42 -43t-72.5 -50.5t-119.5 -46.5t-159 -18h-20q-127 0 -222 44t-147 117t-75 159.5t-17 181.5q0 8 4 57t4 57q9 84 40.5 156.5t87 132.5t143.5 94.5t200 34.5h25
q88 0 160.5 -16t122 -44t72.5 -46t48 -43l15 131h456l-78 -719q-10 -86 66 -86q111 0 181.5 118.5t70.5 309.5v8q0 71 -3 115t-21.5 114t-52.5 114.5t-101.5 97t-163 83t-242.5 51.5t-334 21h-20q-218 0 -382 -36t-266.5 -97.5t-166 -153t-87.5 -190.5t-24 -223v-25
q0 -81 10 -152t37.5 -146t71 -135.5t115 -116t165.5 -92.5t226 -59t293 -22q214 0 391 18.5t286.5 48.5t169.5 54t97 47l67 -215q-29 -18 -71 -36.5t-128 -43t-191.5 -42.5t-268.5 -31t-352 -13zM1513 621q5 97 -43 151.5t-149 54.5h-2q-105 0 -157.5 -58t-57.5 -155l-2 -28
q-8 -92 34.5 -158t143.5 -66h2q113 0 168.5 66t60.5 170z" />
    <glyph glyph-name="A" unicode="A" horiz-adv-x="2064" 
d="M1012 1169l-250 -569h506zM1417 264h-805l-116 -264h-490l692 1524h645l715 -1524h-522z" />
    <glyph glyph-name="B" unicode="B" horiz-adv-x="2107" 
d="M180 1524h1194q127 0 225 -20.5t159.5 -54t101.5 -81t55.5 -97t15.5 -106.5v-18q0 -71 -28.5 -129t-73.5 -93t-92.5 -55.5t-94.5 -27.5q54 -9 102.5 -25t98.5 -46t86 -70t59 -101t23 -135v-21q0 -72 -18 -134.5t-63 -120.5t-115 -99t-181.5 -65.5t-255.5 -24.5h-1198
v1524zM670 1186v-246h594q159 0 159 121v4q0 58 -36 89.5t-123 31.5h-594zM670 625v-271h633q180 0 180 138v8q0 58 -39 91.5t-141 33.5h-633z" />
    <glyph glyph-name="C" unicode="C" horiz-adv-x="2131" 
d="M1030 -25q-154 0 -284.5 26.5t-223 70.5t-165 106t-117.5 129.5t-74.5 144t-41 145t-11.5 138.5v62q0 70 11.5 139t40.5 145t74 142t117.5 126.5t165.5 104t223 69t285 25.5h94q150 0 276.5 -20t217.5 -54t162.5 -82.5t116 -102t74 -116t41 -121t11.5 -120.5v-10h-503
q-2 12 -5.5 26t-16.5 39t-31.5 47t-53 47t-78.5 43t-111 29.5t-147 11.5q-104 0 -185 -23.5t-130.5 -60.5t-82 -88.5t-44.5 -102.5t-12 -108v-26q0 -54 12.5 -105t45 -105t82 -93.5t131 -65t185.5 -25.5q110 0 194.5 22.5t128.5 52t72.5 69.5t35.5 61.5t10 42.5h503v-12
q0 -59 -11.5 -116t-40.5 -120t-73.5 -118t-116 -105t-162 -86t-217.5 -57t-278 -21h-94z" />
    <glyph glyph-name="D" unicode="D" horiz-adv-x="2125" 
d="M180 1524h840q170 0 311.5 -22.5t243 -61.5t180 -94.5t127 -117t80 -134.5t43.5 -141.5t12 -143.5v-61q0 -78 -10.5 -148t-39.5 -147t-75.5 -141t-124 -123t-179 -100t-246 -65t-320.5 -24h-842v1524zM670 367h307q100 0 181 13.5t135.5 35.5t94.5 55t62.5 66t35.5 75
t17 76t4 74v12q0 39 -4 71.5t-17.5 73.5t-35.5 73.5t-62.5 64.5t-95 53.5t-135 35t-180.5 13.5h-307v-792z" />
    <glyph glyph-name="E" unicode="E" horiz-adv-x="1796" 
d="M1640 1524v-350h-974v-222h944v-362h-944v-236h987v-354h-1473v1524h1460z" />
    <glyph glyph-name="F" unicode="F" horiz-adv-x="1761" 
d="M1628 1524v-359h-960v-247h931v-367h-931v-551h-488v1524h1448z" />
    <glyph glyph-name="G" unicode="G" horiz-adv-x="2209" 
d="M1006 -23q-143 0 -265 24.5t-212 67t-162 102t-119 126.5t-78 144t-44 151t-13 151v50q0 74 12.5 145.5t44 147.5t79 142t122 125.5t169 101.5t225 66.5t284.5 24.5h69q152 0 280.5 -18.5t221 -50t165.5 -75.5t119.5 -92.5t76.5 -103.5t42.5 -106.5t12.5 -104.5v-6h-510
q-78 180 -441 180q-105 0 -187 -22.5t-133 -59t-84.5 -87.5t-46.5 -104.5t-13 -113.5v-24q0 -59 14 -114t49 -108.5t87.5 -93t135.5 -64t187 -24.5q98 0 176 17.5t122.5 41.5t75 55.5t41.5 53.5t15 41h-426v279h956v-842h-364q-4 37 -23.5 99t-38.5 104q-20 -22 -41.5 -43
t-75 -57t-114 -61.5t-155.5 -45t-202 -19.5h-34z" />
    <glyph glyph-name="H" unicode="H" horiz-adv-x="2148" 
d="M180 1524h490v-551h809v551h489v-1524h-489v594h-809v-594h-490v1524z" />
    <glyph glyph-name="I" unicode="I" horiz-adv-x="849" 
d="M670 0h-490v1524h490v-1524z" />
    <glyph glyph-name="J" unicode="J" horiz-adv-x="1843" 
d="M834 -25q-132 0 -242 24t-186.5 64t-136 97t-95.5 117t-58.5 129.5t-31 130t-8.5 122.5v11h497q2 -35 8.5 -68t26 -76.5t49 -75.5t83.5 -54.5t124 -22.5h8q87 0 150 28t97 77.5t49.5 108.5t15.5 132v805h489v-817q0 -67 -8 -131.5t-30.5 -139t-58 -138.5t-95 -125
t-137.5 -103.5t-190 -68.5t-247 -26h-73z" />
    <glyph glyph-name="K" unicode="K" horiz-adv-x="1957" 
d="M180 0v1524h488v-609l669 609h594l-772 -693l815 -831h-626l-680 698v-698h-488z" />
    <glyph glyph-name="L" unicode="L" horiz-adv-x="1691" 
d="M670 1524v-1127h921v-397h-1411v1524h490z" />
    <glyph glyph-name="M" unicode="M" horiz-adv-x="2562" 
d="M180 1524h664l448 -949l459 949h631v-1524h-479v973l-457 -973h-340l-455 973v-973h-471v1524z" />
    <glyph glyph-name="N" unicode="N" horiz-adv-x="2191" 
d="M657 930v-930h-477v1524h500l856 -914v914h475v-1524h-473z" />
    <glyph glyph-name="O" unicode="O" horiz-adv-x="2213" 
d="M1153 1548q159 0 292.5 -25t229 -67t171 -102t122.5 -125.5t78 -141.5t43 -146.5t12 -143.5v-62q0 -72 -12 -142.5t-42.5 -147.5t-77.5 -143.5t-122.5 -127.5t-171 -104.5t-229.5 -69t-293 -25.5h-92q-158 0 -292 25.5t-229.5 69t-171 104.5t-122.5 127.5t-78 143.5
t-43 147.5t-12 142.5v62q0 73 12 143.5t43 146.5t78 141.5t122.5 125.5t171 102t229 67t292.5 25h92zM1591 780q0 55 -10.5 104.5t-43 103t-83.5 91.5t-140 63t-206 25t-206.5 -25t-141 -63t-83.5 -91.5t-43 -103t-11 -104.5v-26q0 -55 11.5 -105.5t44.5 -104.5t85 -93.5
t140.5 -65t203.5 -25.5q84 0 154 13.5t119.5 35.5t87 54t60.5 66t37 74.5t19.5 76.5t5.5 74v26z" />
    <glyph glyph-name="P" unicode="P" horiz-adv-x="2027" 
d="M670 471v-471h-490v1524h1073q154 0 271 -25t193 -68t123.5 -108.5t67 -140t19.5 -168.5v-25q0 -93 -20 -168.5t-68 -142t-124 -111t-193 -70.5t-269 -26h-583zM670 836h542q207 0 207 159v6q0 156 -207 156h-542v-321z" />
    <glyph glyph-name="Q" unicode="Q" horiz-adv-x="2215" 
d="M915 -18q-136 11 -250 44t-195 79t-144.5 106.5t-103 124t-64.5 135t-35 135.5t-10 129v62q0 71 11 139.5t40.5 145t75 142t120.5 126.5t171.5 104t232.5 68.5t299 25.5h90q163 0 299 -25.5t232.5 -68.5t171.5 -104t120.5 -126.5t75 -142t40.5 -145t11 -139.5v-62
q0 -62 -8.5 -122.5t-31 -129t-57 -129.5t-90.5 -120.5t-128 -106t-173 -82.5t-222 -53l252 -309h-730v299zM1593 780q0 44 -8 84.5t-26.5 86.5t-54.5 83t-87.5 68t-130.5 48t-178 17q-118 0 -207.5 -25t-141.5 -63t-84 -91.5t-43 -103t-11 -104.5v-26q0 -54 11.5 -104
t44.5 -105t85 -95t141 -66t205 -26q117 0 206.5 26t141 65.5t84 94.5t43 105t10.5 105v26z" />
    <glyph glyph-name="R" unicode="R" horiz-adv-x="2097" 
d="M670 870h575q197 0 197 146v4q0 139 -197 139h-575v-289zM1620 733q344 -66 344 -379v-198q0 -105 25 -146v-10h-506q-13 22 -13 100v127q0 149 -63 209t-223 60h-514v-496h-490v1524h1131q118 0 214 -13.5t161.5 -36t114.5 -56t77.5 -68t45.5 -77.5t22.5 -80.5
t5.5 -80.5v-18q0 -144 -93.5 -237t-238.5 -124z" />
    <glyph glyph-name="S" unicode="S" horiz-adv-x="1959" 
d="M961 -27q-158 0 -287 18.5t-215.5 48.5t-151 74t-100.5 88t-57.5 98t-28 96.5t-6.5 90.5v19h528q2 -25 7.5 -45.5t26.5 -51t54.5 -51t97.5 -36t150 -15.5h12q106 0 177 13.5t103.5 38.5t44 50t11.5 58q0 44 -21 71.5t-89 47t-189 22.5l-209 6q-686 21 -686 455v18
q0 81 20 145t74 124t141.5 100t230 64t331.5 24h78q203 0 354 -28.5t236 -72t136.5 -108t67 -123.5t15.5 -131v-16h-521q-4 23 -11 41t-28 40.5t-54 38t-91.5 26t-136.5 10.5h-19q-95 0 -158.5 -9t-96 -26.5t-45.5 -38.5t-13 -51q0 -38 21.5 -64t86.5 -45t175 -22l215 -7
q167 -5 290.5 -29t201.5 -62t125.5 -95.5t66 -120.5t18.5 -145v-25q0 -55 -7.5 -102.5t-30.5 -101t-60 -96t-101 -82.5t-148.5 -67t-207 -43t-272.5 -16h-55z" />
    <glyph glyph-name="T" unicode="T" horiz-adv-x="1875" 
d="M694 1139h-600v385h1688v-385h-600v-1139h-488v1139z" />
    <glyph glyph-name="U" unicode="U" horiz-adv-x="2160" 
d="M1055 -23q-132 0 -244 18t-195 47.5t-150.5 74.5t-113 93t-79.5 108.5t-52.5 115t-30 119t-15 114.5t-3.5 107v750h487v-744q0 -48 6 -89.5t21 -89.5t45.5 -85.5t75 -69t114 -48.5t158.5 -17h11q105 0 183 26t121 64t68.5 95t33 105.5t7.5 108.5v744h488v-750
q0 -73 -7.5 -140t-30.5 -150t-61 -151.5t-105.5 -136.5t-157 -114.5t-221.5 -75.5t-294 -29h-59z" />
    <glyph glyph-name="V" unicode="V" horiz-adv-x="2070" 
d="M739 0l-727 1524h568l479 -1086l479 1086h520l-696 -1524h-623z" />
    <glyph glyph-name="W" unicode="W" horiz-adv-x="2834" 
d="M543 0l-523 1524h525l315 -1049l309 1049h541l307 -1051l316 1051h481l-508 -1524h-577l-310 1008l-307 -1008h-569z" />
    <glyph glyph-name="X" unicode="X" horiz-adv-x="1998" 
d="M995 492l-415 -492h-576l645 782l-626 742h612l383 -461l383 461h559l-612 -740l647 -784h-588z" />
    <glyph glyph-name="Y" unicode="Y" horiz-adv-x="1978" 
d="M758 551l-776 973h600l438 -572l440 572h537l-752 -975v-549h-487v551z" />
    <glyph glyph-name="Z" unicode="Z" horiz-adv-x="1914" 
d="M145 0v322l910 819h-903v383h1611v-320l-948 -817h957v-387h-1627z" />
    <glyph glyph-name="bracketleft" unicode="[" horiz-adv-x="864" 
d="M162 1655h616v-244h-260v-1436h260v-243h-616v1923z" />
    <glyph glyph-name="backslash" unicode="\" horiz-adv-x="974" 
d="M676 -268l-660 1923h340l656 -1923h-336z" />
    <glyph glyph-name="bracketright" unicode="]" horiz-adv-x="864" 
d="M86 -25h262v1436h-262v244h616v-1923h-616v243z" />
    <glyph glyph-name="asciicircum" unicode="^" horiz-adv-x="1431" 
d="M717 1227l-258 -426h-422l450 723h457l451 -723h-422z" />
    <glyph glyph-name="underscore" unicode="_" horiz-adv-x="1482" 
d="M47 -61h1391v-306h-1391v306z" />
    <glyph glyph-name="grave" unicode="`" horiz-adv-x="1433" 
d="M1067 1260h-455l-247 315h512z" />
    <glyph glyph-name="a" unicode="a" horiz-adv-x="1660" 
d="M735 246q74 0 132 21t90.5 54.5t48.5 70t16 71.5v72q-92 -24 -229 -46q-137 -24 -184.5 -50t-47.5 -79v-4q0 -50 43 -80t131 -30zM1034 150q-153 -173 -440 -173h-35q-227 0 -344 102t-117 263v8q0 107 47 176t163 112.5t313 59.5l317 25q46 4 65 20t19 48v2
q0 22 -7 37.5t-27.5 31t-65.5 23.5t-113 8h-6q-209 0 -209 -115h-467v2q0 33 4.5 63.5t20.5 71t42.5 74t75.5 67.5t115 57.5t164.5 38.5t220.5 15h66q124 0 223 -13.5t165 -34.5t114.5 -54t74.5 -64.5t41 -74t19 -75t4 -73.5v-364q0 -44 14 -62t59 -18h54v-334h-377
q-79 0 -125 44t-68 106z" />
    <glyph glyph-name="b" unicode="b" horiz-adv-x="1792" 
d="M1065 -23q-287 0 -455 168q-18 -54 -30 -145h-420v1550h465v-546q23 23 56.5 46t89 51t137.5 45t175 17h25q126 0 227.5 -32.5t166.5 -87t108.5 -129t61.5 -154t18 -166.5v-33q0 -83 -18 -161.5t-62 -156.5t-110 -136t-172 -94t-238 -36h-25zM1204 578q0 36 -7 70
t-26.5 70t-50 63t-80.5 44t-114 17h-19q-78 0 -136.5 -24.5t-89.5 -65t-45.5 -84t-14.5 -90.5v-9q0 -47 14.5 -91.5t45.5 -85.5t89.5 -66t136.5 -25h19q79 0 136.5 26t86.5 68t42 85t13 89v9z" />
    <glyph glyph-name="c" unicode="c" horiz-adv-x="1703" 
d="M1606 461q0 -41 -6.5 -81.5t-25.5 -91t-50 -94t-85 -86t-124 -72.5t-173.5 -48.5t-228.5 -18.5h-100q-126 0 -231 21.5t-177.5 56.5t-128 84.5t-88 101.5t-53.5 112.5t-28 111.5t-7 104v29q0 52 7.5 102.5t28 110t53 110.5t88.5 99.5t128 82.5t176 55t230 21h88
q129 0 235 -18t178 -47.5t126.5 -71.5t85.5 -84t50.5 -90.5t25.5 -86.5t6 -77v-2h-486q-3 14 -8.5 29.5t-23 40.5t-43 43.5t-72.5 32.5t-107 14h-18q-60 0 -107 -16t-76 -42.5t-47.5 -63t-26 -73.5t-7.5 -79v-2q0 -53 13.5 -101.5t43 -91.5t84 -68.5t127.5 -25.5h18
q60 0 107.5 14.5t73 35.5t42.5 46t22 43t5 31h486z" />
    <glyph glyph-name="d" unicode="d" horiz-adv-x="1792" 
d="M866 842q-79 0 -137 -25t-87.5 -66.5t-42.5 -84.5t-13 -91v-6q0 -45 13.5 -88.5t43 -85.5t87.5 -68t136 -26h21q61 0 110.5 16.5t81 43.5t52.5 62.5t29.5 71.5t8.5 74v6q0 49 -14.5 93.5t-46 85t-88.5 64.5t-133 24h-21zM1632 1550v-1550h-465v141q-15 -17 -34.5 -34.5
t-58.5 -42t-84.5 -43t-113.5 -31.5t-143 -13h-24q-127 0 -230 32.5t-171.5 87.5t-115.5 129.5t-67.5 155t-20.5 167.5v41q0 86 19.5 166t65 155t113.5 130t171.5 88.5t231.5 33.5h24q75 0 142.5 -11t110.5 -24t85.5 -35t59.5 -33.5t40 -29.5v520h465z" />
    <glyph glyph-name="e" unicode="e" horiz-adv-x="1730" 
d="M862 891q-132 0 -195.5 -47.5t-82.5 -138.5h553q0 36 -11.5 66t-40 58.5t-85.5 45t-138 16.5zM1628 365q-2 -29 -8.5 -58t-26.5 -70t-50.5 -76t-85 -71t-125 -61.5t-176.5 -41.5t-234 -16h-84q-125 0 -229.5 19t-179.5 51t-133 77.5t-94.5 96t-60 110t-32.5 115.5t-9 115
v29q0 60 8.5 115t31 114.5t57.5 110t91 96.5t128 77.5t173 50.5t222 19h90q130 0 236.5 -19t181.5 -52t131.5 -82t90.5 -102.5t55 -121t28.5 -131t7.5 -137.5v-41h-1054q19 -104 91.5 -159.5t225.5 -55.5q59 0 105 9.5t69.5 19t42 28t21.5 23.5t10 19h485z" />
    <glyph glyph-name="f" unicode="f" horiz-adv-x="1101" 
d="M1024 1286h-160q-45 0 -65.5 -20.5t-20.5 -67.5v-57h246v-316h-246v-825h-459v825h-243v316h243v73q0 84 16.5 143t57 104t113 67t180.5 22h338v-264z" />
    <glyph glyph-name="g" unicode="g" horiz-adv-x="1792" 
d="M870 848q-80 0 -138.5 -22t-88.5 -59.5t-43.5 -77.5t-13.5 -85v-4q0 -43 14 -83.5t44.5 -78.5t88.5 -61t137 -23h21q76 0 133.5 22t88.5 58.5t46 77t15 84.5v8q0 44 -15 85t-47 77.5t-89.5 59t-133.5 22.5h-19zM864 -420q-130 0 -236 14t-177 36.5t-124 55.5t-82 65.5
t-47 72t-23 70t-5 63.5v8h504q28 -76 221 -76h20q133 0 194.5 59.5t61.5 162.5v79q-151 -151 -432 -151h-28q-133 0 -239.5 32.5t-174 85.5t-112 125.5t-63 147.5t-18.5 156v35q0 84 19 159.5t64 146.5t112 122.5t170 82.5t231 31h23q276 0 446 -135v113h463v-1012
q0 -549 -702 -549h-66z" />
    <glyph glyph-name="h" unicode="h" horiz-adv-x="1757" 
d="M160 1550h465v-585q25 30 60 59.5t93 65t141 57.5t177 22h20q121 0 217 -37.5t153 -100t86.5 -137.5t29.5 -157v-737h-465v582q0 102 -61.5 168.5t-188.5 66.5q-125 0 -193.5 -72.5t-68.5 -179.5v-565h-465v1550z" />
    <glyph glyph-name="i" unicode="i" horiz-adv-x="784" 
d="M627 1255h-469v299h469v-299zM625 0h-465v1141h465v-1141z" />
    <glyph glyph-name="j" unicode="j" horiz-adv-x="784" 
d="M627 1255h-469v299h469v-299zM84 -72q42 0 59 19.5t17 64.5v1129h465v-1227q0 -144 -67 -223.5t-196 -79.5h-393v317h115z" />
    <glyph glyph-name="k" unicode="k" horiz-adv-x="1558" 
d="M160 0v1550h465v-852l368 443h520l-448 -512l500 -629h-537l-403 512v-512h-465z" />
    <glyph glyph-name="l" unicode="l" horiz-adv-x="784" 
d="M625 0h-465v1550h465v-1550z" />
    <glyph glyph-name="m" unicode="m" horiz-adv-x="2641" 
d="M160 0v1141h461v-183q23 31 56 62t87.5 67.5t133.5 59t169 22.5h14q157 0 261.5 -63t158.5 -166q36 44 81 82t105 72.5t138.5 54.5t165.5 20h16q129 0 225.5 -40t150 -107t78.5 -143.5t25 -161.5v-717h-465v590q0 97 -55.5 162t-173.5 65q-115 0 -176.5 -71.5
t-61.5 -176.5v-569h-462v590q0 97 -55 162t-175 65q-116 0 -176.5 -69.5t-60.5 -178.5v-569h-465z" />
    <glyph glyph-name="n" unicode="n" horiz-adv-x="1757" 
d="M160 1141h461v-180q26 31 61.5 61.5t94 66.5t142 58t177.5 22h20q121 0 217 -37.5t153 -100t86.5 -137.5t29.5 -157v-737h-465v582q0 102 -61.5 168.5t-188.5 66.5q-125 0 -193.5 -72.5t-68.5 -179.5v-565h-465v1141z" />
    <glyph glyph-name="o" unicode="o" horiz-adv-x="1755" 
d="M846 -31q-136 0 -248 22t-188 57t-134 85.5t-91 101.5t-53.5 110.5t-27 107.5t-6.5 98v29q0 49 6.5 96.5t27 108t53 113t90.5 104t133.5 88t187.5 59t248 22.5h69q141 0 255 -22.5t190 -58.5t133 -88.5t87.5 -103.5t49.5 -112.5t24 -107.5t5 -96v-33q0 -51 -5.5 -97
t-24.5 -106.5t-50 -110.5t-88 -101t-133 -86t-190.5 -57t-254.5 -22h-65zM887 291q81 0 140.5 27.5t89.5 72.5t43.5 90.5t13.5 93.5q0 50 -13.5 95.5t-43.5 88.5t-89 69t-141 26h-19q-68 0 -120.5 -18t-83 -45t-50 -65.5t-26 -74.5t-6.5 -76q0 -39 6.5 -75t26 -75.5t50 -68
t83 -47t120.5 -18.5h19z" />
    <glyph glyph-name="p" unicode="p" horiz-adv-x="1792" 
d="M1206 575q0 37 -7.5 71.5t-27 71t-50 63.5t-81 44t-114.5 17h-17q-78 0 -136.5 -25t-89.5 -66t-45.5 -85t-14.5 -91v-10q0 -37 8.5 -72.5t29.5 -71t52.5 -61.5t82 -42.5t113.5 -16.5h17q79 0 137 25t87.5 66.5t42.5 84.5t13 90v8zM160 1141h463v-144q22 24 57 49t91 53
t137.5 46t172.5 18h21q130 0 233 -33t168.5 -87.5t108.5 -129.5t60.5 -154t17.5 -167v-35q0 -81 -18 -159t-62 -155.5t-110.5 -135.5t-172 -94t-237.5 -36h-23q-92 0 -170.5 17t-134.5 47.5t-81.5 48.5t-55.5 45v-524h-465v1530z" />
    <glyph glyph-name="q" unicode="q" horiz-adv-x="1792" 
d="M721 1163q305 0 467 -162q23 77 31 140h413v-1530h-465v528q-20 -22 -48.5 -44t-80.5 -51.5t-132 -48t-173 -18.5h-26q-128 0 -232 34t-172 90t-113.5 132t-65.5 156.5t-20 167.5v35q0 84 19 163t64 154t112 131t169.5 89.5t229.5 33.5h23zM868 842q-79 0 -136.5 -25
t-87 -66t-43 -85t-13.5 -91v-6q0 -37 7.5 -72t27 -71.5t50 -63.5t81 -44t114.5 -17h19q78 0 135.5 24t88 64.5t44.5 84.5t14 93v11q0 48 -14 91.5t-44.5 84t-88 64.5t-135.5 24h-19z" />
    <glyph glyph-name="r" unicode="r" horiz-adv-x="1505" 
d="M160 0v1141h461v-187q18 30 42 58t70.5 66.5t118 62.5t156.5 24h14q86 0 154 -23t113 -63t74.5 -97t42.5 -123t13 -144q0 -54 -4 -148h-469v35q0 109 -34 162t-117 53q-85 0 -127.5 -57.5t-42.5 -163.5v-596h-465z" />
    <glyph glyph-name="s" unicode="s" horiz-adv-x="1581" 
d="M748 -27q-125 0 -227 15t-169 39t-117 58.5t-76.5 67.5t-42.5 72.5t-20 67t-4 57.5v8h498q2 -14 6 -25t17.5 -27.5t34 -28t58.5 -19.5t89 -8h4q198 0 198 94q0 31 -14 48.5t-58.5 30t-129.5 17.5l-170 13q-519 30 -519 352v12q0 61 16.5 109.5t59.5 94.5t113.5 76.5
t183.5 49t264 18.5h52q167 0 291 -22t193.5 -55.5t111.5 -83t54.5 -94.5t12.5 -101v-4h-483q-5 21 -12 33.5t-26 30.5t-59.5 27t-101.5 9h-8q-108 0 -150.5 -22t-42.5 -64q0 -44 42 -67t151 -27l166 -6q158 -6 266.5 -32t168.5 -72.5t85 -103.5t25 -134v-19q0 -63 -13 -113
t-55.5 -103t-114 -88.5t-197 -58t-296.5 -22.5h-55z" />
    <glyph glyph-name="t" unicode="t" horiz-adv-x="1130" 
d="M1024 0h-403q-141 0 -223.5 77.5t-82.5 227.5v520h-239v316h239v344h461v-344h248v-316h-248v-366q0 -68 24 -94.5t91 -26.5h133v-338z" />
    <glyph glyph-name="u" unicode="u" horiz-adv-x="1744" 
d="M1585 0h-461v180q-22 -30 -59 -61.5t-94 -67t-140.5 -58t-175.5 -22.5h-20q-121 0 -215.5 37t-150.5 99.5t-84.5 137t-28.5 156.5v740h465v-582q0 -103 59 -169t184 -66q122 0 189 71.5t67 179.5v566h465v-1141z" />
    <glyph glyph-name="v" unicode="v" horiz-adv-x="1630" 
d="M23 1141h516l295 -785l294 785h480l-482 -1141h-598z" />
    <glyph glyph-name="w" unicode="w" horiz-adv-x="2428" 
d="M457 0l-426 1141h493l234 -752l225 752h508l235 -750l222 750h448l-389 -1141h-557l-229 688l-215 -688h-549z" />
    <glyph glyph-name="x" unicode="x" horiz-adv-x="1595" 
d="M795 328l-271 -328h-516l477 578l-485 563h549l262 -318l256 318h506l-457 -559l481 -582h-528z" />
    <glyph glyph-name="y" unicode="y" horiz-adv-x="1595" 
d="M238 -80h258q53 0 53 41q0 29 -35 100l-494 1080h512l293 -781l277 781h471l-512 -1245q-62 -147 -153.5 -216t-241.5 -69h-428v309z" />
    <glyph glyph-name="z" unicode="z" horiz-adv-x="1554" 
d="M121 0v301l690 516h-684v324h1286v-297l-713 -510h738v-334h-1317z" />
    <glyph glyph-name="braceleft" unicode="{" horiz-adv-x="858" 
d="M475 -268q-164 0 -246 56t-82 177q0 70 40.5 181t81 210t40.5 140q0 79 -82 79h-147v244h147q82 0 82 66q0 46 -40.5 143t-81 203.5t-40.5 175.5q0 124 79 186t249 62h297v-238h-176q-86 0 -86 -71q0 -41 62.5 -206.5t62.5 -232.5q0 -91 -47.5 -139.5t-153.5 -67.5
q105 -17 153 -60.5t48 -119.5q0 -58 -31.5 -154.5t-62.5 -183.5t-31 -121q0 -44 28.5 -68t84.5 -24h149v-237h-297z" />
    <glyph glyph-name="bar" unicode="|" horiz-adv-x="768" 
d="M547 -268h-326v1923h326v-1923z" />
    <glyph glyph-name="braceright" unicode="}" horiz-adv-x="858" 
d="M86 -268v237h150q112 0 112 92q0 34 -31 121t-62.5 183.5t-31.5 154.5q0 75 48.5 119t152.5 61q-106 19 -153.5 67.5t-47.5 139.5q0 54 31.5 144t62.5 173.5t31 121.5q0 71 -86 71h-176v238h297q170 0 249 -62t79 -186q0 -69 -40.5 -175.5t-81 -203.5t-40.5 -143
q0 -66 82 -66h149v-244h-149q-82 0 -82 -79q0 -41 40.5 -140t81 -210t40.5 -181q0 -121 -82 -177t-246 -56h-297z" />
    <glyph glyph-name="asciitilde" unicode="~" horiz-adv-x="1443" 
d="M1047 455q-100 0 -169.5 32.5t-189.5 118.5q-21 15 -51 37.5t-41 30t-27.5 17.5t-28 13t-24.5 3q-47 0 -47 -68v-225h-358v379q0 57 15 109.5t47 101t92.5 77.5t142.5 29q56 0 102.5 -10t93 -35t78 -46.5t88.5 -64.5q6 -5 18 -14q41 -32 60 -46t42 -26t38 -12q47 0 47 68
v237h358v-395q0 -81 -31.5 -150t-98 -115t-156.5 -46z" />
    <glyph glyph-name="exclamdown" unicode="&#xa1;" horiz-adv-x="831" 
d="M131 -385l170 999h225l172 -999h-567zM162 1139h502v-402h-502v402z" />
    <glyph glyph-name="cent" unicode="&#xa2;" horiz-adv-x="1734" 
d="M784 -195v166q-123 3 -224.5 26.5t-171 59t-123 85t-84.5 100t-50.5 110t-26 108.5t-6.5 101v29q0 50 7 98.5t27 106.5t51.5 108.5t85 99t123 84t170.5 58.5t222 26v164h189v-164q121 -3 221.5 -23.5t168 -50.5t119 -71.5t80.5 -82t47 -87.5t23.5 -83t5.5 -73v-2h-477
q-3 18 -11 37t-26.5 47t-57.5 50.5t-93 31.5v-581q162 29 188 180h477q0 -39 -5.5 -76.5t-23 -87t-46.5 -92t-80 -85.5t-118.5 -74.5t-168.5 -52.5t-223 -24v-166h-189zM575 580q0 -49 9 -92.5t31 -87t65 -74.5t104 -43v581q-209 -40 -209 -282v-2z" />
    <glyph glyph-name="sterling" unicode="&#xa3;" horiz-adv-x="1898" 
d="M1774 0h-1670v336h123q162 0 162 147v6q0 54 -33 175h-252v200h197q-27 122 -27 187v16q0 49 8.5 94.5t30 93.5t55 89t87.5 78.5t123 63.5t165.5 41t212.5 15h76q137 0 247.5 -19.5t184 -50.5t127.5 -78.5t83.5 -93.5t46.5 -105.5t21.5 -105t4.5 -100.5v-6h-508
q0 219 -238 219q-73 0 -123.5 -18t-74.5 -50.5t-33.5 -66.5t-9.5 -78q0 -47 10 -125h633v-200h-608q4 -18 4 -78q0 -97 -40.5 -162t-96.5 -88h618v221h494v-557z" />
    <glyph glyph-name="yen" unicode="&#xa5;" horiz-adv-x="1808" 
d="M676 309h-453v178h453v119h-453v176h361l-594 742h575l365 -512l373 512h514l-572 -742h359v-176h-451v-119h451v-178h-451v-309h-477v309z" />
    <glyph glyph-name="brokenbar" unicode="&#xa6;" horiz-adv-x="768" 
d="M547 846h-326v809h326v-809zM547 -268h-326v884h326v-884z" />
    <glyph glyph-name="section" unicode="&#xa7;" horiz-adv-x="1832" 
d="M1200 403q32 15 55 45.5t23 69.5q0 58 -37.5 94.5t-144.5 55.5q-424 72 -467 82q-31 -11 -53.5 -41.5t-22.5 -69.5q0 -57 39 -95t147 -57q388 -69 461 -84zM881 -426q-140 0 -253 17.5t-187.5 45.5t-130 69t-85 80.5t-47 88.5t-22 85t-4.5 77v6h483q0 -22 4.5 -42.5
t21.5 -48t46 -47.5t84.5 -34t130.5 -14h12q73 0 121.5 10t71.5 28t31.5 36t8.5 42v4q0 24 -6.5 40.5t-26 35t-62.5 32.5t-109 24l-351 53q-145 22 -247 59.5t-159.5 89t-82.5 110.5t-25 132v18q0 111 76 178t195 95q-168 99 -168 301v20q0 73 20 130.5t68.5 106t126.5 80
t195.5 49t273.5 17.5h82q131 0 236.5 -14t176 -36.5t122.5 -57.5t81 -70t46 -81t21.5 -84t4.5 -85l-2 -6h-473q-2 17 -5 29t-12 33t-26.5 35t-44.5 29t-71 22.5t-101 7.5h-13q-78 0 -129 -7.5t-75 -22.5t-32.5 -30.5t-8.5 -38.5v-4q0 -45 41 -74.5t165 -48.5l355 -53
q124 -17 214 -43.5t147.5 -58.5t91.5 -76t47.5 -91.5t13.5 -109.5v-18q0 -62 -23.5 -112.5t-64 -83.5t-82.5 -54t-90 -35q161 -97 161 -295v-18q0 -72 -18 -131t-65 -114.5t-121.5 -93.5t-194 -60.5t-276.5 -22.5h-82z" />
    <glyph glyph-name="dieresis" unicode="&#xa8;" horiz-adv-x="1433" 
d="M659 1255h-444v299h444v-299zM1219 1255h-445v299h445v-299z" />
    <glyph glyph-name="copyright" unicode="&#xa9;" horiz-adv-x="2236" 
d="M2124 741q0 -102 -20.5 -193t-64.5 -179t-120.5 -158t-182.5 -124t-257.5 -83t-337.5 -29h-45q-186 0 -337.5 29t-257.5 83t-182.5 124t-120.5 158t-64.5 179t-20.5 193v43q0 85 14 163t47 155.5t84.5 143t130 122t178.5 96t235 62t296 22.5h41q161 0 296 -22.5t235 -62
t178.5 -96t130 -122t84.5 -143t47 -155.5t14 -163v-43zM1135 160q168 0 299 32t214 85.5t137 130.5t75.5 160t21.5 180v26q0 105 -21.5 190t-74.5 161.5t-136.5 127.5t-214 81t-300.5 30h-33q-170 0 -300.5 -30t-214.5 -81.5t-137.5 -127t-75.5 -161t-22 -190.5v-26
q0 -97 22 -180t75.5 -160t137 -130.5t215 -85.5t300.5 -32h33zM1112 311q-141 0 -248 29t-168 73t-99 105.5t-50 116t-12 115.5v38q0 61 11.5 114.5t48.5 114t98 103t168.5 71t250.5 28.5h37q105 0 190.5 -14t142.5 -36t100 -54.5t67 -64t38.5 -69t18.5 -66.5t4 -59v-6h-364
q-4 16 -12 31.5t-29.5 39t-68.5 38t-112 14.5q-229 0 -229 -191v-16q0 -41 11 -75.5t36 -65t72 -48.5t112 -18q195 0 220 135h366v-8q0 -31 -4.5 -60.5t-20 -68t-39.5 -71.5t-67.5 -66.5t-101 -56.5t-142.5 -37.5t-188 -14.5h-37z" />
    <glyph glyph-name="ordfeminine" unicode="&#xaa;" horiz-adv-x="1415" 
d="M864 745q-15 -20 -40.5 -40.5t-68 -44.5t-108 -39t-143.5 -15h-15q-189 0 -282.5 83t-93.5 212v6q0 128 92 190.5t293 80.5l297 24q34 1 46.5 12.5t12.5 36.5q0 74 -164 74h-14q-41 0 -72.5 -5.5t-48 -14t-27 -19.5t-13.5 -20t-3 -19h-379v2q0 299 512 299h70
q138 0 238.5 -19t154 -46.5t84 -70t38 -77.5t7.5 -82v-286q0 -37 12 -51.5t47 -14.5h43v-278h-317q-113 0 -158 122zM631 821q103 0 163 55.5t60 131.5v34l-225 -36q-69 -11 -99 -32.5t-30 -62.5q0 -40 33.5 -65t97.5 -25z" />
    <glyph glyph-name="guillemotleft" unicode="&#xab;" horiz-adv-x="1349" 
d="M907 213l-254 381l256 377h365l-260 -377l252 -381h-359zM336 213l-258 381l254 377h366l-256 -377l256 -381h-362z" />
    <glyph glyph-name="registered" unicode="&#xae;" horiz-adv-x="1734" 
d="M827 414q-168 0 -298 34t-207 87t-126.5 127.5t-67 146.5t-17.5 152v53q0 54 8 104.5t30 106.5t56 103t90 90.5t129 74t176 48.5t227 18h88q123 0 226 -18t175 -48.5t127.5 -74.5t89 -91t54.5 -102t29 -104.5t8 -102.5v-57q0 -77 -21 -150.5t-73.5 -147t-131.5 -127.5
t-204.5 -88t-282.5 -34h-84zM299 983q0 -46 4 -83t17.5 -82.5t37 -79.5t66.5 -68.5t101.5 -56.5t145 -36t195.5 -14h11q106 0 191 14t143 37t100.5 58t67 70t38.5 80.5t18.5 83.5t4.5 83v12q0 42 -4 77.5t-18.5 79t-38 77.5t-66.5 68t-100.5 56t-142.5 36t-191 14h-13
q-108 0 -194.5 -13t-145.5 -34t-101.5 -54.5t-66.5 -67t-37.5 -78.5t-17.5 -82.5t-4 -86.5v-10zM934 1034q63 0 63 56q0 55 -63 55h-170v-111h170zM764 698h-268v588h522q132 0 188 -41t56 -106v-6q0 -57 -36.5 -91t-95.5 -45q140 -21 140 -131v-98q0 -39 14 -59v-11h-270
q-17 21 -17 50v59q0 40 -14.5 58t-54.5 18h-164v-185z" />
    <glyph glyph-name="macron" unicode="&#xaf;" horiz-adv-x="1433" 
d="M311 1538h809v-258h-809v258z" />
    <glyph glyph-name="degree" unicode="&#xb0;" horiz-adv-x="1110" 
d="M559 684q-207 0 -334 122.5t-127 311.5q0 187 127 308.5t334 121.5q199 0 325 -122t126 -308q0 -188 -126 -311t-325 -123zM557 934q82 0 133 50t51 134q0 80 -51.5 131t-132.5 51q-85 0 -136.5 -51t-51.5 -131q0 -85 51 -134.5t137 -49.5z" />
    <glyph glyph-name="acute" unicode="&#xb4;" horiz-adv-x="1433" 
d="M557 1575h512l-248 -315h-454z" />
    <glyph glyph-name="paragraph" unicode="&#xb6;" horiz-adv-x="1716" 
d="M711 631h-74q-271 0 -406 117.5t-135 308.5v35q0 63 11 116t35 102.5t66 87.5t100.5 67t142.5 44t188 15h1020v-264h-162v-1260h-305v1260h-176v-1260h-305v631z" />
    <glyph glyph-name="periodcentered" unicode="&#xb7;" horiz-adv-x="786" 
d="M655 457h-524v426h524v-426z" />
    <glyph glyph-name="cedilla" unicode="&#xb8;" horiz-adv-x="1435" 
d="M377 -573v204h246q44 0 59.5 12t15.5 38q0 23 -15.5 35t-59.5 12h-181v272h256v-106h9q106 0 176.5 -16t107 -48.5t50.5 -70.5t14 -91v-8q0 -40 -8.5 -71.5t-32.5 -62.5t-64.5 -52t-108.5 -34t-159 -13h-305z" />
    <glyph glyph-name="ordmasculine" unicode="&#xba;" horiz-adv-x="1458" 
d="M766 1548q143 0 251.5 -30.5t170 -76t99 -110t49.5 -121t12 -120.5v-25q0 -64 -11.5 -120.5t-49.5 -121.5t-99 -110.5t-169.5 -76t-252.5 -30.5h-72q-100 0 -184 16t-143.5 42.5t-105.5 64t-74 78t-46 87t-25 88.5t-7 85v23q0 43 7 84.5t25 88t46 86.5t74 77.5t105.5 64
t143.5 42t184 15.5h72zM942 1081q0 91 -49.5 150t-161.5 59h-2q-110 0 -159.5 -59.5t-49.5 -149.5q0 -40 10.5 -75t33 -66.5t65 -49.5t100.5 -18h2q59 0 102 18.5t65.5 50t33 66t10.5 74.5z" />
    <glyph glyph-name="guillemotright" unicode="&#xbb;" horiz-adv-x="1349" 
d="M84 213l252 381l-260 377h364l258 -377l-254 -381h-360zM653 213l254 381l-254 377h365l254 -377l-258 -381h-361z" />
    <glyph glyph-name="onequarter" unicode="&#xbc;" horiz-adv-x="2500" 
d="M90 1128v232q110 0 175 20t93 53t48 93h282v-879h-358v481h-240zM2044 1524l-1458 -1524h-373l1460 1524h371zM1313 369l82 80l178 174l258 256h405v-480h177v-235h-177v-164h-354v164h-569v205zM1618 399h264v265z" />
    <glyph glyph-name="onehalf" unicode="&#xbd;" horiz-adv-x="2631" 
d="M2044 1524l-1458 -1524h-373l1460 1524h371zM90 1128v232q110 0 175 20t93 53t48 93h282v-879h-358v481h-240zM1456 0v125q0 51 8 89.5t38.5 86.5t85 84.5t154 74.5t238.5 66q102 20 136 37t34 47q0 32 -31.5 48t-119.5 16q-92 0 -128 -30.5t-36 -65.5h-365v8
q0 307 504 307h45q124 0 216 -15t146.5 -39t87.5 -61.5t44.5 -76t11.5 -87.5v-8q0 -125 -110 -184.5t-369 -93.5q-111 -16 -172.5 -29.5t-83 -24.5t-21.5 -24h758v-250h-1071z" />
    <glyph glyph-name="threequarters" unicode="&#xbe;" horiz-adv-x="2902" 
d="M2445 1524l-1458 -1524h-373l1461 1524h370zM604 633q-96 0 -174.5 12.5t-131 32t-92.5 48t-61.5 56t-35 60t-17.5 56.5t-4 48v10h369q3 -11 3.5 -12.5t6.5 -15t12 -19t20.5 -16t32.5 -15.5t46 -9.5t63 -4.5q182 0 182 78v4q0 60 -98 60h-236v200h232q52 0 71 13.5
t19 37.5v3q0 18 -10.5 31t-52 23.5t-113.5 10.5q-46 0 -80.5 -6.5t-52 -15t-28 -20t-13 -18.5t-2.5 -14h-361v13q0 22 3.5 43t16 50t33 53t59 49t89.5 42t128 28t171 11h61q97 0 175 -8t130.5 -20.5t91.5 -32t60.5 -38.5t34.5 -43.5t16.5 -44t3.5 -42.5v-6q0 -59 -43 -100.5
t-116 -53.5q84 -15 138 -67.5t54 -141.5v-6q0 -39 -8.5 -72t-29 -69t-60 -64t-96.5 -50.5t-145 -35t-199 -12.5h-62zM1714 369l82 80l178 174l258 256h406v-480h176v-235h-176v-164h-354v164h-570v205zM2019 399h265v265z" />
    <glyph glyph-name="questiondown" unicode="&#xbf;" horiz-adv-x="1730" 
d="M1159 614v-90q0 -65 -11.5 -109.5t-44 -85.5t-92.5 -73t-155 -63l-108 -35q-94 -30 -127 -56t-33 -65q0 -33 18.5 -55t82.5 -38t177 -16q76 0 132 14t83.5 30.5t44.5 45.5t20 44t6 41q1 6 1 8h502v-27q0 -45 -5 -84t-23 -90.5t-48 -93t-85.5 -84t-130.5 -71t-187.5 -46.5
t-251.5 -18h-101q-735 0 -735 430v18q0 146 90.5 240.5t300.5 154.5l103 31q70 22 94 47t24 78v18h459zM678 1139h502v-402h-502v402z" />
    <glyph glyph-name="Agrave" unicode="&#xc0;" horiz-adv-x="2064" 
d="M1012 1169l-250 -569h506zM1417 264h-805l-116 -264h-490l692 1524h645l715 -1524h-522zM547 1954h518l192 -314h-473z" />
    <glyph glyph-name="Aacute" unicode="&#xc1;" horiz-adv-x="2064" 
d="M1012 1169l-250 -569h506zM1417 264h-805l-116 -264h-490l692 1524h645l715 -1524h-522zM782 1640l193 314h518l-240 -314h-471z" />
    <glyph glyph-name="Acircumflex" unicode="&#xc2;" horiz-adv-x="2064" 
d="M1012 1169l-250 -569h506zM1417 264h-805l-116 -264h-490l692 1524h645l715 -1524h-522zM1585 1636h-440l-125 133l-127 -133h-432l291 318h540z" />
    <glyph glyph-name="Atilde" unicode="&#xc3;" horiz-adv-x="2064" 
d="M1012 1169l-250 -569h506zM1417 264h-805l-116 -264h-490l692 1524h645l715 -1524h-522zM842 1632h-256v172q0 39 9.5 73.5t30 66.5t59 50.5t91.5 18.5h4q39 0 84 -10.5t79.5 -23.5t107.5 -42q9 -4 25.5 -10.5t22.5 -9t17 -7t16 -6t12 -3.5t12.5 -2.5t10.5 -0.5
q29 0 29 46v79h256v-172q0 -39 -9.5 -73.5t-30 -66.5t-59 -50.5t-91.5 -18.5h-5q-39 0 -84 11t-78.5 23t-107.5 42q-95 39 -117 39q-28 0 -28 -45v-80z" />
    <glyph glyph-name="Adieresis" unicode="&#xc4;" horiz-adv-x="2064" 
d="M1012 1169l-250 -569h506zM1417 264h-805l-116 -264h-490l692 1524h645l715 -1524h-522zM961 1640h-451v299h451v-299zM1530 1640h-451v299h451v-299z" />
    <glyph glyph-name="Aring" unicode="&#xc5;" horiz-adv-x="2064" 
d="M1012 1169l-250 -569h506zM1417 264h-805l-116 -264h-490l692 1524h645l715 -1524h-522zM651 1896q0 55 18.5 101.5t59 85.5t114.5 61.5t175 22.5q83 0 148 -15t106 -40t67 -60.5t36.5 -73.5t10.5 -82q0 -43 -10.5 -81t-36.5 -74.5t-67 -62t-106 -41t-148 -15.5
q-103 0 -177.5 23t-114.5 63.5t-57.5 86.5t-17.5 101zM1155 1896q0 48 -34 78.5t-103 30.5q-68 0 -101.5 -30.5t-33.5 -78.5q0 -49 33.5 -81.5t101.5 -32.5q69 0 103 32.5t34 81.5z" />
    <glyph glyph-name="AE" unicode="&#xc6;" horiz-adv-x="2727" 
d="M1208 1210l-374 -620h374v620zM1208 266h-571l-160 -266h-514l950 1524h1657v-350h-876v-222h846v-362h-846v-236h891v-354h-1377v266z" />
    <glyph glyph-name="Ccedilla" unicode="&#xc7;" horiz-adv-x="2131" 
d="M1454 -340q0 -51 -14 -88.5t-51.5 -72.5t-114.5 -53.5t-191 -18.5h-305v204h246q42 0 58 12.5t16 37.5q0 47 -74 47h-180v258q-122 15 -225 49.5t-177 81t-132 106.5t-94.5 122t-60 131.5t-33 132t-9.5 126.5v62q0 70 11.5 139t40.5 145t74 142t117.5 126.5t165.5 104
t223 69t285 25.5h94q150 0 276.5 -20t217.5 -54t162.5 -82.5t116 -102t74 -116t41 -121t11.5 -120.5v-10h-503q-2 12 -5.5 26t-16.5 39t-31.5 47t-53 47t-78.5 43t-111 29.5t-147 11.5q-104 0 -185 -23.5t-130.5 -60.5t-82 -88.5t-44.5 -102.5t-12 -108v-26q0 -54 12.5 -105
t45 -105t82 -93.5t131 -65t185.5 -25.5q110 0 194.5 22.5t128.5 52t72.5 69.5t35.5 61.5t10 42.5h503v-12q0 -59 -11.5 -116t-40.5 -120t-73.5 -118t-116 -105t-162 -86t-217.5 -57t-278 -21h-24v-81h8q105 0 175.5 -16t106.5 -48.5t50 -70.5t14 -91v-8z" />
    <glyph glyph-name="Egrave" unicode="&#xc8;" horiz-adv-x="1796" 
d="M471 1954h518l193 -314h-473zM1640 1524v-350h-974v-222h944v-362h-944v-236h987v-354h-1473v1524h1460z" />
    <glyph glyph-name="Eacute" unicode="&#xc9;" horiz-adv-x="1796" 
d="M676 1640l192 314h518l-239 -314h-471zM1640 1524v-350h-974v-222h944v-362h-944v-236h987v-354h-1473v1524h1460z" />
    <glyph glyph-name="Ecircumflex" unicode="&#xca;" horiz-adv-x="1796" 
d="M1477 1636h-441l-125 133l-127 -133h-432l291 318h541zM1640 1524v-350h-974v-222h944v-362h-944v-236h987v-354h-1473v1524h1460z" />
    <glyph glyph-name="Edieresis" unicode="&#xcb;" horiz-adv-x="1796" 
d="M1640 1524v-350h-974v-222h944v-362h-944v-236h987v-354h-1473v1524h1460zM852 1640h-451v299h451v-299zM1421 1640h-450v299h450v-299z" />
    <glyph glyph-name="Igrave" unicode="&#xcc;" horiz-adv-x="849" 
d="M670 0h-490v1524h490v-1524zM-47 1954h518l193 -314h-474z" />
    <glyph glyph-name="Iacute" unicode="&#xcd;" horiz-adv-x="849" 
d="M670 0h-490v1524h490v-1524zM188 1640l193 314h518l-240 -314h-471z" />
    <glyph glyph-name="Icircumflex" unicode="&#xce;" horiz-adv-x="849" 
d="M670 0h-490v1524h490v-1524zM991 1636h-440l-125 133l-127 -133h-432l291 318h540z" />
    <glyph glyph-name="Idieresis" unicode="&#xcf;" horiz-adv-x="849" 
d="M670 0h-490v1524h490v-1524zM367 1640h-451v299h451v-299zM936 1640h-451v299h451v-299z" />
    <glyph glyph-name="Eth" unicode="&#xd0;" horiz-adv-x="2181" 
d="M1032 367q100 0 181 13.5t135.5 35.5t95 55t63 66t35.5 75t17 76t4 74v12q0 39 -4 71.5t-17.5 73.5t-36 73.5t-63 64.5t-95 53.5t-135 35t-180.5 13.5h-307v-248h477v-282h-477v-262h307zM236 629h-203v282h203v613h839q170 0 311.5 -22.5t243 -61.5t180 -94.5
t127.5 -117t80.5 -134.5t43.5 -141.5t12 -143.5v-61q0 -78 -10.5 -148t-39.5 -147t-75.5 -141t-124.5 -123t-179.5 -100t-246 -65t-320.5 -24h-841v629z" />
    <glyph glyph-name="Ntilde" unicode="&#xd1;" horiz-adv-x="2191" 
d="M932 1632h-256v172q0 39 9.5 73.5t30 66.5t59 50.5t91.5 18.5h4q39 0 84 -10.5t79.5 -23.5t107.5 -42q9 -4 25.5 -10.5t22.5 -9t17 -7t16 -6t12 -3.5t12.5 -2.5t10.5 -0.5q29 0 29 46v79h256v-172q0 -39 -9.5 -73.5t-30 -66.5t-59 -50.5t-91.5 -18.5h-4q-39 0 -84 10.5
t-79.5 23.5t-107.5 42q-9 4 -25.5 10.5t-22.5 9t-17 7t-16 6t-12 3.5t-12.5 2.5t-10.5 0.5q-29 0 -29 -45v-80zM657 930v-930h-477v1524h500l856 -914v914h475v-1524h-473z" />
    <glyph glyph-name="Ograve" unicode="&#xd2;" horiz-adv-x="2213" 
d="M633 1954h518l192 -314h-473zM1153 1548q159 0 292.5 -25t229 -67t171 -102t122.5 -125.5t78 -141.5t43 -146.5t12 -143.5v-62q0 -72 -12 -142.5t-42.5 -147.5t-77.5 -143.5t-122.5 -127.5t-171 -104.5t-229.5 -69t-293 -25.5h-92q-158 0 -292 25.5t-229.5 69t-171 104.5
t-122.5 127.5t-78 143.5t-43 147.5t-12 142.5v62q0 73 12 143.5t43 146.5t78 141.5t122.5 125.5t171 102t229 67t292.5 25h92zM1591 780q0 55 -10.5 104.5t-43 103t-83.5 91.5t-140 63t-206 25t-206.5 -25t-141 -63t-83.5 -91.5t-43 -103t-11 -104.5v-26q0 -55 11.5 -105.5
t44.5 -104.5t85 -93.5t140.5 -65t203.5 -25.5q84 0 154 13.5t119.5 35.5t87 54t60.5 66t37 74.5t19.5 76.5t5.5 74v26z" />
    <glyph glyph-name="Oacute" unicode="&#xd3;" horiz-adv-x="2213" 
d="M870 1640l193 314h518l-240 -314h-471zM1153 1548q159 0 292.5 -25t229 -67t171 -102t122.5 -125.5t78 -141.5t43 -146.5t12 -143.5v-62q0 -72 -12 -142.5t-42.5 -147.5t-77.5 -143.5t-122.5 -127.5t-171 -104.5t-229.5 -69t-293 -25.5h-92q-158 0 -292 25.5t-229.5 69
t-171 104.5t-122.5 127.5t-78 143.5t-43 147.5t-12 142.5v62q0 73 12 143.5t43 146.5t78 141.5t122.5 125.5t171 102t229 67t292.5 25h92zM1591 780q0 55 -10.5 104.5t-43 103t-83.5 91.5t-140 63t-206 25t-206.5 -25t-141 -63t-83.5 -91.5t-43 -103t-11 -104.5v-26
q0 -55 11.5 -105.5t44.5 -104.5t85 -93.5t140.5 -65t203.5 -25.5q84 0 154 13.5t119.5 35.5t87 54t60.5 66t37 74.5t19.5 76.5t5.5 74v26z" />
    <glyph glyph-name="Ocircumflex" unicode="&#xd4;" horiz-adv-x="2213" 
d="M1671 1636h-440l-125 133l-127 -133h-432l291 318h540zM1153 1548q159 0 292.5 -25t229 -67t171 -102t122.5 -125.5t78 -141.5t43 -146.5t12 -143.5v-62q0 -72 -12 -142.5t-42.5 -147.5t-77.5 -143.5t-122.5 -127.5t-171 -104.5t-229.5 -69t-293 -25.5h-92
q-158 0 -292 25.5t-229.5 69t-171 104.5t-122.5 127.5t-78 143.5t-43 147.5t-12 142.5v62q0 73 12 143.5t43 146.5t78 141.5t122.5 125.5t171 102t229 67t292.5 25h92zM1591 780q0 55 -10.5 104.5t-43 103t-83.5 91.5t-140 63t-206 25t-206.5 -25t-141 -63t-83.5 -91.5
t-43 -103t-11 -104.5v-26q0 -55 11.5 -105.5t44.5 -104.5t85 -93.5t140.5 -65t203.5 -25.5q84 0 154 13.5t119.5 35.5t87 54t60.5 66t37 74.5t19.5 76.5t5.5 74v26z" />
    <glyph glyph-name="Otilde" unicode="&#xd5;" horiz-adv-x="2213" 
d="M930 1632h-256v172q0 39 9.5 73.5t30 66.5t59 50.5t91.5 18.5h4q39 0 84 -10.5t79.5 -23.5t107.5 -42q9 -4 25.5 -10.5t22.5 -9t17 -7t16 -6t12 -3.5t12.5 -2.5t10.5 -0.5q29 0 29 46v79h256v-172q0 -39 -9.5 -73.5t-30 -66.5t-59 -50.5t-91.5 -18.5h-4q-39 0 -84 10.5
t-79.5 23.5t-107.5 42q-95 39 -117 39q-28 0 -28 -45v-80zM1153 1548q159 0 292.5 -25t229 -67t171 -102t122.5 -125.5t78 -141.5t43 -146.5t12 -143.5v-62q0 -72 -12 -142.5t-42.5 -147.5t-77.5 -143.5t-122.5 -127.5t-171 -104.5t-229.5 -69t-293 -25.5h-92
q-158 0 -292 25.5t-229.5 69t-171 104.5t-122.5 127.5t-78 143.5t-43 147.5t-12 142.5v62q0 73 12 143.5t43 146.5t78 141.5t122.5 125.5t171 102t229 67t292.5 25h92zM1591 780q0 55 -10.5 104.5t-43 103t-83.5 91.5t-140 63t-206 25t-206.5 -25t-141 -63t-83.5 -91.5
t-43 -103t-11 -104.5v-26q0 -55 11.5 -105.5t44.5 -104.5t85 -93.5t140.5 -65t203.5 -25.5q84 0 154 13.5t119.5 35.5t87 54t60.5 66t37 74.5t19.5 76.5t5.5 74v26z" />
    <glyph glyph-name="Odieresis" unicode="&#xd6;" horiz-adv-x="2213" 
d="M1047 1640h-451v299h451v-299zM1616 1640h-451v299h451v-299zM1153 1548q159 0 292.5 -25t229 -67t171 -102t122.5 -125.5t78 -141.5t43 -146.5t12 -143.5v-62q0 -72 -12 -142.5t-42.5 -147.5t-77.5 -143.5t-122.5 -127.5t-171 -104.5t-229.5 -69t-293 -25.5h-92
q-158 0 -292 25.5t-229.5 69t-171 104.5t-122.5 127.5t-78 143.5t-43 147.5t-12 142.5v62q0 73 12 143.5t43 146.5t78 141.5t122.5 125.5t171 102t229 67t292.5 25h92zM1591 780q0 55 -10.5 104.5t-43 103t-83.5 91.5t-140 63t-206 25t-206.5 -25t-141 -63t-83.5 -91.5
t-43 -103t-11 -104.5v-26q0 -55 11.5 -105.5t44.5 -104.5t85 -93.5t140.5 -65t203.5 -25.5q84 0 154 13.5t119.5 35.5t87 54t60.5 66t37 74.5t19.5 76.5t5.5 74v26z" />
    <glyph glyph-name="multiply" unicode="&#xd7;" horiz-adv-x="1253" 
d="M625 428l-303 -297l-213 211l299 295l-302 293l226 223l299 -295l301 295l215 -211l-303 -297l303 -295l-217 -219z" />
    <glyph glyph-name="Oslash" unicode="&#xd8;" horiz-adv-x="2201" 
d="M1059 -25q-314 0 -527 101l-59 -53l-27 -23h-411l84 76q29 28 97.5 88.5t82.5 73.5q-98 107 -142 237.5t-44 259.5v62q0 71 10.5 139t39.5 144.5t74 142t119.5 127t170 104.5t232 68.5t300.5 25.5h84q315 0 528 -96q32 25 58 51l24 21h414l-82 -74l-180 -158
q98 -106 142 -236t44 -259v-62q0 -69 -10.5 -136.5t-39 -144.5t-73.5 -144t-119.5 -130t-170.5 -107t-233.5 -71t-301.5 -27h-84zM600 758q0 -120 51 -219l690 614q-113 25 -239 25q-120 0 -212 -25t-145.5 -64t-87.5 -93.5t-45.5 -105.5t-11.5 -108v-24zM1104 354
q86 0 157.5 13.5t122 36.5t89.5 55t63 67.5t39 76.5t21 78.5t6 76.5v24q0 121 -46 209l-690 -614q97 -23 238 -23z" />
    <glyph glyph-name="Ugrave" unicode="&#xd9;" horiz-adv-x="2160" 
d="M608 1954h518l193 -314h-473zM1055 -23q-132 0 -244 18t-195 47.5t-150.5 74.5t-113 93t-79.5 108.5t-52.5 115t-30 119t-15 114.5t-3.5 107v750h487v-744q0 -48 6 -89.5t21 -89.5t45.5 -85.5t75 -69t114 -48.5t158.5 -17h11q105 0 183 26t121 64t68.5 95t33 105.5
t7.5 108.5v744h488v-750q0 -73 -7.5 -140t-30.5 -150t-61 -151.5t-105.5 -136.5t-157 -114.5t-221.5 -75.5t-294 -29h-59z" />
    <glyph glyph-name="Uacute" unicode="&#xda;" horiz-adv-x="2160" 
d="M844 1640l192 314h518l-239 -314h-471zM1055 -23q-132 0 -244 18t-195 47.5t-150.5 74.5t-113 93t-79.5 108.5t-52.5 115t-30 119t-15 114.5t-3.5 107v750h487v-744q0 -48 6 -89.5t21 -89.5t45.5 -85.5t75 -69t114 -48.5t158.5 -17h11q105 0 183 26t121 64t68.5 95
t33 105.5t7.5 108.5v744h488v-750q0 -73 -7.5 -140t-30.5 -150t-61 -151.5t-105.5 -136.5t-157 -114.5t-221.5 -75.5t-294 -29h-59z" />
    <glyph glyph-name="Ucircumflex" unicode="&#xdb;" horiz-adv-x="2160" 
d="M1647 1636h-441l-125 133l-127 -133h-432l291 318h541zM1055 -23q-132 0 -244 18t-195 47.5t-150.5 74.5t-113 93t-79.5 108.5t-52.5 115t-30 119t-15 114.5t-3.5 107v750h487v-744q0 -48 6 -89.5t21 -89.5t45.5 -85.5t75 -69t114 -48.5t158.5 -17h11q105 0 183 26
t121 64t68.5 95t33 105.5t7.5 108.5v744h488v-750q0 -73 -7.5 -140t-30.5 -150t-61 -151.5t-105.5 -136.5t-157 -114.5t-221.5 -75.5t-294 -29h-59z" />
    <glyph glyph-name="Udieresis" unicode="&#xdc;" horiz-adv-x="2160" 
d="M1055 -23q-132 0 -244 18t-195 47.5t-150.5 74.5t-113 93t-79.5 108.5t-52.5 115t-30 119t-15 114.5t-3.5 107v750h487v-744q0 -48 6 -89.5t21 -89.5t45.5 -85.5t75 -69t114 -48.5t158.5 -17h11q105 0 183 26t121 64t68.5 95t33 105.5t7.5 108.5v744h488v-750
q0 -73 -7.5 -140t-30.5 -150t-61 -151.5t-105.5 -136.5t-157 -114.5t-221.5 -75.5t-294 -29h-59zM1022 1640h-451v299h451v-299zM1591 1640h-450v299h450v-299z" />
    <glyph glyph-name="Yacute" unicode="&#xdd;" horiz-adv-x="1978" 
d="M758 551l-776 973h600l438 -572l440 572h537l-752 -975v-549h-487v551zM782 1640l193 314h518l-240 -314h-471z" />
    <glyph glyph-name="Thorn" unicode="&#xde;" horiz-adv-x="2002" 
d="M670 262v-262h-490v1524h490v-228h573q154 0 270 -25t190.5 -68t120.5 -107.5t64.5 -136.5t18.5 -162v-27q0 -89 -19 -162t-66.5 -138.5t-121.5 -110.5t-190 -71t-267 -26h-573zM670 621h532q103 0 150 43.5t47 113.5v6q0 68 -47 111t-150 43h-532v-317z" />
    <glyph glyph-name="germandbls" unicode="&#xdf;" horiz-adv-x="1777" 
d="M1296 905q49 -8 96.5 -23t101.5 -46.5t93.5 -74.5t65.5 -110.5t26 -150.5v-23q0 -81 -17.5 -147.5t-62.5 -129.5t-117.5 -106t-188.5 -68.5t-269 -25.5h-270v324h229q65 0 109.5 14t66.5 39.5t30.5 53.5t8.5 65v2q0 34 -8.5 60.5t-30.5 51.5t-66.5 38.5t-109.5 13.5h-229
v321h184q45 0 78.5 9.5t52.5 24t30.5 35t15 37.5t3.5 37v2q0 29 -8.5 51t-31.5 44t-73 34.5t-124 12.5h-13q-73 0 -122 -14t-75 -42t-36 -62t-10 -83v-1069h-465v1106q0 50 4.5 89.5t21.5 91t46 90.5t82 79t125.5 66t181 42.5t243.5 16.5h35q136 0 245 -15t181 -43
t122.5 -62.5t77.5 -78t38.5 -84t11.5 -86.5v-10q0 -120 -81.5 -196.5t-197.5 -100.5z" />
    <glyph glyph-name="agrave" unicode="&#xe0;" horiz-adv-x="1660" 
d="M735 246q74 0 132 21t90.5 54.5t48.5 70t16 71.5v72q-92 -24 -229 -46q-137 -24 -184.5 -50t-47.5 -79v-4q0 -50 43 -80t131 -30zM1034 150q-153 -173 -440 -173h-35q-227 0 -344 102t-117 263v8q0 107 47 176t163 112.5t313 59.5l317 25q46 4 65 20t19 48v2
q0 22 -7 37.5t-27.5 31t-65.5 23.5t-113 8h-6q-209 0 -209 -115h-467v2q0 33 4.5 63.5t20.5 71t42.5 74t75.5 67.5t115 57.5t164.5 38.5t220.5 15h66q124 0 223 -13.5t165 -34.5t114.5 -54t74.5 -64.5t41 -74t19 -75t4 -73.5v-364q0 -44 14 -62t59 -18h54v-334h-377
q-79 0 -125 44t-68 106zM1034 1260h-454l-248 315h512z" />
    <glyph glyph-name="aacute" unicode="&#xe1;" horiz-adv-x="1660" 
d="M735 246q74 0 132 21t90.5 54.5t48.5 70t16 71.5v72q-92 -24 -229 -46q-137 -24 -184.5 -50t-47.5 -79v-4q0 -50 43 -80t131 -30zM1034 150q-153 -173 -440 -173h-35q-227 0 -344 102t-117 263v8q0 107 47 176t163 112.5t313 59.5l317 25q46 4 65 20t19 48v2
q0 22 -7 37.5t-27.5 31t-65.5 23.5t-113 8h-6q-209 0 -209 -115h-467v2q0 33 4.5 63.5t20.5 71t42.5 74t75.5 67.5t115 57.5t164.5 38.5t220.5 15h66q124 0 223 -13.5t165 -34.5t114.5 -54t74.5 -64.5t41 -74t19 -75t4 -73.5v-364q0 -44 14 -62t59 -18h54v-334h-377
q-79 0 -125 44t-68 106zM762 1575h512l-248 -315h-455z" />
    <glyph glyph-name="acircumflex" unicode="&#xe2;" horiz-adv-x="1660" 
d="M735 246q74 0 132 21t90.5 54.5t48.5 70t16 71.5v72q-92 -24 -229 -46q-137 -24 -184.5 -50t-47.5 -79v-4q0 -50 43 -80t131 -30zM1034 150q-153 -173 -440 -173h-35q-227 0 -344 102t-117 263v8q0 107 47 176t163 112.5t313 59.5l317 25q46 4 65 20t19 48v2
q0 22 -7 37.5t-27.5 31t-65.5 23.5t-113 8h-6q-209 0 -209 -115h-467v2q0 33 4.5 63.5t20.5 71t42.5 74t75.5 67.5t115 57.5t164.5 38.5t220.5 15h66q124 0 223 -13.5t165 -34.5t114.5 -54t74.5 -64.5t41 -74t19 -75t4 -73.5v-364q0 -44 14 -62t59 -18h54v-334h-377
q-79 0 -125 44t-68 106zM1364 1257h-442l-119 136l-119 -136h-434l280 318h549z" />
    <glyph glyph-name="atilde" unicode="&#xe3;" horiz-adv-x="1660" 
d="M735 246q74 0 132 21t90.5 54.5t48.5 70t16 71.5v72q-92 -24 -229 -46q-137 -24 -184.5 -50t-47.5 -79v-4q0 -50 43 -80t131 -30zM1034 150q-153 -173 -440 -173h-35q-227 0 -344 102t-117 263v8q0 107 47 176t163 112.5t313 59.5l317 25q46 4 65 20t19 48v2
q0 22 -7 37.5t-27.5 31t-65.5 23.5t-113 8h-6q-209 0 -209 -115h-467v2q0 33 4.5 63.5t20.5 71t42.5 74t75.5 67.5t115 57.5t164.5 38.5t220.5 15h66q124 0 223 -13.5t165 -34.5t114.5 -54t74.5 -64.5t41 -74t19 -75t4 -73.5v-364q0 -44 14 -62t59 -18h54v-334h-377
q-79 0 -125 44t-68 106zM1221 1470q0 -37 -9.5 -71.5t-30 -66.5t-59 -51t-90.5 -19h-4q-58 0 -107.5 15.5t-142.5 57.5q-82 43 -106 43q-31 0 -31 -45v-82h-254v176q0 38 9 72t28.5 66.5t58 51.5t90.5 19h7q58 0 105.5 -15.5t141.5 -59.5q83 -41 107 -41q31 0 31 43v84h256
v-177z" />
    <glyph glyph-name="adieresis" unicode="&#xe4;" horiz-adv-x="1660" 
d="M735 246q74 0 132 21t90.5 54.5t48.5 70t16 71.5v72q-92 -24 -229 -46q-137 -24 -184.5 -50t-47.5 -79v-4q0 -50 43 -80t131 -30zM1034 150q-153 -173 -440 -173h-35q-227 0 -344 102t-117 263v8q0 107 47 176t163 112.5t313 59.5l317 25q46 4 65 20t19 48v2
q0 22 -7 37.5t-27.5 31t-65.5 23.5t-113 8h-6q-209 0 -209 -115h-467v2q0 33 4.5 63.5t20.5 71t42.5 74t75.5 67.5t115 57.5t164.5 38.5t220.5 15h66q124 0 223 -13.5t165 -34.5t114.5 -54t74.5 -64.5t41 -74t19 -75t4 -73.5v-364q0 -44 14 -62t59 -18h54v-334h-377
q-79 0 -125 44t-68 106zM745 1255h-444v299h444v-299zM1305 1255h-445v299h445v-299z" />
    <glyph glyph-name="aring" unicode="&#xe5;" horiz-adv-x="1660" 
d="M735 246q74 0 132 21t90.5 54.5t48.5 70t16 71.5v72q-92 -24 -229 -46q-137 -24 -184.5 -50t-47.5 -79v-4q0 -50 43 -80t131 -30zM1034 150q-153 -173 -440 -173h-35q-227 0 -344 102t-117 263v8q0 107 47 176t163 112.5t313 59.5l317 25q46 4 65 20t19 48v2
q0 22 -7 37.5t-27.5 31t-65.5 23.5t-113 8h-6q-209 0 -209 -115h-467v2q0 33 4.5 63.5t20.5 71t42.5 74t75.5 67.5t115 57.5t164.5 38.5t220.5 15h66q124 0 223 -13.5t165 -34.5t114.5 -54t74.5 -64.5t41 -74t19 -75t4 -73.5v-364q0 -44 14 -62t59 -18h54v-334h-377
q-79 0 -125 44t-68 106zM440 1518q0 55 18 101t57.5 85.5t113 61.5t174.5 22q103 0 177 -22t113.5 -61.5t57.5 -85t18 -101.5t-17.5 -102.5t-57 -86.5t-114 -63t-177.5 -23q-102 0 -176 23t-113 63.5t-56.5 87t-17.5 101.5zM672 1518q0 -48 33 -80.5t98 -32.5q68 0 100.5 32
t32.5 81q0 48 -32.5 78t-100.5 30q-65 0 -98 -30.5t-33 -77.5z" />
    <glyph glyph-name="ae" unicode="&#xe6;" horiz-adv-x="2627" 
d="M1765 893q-131 0 -193 -49t-81 -144h545q0 37 -12 68.5t-40 61t-84 46.5t-135 17zM727 246q72 0 128.5 21t88 54.5t47 70t15.5 71.5v72q-100 -26 -222 -46q-131 -24 -177 -50t-46 -79v-4q0 -50 41 -80t125 -30zM2525 356q0 -26 -6.5 -55t-26.5 -67.5t-51 -73.5t-86 -70.5
t-126 -61t-175.5 -41.5t-230.5 -16h-82q-230 0 -378.5 62.5t-221.5 159.5q-28 -39 -67 -73t-99.5 -68.5t-150 -54.5t-197.5 -20h-35q-249 0 -371.5 101t-122.5 264v8q0 160 115.5 242t400.5 106l308 25q46 4 65 20t19 48q0 22 -6.5 37.5t-26.5 31t-63.5 23.5t-110.5 8h-4
q-65 0 -109 -12t-62.5 -31.5t-25 -36t-6.5 -35.5h-465v4q0 34 4.5 64.5t20 71t42 73.5t74.5 67t113 57t163 37.5t218 14.5h67q329 0 461 -118q140 120 424 120h90q128 0 232.5 -19t179 -52t130.5 -82t90.5 -102.5t55.5 -121t29 -131t8 -137.5v-41h-1042q14 -104 86.5 -159.5
t222.5 -55.5q57 0 102 8.5t69 19t42 26t22.5 22t8.5 14.5h485z" />
    <glyph glyph-name="ccedilla" unicode="&#xe7;" horiz-adv-x="1703" 
d="M1233 -340q0 -51 -14 -88.5t-51.5 -72.5t-114.5 -53.5t-191 -18.5h-305v204h246q44 0 60 12.5t16 37.5q0 23 -16 35t-60 12h-180v256q-127 19 -223.5 67t-152 107t-90 134.5t-46 139t-11.5 129.5v29q0 52 7.5 102.5t28 110t53 110.5t88.5 99.5t128 82.5t176 55t230 21h88
q129 0 235 -18t178 -47.5t126.5 -71.5t85.5 -84t50.5 -90.5t25.5 -86.5t6 -77v-2h-486q-3 14 -8.5 29.5t-23 40.5t-43 43.5t-72.5 32.5t-107 14h-18q-60 0 -107 -16t-76 -42.5t-47.5 -63t-26 -73.5t-7.5 -79v-2q0 -53 13.5 -101.5t43 -91.5t84 -68.5t127.5 -25.5h18
q60 0 107.5 14.5t73 35.5t42.5 46t22 43t5 31h486q0 -41 -6.5 -81.5t-25.5 -91t-50 -94t-85 -86t-124 -72.5t-173.5 -48.5t-228.5 -18.5h-34v-75h8q105 0 175.5 -16t106.5 -48.5t50 -70.5t14 -91v-8z" />
    <glyph glyph-name="egrave" unicode="&#xe8;" horiz-adv-x="1730" 
d="M862 891q-132 0 -195.5 -47.5t-82.5 -138.5h553q0 36 -11.5 66t-40 58.5t-85.5 45t-138 16.5zM1628 365q-2 -29 -8.5 -58t-26.5 -70t-50.5 -76t-85 -71t-125 -61.5t-176.5 -41.5t-234 -16h-84q-125 0 -229.5 19t-179.5 51t-133 77.5t-94.5 96t-60 110t-32.5 115.5t-9 115
v29q0 60 8.5 115t31 114.5t57.5 110t91 96.5t128 77.5t173 50.5t222 19h90q130 0 236.5 -19t181.5 -52t131.5 -82t90.5 -102.5t55 -121t28.5 -131t7.5 -137.5v-41h-1054q19 -104 91.5 -159.5t225.5 -55.5q59 0 105 9.5t69.5 19t42 28t21.5 23.5t10 19h485zM1087 1260h-454
l-248 315h512z" />
    <glyph glyph-name="eacute" unicode="&#xe9;" horiz-adv-x="1730" 
d="M821 1575h512l-248 -315h-454zM862 891q-132 0 -195.5 -47.5t-82.5 -138.5h553q0 36 -11.5 66t-40 58.5t-85.5 45t-138 16.5zM1628 365q-2 -29 -8.5 -58t-26.5 -70t-50.5 -76t-85 -71t-125 -61.5t-176.5 -41.5t-234 -16h-84q-125 0 -229.5 19t-179.5 51t-133 77.5
t-94.5 96t-60 110t-32.5 115.5t-9 115v29q0 60 8.5 115t31 114.5t57.5 110t91 96.5t128 77.5t173 50.5t222 19h90q130 0 236.5 -19t181.5 -52t131.5 -82t90.5 -102.5t55 -121t28.5 -131t7.5 -137.5v-41h-1054q19 -104 91.5 -159.5t225.5 -55.5q59 0 105 9.5t69.5 19t42 28
t21.5 23.5t10 19h485z" />
    <glyph glyph-name="ecircumflex" unicode="&#xea;" horiz-adv-x="1730" 
d="M1419 1257h-442l-119 136l-119 -136h-434l281 318h549zM862 891q-132 0 -195.5 -47.5t-82.5 -138.5h553q0 36 -11.5 66t-40 58.5t-85.5 45t-138 16.5zM1628 365q-2 -29 -8.5 -58t-26.5 -70t-50.5 -76t-85 -71t-125 -61.5t-176.5 -41.5t-234 -16h-84q-125 0 -229.5 19
t-179.5 51t-133 77.5t-94.5 96t-60 110t-32.5 115.5t-9 115v29q0 60 8.5 115t31 114.5t57.5 110t91 96.5t128 77.5t173 50.5t222 19h90q130 0 236.5 -19t181.5 -52t131.5 -82t90.5 -102.5t55 -121t28.5 -131t7.5 -137.5v-41h-1054q19 -104 91.5 -159.5t225.5 -55.5
q59 0 105 9.5t69.5 19t42 28t21.5 23.5t10 19h485z" />
    <glyph glyph-name="edieresis" unicode="&#xeb;" horiz-adv-x="1730" 
d="M801 1255h-445v299h445v-299zM1360 1255h-445v299h445v-299zM862 891q-132 0 -195.5 -47.5t-82.5 -138.5h553q0 36 -11.5 66t-40 58.5t-85.5 45t-138 16.5zM1628 365q-2 -29 -8.5 -58t-26.5 -70t-50.5 -76t-85 -71t-125 -61.5t-176.5 -41.5t-234 -16h-84
q-125 0 -229.5 19t-179.5 51t-133 77.5t-94.5 96t-60 110t-32.5 115.5t-9 115v29q0 60 8.5 115t31 114.5t57.5 110t91 96.5t128 77.5t173 50.5t222 19h90q130 0 236.5 -19t181.5 -52t131.5 -82t90.5 -102.5t55 -121t28.5 -131t7.5 -137.5v-41h-1054q19 -104 91.5 -159.5
t225.5 -55.5q59 0 105 9.5t69.5 19t42 28t21.5 23.5t10 19h485z" />
    <glyph glyph-name="igrave" unicode="&#xec;" horiz-adv-x="784" 
d="M616 1260h-454l-225 315h495zM625 0h-465v1141h465v-1141z" />
    <glyph glyph-name="iacute" unicode="&#xed;" horiz-adv-x="784" 
d="M350 1575h496l-223 -315h-453zM625 0h-465v1141h465v-1141z" />
    <glyph glyph-name="icircumflex" unicode="&#xee;" horiz-adv-x="784" 
d="M903 1257h-411l-101 140l-98 -140h-406l238 318h539zM625 0h-465v1141h465v-1141z" />
    <glyph glyph-name="idieresis" unicode="&#xef;" horiz-adv-x="784" 
d="M338 1255h-385v299h385v-299zM831 1255h-385v299h385v-299zM625 0h-465v1141h465v-1141z" />
    <glyph glyph-name="eth" unicode="&#xf0;" horiz-adv-x="1755" 
d="M842 -31q-167 0 -298 33t-213 87.5t-136 130t-75.5 154.5t-21.5 167v32q0 117 33 214.5t99 174t175.5 119.5t253.5 43h23q197 0 346 -80l-229 197l-465 -59v166l297 36l-193 166h561l125 -104l400 49v-162l-232 -30l23 -17q185 -156 263.5 -313t78.5 -357v-32
q0 -615 -748 -615h-67zM1176 575q0 38 -6.5 73t-26 73.5t-50 67t-83.5 47t-121 18.5h-19q-69 0 -121.5 -18.5t-83 -46.5t-49.5 -67t-25.5 -74t-6.5 -73v-2q0 -37 6.5 -71.5t25.5 -74.5t49.5 -69t83 -48t121.5 -19h19q68 0 121 19.5t83.5 49.5t50 69.5t26 74t6.5 69.5v2z" />
    <glyph glyph-name="ntilde" unicode="&#xf1;" horiz-adv-x="1757" 
d="M160 1141h461v-180q26 31 61.5 61.5t94 66.5t142 58t177.5 22h20q121 0 217 -37.5t153 -100t86.5 -137.5t29.5 -157v-737h-465v582q0 102 -61.5 168.5t-188.5 66.5q-125 0 -193.5 -72.5t-68.5 -179.5v-565h-465v1141zM1298 1470q0 -37 -9.5 -71.5t-30 -66.5t-58.5 -51
t-90 -19h-4q-58 0 -107.5 15.5t-142.5 57.5q-82 43 -106 43q-31 0 -31 -45v-82h-254v176q0 38 9 72t28.5 66.5t58 51.5t90.5 19h6q58 0 106.5 -15.5t141.5 -59.5q83 -41 107 -41q30 0 30 43v84h256v-177z" />
    <glyph glyph-name="ograve" unicode="&#xf2;" horiz-adv-x="1755" 
d="M846 -31q-136 0 -248 22t-188 57t-134 85.5t-91 101.5t-53.5 110.5t-27 107.5t-6.5 98v29q0 49 6.5 96.5t27 108t53 113t90.5 104t133.5 88t187.5 59t248 22.5h69q141 0 255 -22.5t190 -58.5t133 -88.5t87.5 -103.5t49.5 -112.5t24 -107.5t5 -96v-33q0 -51 -5.5 -97
t-24.5 -106.5t-50 -110.5t-88 -101t-133 -86t-190.5 -57t-254.5 -22h-65zM887 291q81 0 140.5 27.5t89.5 72.5t43.5 90.5t13.5 93.5q0 50 -13.5 95.5t-43.5 88.5t-89 69t-141 26h-19q-68 0 -120.5 -18t-83 -45t-50 -65.5t-26 -74.5t-6.5 -76q0 -39 6.5 -75t26 -75.5t50 -68
t83 -47t120.5 -18.5h19zM1106 1260h-455l-248 315h512z" />
    <glyph glyph-name="oacute" unicode="&#xf3;" horiz-adv-x="1755" 
d="M840 1575h512l-248 -315h-455zM846 -31q-136 0 -248 22t-188 57t-134 85.5t-91 101.5t-53.5 110.5t-27 107.5t-6.5 98v29q0 49 6.5 96.5t27 108t53 113t90.5 104t133.5 88t187.5 59t248 22.5h69q141 0 255 -22.5t190 -58.5t133 -88.5t87.5 -103.5t49.5 -112.5t24 -107.5
t5 -96v-33q0 -51 -5.5 -97t-24.5 -106.5t-50 -110.5t-88 -101t-133 -86t-190.5 -57t-254.5 -22h-65zM887 291q81 0 140.5 27.5t89.5 72.5t43.5 90.5t13.5 93.5q0 50 -13.5 95.5t-43.5 88.5t-89 69t-141 26h-19q-68 0 -120.5 -18t-83 -45t-50 -65.5t-26 -74.5t-6.5 -76
q0 -39 6.5 -75t26 -75.5t50 -68t83 -47t120.5 -18.5h19z" />
    <glyph glyph-name="ocircumflex" unicode="&#xf4;" horiz-adv-x="1755" 
d="M1438 1257h-443l-118 136l-119 -136h-434l280 318h549zM846 -31q-136 0 -248 22t-188 57t-134 85.5t-91 101.5t-53.5 110.5t-27 107.5t-6.5 98v29q0 49 6.5 96.5t27 108t53 113t90.5 104t133.5 88t187.5 59t248 22.5h69q141 0 255 -22.5t190 -58.5t133 -88.5t87.5 -103.5
t49.5 -112.5t24 -107.5t5 -96v-33q0 -51 -5.5 -97t-24.5 -106.5t-50 -110.5t-88 -101t-133 -86t-190.5 -57t-254.5 -22h-65zM887 291q81 0 140.5 27.5t89.5 72.5t43.5 90.5t13.5 93.5q0 50 -13.5 95.5t-43.5 88.5t-89 69t-141 26h-19q-68 0 -120.5 -18t-83 -45t-50 -65.5
t-26 -74.5t-6.5 -76q0 -39 6.5 -75t26 -75.5t50 -68t83 -47t120.5 -18.5h19z" />
    <glyph glyph-name="otilde" unicode="&#xf5;" horiz-adv-x="1755" 
d="M846 -31q-136 0 -248 22t-188 57t-134 85.5t-91 101.5t-53.5 110.5t-27 107.5t-6.5 98v29q0 49 6.5 96.5t27 108t53 113t90.5 104t133.5 88t187.5 59t248 22.5h69q141 0 255 -22.5t190 -58.5t133 -88.5t87.5 -103.5t49.5 -112.5t24 -107.5t5 -96v-33q0 -51 -5.5 -97
t-24.5 -106.5t-50 -110.5t-88 -101t-133 -86t-190.5 -57t-254.5 -22h-65zM887 291q81 0 140.5 27.5t89.5 72.5t43.5 90.5t13.5 93.5q0 50 -13.5 95.5t-43.5 88.5t-89 69t-141 26h-19q-68 0 -120.5 -18t-83 -45t-50 -65.5t-26 -74.5t-6.5 -76q0 -39 6.5 -75t26 -75.5t50 -68
t83 -47t120.5 -18.5h19zM1294 1470q0 -37 -9.5 -71.5t-30 -66.5t-58.5 -51t-90 -19h-4q-58 0 -107.5 15.5t-142.5 57.5q-82 43 -107 43q-30 0 -30 -45v-82h-254v176q0 38 9 72t28.5 66.5t58 51.5t90.5 19h6q58 0 106.5 -15.5t141.5 -59.5q83 -41 107 -41q30 0 30 43v84h256
v-177z" />
    <glyph glyph-name="odieresis" unicode="&#xf6;" horiz-adv-x="1755" 
d="M819 1255h-444v299h444v-299zM1378 1255h-444v299h444v-299zM846 -31q-136 0 -248 22t-188 57t-134 85.5t-91 101.5t-53.5 110.5t-27 107.5t-6.5 98v29q0 49 6.5 96.5t27 108t53 113t90.5 104t133.5 88t187.5 59t248 22.5h69q141 0 255 -22.5t190 -58.5t133 -88.5
t87.5 -103.5t49.5 -112.5t24 -107.5t5 -96v-33q0 -51 -5.5 -97t-24.5 -106.5t-50 -110.5t-88 -101t-133 -86t-190.5 -57t-254.5 -22h-65zM887 291q81 0 140.5 27.5t89.5 72.5t43.5 90.5t13.5 93.5q0 50 -13.5 95.5t-43.5 88.5t-89 69t-141 26h-19q-68 0 -120.5 -18t-83 -45
t-50 -65.5t-26 -74.5t-6.5 -76q0 -39 6.5 -75t26 -75.5t50 -68t83 -47t120.5 -18.5h19z" />
    <glyph glyph-name="divide" unicode="&#xf7;" horiz-adv-x="1382" 
d="M899 932h-416v334h416v-334zM1241 805v-293h-1100v293h1100zM899 43h-416v336h416v-336z" />
    <glyph glyph-name="oslash" unicode="&#xf8;" horiz-adv-x="1748" 
d="M842 -31q-263 0 -426 86l-68 -55h-311l209 176q-148 145 -148 375v29q0 49 5.5 95t24.5 107t50.5 113t88.5 104.5t132.5 89t189 59.5t251.5 23h69q265 0 424 -84l64 54h311l-205 -172q81 -77 113.5 -181.5t32.5 -205.5v-33q0 -50 -4.5 -94.5t-22.5 -106t-48 -111
t-86.5 -101.5t-132 -87t-191 -57.5t-257.5 -22.5h-65zM545 573q0 -61 18 -131l486 408q-78 20 -164 20h-21q-76 0 -134 -18.5t-92.5 -47.5t-56 -69t-29 -78.5t-7.5 -81.5v-2zM885 279q93 0 159.5 27t100 72t47.5 92t14 99v4q0 82 -16 132l-488 -408q70 -18 162 -18h21z" />
    <glyph glyph-name="ugrave" unicode="&#xf9;" horiz-adv-x="1744" 
d="M1585 0h-461v180q-22 -30 -59 -61.5t-94 -67t-140.5 -58t-175.5 -22.5h-20q-121 0 -215.5 37t-150.5 99.5t-84.5 137t-28.5 156.5v740h465v-582q0 -103 59 -169t184 -66q122 0 189 71.5t67 179.5v566h465v-1141zM1100 1260h-455l-248 315h512z" />
    <glyph glyph-name="uacute" unicode="&#xfa;" horiz-adv-x="1744" 
d="M831 1575h512l-247 -315h-455zM1585 0h-461v180q-22 -30 -59 -61.5t-94 -67t-140.5 -58t-175.5 -22.5h-20q-121 0 -215.5 37t-150.5 99.5t-84.5 137t-28.5 156.5v740h465v-582q0 -103 59 -169t184 -66q122 0 189 71.5t67 179.5v566h465v-1141z" />
    <glyph glyph-name="ucircumflex" unicode="&#xfb;" horiz-adv-x="1744" 
d="M1432 1257h-443l-119 136l-118 -136h-435l281 318h549zM1585 0h-461v180q-22 -30 -59 -61.5t-94 -67t-140.5 -58t-175.5 -22.5h-20q-121 0 -215.5 37t-150.5 99.5t-84.5 137t-28.5 156.5v740h465v-582q0 -103 59 -169t184 -66q122 0 189 71.5t67 179.5v566h465v-1141z
" />
    <glyph glyph-name="udieresis" unicode="&#xfc;" horiz-adv-x="1744" 
d="M813 1255h-444v299h444v-299zM1372 1255h-444v299h444v-299zM1585 0h-461v180q-22 -30 -59 -61.5t-94 -67t-140.5 -58t-175.5 -22.5h-20q-121 0 -215.5 37t-150.5 99.5t-84.5 137t-28.5 156.5v740h465v-582q0 -103 59 -169t184 -66q122 0 189 71.5t67 179.5v566h465
v-1141z" />
    <glyph glyph-name="yacute" unicode="&#xfd;" horiz-adv-x="1595" 
d="M238 -80h258q53 0 53 41q0 29 -35 100l-494 1080h512l293 -781l277 781h471l-512 -1245q-62 -147 -153.5 -216t-241.5 -69h-428v309zM780 1575h512l-248 -315h-454z" />
    <glyph glyph-name="thorn" unicode="&#xfe;" horiz-adv-x="1783" 
d="M1196 575q0 37 -7 72t-26.5 71.5t-50 63t-80.5 43.5t-114 17h-17q-79 0 -137 -25t-89 -66t-45 -85t-14 -91v-10q0 -48 14 -91.5t45 -83.5t89 -63.5t137 -23.5h17q64 0 114 16.5t80.5 42.5t50 62t26.5 70.5t7 72.5v8zM160 1550h456v-559q22 25 53.5 49.5t85 54.5t132 49
t168.5 19h20q140 0 248 -32.5t174.5 -86t109 -129t58.5 -154t16 -169.5v-35q0 -82 -17 -158.5t-61 -155t-112 -136t-178.5 -94t-251.5 -36.5h-23q-87 0 -164 17.5t-128 44t-82 49.5t-48 43v-520h-456v1939z" />
    <glyph glyph-name="ydieresis" unicode="&#xff;" horiz-adv-x="1595" 
d="M238 -80h258q53 0 53 41q0 29 -35 100l-494 1080h512l293 -781l277 781h471l-512 -1245q-62 -147 -153.5 -216t-241.5 -69h-428v309zM760 1255h-445v299h445v-299zM1319 1255h-445v299h445v-299z" />
    <glyph glyph-name="Amacron" unicode="&#x100;" horiz-adv-x="2064" 
d="M1012 1169l-250 -569h506zM1417 264h-805l-116 -264h-490l692 1524h645l715 -1524h-522zM608 1925h824v-258h-824v258z" />
    <glyph glyph-name="amacron" unicode="&#x101;" horiz-adv-x="1660" 
d="M735 246q74 0 132 21t90.5 54.5t48.5 70t16 71.5v72q-92 -24 -229 -46q-137 -24 -184.5 -50t-47.5 -79v-4q0 -50 43 -80t131 -30zM1034 150q-153 -173 -440 -173h-35q-227 0 -344 102t-117 263v8q0 107 47 176t163 112.5t313 59.5l317 25q46 4 65 20t19 48v2
q0 22 -7 37.5t-27.5 31t-65.5 23.5t-113 8h-6q-209 0 -209 -115h-467v2q0 33 4.5 63.5t20.5 71t42.5 74t75.5 67.5t115 57.5t164.5 38.5t220.5 15h66q124 0 223 -13.5t165 -34.5t114.5 -54t74.5 -64.5t41 -74t19 -75t4 -73.5v-364q0 -44 14 -62t59 -18h54v-334h-377
q-79 0 -125 44t-68 106zM401 1538h809v-258h-809v258z" />
    <glyph glyph-name="Abreve" unicode="&#x102;" horiz-adv-x="2064" 
d="M1012 1169l-250 -569h506zM1417 264h-805l-116 -264h-490l692 1524h645l715 -1524h-522zM991 1630q-103 0 -181.5 25.5t-123 62.5t-72 87t-36.5 91.5t-9 83.5v5h326q3 -20 8 -35t17.5 -35.5t37.5 -31.5t62 -11h2q28 0 49.5 8.5t33 19.5t20 28.5t11.5 29t5 27.5h323v-5
q0 -40 -11.5 -83t-41.5 -92t-75.5 -87t-121 -63t-170.5 -25h-53z" />
    <glyph glyph-name="abreve" unicode="&#x103;" horiz-adv-x="1660" 
d="M735 246q74 0 132 21t90.5 54.5t48.5 70t16 71.5v72q-92 -24 -229 -46q-137 -24 -184.5 -50t-47.5 -79v-4q0 -50 43 -80t131 -30zM1034 150q-153 -173 -440 -173h-35q-227 0 -344 102t-117 263v8q0 107 47 176t163 112.5t313 59.5l317 25q46 4 65 20t19 48v2
q0 22 -7 37.5t-27.5 31t-65.5 23.5t-113 8h-6q-209 0 -209 -115h-467v2q0 33 4.5 63.5t20.5 71t42.5 74t75.5 67.5t115 57.5t164.5 38.5t220.5 15h66q124 0 223 -13.5t165 -34.5t114.5 -54t74.5 -64.5t41 -74t19 -75t4 -73.5v-364q0 -44 14 -62t59 -18h54v-334h-377
q-79 0 -125 44t-68 106zM782 1249q-101 0 -179 25.5t-121.5 63.5t-71 88t-36.5 92t-9 84v4h327q0 -16 4.5 -32.5t15.5 -36.5t36 -33t61 -13h2q34 0 58 13t35 33t15.5 37t4.5 32h325v-4q0 -40 -10.5 -83.5t-39.5 -93t-73.5 -87.5t-120 -63.5t-171.5 -25.5h-52z" />
    <glyph glyph-name="Aogonek" unicode="&#x104;" horiz-adv-x="2064" 
d="M1012 1169l-250 -569h506zM1417 264h-805l-116 -264h-490l692 1524h645l715 -1524h-522zM1743 -391q-264 0 -264 151v4q0 81 90.5 133.5t292.5 102.5h196q-80 -48 -113.5 -75.5t-33.5 -57.5q0 -49 78 -49h84v-209h-330z" />
    <glyph glyph-name="aogonek" unicode="&#x105;" horiz-adv-x="1660" 
d="M735 246q74 0 132 21t90.5 54.5t48.5 70t16 71.5v72q-92 -24 -229 -46q-137 -24 -184.5 -50t-47.5 -79v-4q0 -50 43 -80t131 -30zM1034 150q-153 -173 -440 -173h-35q-227 0 -344 102t-117 263v8q0 107 47 176t163 112.5t313 59.5l317 25q46 4 65 20t19 48v2
q0 22 -7 37.5t-27.5 31t-65.5 23.5t-113 8h-6q-209 0 -209 -115h-467v2q0 33 4.5 63.5t20.5 71t42.5 74t75.5 67.5t115 57.5t164.5 38.5t220.5 15h66q124 0 223 -13.5t165 -34.5t114.5 -54t74.5 -64.5t41 -74t19 -75t4 -73.5v-364q0 -44 14 -62t59 -18h54v-334h-377
q-79 0 -125 44t-68 106zM1288 -391q-264 0 -264 151v4q0 81 90.5 133.5t292.5 102.5h197q-55 -33 -81.5 -50.5t-46.5 -39.5t-20 -43q0 -49 78 -49h84v-209h-330z" />
    <glyph glyph-name="Cacute" unicode="&#x106;" horiz-adv-x="2131" 
d="M1030 -25q-154 0 -284.5 26.5t-223 70.5t-165 106t-117.5 129.5t-74.5 144t-41 145t-11.5 138.5v62q0 70 11.5 139t40.5 145t74 142t117.5 126.5t165.5 104t223 69t285 25.5h94q150 0 276.5 -20t217.5 -54t162.5 -82.5t116 -102t74 -116t41 -121t11.5 -120.5v-10h-503
q-2 12 -5.5 26t-16.5 39t-31.5 47t-53 47t-78.5 43t-111 29.5t-147 11.5q-104 0 -185 -23.5t-130.5 -60.5t-82 -88.5t-44.5 -102.5t-12 -108v-26q0 -54 12.5 -105t45 -105t82 -93.5t131 -65t185.5 -25.5q110 0 194.5 22.5t128.5 52t72.5 69.5t35.5 61.5t10 42.5h503v-12
q0 -59 -11.5 -116t-40.5 -120t-73.5 -118t-116 -105t-162 -86t-217.5 -57t-278 -21h-94zM840 1640l192 314h518l-239 -314h-471z" />
    <glyph glyph-name="cacute" unicode="&#x107;" horiz-adv-x="1703" 
d="M817 1575h512l-248 -315h-454zM1606 461q0 -41 -6.5 -81.5t-25.5 -91t-50 -94t-85 -86t-124 -72.5t-173.5 -48.5t-228.5 -18.5h-100q-126 0 -231 21.5t-177.5 56.5t-128 84.5t-88 101.5t-53.5 112.5t-28 111.5t-7 104v29q0 52 7.5 102.5t28 110t53 110.5t88.5 99.5
t128 82.5t176 55t230 21h88q129 0 235 -18t178 -47.5t126.5 -71.5t85.5 -84t50.5 -90.5t25.5 -86.5t6 -77v-2h-486q-3 14 -8.5 29.5t-23 40.5t-43 43.5t-72.5 32.5t-107 14h-18q-60 0 -107 -16t-76 -42.5t-47.5 -63t-26 -73.5t-7.5 -79v-2q0 -53 13.5 -101.5t43 -91.5
t84 -68.5t127.5 -25.5h18q60 0 107.5 14.5t73 35.5t42.5 46t22 43t5 31h486z" />
    <glyph glyph-name="Ccircumflex" unicode="&#x108;" horiz-adv-x="2131" 
d="M1642 1636h-440l-125 133l-127 -133h-432l291 318h541zM1030 -25q-154 0 -284.5 26.5t-223 70.5t-165 106t-117.5 129.5t-74.5 144t-41 145t-11.5 138.5v62q0 70 11.5 139t40.5 145t74 142t117.5 126.5t165.5 104t223 69t285 25.5h94q150 0 276.5 -20t217.5 -54
t162.5 -82.5t116 -102t74 -116t41 -121t11.5 -120.5v-10h-503q-2 12 -5.5 26t-16.5 39t-31.5 47t-53 47t-78.5 43t-111 29.5t-147 11.5q-104 0 -185 -23.5t-130.5 -60.5t-82 -88.5t-44.5 -102.5t-12 -108v-26q0 -54 12.5 -105t45 -105t82 -93.5t131 -65t185.5 -25.5
q110 0 194.5 22.5t128.5 52t72.5 69.5t35.5 61.5t10 42.5h503v-12q0 -59 -11.5 -116t-40.5 -120t-73.5 -118t-116 -105t-162 -86t-217.5 -57t-278 -21h-94z" />
    <glyph glyph-name="ccircumflex" unicode="&#x109;" horiz-adv-x="1703" 
d="M1415 1257h-442l-119 136l-119 -136h-434l281 318h548zM1606 461q0 -41 -6.5 -81.5t-25.5 -91t-50 -94t-85 -86t-124 -72.5t-173.5 -48.5t-228.5 -18.5h-100q-126 0 -231 21.5t-177.5 56.5t-128 84.5t-88 101.5t-53.5 112.5t-28 111.5t-7 104v29q0 52 7.5 102.5t28 110
t53 110.5t88.5 99.5t128 82.5t176 55t230 21h88q129 0 235 -18t178 -47.5t126.5 -71.5t85.5 -84t50.5 -90.5t25.5 -86.5t6 -77v-2h-486q-3 14 -8.5 29.5t-23 40.5t-43 43.5t-72.5 32.5t-107 14h-18q-60 0 -107 -16t-76 -42.5t-47.5 -63t-26 -73.5t-7.5 -79v-2
q0 -53 13.5 -101.5t43 -91.5t84 -68.5t127.5 -25.5h18q60 0 107.5 14.5t73 35.5t42.5 46t22 43t5 31h486z" />
    <glyph glyph-name="Cdotaccent" unicode="&#x10a;" horiz-adv-x="2131" 
d="M1030 -25q-154 0 -284.5 26.5t-223 70.5t-165 106t-117.5 129.5t-74.5 144t-41 145t-11.5 138.5v62q0 70 11.5 139t40.5 145t74 142t117.5 126.5t165.5 104t223 69t285 25.5h94q150 0 276.5 -20t217.5 -54t162.5 -82.5t116 -102t74 -116t41 -121t11.5 -120.5v-10h-503
q-2 12 -5.5 26t-16.5 39t-31.5 47t-53 47t-78.5 43t-111 29.5t-147 11.5q-104 0 -185 -23.5t-130.5 -60.5t-82 -88.5t-44.5 -102.5t-12 -108v-26q0 -54 12.5 -105t45 -105t82 -93.5t131 -65t185.5 -25.5q110 0 194.5 22.5t128.5 52t72.5 69.5t35.5 61.5t10 42.5h503v-12
q0 -59 -11.5 -116t-40.5 -120t-73.5 -118t-116 -105t-162 -86t-217.5 -57t-278 -21h-94zM1315 1640h-471v299h471v-299z" />
    <glyph glyph-name="cdotaccent" unicode="&#x10b;" horiz-adv-x="1703" 
d="M1606 461q0 -41 -6.5 -81.5t-25.5 -91t-50 -94t-85 -86t-124 -72.5t-173.5 -48.5t-228.5 -18.5h-100q-126 0 -231 21.5t-177.5 56.5t-128 84.5t-88 101.5t-53.5 112.5t-28 111.5t-7 104v29q0 52 7.5 102.5t28 110t53 110.5t88.5 99.5t128 82.5t176 55t230 21h88
q129 0 235 -18t178 -47.5t126.5 -71.5t85.5 -84t50.5 -90.5t25.5 -86.5t6 -77v-2h-486q-3 14 -8.5 29.5t-23 40.5t-43 43.5t-72.5 32.5t-107 14h-18q-60 0 -107 -16t-76 -42.5t-47.5 -63t-26 -73.5t-7.5 -79v-2q0 -53 13.5 -101.5t43 -91.5t84 -68.5t127.5 -25.5h18
q60 0 107.5 14.5t73 35.5t42.5 46t22 43t5 31h486zM1092 1255h-471v299h471v-299z" />
    <glyph glyph-name="Ccaron" unicode="&#x10c;" horiz-adv-x="2131" 
d="M512 1954h442l125 -133l127 133h434l-290 -314h-545zM1030 -25q-154 0 -284.5 26.5t-223 70.5t-165 106t-117.5 129.5t-74.5 144t-41 145t-11.5 138.5v62q0 70 11.5 139t40.5 145t74 142t117.5 126.5t165.5 104t223 69t285 25.5h94q150 0 276.5 -20t217.5 -54
t162.5 -82.5t116 -102t74 -116t41 -121t11.5 -120.5v-10h-503q-2 12 -5.5 26t-16.5 39t-31.5 47t-53 47t-78.5 43t-111 29.5t-147 11.5q-104 0 -185 -23.5t-130.5 -60.5t-82 -88.5t-44.5 -102.5t-12 -108v-26q0 -54 12.5 -105t45 -105t82 -93.5t131 -65t185.5 -25.5
q110 0 194.5 22.5t128.5 52t72.5 69.5t35.5 61.5t10 42.5h503v-12q0 -59 -11.5 -116t-40.5 -120t-73.5 -118t-116 -105t-162 -86t-217.5 -57t-278 -21h-94z" />
    <glyph glyph-name="ccaron" unicode="&#x10d;" horiz-adv-x="1703" 
d="M293 1575h442l119 -133l119 133h434l-281 -315h-548zM1606 461q0 -41 -6.5 -81.5t-25.5 -91t-50 -94t-85 -86t-124 -72.5t-173.5 -48.5t-228.5 -18.5h-100q-126 0 -231 21.5t-177.5 56.5t-128 84.5t-88 101.5t-53.5 112.5t-28 111.5t-7 104v29q0 52 7.5 102.5t28 110
t53 110.5t88.5 99.5t128 82.5t176 55t230 21h88q129 0 235 -18t178 -47.5t126.5 -71.5t85.5 -84t50.5 -90.5t25.5 -86.5t6 -77v-2h-486q-3 14 -8.5 29.5t-23 40.5t-43 43.5t-72.5 32.5t-107 14h-18q-60 0 -107 -16t-76 -42.5t-47.5 -63t-26 -73.5t-7.5 -79v-2
q0 -53 13.5 -101.5t43 -91.5t84 -68.5t127.5 -25.5h18q60 0 107.5 14.5t73 35.5t42.5 46t22 43t5 31h486z" />
    <glyph glyph-name="Dcaron" unicode="&#x10e;" horiz-adv-x="2125" 
d="M319 1954h443l125 -133l127 133h434l-291 -314h-545zM180 1524h840q170 0 311.5 -22.5t243 -61.5t180 -94.5t127 -117t80 -134.5t43.5 -141.5t12 -143.5v-61q0 -78 -10.5 -148t-39.5 -147t-75.5 -141t-124 -123t-179 -100t-246 -65t-320.5 -24h-842v1524zM670 367h307
q100 0 181 13.5t135.5 35.5t94.5 55t62.5 66t35.5 75t17 76t4 74v12q0 39 -4 71.5t-17.5 73.5t-35.5 73.5t-62.5 64.5t-95 53.5t-135 35t-180.5 13.5h-307v-792z" />
    <glyph glyph-name="dcaron" unicode="&#x10f;" horiz-adv-x="1792" 
d="M1763 1567h383l-65 -312h-359zM866 842q-79 0 -137 -25t-87.5 -66.5t-42.5 -84.5t-13 -91v-6q0 -45 13.5 -88.5t43 -85.5t87.5 -68t136 -26h21q61 0 110.5 16.5t81 43.5t52.5 62.5t29.5 71.5t8.5 74v6q0 49 -14.5 93.5t-46 85t-88.5 64.5t-133 24h-21zM1632 1550v-1550
h-465v141q-15 -17 -34.5 -34.5t-58.5 -42t-84.5 -43t-113.5 -31.5t-143 -13h-24q-127 0 -230 32.5t-171.5 87.5t-115.5 129.5t-67.5 155t-20.5 167.5v41q0 86 19.5 166t65 155t113.5 130t171.5 88.5t231.5 33.5h24q75 0 142.5 -11t110.5 -24t85.5 -35t59.5 -33.5t40 -29.5
v520h465z" />
    <glyph glyph-name="Dcroat" unicode="&#x110;" horiz-adv-x="2181" 
d="M1032 367q100 0 181 13.5t135.5 35.5t95 55t63 66t35.5 75t17 76t4 74v12q0 39 -4 71.5t-17.5 73.5t-36 73.5t-63 64.5t-95 53.5t-135 35t-180.5 13.5h-307v-248h477v-282h-477v-262h307zM236 629h-203v282h203v613h839q170 0 311.5 -22.5t243 -61.5t180 -94.5
t127.5 -117t80.5 -134.5t43.5 -141.5t12 -143.5v-61q0 -78 -10.5 -148t-39.5 -147t-75.5 -141t-124.5 -123t-179.5 -100t-246 -65t-320.5 -24h-841v629z" />
    <glyph glyph-name="dcroat" unicode="&#x111;" horiz-adv-x="1792" 
d="M610 1444h1207v-180h-1207v180zM866 842q-79 0 -137 -25t-87.5 -66.5t-42.5 -84.5t-13 -91v-6q0 -45 13.5 -88.5t43 -85.5t87.5 -68t136 -26h21q61 0 110.5 16.5t81 43.5t52.5 62.5t29.5 71.5t8.5 74v6q0 49 -14.5 93.5t-46 85t-88.5 64.5t-133 24h-21zM1632 1550v-1550
h-465v141q-15 -17 -34.5 -34.5t-58.5 -42t-84.5 -43t-113.5 -31.5t-143 -13h-24q-127 0 -230 32.5t-171.5 87.5t-115.5 129.5t-67.5 155t-20.5 167.5v41q0 86 19.5 166t65 155t113.5 130t171.5 88.5t231.5 33.5h24q75 0 142.5 -11t110.5 -24t85.5 -35t59.5 -33.5t40 -29.5
v520h465z" />
    <glyph glyph-name="Emacron" unicode="&#x112;" horiz-adv-x="1796" 
d="M1640 1524v-350h-974v-222h944v-362h-944v-236h987v-354h-1473v1524h1460zM500 1925h823v-258h-823v258z" />
    <glyph glyph-name="emacron" unicode="&#x113;" horiz-adv-x="1730" 
d="M862 891q-132 0 -195.5 -47.5t-82.5 -138.5h553q0 36 -11.5 66t-40 58.5t-85.5 45t-138 16.5zM1628 365q-2 -29 -8.5 -58t-26.5 -70t-50.5 -76t-85 -71t-125 -61.5t-176.5 -41.5t-234 -16h-84q-125 0 -229.5 19t-179.5 51t-133 77.5t-94.5 96t-60 110t-32.5 115.5t-9 115
v29q0 60 8.5 115t31 114.5t57.5 110t91 96.5t128 77.5t173 50.5t222 19h90q130 0 236.5 -19t181.5 -52t131.5 -82t90.5 -102.5t55 -121t28.5 -131t7.5 -137.5v-41h-1054q19 -104 91.5 -159.5t225.5 -55.5q59 0 105 9.5t69.5 19t42 28t21.5 23.5t10 19h485zM453 1538h809
v-258h-809v258z" />
    <glyph glyph-name="Ebreve" unicode="&#x114;" horiz-adv-x="1796" 
d="M1640 1524v-350h-974v-222h944v-362h-944v-236h987v-354h-1473v1524h1460zM883 1630q-103 0 -181.5 25.5t-123 62.5t-72 87t-36.5 91.5t-9 83.5v5h325q3 -20 8 -35t17.5 -35.5t37.5 -31.5t62 -11h2q28 0 49.5 8.5t33 19.5t20 28.5t11.5 29t5 27.5h324v-5q0 -40 -11.5 -83
t-41.5 -92t-75.5 -87t-121 -63t-170.5 -25h-53z" />
    <glyph glyph-name="ebreve" unicode="&#x115;" horiz-adv-x="1730" 
d="M862 891q-132 0 -195.5 -47.5t-82.5 -138.5h553q0 36 -11.5 66t-40 58.5t-85.5 45t-138 16.5zM1628 365q-2 -29 -8.5 -58t-26.5 -70t-50.5 -76t-85 -71t-125 -61.5t-176.5 -41.5t-234 -16h-84q-125 0 -229.5 19t-179.5 51t-133 77.5t-94.5 96t-60 110t-32.5 115.5t-9 115
v29q0 60 8.5 115t31 114.5t57.5 110t91 96.5t128 77.5t173 50.5t222 19h90q130 0 236.5 -19t181.5 -52t131.5 -82t90.5 -102.5t55 -121t28.5 -131t7.5 -137.5v-41h-1054q19 -104 91.5 -159.5t225.5 -55.5q59 0 105 9.5t69.5 19t42 28t21.5 23.5t10 19h485zM831 1249
q-101 0 -179 25.5t-121.5 63.5t-71 88t-36.5 92t-9 84v4h327q0 -16 4.5 -32.5t15.5 -36.5t36 -33t61 -13h2q34 0 58 13t35 33t15.5 37t4.5 32h325v-4q0 -40 -10.5 -83.5t-39.5 -93t-73.5 -87.5t-120 -63.5t-171.5 -25.5h-52z" />
    <glyph glyph-name="Edotaccent" unicode="&#x116;" horiz-adv-x="1796" 
d="M1149 1640h-471v299h471v-299zM1640 1524v-350h-974v-222h944v-362h-944v-236h987v-354h-1473v1524h1460z" />
    <glyph glyph-name="edotaccent" unicode="&#x117;" horiz-adv-x="1730" 
d="M862 891q-132 0 -195.5 -47.5t-82.5 -138.5h553q0 36 -11.5 66t-40 58.5t-85.5 45t-138 16.5zM1628 365q-2 -29 -8.5 -58t-26.5 -70t-50.5 -76t-85 -71t-125 -61.5t-176.5 -41.5t-234 -16h-84q-125 0 -229.5 19t-179.5 51t-133 77.5t-94.5 96t-60 110t-32.5 115.5t-9 115
v29q0 60 8.5 115t31 114.5t57.5 110t91 96.5t128 77.5t173 50.5t222 19h90q130 0 236.5 -19t181.5 -52t131.5 -82t90.5 -102.5t55 -121t28.5 -131t7.5 -137.5v-41h-1054q19 -104 91.5 -159.5t225.5 -55.5q59 0 105 9.5t69.5 19t42 28t21.5 23.5t10 19h485zM1096 1255h-471
v299h471v-299z" />
    <glyph glyph-name="Eogonek" unicode="&#x118;" horiz-adv-x="1796" 
d="M1141 -391q-264 0 -264 151v4q0 81 90.5 133.5t292.5 102.5h196q-80 -48 -113.5 -75.5t-33.5 -57.5q0 -49 77 -49h84v-209h-329zM1640 1524v-350h-974v-222h944v-362h-944v-236h987v-354h-1473v1524h1460z" />
    <glyph glyph-name="eogonek" unicode="&#x119;" horiz-adv-x="1730" 
d="M862 895q-132 0 -196 -48t-82 -140h553q0 36 -11.5 66.5t-40 59.5t-85.5 45.5t-138 16.5zM1382 -391h-333q-267 0 -267 151v7q0 71 75.5 122t232.5 93q-89 -7 -168 -7h-84q-125 0 -229.5 18.5t-179.5 50.5t-133 77.5t-94.5 96t-60 110t-32.5 115t-9 114.5v29
q0 60 8.5 115t31 114.5t57.5 110t91 96.5t128 77.5t173 50.5t222 19h90q130 0 236.5 -19t181.5 -52t131.5 -82t90.5 -102.5t55 -121t28.5 -131t7.5 -137.5v-41h-1054q19 -104 91.5 -159.5t225.5 -55.5q43 0 78.5 4.5t60 12.5t42.5 16.5t30.5 20t18.5 18.5t12 16.5t6 10.5
h485q-5 -83 -57 -164.5t-178 -169.5q-107 -71 -140.5 -100.5t-33.5 -61.5q0 -51 79 -51h84v-211z" />
    <glyph glyph-name="Ecaron" unicode="&#x11a;" horiz-adv-x="1796" 
d="M346 1954h442l125 -133l127 133h435l-291 -314h-545zM1640 1524v-350h-974v-222h944v-362h-944v-236h987v-354h-1473v1524h1460z" />
    <glyph glyph-name="ecaron" unicode="&#x11b;" horiz-adv-x="1730" 
d="M297 1575h442l119 -133l119 133h434l-281 -315h-548zM862 891q-132 0 -195.5 -47.5t-82.5 -138.5h553q0 36 -11.5 66t-40 58.5t-85.5 45t-138 16.5zM1628 365q-2 -29 -8.5 -58t-26.5 -70t-50.5 -76t-85 -71t-125 -61.5t-176.5 -41.5t-234 -16h-84q-125 0 -229.5 19
t-179.5 51t-133 77.5t-94.5 96t-60 110t-32.5 115.5t-9 115v29q0 60 8.5 115t31 114.5t57.5 110t91 96.5t128 77.5t173 50.5t222 19h90q130 0 236.5 -19t181.5 -52t131.5 -82t90.5 -102.5t55 -121t28.5 -131t7.5 -137.5v-41h-1054q19 -104 91.5 -159.5t225.5 -55.5
q59 0 105 9.5t69.5 19t42 28t21.5 23.5t10 19h485z" />
    <glyph glyph-name="Gcircumflex" unicode="&#x11c;" horiz-adv-x="2209" 
d="M1649 1636h-441l-125 133l-127 -133h-432l291 318h541zM1006 -23q-143 0 -265 24.5t-212 67t-162 102t-119 126.5t-78 144t-44 151t-13 151v50q0 74 12.5 145.5t44 147.5t79 142t122 125.5t169 101.5t225 66.5t284.5 24.5h69q152 0 280.5 -18.5t221 -50t165.5 -75.5
t119.5 -92.5t76.5 -103.5t42.5 -106.5t12.5 -104.5v-6h-510q-78 180 -441 180q-105 0 -187 -22.5t-133 -59t-84.5 -87.5t-46.5 -104.5t-13 -113.5v-24q0 -59 14 -114t49 -108.5t87.5 -93t135.5 -64t187 -24.5q98 0 176 17.5t122.5 41.5t75 55.5t41.5 53.5t15 41h-426v279
h956v-842h-364q-4 37 -23.5 99t-38.5 104q-20 -22 -41.5 -43t-75 -57t-114 -61.5t-155.5 -45t-202 -19.5h-34z" />
    <glyph glyph-name="gcircumflex" unicode="&#x11d;" horiz-adv-x="1792" 
d="M1421 1257h-442l-119 136l-119 -136h-434l281 318h549zM870 848q-80 0 -138.5 -22t-88.5 -59.5t-43.5 -77.5t-13.5 -85v-4q0 -43 14 -83.5t44.5 -78.5t88.5 -61t137 -23h21q76 0 133.5 22t88.5 58.5t46 77t15 84.5v8q0 44 -15 85t-47 77.5t-89.5 59t-133.5 22.5h-19z
M864 -420q-130 0 -236 14t-177 36.5t-124 55.5t-82 65.5t-47 72t-23 70t-5 63.5v8h504q28 -76 221 -76h20q133 0 194.5 59.5t61.5 162.5v79q-151 -151 -432 -151h-28q-133 0 -239.5 32.5t-174 85.5t-112 125.5t-63 147.5t-18.5 156v35q0 84 19 159.5t64 146.5t112 122.5
t170 82.5t231 31h23q276 0 446 -135v113h463v-1012q0 -549 -702 -549h-66z" />
    <glyph glyph-name="Gbreve" unicode="&#x11e;" horiz-adv-x="2209" 
d="M1055 1630q-103 0 -181.5 25.5t-123 62.5t-72 87t-36.5 91.5t-9 83.5v5h325q3 -20 8 -35t17.5 -35.5t37.5 -31.5t62 -11h2q28 0 49.5 8.5t33 19.5t20 28.5t11.5 29t5 27.5h324v-5q0 -40 -11.5 -83t-41.5 -92t-75.5 -87t-121 -63t-170.5 -25h-53zM1006 -23
q-143 0 -265 24.5t-212 67t-162 102t-119 126.5t-78 144t-44 151t-13 151v50q0 74 12.5 145.5t44 147.5t79 142t122 125.5t169 101.5t225 66.5t284.5 24.5h69q152 0 280.5 -18.5t221 -50t165.5 -75.5t119.5 -92.5t76.5 -103.5t42.5 -106.5t12.5 -104.5v-6h-510
q-78 180 -441 180q-105 0 -187 -22.5t-133 -59t-84.5 -87.5t-46.5 -104.5t-13 -113.5v-24q0 -59 14 -114t49 -108.5t87.5 -93t135.5 -64t187 -24.5q98 0 176 17.5t122.5 41.5t75 55.5t41.5 53.5t15 41h-426v279h956v-842h-364q-4 37 -23.5 99t-38.5 104q-20 -22 -41.5 -43
t-75 -57t-114 -61.5t-155.5 -45t-202 -19.5h-34z" />
    <glyph glyph-name="gbreve" unicode="&#x11f;" horiz-adv-x="1792" 
d="M870 848q-80 0 -138.5 -22t-88.5 -59.5t-43.5 -77.5t-13.5 -85v-4q0 -43 14 -83.5t44.5 -78.5t88.5 -61t137 -23h21q76 0 133.5 22t88.5 58.5t46 77t15 84.5v8q0 44 -15 85t-47 77.5t-89.5 59t-133.5 22.5h-19zM864 -420q-130 0 -236 14t-177 36.5t-124 55.5t-82 65.5
t-47 72t-23 70t-5 63.5v8h504q28 -76 221 -76h20q133 0 194.5 59.5t61.5 162.5v79q-151 -151 -432 -151h-28q-133 0 -239.5 32.5t-174 85.5t-112 125.5t-63 147.5t-18.5 156v35q0 84 19 159.5t64 146.5t112 122.5t170 82.5t231 31h23q276 0 446 -135v113h463v-1012
q0 -549 -702 -549h-66zM842 1249q-101 0 -179 25.5t-121.5 63.5t-71.5 88t-37 92t-9 84v4h328q0 -12 2 -25t9.5 -29.5t19.5 -29.5t34 -22t51 -9h2q34 0 58 13t35 33t15.5 37t4.5 32h326v-4q0 -40 -10.5 -83.5t-39.5 -93t-73.5 -87.5t-120.5 -63.5t-172 -25.5h-51z" />
    <glyph glyph-name="Gdotaccent" unicode="&#x120;" horiz-adv-x="2209" 
d="M1321 1640h-471v299h471v-299zM1006 -23q-143 0 -265 24.5t-212 67t-162 102t-119 126.5t-78 144t-44 151t-13 151v50q0 74 12.5 145.5t44 147.5t79 142t122 125.5t169 101.5t225 66.5t284.5 24.5h69q152 0 280.5 -18.5t221 -50t165.5 -75.5t119.5 -92.5t76.5 -103.5
t42.5 -106.5t12.5 -104.5v-6h-510q-78 180 -441 180q-105 0 -187 -22.5t-133 -59t-84.5 -87.5t-46.5 -104.5t-13 -113.5v-24q0 -59 14 -114t49 -108.5t87.5 -93t135.5 -64t187 -24.5q98 0 176 17.5t122.5 41.5t75 55.5t41.5 53.5t15 41h-426v279h956v-842h-364
q-4 37 -23.5 99t-38.5 104q-20 -22 -41.5 -43t-75 -57t-114 -61.5t-155.5 -45t-202 -19.5h-34z" />
    <glyph glyph-name="gdotaccent" unicode="&#x121;" horiz-adv-x="1792" 
d="M870 848q-80 0 -138.5 -22t-88.5 -59.5t-43.5 -77.5t-13.5 -85v-4q0 -43 14 -83.5t44.5 -78.5t88.5 -61t137 -23h21q76 0 133.5 22t88.5 58.5t46 77t15 84.5v8q0 44 -15 85t-47 77.5t-89.5 59t-133.5 22.5h-19zM864 -420q-130 0 -236 14t-177 36.5t-124 55.5t-82 65.5
t-47 72t-23 70t-5 63.5v8h504q28 -76 221 -76h20q133 0 194.5 59.5t61.5 162.5v79q-151 -151 -432 -151h-28q-133 0 -239.5 32.5t-174 85.5t-112 125.5t-63 147.5t-18.5 156v35q0 84 19 159.5t64 146.5t112 122.5t170 82.5t231 31h23q276 0 446 -135v113h463v-1012
q0 -549 -702 -549h-66zM1096 1255h-471v299h471v-299z" />
    <glyph glyph-name="uni0122" unicode="&#x122;" horiz-adv-x="2209" 
d="M987 -586q51 84 64 172h-217v297h499v-229q0 -61 -24.5 -127.5t-57.5 -112.5h-264zM1006 -23q-143 0 -265 24.5t-212 67t-162 102t-119 126.5t-78 144t-44 151t-13 151v50q0 74 12.5 145.5t44 147.5t79 142t122 125.5t169 101.5t225 66.5t284.5 24.5h69
q152 0 280.5 -18.5t221 -50t165.5 -75.5t119.5 -92.5t76.5 -103.5t42.5 -106.5t12.5 -104.5v-6h-510q-78 180 -441 180q-105 0 -187 -22.5t-133 -59t-84.5 -87.5t-46.5 -104.5t-13 -113.5v-24q0 -59 14 -114t49 -108.5t87.5 -93t135.5 -64t187 -24.5q98 0 176 17.5
t122.5 41.5t75 55.5t41.5 53.5t15 41h-426v279h956v-842h-364q-4 37 -23.5 99t-38.5 104q-20 -22 -41.5 -43t-75 -57t-114 -61.5t-155.5 -45t-202 -19.5h-34z" />
    <glyph glyph-name="uni0123" unicode="&#x123;" horiz-adv-x="1792" 
d="M950 1729q-49 -93 -61 -173h215v-296h-496v231q0 59 24.5 125.5t57.5 112.5h260zM870 848q-80 0 -138.5 -22t-88.5 -59.5t-43.5 -77.5t-13.5 -85v-4q0 -43 14 -83.5t44.5 -78.5t88.5 -61t137 -23h21q76 0 133.5 22t88.5 58.5t46 77t15 84.5v8q0 44 -15 85t-47 77.5
t-89.5 59t-133.5 22.5h-19zM864 -420q-130 0 -236 14t-177 36.5t-124 55.5t-82 65.5t-47 72t-23 70t-5 63.5v8h504q28 -76 221 -76h20q133 0 194.5 59.5t61.5 162.5v79q-151 -151 -432 -151h-28q-133 0 -239.5 32.5t-174 85.5t-112 125.5t-63 147.5t-18.5 156v35
q0 84 19 159.5t64 146.5t112 122.5t170 82.5t231 31h23q276 0 446 -135v113h463v-1012q0 -549 -702 -549h-66z" />
    <glyph glyph-name="Hcircumflex" unicode="&#x124;" horiz-adv-x="2148" 
d="M180 1524h490v-551h809v551h489v-1524h-489v594h-809v-594h-490v1524zM1638 1636h-440l-125 133l-127 -133h-432l291 318h541z" />
    <glyph glyph-name="hcircumflex" unicode="&#x125;" horiz-adv-x="1757" 
d="M1305 1669h-443l-119 135l-118 -135h-435l281 318h549zM160 1550h465v-585q25 30 60 59.5t93 65t141 57.5t177 22h20q121 0 217 -37.5t153 -100t86.5 -137.5t29.5 -157v-737h-465v582q0 102 -61.5 168.5t-188.5 66.5q-125 0 -193.5 -72.5t-68.5 -179.5v-565h-465v1550z
" />
    <glyph glyph-name="Hbar" unicode="&#x126;" horiz-adv-x="2166" 
d="M678 1139v-166h811v166h-811zM190 1139h-176v219h176v166h488v-166h811v166h487v-166h176v-219h-176v-1139h-487v594h-811v-594h-488v1139z" />
    <glyph glyph-name="hbar" unicode="&#x127;" horiz-adv-x="1753" 
d="M1176 1444v-180h-1203v180h1203zM160 1550h465v-585q25 30 60 59.5t93 65t141 57.5t177 22h20q121 0 217 -37.5t153 -100t86.5 -137.5t29.5 -157v-737h-465v582q0 102 -61.5 168.5t-188.5 66.5q-125 0 -193.5 -72.5t-68.5 -179.5v-565h-465v1550z" />
    <glyph glyph-name="Itilde" unicode="&#x128;" horiz-adv-x="849" 
d="M670 0h-490v1524h490v-1524zM248 1632h-256v172q0 39 9.5 73.5t30 66.5t59 50.5t91.5 18.5h4q39 0 84 -10.5t79.5 -23.5t107.5 -42q9 -4 25.5 -10.5t22.5 -9t17 -7t16 -6t12 -3.5t12.5 -2.5t10.5 -0.5q29 0 29 46v79h256v-172q0 -39 -9.5 -73.5t-30 -66.5t-59 -50.5
t-91.5 -18.5h-4q-39 0 -84 10.5t-79.5 23.5t-107.5 42q-95 39 -117 39q-28 0 -28 -45v-80z" />
    <glyph glyph-name="itilde" unicode="&#x129;" horiz-adv-x="784" 
d="M788 1470q0 -37 -9 -71.5t-28.5 -66.5t-56 -51t-86.5 -19h-4q-55 0 -101 15.5t-134 57.5q-82 43 -103 43q-30 0 -30 -45v-82h-246v176q0 38 8.5 72t28 66.5t55.5 51.5t86 19h6q55 0 104 -16t132 -59q78 -41 102 -41q31 0 31 43v84h245v-177zM625 0h-465v1141h465v-1141z
" />
    <glyph glyph-name="Imacron" unicode="&#x12a;" horiz-adv-x="849" 
d="M670 0h-490v1524h490v-1524zM14 1925h824v-258h-824v258z" />
    <glyph glyph-name="imacron" unicode="&#x12b;" horiz-adv-x="784" 
d="M23 1538h739v-258h-739v258zM625 0h-465v1141h465v-1141z" />
    <glyph glyph-name="Ibreve" unicode="&#x12c;" horiz-adv-x="849" 
d="M670 0h-490v1524h490v-1524zM397 1630q-103 0 -181.5 25.5t-123 62.5t-72 87t-36.5 91.5t-9 83.5v5h326q3 -20 8 -35t17.5 -35.5t37.5 -31.5t62 -11h2q28 0 49.5 8.5t33 19.5t20 28.5t11.5 29t5 27.5h323v-5q0 -40 -11 -83t-41 -92t-75.5 -87t-121 -63t-170.5 -25h-54z
" />
    <glyph glyph-name="ibreve" unicode="&#x12d;" horiz-adv-x="784" 
d="M375 1249q-98 0 -174 26t-119 64t-70 88t-36 91t-9 81v5h320q0 -15 4 -30.5t14 -36t33 -33.5t57 -13q31 0 54 13t33.5 33t15 36.5t4.5 30.5h315v-5q0 -31 -7.5 -66t-24 -75.5t-48 -76.5t-74.5 -66.5t-107.5 -48t-143.5 -17.5h-37zM625 0h-465v1141h465v-1141z" />
    <glyph glyph-name="Iogonek" unicode="&#x12e;" horiz-adv-x="849" 
d="M670 0h-490v1524h490v-1524zM354 -391q-264 0 -264 151v4q0 81 90.5 133.5t292.5 102.5h197q-55 -33 -81.5 -50.5t-46.5 -39.5t-20 -43q0 -49 78 -49h84v-209h-330z" />
    <glyph glyph-name="iogonek" unicode="&#x12f;" horiz-adv-x="784" 
d="M627 1255h-469v299h469v-299zM625 0h-465v1141h465v-1141zM311 -391q-264 0 -264 151v4q0 81 90.5 133.5t292.5 102.5h197q-55 -33 -81.5 -50.5t-46.5 -39.5t-20 -43q0 -49 78 -49h84v-209h-330z" />
    <glyph glyph-name="Idotaccent" unicode="&#x130;" horiz-adv-x="849" 
d="M670 0h-490v1524h490v-1524zM664 1640h-471v299h471v-299z" />
    <glyph glyph-name="dotlessi" unicode="&#x131;" horiz-adv-x="784" 
d="M625 0h-465v1141h465v-1141z" />
    <glyph glyph-name="IJ" unicode="&#x132;" horiz-adv-x="2693" 
d="M670 0h-490v1524h490v-1524zM1681 -25q-132 0 -241.5 24t-186.5 64t-136.5 97t-95 117t-58 129.5t-31 130t-8.5 122.5v11h497q2 -35 8.5 -68t26 -76.5t49 -75.5t83.5 -54.5t124 -22.5h8q87 0 150 28t97 77.5t49.5 108.5t15.5 132v805h489v-817q0 -67 -8 -131.5
t-30.5 -139t-58 -138.5t-95 -125t-137.5 -103.5t-190 -68.5t-247 -26h-74z" />
    <glyph glyph-name="ij" unicode="&#x133;" horiz-adv-x="1568" 
d="M627 1255h-469v299h469v-299zM625 0h-465v1141h465v-1141zM1411 1255h-469v299h469v-299zM868 -72q42 0 59 19.5t17 64.5v1129h465v-1227q0 -145 -66.5 -224t-195.5 -79h-393v317h114z" />
    <glyph glyph-name="Jcircumflex" unicode="&#x134;" horiz-adv-x="1843" 
d="M1991 1636h-441l-125 133l-127 -133h-432l291 318h541zM834 -25q-132 0 -242 24t-186.5 64t-136 97t-95.5 117t-58.5 129.5t-31 130t-8.5 122.5v11h497q2 -35 8.5 -68t26 -76.5t49 -75.5t83.5 -54.5t124 -22.5h8q87 0 150 28t97 77.5t49.5 108.5t15.5 132v805h489v-817
q0 -67 -8 -131.5t-30.5 -139t-58 -138.5t-95 -125t-137.5 -103.5t-190 -68.5t-247 -26h-73z" />
    <glyph glyph-name="jcircumflex" unicode="&#x135;" horiz-adv-x="784" 
d="M903 1255h-411l-101 136l-98 -136h-406l240 318h535zM84 -72q42 0 59 19.5t17 64.5v1129h465v-1227q0 -144 -67 -223.5t-196 -79.5h-393v317h115z" />
    <glyph glyph-name="uni0136" unicode="&#x136;" horiz-adv-x="1957" 
d="M903 -586q51 84 64 172h-217v297h499v-229q0 -61 -24.5 -127.5t-57.5 -112.5h-264zM180 0v1524h488v-609l669 609h594l-772 -693l815 -831h-626l-680 698v-698h-488z" />
    <glyph glyph-name="uni0137" unicode="&#x137;" horiz-adv-x="1558" 
d="M727 -586q51 84 64 172h-218v297h500v-229q0 -61 -24.5 -127.5t-57.5 -112.5h-264zM160 0v1550h465v-852l368 443h520l-448 -512l500 -629h-537l-403 512v-512h-465z" />
    <glyph glyph-name="Lacute" unicode="&#x139;" horiz-adv-x="1691" 
d="M188 1640l193 314h518l-240 -314h-471zM670 1524v-1127h921v-397h-1411v1524h490z" />
    <glyph glyph-name="lacute" unicode="&#x13a;" horiz-adv-x="784" 
d="M358 1982h512l-247 -315h-455zM625 0h-465v1550h465v-1550z" />
    <glyph glyph-name="uni013B" unicode="&#x13b;" horiz-adv-x="1691" 
d="M788 -586q51 84 64 172h-217v297h500v-229q0 -61 -24.5 -127.5t-57.5 -112.5h-265zM670 1524v-1127h921v-397h-1411v1524h490z" />
    <glyph glyph-name="uni013C" unicode="&#x13c;" horiz-adv-x="784" 
d="M301 -586q51 84 64 172h-218v297h500v-229q0 -61 -24.5 -127.5t-57.5 -112.5h-264zM625 0h-465v1550h465v-1550z" />
    <glyph glyph-name="Lcaron" unicode="&#x13d;" horiz-adv-x="1691" 
d="M801 1540h383l-66 -311h-358zM670 1524v-1127h921v-397h-1411v1524h490z" />
    <glyph glyph-name="lcaron" unicode="&#x13e;" horiz-adv-x="784" 
d="M756 1567h383l-66 -312h-358zM625 0h-465v1550h465v-1550z" />
    <glyph glyph-name="Ldot" unicode="&#x13f;" horiz-adv-x="1693" 
d="M670 1524v-1127h921v-397h-1411v1524h490zM1550 647h-524v426h524v-426z" />
    <glyph glyph-name="ldot" unicode="&#x140;" horiz-adv-x="1355" 
d="M625 0h-465v1550h465v-1550zM1331 553h-524v426h524v-426z" />
    <glyph glyph-name="Lslash" unicode="&#x141;" horiz-adv-x="1738" 
d="M715 1524v-606l542 206v-286l-542 -201v-240h921v-397h-1411v459l-200 -74v270l200 76v793h490z" />
    <glyph glyph-name="lslash" unicode="&#x142;" horiz-adv-x="892" 
d="M678 0h-465v602l-182 -78v264l182 80v682h465v-479l184 80v-268l-184 -80v-803z" />
    <glyph glyph-name="Nacute" unicode="&#x143;" horiz-adv-x="2191" 
d="M858 1640l193 314h518l-240 -314h-471zM657 930v-930h-477v1524h500l856 -914v914h475v-1524h-473z" />
    <glyph glyph-name="nacute" unicode="&#x144;" horiz-adv-x="1757" 
d="M831 1575h512l-247 -315h-455zM160 1141h461v-180q26 31 61.5 61.5t94 66.5t142 58t177.5 22h20q121 0 217 -37.5t153 -100t86.5 -137.5t29.5 -157v-737h-465v582q0 102 -61.5 168.5t-188.5 66.5q-125 0 -193.5 -72.5t-68.5 -179.5v-565h-465v1141z" />
    <glyph glyph-name="uni0145" unicode="&#x145;" horiz-adv-x="2191" 
d="M999 -586q51 84 64 172h-217v297h500v-229q0 -61 -24.5 -127.5t-57.5 -112.5h-265zM657 930v-930h-477v1524h500l856 -914v914h475v-1524h-473z" />
    <glyph glyph-name="uni0146" unicode="&#x146;" horiz-adv-x="1757" 
d="M786 -586q51 84 64 172h-217v297h500v-229q0 -61 -24.5 -127.5t-57.5 -112.5h-265zM160 1141h461v-180q26 31 61.5 61.5t94 66.5t142 58t177.5 22h20q121 0 217 -37.5t153 -100t86.5 -137.5t29.5 -157v-737h-465v582q0 102 -61.5 168.5t-188.5 66.5q-125 0 -193.5 -72.5
t-68.5 -179.5v-565h-465v1141z" />
    <glyph glyph-name="Ncaron" unicode="&#x147;" horiz-adv-x="2191" 
d="M537 1954h442l125 -133l127 133h434l-291 -314h-545zM657 930v-930h-477v1524h500l856 -914v914h475v-1524h-473z" />
    <glyph glyph-name="ncaron" unicode="&#x148;" horiz-adv-x="1757" 
d="M319 1575h443l119 -133l118 133h435l-281 -315h-549zM160 1141h461v-180q26 31 61.5 61.5t94 66.5t142 58t177.5 22h20q121 0 217 -37.5t153 -100t86.5 -137.5t29.5 -157v-737h-465v582q0 102 -61.5 168.5t-188.5 66.5q-125 0 -193.5 -72.5t-68.5 -179.5v-565h-465v1141z
" />
    <glyph glyph-name="napostrophe" unicode="&#x149;" horiz-adv-x="2359" 
d="M178 864q37 63 72 148.5t47 146.5h-234v365h521v-289q0 -96 -33.5 -197t-75.5 -174h-297zM760 1141h461v-180q26 31 61.5 61.5t94 66.5t142 58t177.5 22h20q121 0 217 -37.5t153 -100t86.5 -137.5t29.5 -157v-737h-465v582q0 102 -61.5 168.5t-188.5 66.5
q-125 0 -193.5 -72.5t-68.5 -179.5v-565h-465v1141z" />
    <glyph glyph-name="Eng" unicode="&#x14a;" horiz-adv-x="2193" 
d="M1229 -61h239q70 0 70 47q0 26 -33 59l-848 885v-930h-477v1524h500l858 -906v906h475v-1549q0 -181 -82.5 -274.5t-247.5 -93.5h-454v332z" />
    <glyph glyph-name="eng" unicode="&#x14b;" horiz-adv-x="1757" 
d="M1059 -72q43 0 60.5 19.5t17.5 64.5v570q0 102 -61.5 168.5t-188.5 66.5q-125 0 -193.5 -72.5t-68.5 -179.5v-565h-465v1141h461v-180q26 31 61.5 61.5t94 66.5t142 58t177.5 22h20q121 0 217 -37.5t153 -100t86.5 -137.5t29.5 -157v-823q0 -145 -67 -224t-198 -79h-393
v317h115z" />
    <glyph glyph-name="Omacron" unicode="&#x14c;" horiz-adv-x="2213" 
d="M694 1925h824v-258h-824v258zM1153 1548q159 0 292.5 -25t229 -67t171 -102t122.5 -125.5t78 -141.5t43 -146.5t12 -143.5v-62q0 -72 -12 -142.5t-42.5 -147.5t-77.5 -143.5t-122.5 -127.5t-171 -104.5t-229.5 -69t-293 -25.5h-92q-158 0 -292 25.5t-229.5 69t-171 104.5
t-122.5 127.5t-78 143.5t-43 147.5t-12 142.5v62q0 73 12 143.5t43 146.5t78 141.5t122.5 125.5t171 102t229 67t292.5 25h92zM1591 780q0 55 -10.5 104.5t-43 103t-83.5 91.5t-140 63t-206 25t-206.5 -25t-141 -63t-83.5 -91.5t-43 -103t-11 -104.5v-26q0 -55 11.5 -105.5
t44.5 -104.5t85 -93.5t140.5 -65t203.5 -25.5q84 0 154 13.5t119.5 35.5t87 54t60.5 66t37 74.5t19.5 76.5t5.5 74v26z" />
    <glyph glyph-name="omacron" unicode="&#x14d;" horiz-adv-x="1755" 
d="M473 1538h809v-258h-809v258zM846 -31q-136 0 -248 22t-188 57t-134 85.5t-91 101.5t-53.5 110.5t-27 107.5t-6.5 98v29q0 49 6.5 96.5t27 108t53 113t90.5 104t133.5 88t187.5 59t248 22.5h69q141 0 255 -22.5t190 -58.5t133 -88.5t87.5 -103.5t49.5 -112.5t24 -107.5
t5 -96v-33q0 -51 -5.5 -97t-24.5 -106.5t-50 -110.5t-88 -101t-133 -86t-190.5 -57t-254.5 -22h-65zM887 291q81 0 140.5 27.5t89.5 72.5t43.5 90.5t13.5 93.5q0 50 -13.5 95.5t-43.5 88.5t-89 69t-141 26h-19q-68 0 -120.5 -18t-83 -45t-50 -65.5t-26 -74.5t-6.5 -76
q0 -39 6.5 -75t26 -75.5t50 -68t83 -47t120.5 -18.5h19z" />
    <glyph glyph-name="Obreve" unicode="&#x14e;" horiz-adv-x="2213" 
d="M1077 1630q-103 0 -181.5 25.5t-123 62.5t-72 87t-36.5 91.5t-9 83.5v5h326q3 -20 8 -35t17.5 -35.5t37.5 -31.5t62 -11h2q28 0 49.5 8.5t33 19.5t20 28.5t11.5 29t5 27.5h323v-5q0 -40 -11.5 -83t-41.5 -92t-75.5 -87t-121 -63t-170.5 -25h-53zM1153 1548
q159 0 292.5 -25t229 -67t171 -102t122.5 -125.5t78 -141.5t43 -146.5t12 -143.5v-62q0 -72 -12 -142.5t-42.5 -147.5t-77.5 -143.5t-122.5 -127.5t-171 -104.5t-229.5 -69t-293 -25.5h-92q-158 0 -292 25.5t-229.5 69t-171 104.5t-122.5 127.5t-78 143.5t-43 147.5
t-12 142.5v62q0 73 12 143.5t43 146.5t78 141.5t122.5 125.5t171 102t229 67t292.5 25h92zM1591 780q0 55 -10.5 104.5t-43 103t-83.5 91.5t-140 63t-206 25t-206.5 -25t-141 -63t-83.5 -91.5t-43 -103t-11 -104.5v-26q0 -55 11.5 -105.5t44.5 -104.5t85 -93.5t140.5 -65
t203.5 -25.5q84 0 154 13.5t119.5 35.5t87 54t60.5 66t37 74.5t19.5 76.5t5.5 74v26z" />
    <glyph glyph-name="obreve" unicode="&#x14f;" horiz-adv-x="1755" 
d="M846 -31q-136 0 -248 22t-188 57t-134 85.5t-91 101.5t-53.5 110.5t-27 107.5t-6.5 98v29q0 49 6.5 96.5t27 108t53 113t90.5 104t133.5 88t187.5 59t248 22.5h69q141 0 255 -22.5t190 -58.5t133 -88.5t87.5 -103.5t49.5 -112.5t24 -107.5t5 -96v-33q0 -51 -5.5 -97
t-24.5 -106.5t-50 -110.5t-88 -101t-133 -86t-190.5 -57t-254.5 -22h-65zM887 291q81 0 140.5 27.5t89.5 72.5t43.5 90.5t13.5 93.5q0 50 -13.5 95.5t-43.5 88.5t-89 69t-141 26h-19q-68 0 -120.5 -18t-83 -45t-50 -65.5t-26 -74.5t-6.5 -76q0 -39 6.5 -75t26 -75.5t50 -68
t83 -47t120.5 -18.5h19zM852 1249q-101 0 -179 25.5t-121.5 63.5t-71.5 88t-37 92t-9 84v4h328q0 -16 4.5 -32.5t15.5 -36.5t36 -33t61 -13h2q34 0 58 13t34.5 33t15 37t4.5 32h326v-4q0 -40 -10.5 -83.5t-39.5 -93t-73.5 -87.5t-120.5 -63.5t-172 -25.5h-51z" />
    <glyph glyph-name="Ohungarumlaut" unicode="&#x150;" horiz-adv-x="2213" 
d="M778 1954h424l-147 -314h-418zM1331 1954h428l-164 -314h-417zM1153 1548q159 0 292.5 -25t229 -67t171 -102t122.5 -125.5t78 -141.5t43 -146.5t12 -143.5v-62q0 -72 -12 -142.5t-42.5 -147.5t-77.5 -143.5t-122.5 -127.5t-171 -104.5t-229.5 -69t-293 -25.5h-92
q-158 0 -292 25.5t-229.5 69t-171 104.5t-122.5 127.5t-78 143.5t-43 147.5t-12 142.5v62q0 73 12 143.5t43 146.5t78 141.5t122.5 125.5t171 102t229 67t292.5 25h92zM1591 780q0 55 -10.5 104.5t-43 103t-83.5 91.5t-140 63t-206 25t-206.5 -25t-141 -63t-83.5 -91.5
t-43 -103t-11 -104.5v-26q0 -55 11.5 -105.5t44.5 -104.5t85 -93.5t140.5 -65t203.5 -25.5q84 0 154 13.5t119.5 35.5t87 54t60.5 66t37 74.5t19.5 76.5t5.5 74v26z" />
    <glyph glyph-name="ohungarumlaut" unicode="&#x151;" horiz-adv-x="1755" 
d="M1092 1575h428l-166 -315h-416zM545 1575h426l-152 -315h-420zM846 -31q-136 0 -248 22t-188 57t-134 85.5t-91 101.5t-53.5 110.5t-27 107.5t-6.5 98v29q0 49 6.5 96.5t27 108t53 113t90.5 104t133.5 88t187.5 59t248 22.5h69q141 0 255 -22.5t190 -58.5t133 -88.5
t87.5 -103.5t49.5 -112.5t24 -107.5t5 -96v-33q0 -51 -5.5 -97t-24.5 -106.5t-50 -110.5t-88 -101t-133 -86t-190.5 -57t-254.5 -22h-65zM887 291q81 0 140.5 27.5t89.5 72.5t43.5 90.5t13.5 93.5q0 50 -13.5 95.5t-43.5 88.5t-89 69t-141 26h-19q-68 0 -120.5 -18t-83 -45
t-50 -65.5t-26 -74.5t-6.5 -76q0 -39 6.5 -75t26 -75.5t50 -68t83 -47t120.5 -18.5h19z" />
    <glyph glyph-name="OE" unicode="&#x152;" horiz-adv-x="2881" 
d="M2722 1524v-350h-875v-222h848v-362h-848v-236h893v-354h-1634q-172 0 -315 23.5t-244.5 63t-179.5 97.5t-126 121t-78.5 139t-42 146.5t-11.5 148.5v62q0 76 12 146t43.5 144t80.5 136t127.5 118t180 95t242.5 61.5t311 22.5h1616zM1358 354v820h-209q-98 0 -178 -13.5
t-134.5 -35.5t-95 -55t-63.5 -67t-37 -76t-18.5 -77t-4.5 -76v-12q0 -60 9.5 -109.5t42.5 -107.5t88 -97.5t155.5 -66.5t235.5 -27h209z" />
    <glyph glyph-name="oe" unicode="&#x153;" horiz-adv-x="2789" 
d="M1927 893q-132 0 -194.5 -49t-81.5 -144h544q0 37 -11.5 68.5t-39.5 61t-83.5 46.5t-133.5 17zM1157 575q0 38 -6 72.5t-24 74t-47 67.5t-81 46.5t-120 18.5h-19q-276 0 -276 -279v-2q0 -37 5 -70.5t22.5 -73.5t46 -68.5t80.5 -48t122 -19.5h19q68 0 120 19.5t81 48
t47.5 68.5t24 74t5.5 70v2zM815 -31q-133 0 -241.5 22t-181.5 57.5t-128 86t-86 101.5t-50 111.5t-24.5 107t-5.5 96.5v29q0 49 5.5 95.5t24.5 107.5t49.5 113t85.5 104t127.5 88.5t181.5 59.5t241 23h76q354 0 522 -161q164 157 475 157h88q125 0 228 -19t176.5 -52
t129.5 -82t90 -103t55.5 -121t29.5 -130.5t8 -137.5v-41h-1044q19 -104 90 -159.5t221 -55.5q48 0 87.5 6t63 14.5t43 20.5t27 20.5t15 18t8.5 10.5h485q0 -26 -6.5 -55t-26 -67.5t-50.5 -73.5t-85.5 -70.5t-124.5 -61t-173.5 -41.5t-227.5 -16h-80q-325 0 -496 158
q-167 -160 -530 -160h-72z" />
    <glyph glyph-name="Racute" unicode="&#x154;" horiz-adv-x="2097" 
d="M786 1640l193 314h518l-240 -314h-471zM670 870h575q197 0 197 146v4q0 139 -197 139h-575v-289zM1620 733q344 -66 344 -379v-198q0 -105 25 -146v-10h-506q-13 22 -13 100v127q0 149 -63 209t-223 60h-514v-496h-490v1524h1131q118 0 214 -13.5t161.5 -36t114.5 -56
t77.5 -68t45.5 -77.5t22.5 -80.5t5.5 -80.5v-18q0 -144 -93.5 -237t-238.5 -124z" />
    <glyph glyph-name="racute" unicode="&#x155;" horiz-adv-x="1505" 
d="M750 1575h512l-248 -315h-455zM160 0v1141h461v-187q18 30 42 58t70.5 66.5t118 62.5t156.5 24h14q86 0 154 -23t113 -63t74.5 -97t42.5 -123t13 -144q0 -54 -4 -148h-469v35q0 109 -34 162t-117 53q-85 0 -127.5 -57.5t-42.5 -163.5v-596h-465z" />
    <glyph glyph-name="uni0156" unicode="&#x156;" horiz-adv-x="2097" 
d="M965 -586q50 82 63 172h-217v297h500v-229q0 -61 -24.5 -127.5t-57.5 -112.5h-264zM670 870h575q197 0 197 146v4q0 139 -197 139h-575v-289zM1620 733q344 -66 344 -379v-198q0 -105 25 -146v-10h-506q-13 22 -13 100v127q0 149 -63 209t-223 60h-514v-496h-490v1524
h1131q118 0 214 -13.5t161.5 -36t114.5 -56t77.5 -68t45.5 -77.5t22.5 -80.5t5.5 -80.5v-18q0 -144 -93.5 -237t-238.5 -124z" />
    <glyph glyph-name="uni0157" unicode="&#x157;" horiz-adv-x="1505" 
d="M299 -586q50 82 63 172h-217v297h500v-229q0 -61 -24.5 -127.5t-57.5 -112.5h-264zM160 0v1141h461v-187q18 30 42 58t70.5 66.5t118 62.5t156.5 24h14q86 0 154 -23t113 -63t74.5 -97t42.5 -123t13 -144q0 -54 -4 -148h-469v35q0 109 -34 162t-117 53
q-85 0 -127.5 -57.5t-42.5 -163.5v-596h-465z" />
    <glyph glyph-name="Rcaron" unicode="&#x158;" horiz-adv-x="2097" 
d="M457 1954h442l125 -133l127 133h434l-291 -314h-544zM670 870h575q197 0 197 146v4q0 139 -197 139h-575v-289zM1620 733q344 -66 344 -379v-198q0 -105 25 -146v-10h-506q-13 22 -13 100v127q0 149 -63 209t-223 60h-514v-496h-490v1524h1131q118 0 214 -13.5t161.5 -36
t114.5 -56t77.5 -68t45.5 -77.5t22.5 -80.5t5.5 -80.5v-18q0 -144 -93.5 -237t-238.5 -124z" />
    <glyph glyph-name="rcaron" unicode="&#x159;" horiz-adv-x="1505" 
d="M221 1575h443l118 -133l119 133h434l-280 -315h-549zM160 0v1141h461v-187q18 30 42 58t70.5 66.5t118 62.5t156.5 24h14q86 0 154 -23t113 -63t74.5 -97t42.5 -123t13 -144q0 -54 -4 -148h-469v35q0 109 -34 162t-117 53q-85 0 -127.5 -57.5t-42.5 -163.5v-596h-465z
" />
    <glyph glyph-name="Sacute" unicode="&#x15a;" horiz-adv-x="1959" 
d="M961 -27q-158 0 -287 18.5t-215.5 48.5t-151 74t-100.5 88t-57.5 98t-28 96.5t-6.5 90.5v19h528q2 -25 7.5 -45.5t26.5 -51t54.5 -51t97.5 -36t150 -15.5h12q106 0 177 13.5t103.5 38.5t44 50t11.5 58q0 44 -21 71.5t-89 47t-189 22.5l-209 6q-686 21 -686 455v18
q0 81 20 145t74 124t141.5 100t230 64t331.5 24h78q203 0 354 -28.5t236 -72t136.5 -108t67 -123.5t15.5 -131v-16h-521q-4 23 -11 41t-28 40.5t-54 38t-91.5 26t-136.5 10.5h-19q-95 0 -158.5 -9t-96 -26.5t-45.5 -38.5t-13 -51q0 -38 21.5 -64t86.5 -45t175 -22l215 -7
q167 -5 290.5 -29t201.5 -62t125.5 -95.5t66 -120.5t18.5 -145v-25q0 -55 -7.5 -102.5t-30.5 -101t-60 -96t-101 -82.5t-148.5 -67t-207 -43t-272.5 -16h-55zM731 1640l193 314h518l-240 -314h-471z" />
    <glyph glyph-name="sacute" unicode="&#x15b;" horiz-adv-x="1581" 
d="M739 1575h512l-247 -315h-455zM748 -27q-125 0 -227 15t-169 39t-117 58.5t-76.5 67.5t-42.5 72.5t-20 67t-4 57.5v8h498q2 -14 6 -25t17.5 -27.5t34 -28t58.5 -19.5t89 -8h4q198 0 198 94q0 31 -14 48.5t-58.5 30t-129.5 17.5l-170 13q-519 30 -519 352v12
q0 61 16.5 109.5t59.5 94.5t113.5 76.5t183.5 49t264 18.5h52q167 0 291 -22t193.5 -55.5t111.5 -83t54.5 -94.5t12.5 -101v-4h-483q-5 21 -12 33.5t-26 30.5t-59.5 27t-101.5 9h-8q-108 0 -150.5 -22t-42.5 -64q0 -44 42 -67t151 -27l166 -6q158 -6 266.5 -32t168.5 -72.5
t85 -103.5t25 -134v-19q0 -63 -13 -113t-55.5 -103t-114 -88.5t-197 -58t-296.5 -22.5h-55z" />
    <glyph glyph-name="Scircumflex" unicode="&#x15c;" horiz-adv-x="1959" 
d="M1534 1636h-440l-125 133l-127 -133h-432l290 318h541zM961 -27q-158 0 -287 18.5t-215.5 48.5t-151 74t-100.5 88t-57.5 98t-28 96.5t-6.5 90.5v19h528q2 -25 7.5 -45.5t26.5 -51t54.5 -51t97.5 -36t150 -15.5h12q106 0 177 13.5t103.5 38.5t44 50t11.5 58
q0 44 -21 71.5t-89 47t-189 22.5l-209 6q-686 21 -686 455v18q0 81 20 145t74 124t141.5 100t230 64t331.5 24h78q203 0 354 -28.5t236 -72t136.5 -108t67 -123.5t15.5 -131v-16h-521q-4 23 -11 41t-28 40.5t-54 38t-91.5 26t-136.5 10.5h-19q-95 0 -158.5 -9t-96 -26.5
t-45.5 -38.5t-13 -51q0 -38 21.5 -64t86.5 -45t175 -22l215 -7q167 -5 290.5 -29t201.5 -62t125.5 -95.5t66 -120.5t18.5 -145v-25q0 -55 -7.5 -102.5t-30.5 -101t-60 -96t-101 -82.5t-148.5 -67t-207 -43t-272.5 -16h-55z" />
    <glyph glyph-name="scircumflex" unicode="&#x15d;" horiz-adv-x="1581" 
d="M1337 1257h-442l-119 136l-119 -136h-434l281 318h549zM748 -27q-125 0 -227 15t-169 39t-117 58.5t-76.5 67.5t-42.5 72.5t-20 67t-4 57.5v8h498q2 -14 6 -25t17.5 -27.5t34 -28t58.5 -19.5t89 -8h4q198 0 198 94q0 31 -14 48.5t-58.5 30t-129.5 17.5l-170 13
q-519 30 -519 352v12q0 61 16.5 109.5t59.5 94.5t113.5 76.5t183.5 49t264 18.5h52q167 0 291 -22t193.5 -55.5t111.5 -83t54.5 -94.5t12.5 -101v-4h-483q-5 21 -12 33.5t-26 30.5t-59.5 27t-101.5 9h-8q-108 0 -150.5 -22t-42.5 -64q0 -44 42 -67t151 -27l166 -6
q158 -6 266.5 -32t168.5 -72.5t85 -103.5t25 -134v-19q0 -63 -13 -113t-55.5 -103t-114 -88.5t-197 -58t-296.5 -22.5h-55z" />
    <glyph glyph-name="uni015E" unicode="&#x15e;" horiz-adv-x="1959" 
d="M1358 -340q0 -40 -8.5 -71.5t-32.5 -62.5t-64.5 -52t-108.5 -34t-159 -13h-303v204h244q44 0 59.5 12t15.5 38q0 23 -15.5 35t-59.5 12h-181v256q-117 12 -212.5 37t-160 57t-112.5 73.5t-75 82t-43.5 88t-21.5 85.5t-5 80v19h528q2 -25 7.5 -45.5t26.5 -51t54.5 -51
t97.5 -36t150 -15.5h12q106 0 177 13.5t103.5 38.5t44 50t11.5 58q0 44 -21 71.5t-89 47t-189 22.5l-209 6q-686 21 -686 455v18q0 81 20 145t74 124t141.5 100t230 64t331.5 24h78q203 0 354 -28.5t236 -72t136.5 -108t67 -123.5t15.5 -131v-16h-521q-4 23 -11 41t-28 40.5
t-54 38t-91.5 26t-136.5 10.5h-19q-95 0 -158.5 -9t-96 -26.5t-45.5 -38.5t-13 -51q0 -38 21.5 -64t86.5 -45t175 -22l215 -7q167 -5 290.5 -29t201.5 -62t125.5 -95.5t66 -120.5t18.5 -145v-25q0 -55 -7.5 -102.5t-30.5 -101t-60 -96t-101 -82.5t-148.5 -67t-207 -43
t-272.5 -16h-15v-79h9q106 0 176.5 -16t107 -48.5t50.5 -70.5t14 -91v-8z" />
    <glyph glyph-name="uni015F" unicode="&#x15f;" horiz-adv-x="1581" 
d="M1153 -340q0 -51 -14 -88.5t-51.5 -72.5t-114.5 -53.5t-191 -18.5h-305v204h246q44 0 60 12.5t16 37.5q0 23 -16 35t-60 12h-180v258q-85 10 -155 30.5t-116 45.5t-80.5 57t-53 61.5t-29.5 63.5t-14 57.5t-3 48.5v8h498q2 -14 6 -25t17.5 -27.5t34 -28t58.5 -19.5t89 -8
h4q198 0 198 94q0 31 -14 48.5t-58.5 30t-129.5 17.5l-170 13q-519 30 -519 352v12q0 61 16.5 109.5t59.5 94.5t113.5 76.5t183.5 49t264 18.5h52q167 0 291 -22t193.5 -55.5t111.5 -83t54.5 -94.5t12.5 -101v-4h-483q-5 21 -12 33.5t-26 30.5t-59.5 27t-101.5 9h-8
q-108 0 -150.5 -22t-42.5 -64q0 -44 42 -67t151 -27l166 -6q158 -6 266.5 -32t168.5 -72.5t85 -103.5t25 -134v-19q0 -63 -13 -113t-55.5 -103t-114 -88.5t-197 -58t-296.5 -22.5h-4v-79h8q105 0 175.5 -16t106.5 -48.5t50 -70.5t14 -91v-8z" />
    <glyph glyph-name="Scaron" unicode="&#x160;" horiz-adv-x="1959" 
d="M403 1954h443l125 -133l127 133h434l-291 -314h-545zM961 -27q-158 0 -287 18.5t-215.5 48.5t-151 74t-100.5 88t-57.5 98t-28 96.5t-6.5 90.5v19h528q2 -25 7.5 -45.5t26.5 -51t54.5 -51t97.5 -36t150 -15.5h12q106 0 177 13.5t103.5 38.5t44 50t11.5 58q0 44 -21 71.5
t-89 47t-189 22.5l-209 6q-686 21 -686 455v18q0 81 20 145t74 124t141.5 100t230 64t331.5 24h78q203 0 354 -28.5t236 -72t136.5 -108t67 -123.5t15.5 -131v-16h-521q-4 23 -11 41t-28 40.5t-54 38t-91.5 26t-136.5 10.5h-19q-95 0 -158.5 -9t-96 -26.5t-45.5 -38.5
t-13 -51q0 -38 21.5 -64t86.5 -45t175 -22l215 -7q167 -5 290.5 -29t201.5 -62t125.5 -95.5t66 -120.5t18.5 -145v-25q0 -55 -7.5 -102.5t-30.5 -101t-60 -96t-101 -82.5t-148.5 -67t-207 -43t-272.5 -16h-55z" />
    <glyph glyph-name="scaron" unicode="&#x161;" horiz-adv-x="1581" 
d="M215 1575h442l119 -133l119 133h434l-280 -315h-549zM748 -27q-125 0 -227 15t-169 39t-117 58.5t-76.5 67.5t-42.5 72.5t-20 67t-4 57.5v8h498q2 -14 6 -25t17.5 -27.5t34 -28t58.5 -19.5t89 -8h4q198 0 198 94q0 31 -14 48.5t-58.5 30t-129.5 17.5l-170 13
q-519 30 -519 352v12q0 61 16.5 109.5t59.5 94.5t113.5 76.5t183.5 49t264 18.5h52q167 0 291 -22t193.5 -55.5t111.5 -83t54.5 -94.5t12.5 -101v-4h-483q-5 21 -12 33.5t-26 30.5t-59.5 27t-101.5 9h-8q-108 0 -150.5 -22t-42.5 -64q0 -44 42 -67t151 -27l166 -6
q158 -6 266.5 -32t168.5 -72.5t85 -103.5t25 -134v-19q0 -63 -13 -113t-55.5 -103t-114 -88.5t-197 -58t-296.5 -22.5h-55z" />
    <glyph glyph-name="Tcommaaccent" unicode="&#x162;" horiz-adv-x="1875" 
d="M842 -586q50 82 63 172h-217v297h500v-229q0 -61 -24.5 -127.5t-57.5 -112.5h-264zM694 1139h-600v385h1688v-385h-600v-1139h-488v1139z" />
    <glyph glyph-name="tcommaaccent" unicode="&#x163;" horiz-adv-x="1130" 
d="M608 -586q51 84 64 172h-217v297h499v-229q0 -61 -24.5 -127.5t-57.5 -112.5h-264zM1024 0h-403q-141 0 -223.5 77.5t-82.5 227.5v520h-239v316h239v344h461v-344h248v-316h-248v-366q0 -68 24 -94.5t91 -26.5h133v-338z" />
    <glyph glyph-name="Tcaron" unicode="&#x164;" horiz-adv-x="1875" 
d="M373 1954h442l125 -133l127 133h434l-291 -314h-544zM694 1139h-600v385h1688v-385h-600v-1139h-488v1139z" />
    <glyph glyph-name="tcaron" unicode="&#x165;" horiz-adv-x="1130" 
d="M907 1567h383l-65 -312h-359zM1024 0h-403q-141 0 -223.5 77.5t-82.5 227.5v520h-239v316h239v344h461v-344h248v-316h-248v-366q0 -68 24 -94.5t91 -26.5h133v-338z" />
    <glyph glyph-name="Tbar" unicode="&#x166;" horiz-adv-x="1875" 
d="M258 573v269h1362v-269h-1362zM694 1139h-600v385h1688v-385h-600v-1139h-488v1139z" />
    <glyph glyph-name="tbar" unicode="&#x167;" horiz-adv-x="1148" 
d="M629 0q-141 0 -222 77.5t-81 227.5v201h-240v196h240v134h-240v305h240v344h458v-344h248v-305h-248v-134h248v-196h-248v-57q0 -68 23.5 -94.5t93.5 -26.5h131v-328h-403z" />
    <glyph glyph-name="Utilde" unicode="&#x168;" horiz-adv-x="2160" 
d="M1055 -23q-132 0 -244 18t-195 47.5t-150.5 74.5t-113 93t-79.5 108.5t-52.5 115t-30 119t-15 114.5t-3.5 107v750h487v-744q0 -48 6 -89.5t21 -89.5t45.5 -85.5t75 -69t114 -48.5t158.5 -17h11q105 0 183 26t121 64t68.5 95t33 105.5t7.5 108.5v744h488v-750
q0 -73 -7.5 -140t-30.5 -150t-61 -151.5t-105.5 -136.5t-157 -114.5t-221.5 -75.5t-294 -29h-59zM905 1632h-256v172q0 39 9.5 73.5t30.5 66.5t59.5 50.5t91.5 18.5h4q39 0 84 -11t78.5 -23t107.5 -42q95 -39 117 -39q29 0 29 46v79h256v-172q0 -39 -9.5 -73.5t-30.5 -66.5
t-59.5 -50.5t-91.5 -18.5h-4q-39 0 -84 11t-78.5 23t-107.5 42q-95 39 -117 39q-29 0 -29 -45v-80z" />
    <glyph glyph-name="utilde" unicode="&#x169;" horiz-adv-x="1744" 
d="M1585 0h-461v180q-22 -30 -59 -61.5t-94 -67t-140.5 -58t-175.5 -22.5h-20q-121 0 -215.5 37t-150.5 99.5t-84.5 137t-28.5 156.5v740h465v-582q0 -103 59 -169t184 -66q122 0 189 71.5t67 179.5v566h465v-1141zM1288 1470q0 -37 -9.5 -71.5t-30 -66.5t-58.5 -51t-90 -19
h-4q-58 0 -107.5 15.5t-142.5 57.5q-82 43 -107 43q-30 0 -30 -45v-82h-254v176q0 38 9 72t28.5 66.5t58 51.5t90.5 19h6q58 0 106.5 -15.5t141.5 -59.5q83 -41 106 -41q31 0 31 43v84h256v-177z" />
    <glyph glyph-name="Umacron" unicode="&#x16a;" horiz-adv-x="2160" 
d="M1055 -23q-132 0 -244 18t-195 47.5t-150.5 74.5t-113 93t-79.5 108.5t-52.5 115t-30 119t-15 114.5t-3.5 107v750h487v-744q0 -48 6 -89.5t21 -89.5t45.5 -85.5t75 -69t114 -48.5t158.5 -17h11q105 0 183 26t121 64t68.5 95t33 105.5t7.5 108.5v744h488v-750
q0 -73 -7.5 -140t-30.5 -150t-61 -151.5t-105.5 -136.5t-157 -114.5t-221.5 -75.5t-294 -29h-59zM670 1925h823v-258h-823v258z" />
    <glyph glyph-name="umacron" unicode="&#x16b;" horiz-adv-x="1744" 
d="M1585 0h-461v180q-22 -30 -59 -61.5t-94 -67t-140.5 -58t-175.5 -22.5h-20q-121 0 -215.5 37t-150.5 99.5t-84.5 137t-28.5 156.5v740h465v-582q0 -103 59 -169t184 -66q122 0 189 71.5t67 179.5v566h465v-1141zM465 1538h809v-258h-809v258z" />
    <glyph glyph-name="Ubreve" unicode="&#x16c;" horiz-adv-x="2160" 
d="M1055 -23q-132 0 -244 18t-195 47.5t-150.5 74.5t-113 93t-79.5 108.5t-52.5 115t-30 119t-15 114.5t-3.5 107v750h487v-744q0 -48 6 -89.5t21 -89.5t45.5 -85.5t75 -69t114 -48.5t158.5 -17h11q105 0 183 26t121 64t68.5 95t33 105.5t7.5 108.5v744h488v-750
q0 -73 -7.5 -140t-30.5 -150t-61 -151.5t-105.5 -136.5t-157 -114.5t-221.5 -75.5t-294 -29h-59zM1053 1630q-103 0 -181.5 25.5t-123 62.5t-72 87t-36.5 91.5t-9 83.5v5h325q3 -20 8 -35t17.5 -35.5t37.5 -31.5t62 -11h2q28 0 49.5 8.5t33 19.5t20 28.5t11.5 29t5 27.5h324
v-5q0 -40 -11.5 -83t-41.5 -92t-75.5 -87t-121 -63t-170.5 -25h-53z" />
    <glyph glyph-name="ubreve" unicode="&#x16d;" horiz-adv-x="1744" 
d="M1585 0h-461v180q-22 -30 -59 -61.5t-94 -67t-140.5 -58t-175.5 -22.5h-20q-121 0 -215.5 37t-150.5 99.5t-84.5 137t-28.5 156.5v740h465v-582q0 -103 59 -169t184 -66q122 0 189 71.5t67 179.5v566h465v-1141zM844 1249q-101 0 -179 25.5t-121.5 63.5t-71.5 88t-37 92
t-9 84v4h328q0 -12 2 -25t9.5 -29.5t19.5 -29.5t34 -22t51 -9h2q34 0 58 13t35 33t15.5 37t4.5 32h326v-4q0 -40 -10.5 -83.5t-39.5 -93t-73.5 -87.5t-120.5 -63.5t-172 -25.5h-51z" />
    <glyph glyph-name="Uring" unicode="&#x16e;" horiz-adv-x="2160" 
d="M1055 -23q-132 0 -244 18t-195 47.5t-150.5 74.5t-113 93t-79.5 108.5t-52.5 115t-30 119t-15 114.5t-3.5 107v750h487v-744q0 -48 6 -89.5t21 -89.5t45.5 -85.5t75 -69t114 -48.5t158.5 -17h11q105 0 183 26t121 64t68.5 95t33 105.5t7.5 108.5v744h488v-750
q0 -73 -7.5 -140t-30.5 -150t-61 -151.5t-105.5 -136.5t-157 -114.5t-221.5 -75.5t-294 -29h-59zM713 1853q0 55 18.5 101.5t58.5 85.5t114 61.5t175 22.5q83 0 148 -15t106 -40t67.5 -60.5t37 -73.5t10.5 -82q0 -55 -18 -101t-58 -86.5t-115 -63.5t-178 -23t-177.5 23
t-114 63.5t-57 86.5t-17.5 101zM1217 1853q0 48 -34 78.5t-104 30.5q-68 0 -101.5 -30.5t-33.5 -78.5q0 -49 33.5 -81.5t101.5 -32.5q69 0 103.5 32.5t34.5 81.5z" />
    <glyph glyph-name="uring" unicode="&#x16f;" horiz-adv-x="1744" 
d="M506 1518q0 56 17.5 101.5t57 85t113 61.5t174.5 22q103 0 177 -22t114 -61.5t58 -85t18 -101.5t-17.5 -102.5t-57.5 -86.5t-114.5 -63t-177.5 -23q-83 0 -147 15.5t-104 41.5t-65.5 62.5t-35.5 74t-10 81.5zM737 1518q0 -48 33 -80.5t98 -32.5q68 0 100.5 32t32.5 81
q0 48 -32.5 78t-100.5 30q-65 0 -98 -30.5t-33 -77.5zM1585 0h-461v180q-22 -30 -59 -61.5t-94 -67t-140.5 -58t-175.5 -22.5h-20q-121 0 -215.5 37t-150.5 99.5t-84.5 137t-28.5 156.5v740h465v-582q0 -103 59 -169t184 -66q122 0 189 71.5t67 179.5v566h465v-1141z" />
    <glyph glyph-name="Uhungarumlaut" unicode="&#x170;" horiz-adv-x="2160" 
d="M741 1954h424l-147 -314h-418zM1294 1954h428l-163 -314h-418zM1055 -23q-132 0 -244 18t-195 47.5t-150.5 74.5t-113 93t-79.5 108.5t-52.5 115t-30 119t-15 114.5t-3.5 107v750h487v-744q0 -48 6 -89.5t21 -89.5t45.5 -85.5t75 -69t114 -48.5t158.5 -17h11
q105 0 183 26t121 64t68.5 95t33 105.5t7.5 108.5v744h488v-750q0 -73 -7.5 -140t-30.5 -150t-61 -151.5t-105.5 -136.5t-157 -114.5t-221.5 -75.5t-294 -29h-59z" />
    <glyph glyph-name="uhungarumlaut" unicode="&#x171;" horiz-adv-x="1744" 
d="M1585 0h-461v180q-22 -30 -59 -61.5t-94 -67t-140.5 -58t-175.5 -22.5h-20q-121 0 -215.5 37t-150.5 99.5t-84.5 137t-28.5 156.5v740h465v-582q0 -103 59 -169t184 -66q122 0 189 71.5t67 179.5v566h465v-1141zM1085 1575h428l-165 -315h-416zM539 1575h426l-152 -315
h-420z" />
    <glyph glyph-name="Uogonek" unicode="&#x172;" horiz-adv-x="2160" 
d="M1219 -393q-265 0 -265 151v6q0 71 72.5 121.5t235.5 98.5q-79 -7 -148 -7h-59q-132 0 -244 18t-195 47.5t-150.5 74.5t-113 93t-79.5 108.5t-52.5 115t-30 119t-15 114.5t-3.5 107v750h487v-744q0 -48 6 -89.5t21 -89.5t45.5 -85.5t75 -69t114 -48.5t158.5 -17h11
q105 0 183 26t121 64t68.5 95t33 105.5t7.5 108.5v744h488v-750q0 -242 -88.5 -420.5t-298.5 -306.5q-153 -94 -181 -117q-39 -32 -39 -61q0 -53 80 -53h84v-209h-329z" />
    <glyph glyph-name="uogonek" unicode="&#x173;" horiz-adv-x="1744" 
d="M1270 -391q-264 0 -264 151v4q0 81 90.5 133.5t292.5 102.5h196q-80 -48 -113.5 -75.5t-33.5 -57.5q0 -49 78 -49h83v-209h-329zM1585 0h-461v180q-22 -30 -59 -61.5t-94 -67t-140.5 -58t-175.5 -22.5h-20q-121 0 -215.5 37t-150.5 99.5t-84.5 137t-28.5 156.5v740h465
v-582q0 -103 59 -169t184 -66q122 0 189 71.5t67 179.5v566h465v-1141z" />
    <glyph glyph-name="Wcircumflex" unicode="&#x174;" horiz-adv-x="2834" 
d="M2005 1636h-440l-125 133l-127 -133h-432l290 318h541zM543 0l-523 1524h525l315 -1049l309 1049h541l307 -1051l316 1051h481l-508 -1524h-577l-310 1008l-307 -1008h-569z" />
    <glyph glyph-name="wcircumflex" unicode="&#x175;" horiz-adv-x="2428" 
d="M1792 1257h-442l-119 136l-119 -136h-434l280 318h549zM457 0l-426 1141h493l234 -752l225 752h508l235 -750l222 750h448l-389 -1141h-557l-229 688l-215 -688h-549z" />
    <glyph glyph-name="Ycircumflex" unicode="&#x176;" horiz-adv-x="1978" 
d="M758 551l-776 973h600l438 -572l440 572h537l-752 -975v-549h-487v551zM1585 1636h-440l-125 133l-127 -133h-432l291 318h540z" />
    <glyph glyph-name="ycircumflex" unicode="&#x177;" horiz-adv-x="1595" 
d="M238 -80h258q53 0 53 41q0 29 -35 100l-494 1080h512l293 -781l277 781h471l-512 -1245q-62 -147 -153.5 -216t-241.5 -69h-428v309zM1378 1257h-442l-119 136l-119 -136h-434l281 318h549z" />
    <glyph glyph-name="Ydieresis" unicode="&#x178;" horiz-adv-x="1978" 
d="M758 551l-776 973h600l438 -572l440 572h537l-752 -975v-549h-487v551zM961 1640h-451v299h451v-299zM1530 1640h-451v299h451v-299z" />
    <glyph glyph-name="Zacute" unicode="&#x179;" horiz-adv-x="1914" 
d="M721 1640l192 314h519l-240 -314h-471zM145 0v322l910 819h-903v383h1611v-320l-948 -817h957v-387h-1627z" />
    <glyph glyph-name="zacute" unicode="&#x17a;" horiz-adv-x="1554" 
d="M733 1575h512l-248 -315h-454zM121 0v301l690 516h-684v324h1286v-297l-713 -510h738v-334h-1317z" />
    <glyph glyph-name="Zdotaccent" unicode="&#x17b;" horiz-adv-x="1914" 
d="M145 0v322l910 819h-903v383h1611v-320l-948 -817h957v-387h-1627zM1194 1640h-471v299h471v-299z" />
    <glyph glyph-name="zdotaccent" unicode="&#x17c;" horiz-adv-x="1554" 
d="M121 0v301l690 516h-684v324h1286v-297l-713 -510h738v-334h-1317zM1006 1255h-471v299h471v-299z" />
    <glyph glyph-name="Zcaron" unicode="&#x17d;" horiz-adv-x="1914" 
d="M391 1954h443l124 -133l127 133h435l-291 -314h-545zM145 0v322l910 819h-903v383h1611v-320l-948 -817h957v-387h-1627z" />
    <glyph glyph-name="zcaron" unicode="&#x17e;" horiz-adv-x="1554" 
d="M209 1575h442l119 -133l119 133h434l-281 -315h-548zM121 0v301l690 516h-684v324h1286v-297l-713 -510h738v-334h-1317z" />
    <glyph glyph-name="uni0192" unicode="&#x192;" horiz-adv-x="1191" 
d="M805 635l-49 -1026h-455l49 1026h-239v313h254l10 226q4 90 24 152t63.5 108t117 68t180.5 22h319v-314h-155q-51 0 -72 -20t-25 -74l-8 -168h260v-313h-274z" />
    <glyph glyph-name="Aringacute" unicode="&#x1fa;" horiz-adv-x="2064" 
d="M1012 1169l-250 -569h506zM1417 264h-805l-116 -264h-490l692 1524h645l715 -1524h-522zM782 2232l193 314h518l-240 -314h-471zM651 1896q0 55 18.5 101.5t59 85.5t114.5 61.5t175 22.5q83 0 148 -15t106 -40t67 -60.5t36.5 -73.5t10.5 -82q0 -43 -10.5 -81t-36.5 -74.5
t-67 -62t-106 -41t-148 -15.5q-103 0 -177.5 23t-114.5 63.5t-57.5 86.5t-17.5 101zM1155 1896q0 48 -34 78.5t-103 30.5q-68 0 -101.5 -30.5t-33.5 -78.5q0 -49 33.5 -81.5t101.5 -32.5q69 0 103 32.5t34 81.5z" />
    <glyph glyph-name="aringacute" unicode="&#x1fb;" horiz-adv-x="1660" 
d="M735 246q74 0 132 21t90.5 54.5t48.5 70t16 71.5v72q-92 -24 -229 -46q-137 -24 -184.5 -50t-47.5 -79v-4q0 -50 43 -80t131 -30zM1034 150q-153 -173 -440 -173h-35q-227 0 -344 102t-117 263v8q0 107 47 176t163 112.5t313 59.5l317 25q46 4 65 20t19 48v2
q0 22 -7 37.5t-27.5 31t-65.5 23.5t-113 8h-6q-209 0 -209 -115h-467v2q0 33 4.5 63.5t20.5 71t42.5 74t75.5 67.5t115 57.5t164.5 38.5t220.5 15h66q124 0 223 -13.5t165 -34.5t114.5 -54t74.5 -64.5t41 -74t19 -75t4 -73.5v-364q0 -44 14 -62t59 -18h54v-334h-377
q-79 0 -125 44t-68 106zM766 2167h512l-248 -316h-455zM440 1518q0 55 18 101t57.5 85.5t113 61.5t174.5 22q103 0 177 -22t113.5 -61.5t57.5 -85t18 -101.5t-17.5 -102.5t-57 -86.5t-114 -63t-177.5 -23q-102 0 -176 23t-113 63.5t-56.5 87t-17.5 101.5zM672 1518
q0 -48 33 -80.5t98 -32.5q68 0 100.5 32t32.5 81q0 48 -32.5 78t-100.5 30q-65 0 -98 -30.5t-33 -77.5z" />
    <glyph glyph-name="AEacute" unicode="&#x1fc;" horiz-adv-x="2727" 
d="M1505 1640l193 314h518l-240 -314h-471zM1208 1210l-374 -620h374v620zM1208 266h-571l-160 -266h-514l950 1524h1657v-350h-876v-222h846v-362h-846v-236h891v-354h-1377v266z" />
    <glyph glyph-name="aeacute" unicode="&#x1fd;" horiz-adv-x="2627" 
d="M1249 1575h512l-248 -315h-454zM1765 893q-131 0 -193 -49t-81 -144h545q0 37 -12 68.5t-40 61t-84 46.5t-135 17zM727 246q72 0 128.5 21t88 54.5t47 70t15.5 71.5v72q-100 -26 -222 -46q-131 -24 -177 -50t-46 -79v-4q0 -50 41 -80t125 -30zM2525 356q0 -26 -6.5 -55
t-26.5 -67.5t-51 -73.5t-86 -70.5t-126 -61t-175.5 -41.5t-230.5 -16h-82q-230 0 -378.5 62.5t-221.5 159.5q-28 -39 -67 -73t-99.5 -68.5t-150 -54.5t-197.5 -20h-35q-249 0 -371.5 101t-122.5 264v8q0 160 115.5 242t400.5 106l308 25q46 4 65 20t19 48q0 22 -6.5 37.5
t-26.5 31t-63.5 23.5t-110.5 8h-4q-65 0 -109 -12t-62.5 -31.5t-25 -36t-6.5 -35.5h-465v4q0 34 4.5 64.5t20 71t42 73.5t74.5 67t113 57t163 37.5t218 14.5h67q329 0 461 -118q140 120 424 120h90q128 0 232.5 -19t179 -52t130.5 -82t90.5 -102.5t55.5 -121t29 -131
t8 -137.5v-41h-1042q14 -104 86.5 -159.5t222.5 -55.5q57 0 102 8.5t69 19t42 26t22.5 22t8.5 14.5h485z" />
    <glyph glyph-name="Oslashacute" unicode="&#x1fe;" horiz-adv-x="2201" 
d="M1059 -25q-314 0 -527 101l-59 -53l-27 -23h-411l84 76q29 28 97.5 88.5t82.5 73.5q-98 107 -142 237.5t-44 259.5v62q0 71 10.5 139t39.5 144.5t74 142t119.5 127t170 104.5t232 68.5t300.5 25.5h84q315 0 528 -96q32 25 58 51l24 21h414l-82 -74l-180 -158
q98 -106 142 -236t44 -259v-62q0 -69 -10.5 -136.5t-39 -144.5t-73.5 -144t-119.5 -130t-170.5 -107t-233.5 -71t-301.5 -27h-84zM600 758q0 -120 51 -219l690 614q-113 25 -239 25q-120 0 -212 -25t-145.5 -64t-87.5 -93.5t-45.5 -105.5t-11.5 -108v-24zM1104 354
q86 0 157.5 13.5t122 36.5t89.5 55t63 67.5t39 76.5t21 78.5t6 76.5v24q0 121 -46 209l-690 -614q97 -23 238 -23zM866 1640l193 314h518l-240 -314h-471z" />
    <glyph glyph-name="oslashacute" unicode="&#x1ff;" horiz-adv-x="1748" 
d="M842 -31q-263 0 -426 86l-68 -55h-311l209 176q-148 145 -148 375v29q0 49 5.5 95t24.5 107t50.5 113t88.5 104.5t132.5 89t189 59.5t251.5 23h69q265 0 424 -84l64 54h311l-205 -172q81 -77 113.5 -181.5t32.5 -205.5v-33q0 -50 -4.5 -94.5t-22.5 -106t-48 -111
t-86.5 -101.5t-132 -87t-191 -57.5t-257.5 -22.5h-65zM545 573q0 -61 18 -131l486 408q-78 20 -164 20h-21q-76 0 -134 -18.5t-92.5 -47.5t-56 -69t-29 -78.5t-7.5 -81.5v-2zM885 279q93 0 159.5 27t100 72t47.5 92t14 99v4q0 82 -16 132l-488 -408q70 -18 162 -18h21z
M838 1575h512l-248 -315h-455z" />
    <glyph glyph-name="uni0218" unicode="&#x218;" horiz-adv-x="1959" 
d="M889 -586q50 82 63 172h-217v297h500v-229q0 -61 -24.5 -127.5t-57.5 -112.5h-264zM961 -27q-158 0 -287 18.5t-215.5 48.5t-151 74t-100.5 88t-57.5 98t-28 96.5t-6.5 90.5v19h528q2 -25 7.5 -45.5t26.5 -51t54.5 -51t97.5 -36t150 -15.5h12q106 0 177 13.5t103.5 38.5
t44 50t11.5 58q0 44 -21 71.5t-89 47t-189 22.5l-209 6q-686 21 -686 455v18q0 81 20 145t74 124t141.5 100t230 64t331.5 24h78q203 0 354 -28.5t236 -72t136.5 -108t67 -123.5t15.5 -131v-16h-521q-4 23 -11 41t-28 40.5t-54 38t-91.5 26t-136.5 10.5h-19q-95 0 -158.5 -9
t-96 -26.5t-45.5 -38.5t-13 -51q0 -38 21.5 -64t86.5 -45t175 -22l215 -7q167 -5 290.5 -29t201.5 -62t125.5 -95.5t66 -120.5t18.5 -145v-25q0 -55 -7.5 -102.5t-30.5 -101t-60 -96t-101 -82.5t-148.5 -67t-207 -43t-272.5 -16h-55z" />
    <glyph glyph-name="uni0219" unicode="&#x219;" horiz-adv-x="1581" 
d="M690 -586q51 84 64 172h-217v297h499v-229q0 -61 -24.5 -127.5t-57.5 -112.5h-264zM748 -27q-125 0 -227 15t-169 39t-117 58.5t-76.5 67.5t-42.5 72.5t-20 67t-4 57.5v8h498q2 -14 6 -25t17.5 -27.5t34 -28t58.5 -19.5t89 -8h4q198 0 198 94q0 31 -14 48.5t-58.5 30
t-129.5 17.5l-170 13q-519 30 -519 352v12q0 61 16.5 109.5t59.5 94.5t113.5 76.5t183.5 49t264 18.5h52q167 0 291 -22t193.5 -55.5t111.5 -83t54.5 -94.5t12.5 -101v-4h-483q-5 21 -12 33.5t-26 30.5t-59.5 27t-101.5 9h-8q-108 0 -150.5 -22t-42.5 -64q0 -44 42 -67
t151 -27l166 -6q158 -6 266.5 -32t168.5 -72.5t85 -103.5t25 -134v-19q0 -63 -13 -113t-55.5 -103t-114 -88.5t-197 -58t-296.5 -22.5h-55z" />
    <glyph glyph-name="uni021A" unicode="&#x21a;" horiz-adv-x="1875" 
d="M842 -586q50 82 63 172h-217v297h500v-229q0 -61 -24.5 -127.5t-57.5 -112.5h-264zM694 1139h-600v385h1688v-385h-600v-1139h-488v1139z" />
    <glyph glyph-name="uni021B" unicode="&#x21b;" horiz-adv-x="1130" 
d="M608 -586q51 84 64 172h-217v297h499v-229q0 -61 -24.5 -127.5t-57.5 -112.5h-264zM1024 0h-403q-141 0 -223.5 77.5t-82.5 227.5v520h-239v316h239v344h461v-344h248v-316h-248v-366q0 -68 24 -94.5t91 -26.5h133v-338z" />
    <glyph glyph-name="uni0237" unicode="&#x237;" horiz-adv-x="784" 
d="M84 -72q42 0 59 19.5t17 64.5v1129h465v-1227q0 -144 -67 -223.5t-196 -79.5h-393v317h115z" />
    <glyph glyph-name="circumflex" unicode="&#x2c6;" horiz-adv-x="1433" 
d="M1274 1257h-443l-118 136l-119 -136h-434l280 318h549z" />
    <glyph glyph-name="caron" unicode="&#x2c7;" horiz-adv-x="1433" 
d="M158 1575h442l119 -133l119 133h434l-281 -315h-549z" />
    <glyph glyph-name="breve" unicode="&#x2d8;" horiz-adv-x="1433" 
d="M692 1249q-101 0 -179 25.5t-121.5 63.5t-71.5 88t-37 92t-9 84v4h328q0 -16 4.5 -32.5t15.5 -36.5t36 -33t61 -13h2q34 0 58 13t35 33t15.5 37t4.5 32h325v-4q0 -40 -10.5 -83.5t-39.5 -93t-73.5 -87.5t-120.5 -63.5t-172 -25.5h-51z" />
    <glyph glyph-name="dotaccent" unicode="&#x2d9;" horiz-adv-x="1433" 
d="M952 1255h-471v299h471v-299z" />
    <glyph glyph-name="ring" unicode="&#x2da;" horiz-adv-x="1433" 
d="M352 1518q0 55 18 101t57.5 85.5t113 61.5t174.5 22q103 0 177 -22t113.5 -61.5t57.5 -85t18 -101.5t-17.5 -102.5t-57 -86.5t-114 -63t-177.5 -23q-102 0 -176 23t-113 63.5t-56.5 87t-17.5 101.5zM584 1518q0 -48 33 -80.5t98 -32.5q68 0 100.5 32t32.5 81
q0 48 -32.5 78t-100.5 30q-65 0 -98 -30.5t-33 -77.5z" />
    <glyph glyph-name="ogonek" unicode="&#x2db;" horiz-adv-x="1435" 
d="M684 -391q-264 0 -264 151v4q0 81 90.5 133.5t292.5 102.5h196q-80 -48 -113.5 -75.5t-33.5 -57.5q0 -49 78 -49h84v-209h-330z" />
    <glyph glyph-name="tilde" unicode="&#x2dc;" horiz-adv-x="1433" 
d="M1135 1470q0 -37 -9.5 -71.5t-30 -66.5t-59 -51t-90.5 -19h-4q-58 0 -107.5 15.5t-142.5 57.5q-82 43 -106 43q-31 0 -31 -45v-82h-254v176q0 38 9 72t28.5 66.5t58 51.5t90.5 19h7q58 0 105.5 -15.5t141.5 -59.5q83 -41 107 -41q31 0 31 43v84h256v-177z" />
    <glyph glyph-name="hungarumlaut" unicode="&#x2dd;" horiz-adv-x="1433" 
d="M848 1575h428l-166 -315h-416zM301 1575h426l-152 -315h-419z" />
    <glyph glyph-name="Wgrave" unicode="&#x1e80;" horiz-adv-x="2834" 
d="M965 1954h518l192 -314h-473zM543 0l-523 1524h525l315 -1049l309 1049h541l307 -1051l316 1051h481l-508 -1524h-577l-310 1008l-307 -1008h-569z" />
    <glyph glyph-name="wgrave" unicode="&#x1e81;" horiz-adv-x="2428" 
d="M457 0l-426 1141h493l234 -752l225 752h508l235 -750l222 750h448l-389 -1141h-557l-229 688l-215 -688h-549zM1454 1260h-455l-247 315h512z" />
    <glyph glyph-name="Wacute" unicode="&#x1e82;" horiz-adv-x="2834" 
d="M1202 1640l193 314h518l-240 -314h-471zM543 0l-523 1524h525l315 -1049l309 1049h541l307 -1051l316 1051h481l-508 -1524h-577l-310 1008l-307 -1008h-569z" />
    <glyph glyph-name="wacute" unicode="&#x1e83;" horiz-adv-x="2428" 
d="M1194 1575h512l-248 -315h-454zM457 0l-426 1141h493l234 -752l225 752h508l235 -750l222 750h448l-389 -1141h-557l-229 688l-215 -688h-549z" />
    <glyph glyph-name="Wdieresis" unicode="&#x1e84;" horiz-adv-x="2834" 
d="M1378 1640h-450v299h450v-299zM1948 1640h-451v299h451v-299zM543 0l-523 1524h525l315 -1049l309 1049h541l307 -1051l316 1051h481l-508 -1524h-577l-310 1008l-307 -1008h-569z" />
    <glyph glyph-name="wdieresis" unicode="&#x1e85;" horiz-adv-x="2428" 
d="M1174 1255h-445v299h445v-299zM1733 1255h-445v299h445v-299zM457 0l-426 1141h493l234 -752l225 752h508l235 -750l222 750h448l-389 -1141h-557l-229 688l-215 -688h-549z" />
    <glyph glyph-name="Ygrave" unicode="&#x1ef2;" horiz-adv-x="1978" 
d="M758 551l-776 973h600l438 -572l440 572h537l-752 -975v-549h-487v551zM547 1954h518l192 -314h-473z" />
    <glyph glyph-name="ygrave" unicode="&#x1ef3;" horiz-adv-x="1595" 
d="M238 -80h258q53 0 53 41q0 29 -35 100l-494 1080h512l293 -781l277 781h471l-512 -1245q-62 -147 -153.5 -216t-241.5 -69h-428v309zM1049 1260h-455l-248 315h512z" />
    <glyph glyph-name="uni2009" unicode="&#x2009;" horiz-adv-x="143" 
 />
    <glyph glyph-name="endash" unicode="&#x2013;" horiz-adv-x="1708" 
d="M1567 768v-307h-1426v307h1426z" />
    <glyph glyph-name="emdash" unicode="&#x2014;" horiz-adv-x="2584" 
d="M2441 768v-307h-2300v307h2300z" />
    <glyph glyph-name="quoteleft" unicode="&#x2018;" horiz-adv-x="772" 
d="M530 1524q-39 -66 -73 -148.5t-47 -146.5h235v-365h-520v289q0 97 33 198.5t73 172.5h299z" />
    <glyph glyph-name="quoteright" unicode="&#x2019;" horiz-adv-x="772" 
d="M240 864q37 62 71.5 148t46.5 147h-233v365h520v-289q0 -96 -33.5 -197t-74.5 -174h-297z" />
    <glyph glyph-name="quotesinglbase" unicode="&#x201a;" horiz-adv-x="772" 
d="M240 -293q37 62 71.5 148t46.5 147h-233v365h520v-289q0 -96 -33.5 -197t-74.5 -174h-297z" />
    <glyph glyph-name="quotedblleft" unicode="&#x201c;" horiz-adv-x="1456" 
d="M1214 1524q-39 -66 -73 -148.5t-47 -146.5h235v-365h-520v289q0 97 33 198.5t73 172.5h299zM530 1524q-39 -66 -73 -148.5t-47 -146.5h235v-365h-520v289q0 97 33 198.5t73 172.5h299z" />
    <glyph glyph-name="quotedblright" unicode="&#x201d;" horiz-adv-x="1456" 
d="M924 864q37 62 71.5 148t46.5 147h-233v365h520v-289q0 -98 -33 -198t-75 -173h-297zM240 864q37 62 71.5 148t46.5 147h-233v365h520v-289q0 -96 -33.5 -197t-74.5 -174h-297z" />
    <glyph glyph-name="quotedblbase" unicode="&#x201e;" horiz-adv-x="1456" 
d="M924 -293q37 62 71.5 148t46.5 147h-233v365h520v-289q0 -98 -33 -198t-75 -173h-297zM240 -293q37 62 71.5 148t46.5 147h-233v365h520v-289q0 -96 -33.5 -197t-74.5 -174h-297z" />
    <glyph glyph-name="dagger" unicode="&#x2020;" horiz-adv-x="1169" 
d="M369 866h-293v340h293v318h432v-318h293v-340h-293v-866h-432v866z" />
    <glyph glyph-name="daggerdbl" unicode="&#x2021;" horiz-adv-x="1193" 
d="M807 618h293v-323h-293v-295h-420v295h-295v323h295v291h-295v324h295v291h420v-291h293v-324h-293v-291z" />
    <glyph glyph-name="bullet" unicode="&#x2022;" horiz-adv-x="1009" 
d="M899 670q0 -168 -110 -275.5t-287 -107.5t-285 107t-108 276t108 277t285 108t287 -108t110 -277z" />
    <glyph glyph-name="ellipsis" unicode="&#x2026;" horiz-adv-x="2369" 
d="M2238 0h-526v428h526v-428zM1450 0h-528v428h528v-428zM659 0h-528v428h528v-428z" />
    <glyph glyph-name="perthousand" unicode="&#x2030;" horiz-adv-x="4079" 
d="M3420 -16q-127 0 -225 30t-154.5 75t-92.5 106t-48 114.5t-12 108.5v33q0 54 12 106.5t48 111.5t92.5 102t154.5 72t225 29h41q128 0 226.5 -29t155.5 -72.5t93.5 -102t49 -111t12.5 -106.5v-33q0 -55 -12.5 -108.5t-49 -114.5t-93.5 -106t-155.5 -75t-226.5 -30h-41z
M3441 621q-109 0 -161 -50t-52 -131v-10q0 -81 53 -134.5t160 -53.5q108 0 162.5 53.5t54.5 132.5v12q0 81 -53 131t-164 50zM614 653q-127 0 -225 29.5t-154.5 74t-92.5 105t-48 113.5t-12 108v35q0 55 12 107.5t48 111.5t92.5 102.5t154.5 72t225 28.5h41q93 0 170.5 -15
t132 -40t96.5 -60t67 -72t41 -80t22 -80t6 -75v-35q0 -55 -12 -108t-47.5 -113.5t-92.5 -105t-155.5 -74t-227.5 -29.5h-41zM2324 1524l-1427 -1524h-381l1428 1524h380zM852 1108q0 81 -53.5 131.5t-163.5 50.5q-109 0 -161 -50.5t-52 -131.5v-10q0 -80 53 -133.5
t160 -53.5q109 0 163 53t54 132v12zM2187 -16q-128 0 -227 30t-155.5 75t-92 106t-47.5 114.5t-12 108.5v33q0 55 12 107t47.5 111t92 102t155 72t227.5 29h39q129 0 228.5 -29t156 -72t92.5 -102t48 -111t12 -107v-33q0 -55 -12 -108.5t-48 -114.5t-92.5 -106t-156 -75
t-228.5 -30h-39zM2206 621q-109 0 -161 -50t-52 -131v-10q0 -81 53 -134.5t160 -53.5q108 0 162.5 53.5t54.5 132.5v12q0 81 -53 131t-164 50z" />
    <glyph glyph-name="uni2032" unicode="&#x2032;" horiz-adv-x="686" 
d="M473 887h-377l115 637h379z" />
    <glyph glyph-name="uni2033" unicode="&#x2033;" horiz-adv-x="1251" 
d="M473 887h-377l115 637h379zM1034 887h-375l119 637h379z" />
    <glyph glyph-name="guilsinglleft" unicode="&#x2039;" horiz-adv-x="808" 
d="M350 213l-272 381l272 377h381l-274 -377l270 -381h-377z" />
    <glyph glyph-name="guilsinglright" unicode="&#x203a;" horiz-adv-x="808" 
d="M82 213l268 381l-274 377h383l272 -377l-272 -381h-377z" />
    <glyph glyph-name="fraction" unicode="&#x2044;" horiz-adv-x="1830" 
d="M1831 1524l-1458 -1524h-373l1460 1524h371z" />
    <glyph glyph-name="Euro" unicode="&#x20ac;" horiz-adv-x="2185" 
d="M2079 592q0 -55 -11 -111t-39.5 -117.5t-71.5 -116t-111.5 -105t-155.5 -86.5t-208.5 -57.5t-264.5 -21.5h-93q-163 0 -298 33t-226.5 86t-160.5 127.5t-107.5 151t-59.5 162.5h-206v178h182v82q0 20 2 34h-184v177h210q23 84 62 157t108 145t160 122.5t224 82t294 31.5
h93q143 0 264 -20t208 -54.5t155.5 -82.5t112 -101.5t71.5 -114.5t39.5 -118.5t11.5 -116.5v-8h-504q-3 14 -5.5 23.5t-15 38t-28.5 49.5t-48.5 49t-72.5 46t-102.5 31t-137.5 13q-271 0 -368 -172h506v-177h-553q-2 -14 -2 -47v-26q0 -29 2 -43h553v-178h-504
q99 -187 368 -187q58 0 108.5 8t87.5 20.5t68.5 31.5t52 36.5t37.5 41t25.5 39t16 36t9 27t3.5 16.5h504v-14z" />
    <glyph glyph-name="trademark" unicode="&#x2122;" horiz-adv-x="2416" 
d="M674 1280v-535h-328v535h-278v244h880v-244h-274zM1079 1524h453l151 -402l150 402h432v-779h-280v519l-209 -519h-211l-207 519v-519h-279v779z" />
    <glyph glyph-name="onethird" unicode="&#x2153;" horiz-adv-x="2689" 
d="M90 1128v232q110 0 175 20t93 53t48 93h282v-879h-358v481h-240zM2044 1524l-1458 -1524h-373l1460 1524h371zM1989 -14q-96 0 -174.5 12.5t-131 32t-92.5 48t-61.5 56t-35 60t-17.5 56.5t-4 48v10h368q3 -11 3.5 -12.5t6.5 -15t12 -19t20.5 -16t32.5 -15.5t46 -9.5
t63 -4.5q183 0 183 78v4q0 59 -99 59h-235v201h231q52 0 71 13.5t19 37.5v2q0 18 -10.5 31t-52 24t-113.5 11q-46 0 -80.5 -6.5t-52 -15t-28 -20t-13 -18.5t-2.5 -14h-360v12q0 22 3.5 43t16 50t33 53t58.5 49t89 42.5t128 28.5t171 11h62q97 0 175 -8t130.5 -20.5t91.5 -32
t60.5 -38.5t34.5 -43.5t16.5 -44t3.5 -42.5v-7q0 -59 -43.5 -100t-116.5 -53q84 -15 138.5 -67.5t54.5 -141.5v-6q0 -47 -11.5 -86t-46.5 -81t-92.5 -70.5t-157 -47t-231.5 -18.5h-61z" />
    <glyph glyph-name="twothirds" unicode="&#x2154;" horiz-adv-x="3153" 
d="M102 647v125q0 51 8 89.5t38.5 86.5t85 85t154.5 75t239 66q103 20 136.5 36.5t33.5 46.5q0 32 -32 48t-120 16q-92 0 -128 -30.5t-36 -65.5h-364v8q0 307 504 307h45q124 0 215.5 -15t146.5 -39t87.5 -61t44 -75.5t11.5 -87.5v-9q0 -125 -110 -184.5t-369 -93.5
q-111 -16 -172.5 -29.5t-82.5 -24.5t-21 -24h758v-250h-1072zM2509 1524l-1458 -1524h-373l1460 1524h371zM2451 -14q-96 0 -174.5 12.5t-131 32t-92.5 48t-61.5 56t-35 60t-17.5 56.5t-4 48v10h369q3 -11 3.5 -12.5t6.5 -15t12 -19t20.5 -16t32.5 -15.5t46 -9.5t63 -4.5
q183 0 183 78v4q0 59 -99 59h-235v201h231q52 0 71 13.5t19 37.5v2q0 18 -10.5 31t-52 24t-113.5 11q-46 0 -80.5 -6.5t-52 -15t-28 -20t-13 -18.5t-2.5 -14h-360v12q0 22 3.5 43t16 50t33 53t58.5 49t89 42.5t128 28.5t171 11h62q97 0 175 -8t130.5 -20.5t91.5 -32
t60.5 -38.5t34.5 -43.5t16.5 -44t3.5 -42.5v-7q0 -59 -43.5 -100t-116.5 -53q84 -15 138.5 -67.5t54.5 -141.5v-6q0 -47 -11.5 -86t-46.5 -81t-92.5 -70.5t-157 -47t-231.5 -18.5h-62z" />
    <glyph glyph-name="oneeighth" unicode="&#x215b;" horiz-adv-x="2699" 
d="M90 1128v232q110 0 175 20t93 53t48 93h282v-879h-358v481h-240zM2044 1524l-1458 -1524h-373l1460 1524h371zM2066 893q134 0 232 -17t149.5 -41t81 -59.5t36.5 -62.5t7 -60v-8q0 -74 -56.5 -121.5t-137.5 -60.5q92 -14 153.5 -66t61.5 -133v-10q0 -268 -527 -268h-53
q-136 0 -236.5 18.5t-154.5 45t-86 65t-40.5 70t-8.5 69.5v10q0 81 61.5 133t153.5 66q-84 13 -139.5 60.5t-55.5 121.5v8q0 33 7 60t36.5 62.5t81 59.5t149.5 41t232 17h53zM1874 627q0 -36 33 -56t133 -20q51 0 85.5 6t50.5 17.5t22 23.5t6 29v2q0 71 -164 71
q-70 0 -109 -12t-48 -25.5t-9 -33.5v-2zM1858 279q0 -38 37.5 -61t144.5 -23q106 0 143 22.5t37 58.5v7q0 36 -37 57.5t-143 21.5q-108 0 -145 -21t-37 -58v-4z" />
    <glyph glyph-name="threeeighths" unicode="&#x215c;" horiz-adv-x="3088" 
d="M2445 1524l-1458 -1524h-373l1461 1524h370zM604 633q-96 0 -174.5 12.5t-131 32t-92.5 48t-61.5 56t-35 60t-17.5 56.5t-4 48v10h369q3 -11 3.5 -12.5t6.5 -15t12 -19t20.5 -16t32.5 -15.5t46 -9.5t63 -4.5q182 0 182 78v4q0 60 -98 60h-236v200h232q52 0 71 13.5
t19 37.5v3q0 18 -10.5 31t-52 23.5t-113.5 10.5q-46 0 -80.5 -6.5t-52 -15t-28 -20t-13 -18.5t-2.5 -14h-361v13q0 22 3.5 43t16 50t33 53t59 49t89.5 42t128 28t171 11h61q97 0 175 -8t130.5 -20.5t91.5 -32t60.5 -38.5t34.5 -43.5t16.5 -44t3.5 -42.5v-6q0 -59 -43 -100.5
t-116 -53.5q84 -15 138 -67.5t54 -141.5v-6q0 -39 -8.5 -72t-29 -69t-60 -64t-96.5 -50.5t-145 -35t-199 -12.5h-62zM2456 893q97 0 175.5 -9t130 -22.5t90 -34.5t59 -41.5t32.5 -46t15 -44.5t3 -42v-8q0 -74 -56.5 -121.5t-137.5 -60.5q92 -14 153.5 -66t61.5 -133v-10
q0 -268 -526 -268h-54q-136 0 -236.5 18.5t-154.5 45t-86 65t-40.5 70t-8.5 69.5v10q0 81 61.5 133t153.5 66q-84 13 -139.5 60.5t-55.5 121.5v8q0 33 7 60t36.5 62.5t81 59.5t149.5 41t232 17h54zM2263 627q0 -36 33 -56t133 -20q51 0 85.5 6t50.5 17.5t22 23.5t6 29v2
q0 71 -164 71q-70 0 -109 -12t-48 -25.5t-9 -33.5v-2zM2247 279q0 -38 37.5 -61t144.5 -23q106 0 143 22.5t37 58.5v7q0 36 -37 57.5t-143 21.5q-108 0 -145 -21t-37 -58v-4z" />
    <glyph glyph-name="fiveeighths" unicode="&#x215d;" horiz-adv-x="3059" 
d="M2419 1524l-1458 -1524h-373l1460 1524h371zM614 633q-93 0 -168.5 10.5t-125 27.5t-87 41t-57.5 47.5t-32 52t-15.5 49t-3.5 42.5v2h367q0 -3 3 -8.5t13.5 -13.5t26.5 -14.5t46.5 -11.5t69.5 -5q156 0 156 92v6q0 90 -158 90q-61 0 -99.5 -12.5t-48 -23t-9.5 -17.5h-351
v537h975v-219h-624v-146q12 12 40 26.5t93.5 29t144.5 14.5h10q115 0 195.5 -21t123 -60t60 -85t17.5 -105v-8q0 -317 -486 -317h-76zM2429 893q134 0 232 -17t149.5 -41t81 -59.5t36.5 -62.5t7 -60v-8q0 -74 -56.5 -121.5t-138.5 -60.5q92 -14 153.5 -66t61.5 -133v-10
q0 -268 -526 -268h-53q-136 0 -236.5 18.5t-155 45t-86.5 65t-40.5 70t-8.5 69.5v10q0 81 61.5 133t153.5 66q-83 13 -138.5 60.5t-55.5 121.5v8q0 33 7 60t36.5 62.5t81 59.5t149.5 41t232 17h53zM2236 627q0 -36 33 -56t133 -20q51 0 85.5 6t50.5 17.5t22 23.5t6 29v2
q0 71 -164 71q-70 0 -109 -12t-48 -25.5t-9 -33.5v-2zM2220 279q0 -38 37.5 -61t144.5 -23q106 0 143.5 22.5t37.5 58.5v7q0 36 -37.5 57.5t-143.5 21.5q-108 0 -145 -21t-37 -58v-4z" />
    <glyph glyph-name="seveneighths" unicode="&#x215e;" horiz-adv-x="2889" 
d="M1155 1524v-217q-101 -133 -174 -246q-79 -120 -101 -204t-22 -204v-6h-405v105q0 95 43 169.5t163 184.5q20 19 45.5 43t40.5 38t32.5 30.5t26.5 26.5l18 20t12.5 16.5t3.5 11.5h-373v-162h-350v394h1040zM2249 1524l-1458 -1524h-373l1460 1524h371zM2257 893
q134 0 232 -17t149.5 -41t81 -59.5t36.5 -62.5t7 -60v-8q0 -74 -56.5 -121.5t-138.5 -60.5q92 -14 153.5 -66t61.5 -133v-10q0 -268 -526 -268h-53q-136 0 -236.5 18.5t-155 45t-86.5 65t-40.5 70t-8.5 69.5v10q0 81 61.5 133t153.5 66q-83 13 -138.5 60.5t-55.5 121.5v8
q0 33 7 60t36.5 62.5t81 59.5t149.5 41t232 17h53zM2064 627q0 -36 33 -56t133 -20q51 0 85.5 6t50.5 17.5t22 23.5t6 29v2q0 71 -164 71q-70 0 -109 -12t-48 -25.5t-9 -33.5v-2zM2048 279q0 -38 37.5 -61t144.5 -23q106 0 143 22.5t37 58.5v7q0 36 -37 57.5t-143 21.5
q-108 0 -145 -21t-37 -58v-4z" />
    <glyph glyph-name="minus" unicode="&#x2212;" horiz-adv-x="1347" 
d="M1204 809v-301h-1063v301h1063z" />
    <glyph glyph-name="uni24C5" unicode="&#x24c5;" horiz-adv-x="2236" 
d="M2124 741q0 -102 -20.5 -193t-64.5 -179t-120.5 -158t-182.5 -124t-257.5 -83t-337.5 -29h-45q-186 0 -337.5 29t-257.5 83t-182.5 124t-120.5 158t-64.5 179t-20.5 193v43q0 85 14 163t47 155.5t84.5 143t130 122t178.5 96t235 62t296 22.5h41q161 0 296 -22.5t235 -62
t178.5 -96t130 -122t84.5 -143t47 -155.5t14 -163v-43zM1135 160q168 0 299 32t214 85.5t137 130.5t75.5 160t21.5 180v26q0 105 -21.5 190t-74.5 161.5t-136.5 127.5t-214 81t-300.5 30h-33q-170 0 -300.5 -30t-214.5 -81.5t-137.5 -127t-75.5 -161t-22 -190.5v-26
q0 -97 22 -180t75.5 -160t137 -130.5t215 -85.5t300.5 -32h33zM987 571v-239h-340v866h641q110 0 188 -22t122 -64.5t63.5 -96t19.5 -124.5v-12q0 -71 -19.5 -125t-63.5 -96.5t-122 -64.5t-188 -22h-301zM987 791h225q121 0 121 92v6q0 90 -121 90h-225v-188z" />
    <glyph glyph-name="cent.tab" unicode="&#xe459;" 
d="M858 -195v166q-127 3 -232.5 26t-177.5 58.5t-127.5 84.5t-87.5 99.5t-52 110t-27 109t-7 102.5l-2 29q0 51 7.5 100.5t28.5 107.5t54 108t88.5 98.5t128 83t176.5 57.5t230 26v164h189v-164q127 -3 231 -23t174.5 -49.5t124 -70.5t84 -82t49.5 -87.5t25 -83.5t6 -75v-2
h-477q-2 16 -7 31t-20 37.5t-36.5 40.5t-61.5 34.5t-92 24.5v-585q65 9 110.5 32.5t66.5 54t29 51.5t11 44h477q0 -40 -5.5 -78.5t-24 -88t-48.5 -91.5t-83.5 -85t-124 -73.5t-175.5 -51.5t-233 -24v-166h-189zM623 580q0 -259 235 -299v585q-235 -32 -235 -284v-2z" />
    <glyph glyph-name="J.alt" unicode="&#xe489;" horiz-adv-x="1228" 
d="M98 397h250q122 0 167.5 55.5t45.5 196.5v875h490v-985q0 -280 -119.5 -409.5t-386.5 -129.5h-447v397z" />
    <glyph glyph-name="a.alt" unicode="&#xe4c0;" horiz-adv-x="1632" 
d="M735 246q74 0 132 21t90.5 54.5t48.5 70t16 71.5v72q-92 -24 -229 -46q-137 -24 -184.5 -50t-47.5 -79v-4q0 -50 43 -80t131 -30zM1034 152q-156 -175 -442 -175h-33q-227 0 -344 102t-117 263v8q0 107 47 176t163 112.5t313 59.5l317 25q46 4 65 20t19 48v2
q0 22 -7 37.5t-27.5 31t-65.5 23.5t-113 8h-6q-209 0 -209 -115h-467v2q0 33 4.5 63.5t20.5 71t42.5 74t75.5 67.5t115 57.5t164.5 38.5t220.5 15h66q124 0 223 -13.5t165 -34.5t114.5 -54t74.5 -64.5t41 -74t19 -75t4 -73.5v-393q0 -153 10 -235.5t33 -149.5h-451
q-32 71 -35 152z" />
    <glyph glyph-name="r.alt" unicode="&#xe4d1;" horiz-adv-x="1161" 
d="M160 1141h461v-232q31 53 65.5 93.5t88 80t129.5 61t171 21.5h8v-469q-42 11 -155 11q-157 0 -230 -53.5t-73 -161.5v-492h-465v1141z" />
    <glyph glyph-name="idotaccent" horiz-adv-x="784" 
d="M627 1255h-469v299h469v-299zM625 0h-465v1141h465v-1141z" />
    <glyph glyph-name="space_uni0326" horiz-adv-x="1386" 
d="M598 -586q51 84 64 172h-218v297h500v-229q0 -61 -24.5 -127.5t-57.5 -112.5h-264z" />
    <glyph glyph-name="zero.num" horiz-adv-x="1374" 
d="M711 1540q103 0 187 -16.5t140.5 -43.5t99.5 -65.5t67 -77t39 -83.5t19.5 -80t4.5 -72v-31q0 -38 -4.5 -73t-19 -80.5t-38.5 -84t-67 -76.5t-99.5 -64.5t-141 -43t-187.5 -16.5h-45q-100 0 -183 16.5t-139.5 43t-100.5 64.5t-69 77t-41 83.5t-21.5 80.5t-5.5 73v29
q0 37 5.5 73.5t21.5 81t41 83.5t69 77t100.5 65t139.5 43.5t183 16.5h45zM893 1096q0 27 -5 52t-19 51.5t-36.5 46t-60 32t-86.5 12.5q-58 0 -100 -18t-63.5 -48.5t-30.5 -62t-9 -65.5v-11q0 -25 5.5 -50t19.5 -52.5t36 -48t59 -34t83 -13.5q48 0 85.5 13.5t59.5 34t36.5 48
t20 52.5t5.5 50v11z" />
    <glyph glyph-name="one.num" horiz-adv-x="847" 
d="M90 1128v232q110 0 175 20t93 53t48 93h282v-879h-358v481h-240z" />
    <glyph glyph-name="two.num" horiz-adv-x="1277" 
d="M102 647v125q0 51 8 89.5t38.5 86.5t85 85t154.5 75t239 66q103 20 136.5 36.5t33.5 46.5q0 32 -32 48t-120 16q-92 0 -128 -30.5t-36 -65.5h-364v8q0 307 504 307h45q124 0 215.5 -15t146.5 -39t87.5 -61t44 -75.5t11.5 -87.5v-9q0 -125 -110 -184.5t-369 -93.5
q-111 -16 -172.5 -29.5t-82.5 -24.5t-21 -24h758v-250h-1072z" />
    <glyph glyph-name="three.num" horiz-adv-x="1304" 
d="M604 633q-96 0 -174.5 12.5t-131 32t-92.5 48t-61.5 56t-35 60t-17.5 56.5t-4 48v10h369q3 -11 3.5 -12.5t6.5 -15t12 -19t20.5 -16t32.5 -15.5t46 -9.5t63 -4.5q182 0 182 78v4q0 60 -98 60h-236v200h232q52 0 71 13.5t19 37.5v3q0 18 -10.5 31t-52 23.5t-113.5 10.5
q-46 0 -80.5 -6.5t-52 -15t-28 -20t-13 -18.5t-2.5 -14h-361v13q0 22 3.5 43t16 50t33 53t59 49t89.5 42t128 28t171 11h61q97 0 175 -8t130.5 -20.5t91.5 -32t60.5 -38.5t34.5 -43.5t16.5 -44t3.5 -42.5v-6q0 -59 -43 -100.5t-116 -53.5q84 -15 138 -67.5t54 -141.5v-6
q0 -39 -8.5 -72t-29 -69t-60 -64t-96.5 -50.5t-145 -35t-199 -12.5h-62z" />
    <glyph glyph-name="four.num" horiz-adv-x="1273" 
d="M88 1016l82 80l178 174l258 256h406v-479h176v-236h-176v-164h-355v164h-569v205zM393 1047h264v264z" />
    <glyph glyph-name="five.num" horiz-adv-x="1273" 
d="M614 633q-93 0 -168.5 10.5t-125 27.5t-87 41t-57.5 47.5t-32 52t-15.5 49t-3.5 42.5v2h367q0 -3 3 -8.5t13.5 -13.5t26.5 -14.5t46.5 -11.5t69.5 -5q156 0 156 92v6q0 90 -158 90q-61 0 -99.5 -12.5t-48 -23t-9.5 -17.5h-351v537h975v-219h-624v-146q12 12 40 26.5
t93.5 29t144.5 14.5h10q115 0 195.5 -21t123 -60t60 -85t17.5 -105v-8q0 -317 -486 -317h-76z" />
    <glyph glyph-name="six.num" horiz-adv-x="1333" 
d="M649 633q-134 0 -235.5 29.5t-158 74t-92 106t-46.5 115.5t-11 113v29q0 40 5.5 78t21 83t40.5 83.5t66.5 75.5t95.5 63t132 41.5t172 15.5h57q124 0 218 -18.5t146.5 -46t85 -66t42.5 -72t10 -69.5v-4h-354q-6 8 -9 11.5t-16.5 14t-30 16t-48 10.5t-70.5 5
q-49 0 -86.5 -12.5t-59.5 -31t-35.5 -44t-18.5 -48.5t-5 -48v-4q105 73 315 73h11q110 0 191.5 -14.5t129.5 -38t77.5 -58.5t39.5 -70.5t10 -80.5v-10q0 -301 -522 -301h-68zM494 936q0 -39 40 -62.5t150 -23.5q108 0 147 23.5t39 62.5v2q0 84 -186 84q-58 0 -97.5 -7
t-58.5 -19.5t-26.5 -26t-7.5 -31.5v-2z" />
    <glyph glyph-name="seven.num" horiz-adv-x="1251" 
d="M1155 1524v-217q-101 -133 -174 -246q-79 -120 -101 -204t-22 -204v-6h-405v105q0 95 43 169.5t163 184.5q20 19 45.5 43t40.5 38t32.5 30.5t26.5 26.5l18 20t12.5 16.5t3.5 11.5h-373v-162h-350v394h1040z" />
    <glyph glyph-name="eight.num" horiz-adv-x="1316" 
d="M686 1540q134 0 232 -17t149.5 -41t81 -59.5t36.5 -62.5t7 -60v-8q0 -74 -56.5 -121.5t-138.5 -60.5q92 -14 153.5 -66t61.5 -133v-10q0 -268 -526 -268h-53q-136 0 -236.5 18.5t-155 45t-86.5 65t-40.5 70t-8.5 69.5v10q0 80 62 132.5t154 66.5q-84 13 -139.5 60.5
t-55.5 121.5v8q0 33 7 60t36.5 62.5t81 59.5t149.5 41t232 17h53zM494 1274q0 -36 32.5 -56t132.5 -20q51 0 85.5 6t50.5 17.5t22 23.5t6 29v2q0 72 -164 72q-53 0 -88.5 -6t-51 -18t-20.5 -22.5t-5 -25.5v-2zM477 926q0 -38 37.5 -61t144.5 -23q181 0 181 82v6
q0 36 -37.5 58t-143.5 22q-108 0 -145 -21.5t-37 -58.5v-4z" />
    <glyph glyph-name="nine.num" horiz-adv-x="1333" 
d="M838 1235q0 86 -187 86q-108 0 -147 -23.5t-39 -62.5v-2q0 -37 39 -59.5t147 -22.5q187 0 187 82v2zM641 633q-126 0 -221 19.5t-147.5 48t-85.5 68t-42.5 72t-9.5 66.5v4h357q34 -55 172 -55q60 0 102 17t62.5 45t29 56t8.5 60v6q-58 -35 -115 -49q-80 -20 -190 -20h-12
q-109 0 -191 14.5t-131.5 38t-80 59t-41.5 72.5t-11 82v10q0 293 516 293h70q132 0 233 -28t159 -71t94.5 -102.5t48.5 -114t12 -114.5v-29q0 -58 -11 -112.5t-45.5 -118t-90 -109.5t-154 -77t-228.5 -31h-57z" />
    <glyph glyph-name="zero.den" horiz-adv-x="1374" 
d="M711 893q103 0 187 -16.5t140.5 -43.5t99.5 -65.5t67 -77t39 -83.5t19.5 -80t4.5 -72v-31q0 -38 -4.5 -73t-19 -80.5t-38.5 -84t-67 -76.5t-99.5 -64.5t-141 -43t-187.5 -16.5h-45q-100 0 -183 16.5t-139.5 43t-100.5 64.5t-69 77t-41 83.5t-21.5 80.5t-5.5 73v29
q0 37 5.5 73.5t21.5 81t41 83.5t69 77t100.5 65t139.5 43.5t183 16.5h45zM893 449q0 27 -5 52t-19 51.5t-36.5 46t-60 32t-86.5 12.5q-58 0 -100 -18t-63.5 -48.5t-30.5 -62t-9 -65.5v-11q0 -25 5.5 -50t19.5 -52.5t36 -48t59 -34t83 -13.5q48 0 85.5 13.5t59.5 34t36.5 48
t20 52.5t5.5 50v11z" />
    <glyph glyph-name="one.den" horiz-adv-x="847" 
d="M90 481v232q110 0 175 20t93 53t48 93h282v-879h-358v481h-240z" />
    <glyph glyph-name="two.den" horiz-adv-x="1277" 
d="M102 0v125q0 36 3.5 64t16.5 62.5t35 62.5t61.5 59t94 56.5t134.5 51t180 45.5q102 20 136 37t34 47q0 32 -32 48t-120 16q-92 0 -128 -30.5t-36 -65.5h-364v8q0 307 504 307h45q124 0 215.5 -15t146.5 -39t87.5 -61.5t44 -75.5t11.5 -88v-8q0 -125 -110 -184.5
t-369 -93.5q-111 -16 -172.5 -29.5t-82.5 -24.5t-21 -24h758v-250h-1072z" />
    <glyph glyph-name="three.den" horiz-adv-x="1304" 
d="M604 -14q-96 0 -174.5 12.5t-131 32t-92.5 48t-61.5 56t-35 60t-17.5 56.5t-4 48v10h369q3 -11 3.5 -12.5t6.5 -15t12 -19t20.5 -16t32.5 -15.5t46 -9.5t63 -4.5q182 0 182 78v4q0 59 -98 59h-236v201h232q52 0 71 13.5t19 37.5v2q0 18 -10.5 31t-52 24t-113.5 11
q-46 0 -80.5 -6.5t-52 -15t-28 -20t-13 -18.5t-2.5 -14h-361v12q0 33 7.5 63.5t37.5 71.5t80.5 70.5t147.5 50.5t227 21h61q97 0 175 -8t130.5 -20.5t91.5 -32t60.5 -38.5t34.5 -43.5t16.5 -44t3.5 -42.5v-7q0 -59 -43 -100t-116 -53q84 -15 138 -67.5t54 -141.5v-6
q0 -39 -8.5 -72t-29 -69t-60 -64t-96.5 -50.5t-145 -35t-199 -12.5h-62z" />
    <glyph glyph-name="four.den" horiz-adv-x="1273" 
d="M88 369l82 80l178 174l258 256h406v-480h176v-235h-176v-164h-355v164h-569v205zM393 399h264v265z" />
    <glyph glyph-name="five.den" horiz-adv-x="1273" 
d="M614 -14q-93 0 -168.5 10.5t-125 27.5t-87 41t-57.5 47.5t-32 52t-15.5 49t-3.5 42.5v2h367q0 -3 3 -8.5t13.5 -13.5t26.5 -14.5t46.5 -11.5t69.5 -5q156 0 156 92v6q0 90 -158 90q-61 0 -99.5 -12.5t-48 -23t-9.5 -17.5h-351v537h975v-220h-624v-145q12 12 40 26.5
t93.5 29t144.5 14.5h10q115 0 195.5 -21t123 -60t60 -85t17.5 -105v-8q0 -317 -486 -317h-76z" />
    <glyph glyph-name="six.den" horiz-adv-x="1333" 
d="M649 -14q-134 0 -235.5 29.5t-158 74t-92 106t-46.5 115.5t-11 113v29q0 40 5.5 78t21 83t40.5 83.5t66.5 75.5t95.5 63t132 41.5t172 15.5h57q124 0 218 -18.5t146.5 -46t85 -66t42.5 -72t10 -69.5v-5h-354q-6 8 -8.5 11.5t-16.5 14.5t-30.5 16.5t-48 10.5t-70.5 5
q-60 0 -103 -18t-64 -47.5t-29.5 -58.5t-8.5 -61v-4q106 74 315 74h11q110 0 191.5 -14.5t129.5 -38t77.5 -58.5t39.5 -70.5t10 -80.5v-10q0 -301 -522 -301h-68zM494 289q0 -39 40 -62.5t150 -23.5q108 0 147 23.5t39 62.5v2q0 84 -186 84q-58 0 -97.5 -7t-58.5 -19.5
t-26.5 -26t-7.5 -31.5v-2z" />
    <glyph glyph-name="seven.den" horiz-adv-x="1251" 
d="M1155 877v-218q-105 -139 -174 -245q-79 -120 -101 -204t-22 -204v-6h-405v104q0 96 43 170.5t163 184.5q20 19 45.5 43t40.5 38t32.5 30.5t26.5 26.5l18 20t12.5 16.5t3.5 11.5h-373v-162h-350v394h1040z" />
    <glyph glyph-name="eight.den" horiz-adv-x="1316" 
d="M686 893q134 0 232 -17t149.5 -41t81 -59.5t36.5 -62.5t7 -60v-8q0 -74 -56.5 -121.5t-138.5 -60.5q92 -14 153.5 -66t61.5 -133v-10q0 -268 -526 -268h-53q-136 0 -236.5 18.5t-155 45t-86.5 65t-40.5 70t-8.5 69.5v10q0 80 62 132.5t154 66.5q-84 13 -139.5 60.5
t-55.5 121.5v8q0 33 7 60t36.5 62.5t81 59.5t149.5 41t232 17h53zM494 627q0 -36 32.5 -56t132.5 -20q51 0 85.5 6t50.5 17.5t22 23.5t6 29v2q0 71 -164 71q-53 0 -88.5 -6t-51 -17.5t-20.5 -22t-5 -25.5v-2zM477 279q0 -38 37.5 -61t144.5 -23q106 0 143.5 22.5t37.5 58.5
v7q0 36 -37.5 57.5t-143.5 21.5q-108 0 -145 -21t-37 -58v-4z" />
    <glyph glyph-name="nine.den" horiz-adv-x="1333" 
d="M838 588q0 86 -187 86q-108 0 -147 -23.5t-39 -62.5v-2q0 -37 39 -59.5t147 -22.5q187 0 187 82v2zM641 -14q-126 0 -221 19.5t-147.5 48t-85.5 68t-42.5 72t-9.5 66.5v4h357q34 -55 172 -55q60 0 102 17t62.5 45t29 56t8.5 60v6q-58 -35 -115 -49q-80 -20 -190 -20h-12
q-109 0 -191 14.5t-131.5 38t-80 59t-41.5 72.5t-11 82v10q0 293 516 293h70q132 0 233 -28t159 -71t94.5 -102.5t48.5 -114t12 -114.5v-29q0 -58 -11 -112.5t-45.5 -118t-90 -109.5t-154 -77t-228.5 -31h-57z" />
    <glyph glyph-name="zero.sub" horiz-adv-x="1511" 
d="M782 653q114 0 207 -18.5t155 -47.5t109.5 -71.5t73.5 -84.5t42 -92t21 -89t5 -80v-31q0 -42 -5 -81t-21 -89t-42.5 -92.5t-73.5 -85t-109.5 -71.5t-156 -47.5t-207.5 -18.5h-51q-110 0 -201 18t-153 48t-110 72t-75 84.5t-44.5 92t-23 89.5t-5.5 81v31q0 40 5.5 80
t23 89t44.5 92t75 84.5t110 71.5t153 48t201 18h53zM756 -72q67 0 114.5 21t71 56t33.5 70.5t10 74.5v12q0 39 -10 74t-33.5 69t-71 54t-114.5 20h-2q-66 0 -113.5 -20t-71 -54t-33.5 -69t-10 -74v-12q0 -30 5.5 -58.5t21.5 -59t40.5 -53t66 -37t94.5 -14.5h2z" />
    <glyph glyph-name="one.sub" horiz-adv-x="929" 
d="M760 639v-969h-393v531h-267v256q93 0 154 10.5t99.5 35t59 55.5t38.5 81h309z" />
    <glyph glyph-name="two.sub" horiz-adv-x="1400" 
d="M113 -330v137q0 39 4 70.5t18.5 70.5t39 70.5t67.5 66.5t102.5 63.5t147 56t196.5 49.5q118 25 154.5 42.5t36.5 49.5q0 35 -36 54.5t-132 19.5q-59 0 -100 -11.5t-59 -30.5t-25 -35t-7 -32h-395v8q0 336 555 336h49q138 0 239.5 -16.5t161.5 -43.5t96 -68t48 -83t12 -96
v-10q0 -132 -116.5 -198t-409.5 -103q-117 -16 -187 -31.5t-95.5 -28.5t-28.5 -28h839v-279h-1175z" />
    <glyph glyph-name="three.sub" horiz-adv-x="1435" 
d="M666 -346q-106 0 -192.5 13.5t-144.5 35.5t-102 53t-68 61.5t-39 66.5t-19.5 62.5t-4.5 53.5v12h406q0 -14 6.5 -28.5t25 -33t63 -30.5t108.5 -12q65 0 108 7.5t62.5 21.5t26.5 27.5t7 31.5v2q0 31 -22 48t-84 17h-266v224h262q57 0 77.5 15t20.5 42v2q0 15 -7 26.5
t-26 22.5t-61 17t-105 6q-52 0 -90 -7t-56.5 -15.5t-31 -22.5t-14.5 -20.5t-4 -16.5h-393v14q0 25 4 48t17.5 54.5t36.5 58t65 54t98 46t140.5 30.5t188.5 12h66q107 0 193 -8.5t144 -22.5t101 -35t67 -42t38 -48t18 -48.5t4 -47.5v-6q0 -66 -48.5 -111t-129.5 -59
q96 -14 155.5 -73t59.5 -154v-6q0 -54 -12.5 -98.5t-51 -91t-102 -77.5t-173 -51t-255.5 -20h-67z" />
    <glyph glyph-name="four.sub" horiz-adv-x="1402" 
d="M98 74l574 565h442v-533h195v-258h-195v-178h-385v178h-631v226zM432 106h297v295z" />
    <glyph glyph-name="five.sub" horiz-adv-x="1398" 
d="M672 -344q-101 0 -183.5 11.5t-137.5 30t-96.5 45t-64 52.5t-36 56.5t-17.5 53.5t-4 48v4h397q17 -59 185 -59q176 0 176 100v6q0 102 -180 102q-149 -1 -181 -61h-378v592h1073v-242h-695v-159q108 75 316 75h10q102 0 179 -15.5t125 -41.5t77.5 -64.5t41 -80
t11.5 -93.5v-12q0 -348 -534 -348h-84z" />
    <glyph glyph-name="six.sub" horiz-adv-x="1464" 
d="M711 -348q-105 0 -192.5 17t-148 45t-106.5 68t-73.5 82.5t-44.5 92.5t-23 93t-6 89v31q0 63 12.5 122t51 127t100 117t170 82t251.5 33h62q137 0 241 -20t162 -50t94 -72t47 -79t11 -78v-4h-391q-5 8 -8.5 13t-18 15.5t-33 16.5t-53 11.5t-78.5 5.5q-67 0 -115 -19
t-71.5 -50.5t-33 -63t-9.5 -66.5v-6q18 11 25.5 15.5t41.5 19t67 22t91 14.5t125 7h12q121 0 210.5 -15.5t142 -40.5t84.5 -63.5t42.5 -77.5t10.5 -90v-10q0 -334 -572 -334h-77zM539 -12q0 -97 213 -97q63 0 106 8t63.5 23t28.5 30.5t8 35.5v2q0 92 -206 92
q-123 0 -168 -25t-45 -67v-2z" />
    <glyph glyph-name="seven.sub" horiz-adv-x="1378" 
d="M1274 637v-242q-125 -163 -197 -270q-88 -137 -111.5 -224.5t-23.5 -222.5v-8h-442v115q0 102 45.5 180.5t177.5 210.5q28 27 67 64t56.5 54t37.5 37.5t27 31.5t7 18h-414v-184h-379v440h1149z" />
    <glyph glyph-name="eight.sub" horiz-adv-x="1447" 
d="M754 653q107 0 193 -9.5t143 -24.5t99.5 -38t65 -45t36 -50t17 -49t3.5 -46v-10q0 -80 -62 -134t-153 -67q102 -19 169.5 -75t67.5 -144v-14q0 -293 -579 -293h-58q-581 0 -581 293v14q0 86 68.5 143t170.5 76q-91 13 -153 67t-62 134v10q0 25 3.5 46t17 49t36 50t65 45
t99.5 38t143 24.5t193 9.5h58zM539 360q0 -18 6.5 -31t24.5 -26t57 -20t98 -7t97.5 7t56.5 20t24 26t6 31v2q0 37 -36.5 58.5t-147.5 21.5q-77 0 -120.5 -13t-54.5 -28.5t-11 -38.5v-2zM520 -23q0 -19 7.5 -34t27.5 -29.5t63 -22.5t107 -8q205 0 205 92v7q0 26 -14 43.5
t-61.5 31t-129.5 13.5q-65 0 -108 -7t-63 -20.5t-27 -27.5t-7 -33v-5z" />
    <glyph glyph-name="nine.sub" horiz-adv-x="1464" 
d="M924 315q0 97 -209 97q-84 0 -133 -15.5t-62.5 -35t-13.5 -46.5v-2q0 -92 209 -92t209 92v2zM705 -348q-138 0 -243 21.5t-163.5 52.5t-95 74t-47.5 79t-11 74v2h392q3 -8 11.5 -16.5t28 -19.5t58.5 -18t92 -7q67 0 115 19t71.5 51t33 63.5t9.5 66.5v6q-1 0 -13.5 -7.5
t-20 -11.5t-26.5 -12.5t-35.5 -13.5t-44 -11.5t-56 -10.5t-66.5 -7t-80 -3h-12q-119 0 -209 16t-144.5 42t-88 65.5t-46 80t-12.5 90.5v13q0 321 568 321h75q106 0 193.5 -15.5t149 -42t108.5 -64.5t75.5 -78.5t46 -89t24 -92.5t6.5 -91v-31q0 -45 -5.5 -87.5t-22.5 -93.5
t-43.5 -94t-72 -84.5t-104.5 -71t-144.5 -47t-189.5 -17.5h-61z" />
    <glyph glyph-name="zero.sup" horiz-adv-x="1511" 
d="M782 1567q114 0 207 -18.5t155 -48t109.5 -71.5t73.5 -84.5t42 -92.5t21 -89t5 -80v-30q0 -42 -5 -81t-21 -89.5t-42.5 -92.5t-73.5 -84.5t-109.5 -72t-156 -48t-207.5 -18.5h-51q-110 0 -201 18.5t-153 48t-110 71.5t-75 85t-44.5 92.5t-23 89.5t-5.5 81v30q0 40 5.5 80
t23 89t44.5 92t75 85t110 71.5t153 48t201 18.5h53zM756 842q67 0 114.5 21t71 56t33.5 70t10 74v12q0 39 -10 74t-33.5 69t-71 54t-114.5 20h-2q-66 0 -113.5 -20t-71 -54t-33.5 -69t-10 -74v-12q0 -39 10 -74t33.5 -70t71 -56t113.5 -21h2z" />
    <glyph glyph-name="one.sup" horiz-adv-x="929" 
d="M760 1552v-968h-393v530h-267v256q93 0 154 10.5t99.5 35t59 55.5t38.5 81h309z" />
    <glyph glyph-name="two.sup" horiz-adv-x="1400" 
d="M113 584v137q0 39 4 70.5t18.5 70.5t39 70.5t67.5 66t102.5 63t147 56t196.5 49.5q117 25 154 43t37 50q0 35 -36 54t-132 19q-59 0 -100 -11.5t-59 -30t-25 -34.5t-7 -32h-395v8q0 336 555 336h49q138 0 239.5 -16.5t161.5 -43.5t96 -68t48 -83t12 -96v-11
q0 -132 -116.5 -198t-409.5 -103q-117 -16 -187 -31.5t-95.5 -28.5t-28.5 -28h839v-278h-1175z" />
    <glyph glyph-name="three.sup" horiz-adv-x="1435" 
d="M666 567q-106 0 -192.5 13.5t-144.5 35.5t-102 53t-68 61.5t-39 66.5t-19.5 62.5t-4.5 53.5v13h406q0 -14 6.5 -28.5t25 -33.5t63 -31t108.5 -12q65 0 108 7.5t62.5 21.5t26.5 27.5t7 31.5v2q0 31 -22 48.5t-84 17.5h-266v223h262q57 0 77.5 15t20.5 42v3q0 15 -7 26
t-26 22t-61 17t-105 6q-52 0 -90 -7t-56.5 -15.5t-31 -22.5t-14.5 -20.5t-4 -16.5h-393v15q0 25 4 48t17.5 54.5t36.5 58t65 54t98 46t140.5 30.5t188.5 12h66q107 0 193 -8.5t144 -22.5t101 -35t67 -42t38 -48t18 -48.5t4 -47.5v-6q0 -66 -48.5 -111t-129.5 -59
q96 -14 155.5 -73.5t59.5 -154.5v-6q0 -54 -12.5 -98.5t-51 -91t-102 -77.5t-173 -51t-255.5 -20h-67z" />
    <glyph glyph-name="four.sup" horiz-adv-x="1402" 
d="M98 987l574 565h442v-532h195v-258h-195v-178h-385v178h-631v225zM432 1020h297v295z" />
    <glyph glyph-name="five.sup" horiz-adv-x="1398" 
d="M672 569q-101 0 -183.5 11.5t-137.5 30t-96.5 45t-64 52.5t-36 56.5t-17.5 53.5t-4 48v4h397q17 -59 185 -59q176 0 176 100v7q0 102 -180 102q-148 0 -180 -60q-1 -1 -1 -2h-378v592h1073v-241h-695v-160q109 76 316 76h10q102 0 179 -15.5t125 -41.5t77.5 -64.5t41 -80
t11.5 -93.5v-12q0 -349 -534 -349h-84z" />
    <glyph glyph-name="six.sup" horiz-adv-x="1464" 
d="M711 565q-105 0 -192.5 17t-148 45t-106.5 68.5t-73.5 82.5t-44.5 92t-23 93.5t-6 89.5v30q0 44 6 85.5t23 91t44 91.5t73 82.5t105 69t145 45.5t189 17h62q137 0 241 -20t162 -50t94 -72t47 -79t11 -78v-4h-391q-38 61 -191 61q-67 0 -115 -19t-71.5 -50.5t-33 -63
t-9.5 -66.5v-6q18 11 25.5 15.5t41.5 19t67 22t91 14.5t125 7h12q121 0 210.5 -15.5t142 -40.5t84.5 -63.5t42.5 -77.5t10.5 -90v-10q0 -334 -572 -334h-77zM539 901q0 -96 213 -96q120 0 163 26.5t43 69.5v2q0 92 -206 92q-123 0 -168 -25t-45 -67v-2z" />
    <glyph glyph-name="seven.sup" horiz-adv-x="1378" 
d="M1274 1550v-241q-120 -156 -197 -271q-89 -137 -112 -224t-23 -222v-8h-442v114q0 102 45.5 181t177.5 211q29 28 67 64t56.5 53.5t38 37.5t26.5 31t7 18h-414v-184h-379v440h1149z" />
    <glyph glyph-name="eight.sup" horiz-adv-x="1447" 
d="M754 1567q107 0 193 -9.5t143 -24.5t99.5 -38t65 -45t36 -50t17 -49t3.5 -46v-11q0 -80 -62 -133.5t-153 -66.5q102 -19 169.5 -75.5t67.5 -144.5v-14q0 -293 -579 -293h-58q-581 0 -581 293v14q0 86 68.5 143.5t170.5 76.5q-91 13 -153 66.5t-62 133.5v11q0 25 3.5 46
t17 49t36 50t65 45t99.5 38t143 24.5t193 9.5h58zM539 1274q0 -18 6.5 -31t24.5 -26t57 -20t98 -7t97.5 7t56.5 20t24 26t6 31v2q0 37 -36.5 58.5t-147.5 21.5q-77 0 -120.5 -13t-54.5 -28.5t-11 -38.5v-2zM520 891q0 -19 7.5 -34t27.5 -29.5t63 -22.5t107 -8q205 0 205 92
v6q0 26 -14 43.5t-61.5 31t-129.5 13.5q-65 0 -108 -7t-63 -20.5t-27 -27.5t-7 -33v-4z" />
    <glyph glyph-name="nine.sup" horiz-adv-x="1464" 
d="M924 1229q0 96 -209 96q-52 0 -90.5 -5.5t-61 -14.5t-35.5 -22t-17.5 -25.5t-4.5 -28.5v-2q0 -92 209 -92t209 92v2zM705 565q-138 0 -243 21.5t-163.5 52.5t-95 74t-47.5 79t-11 74v2h392q3 -8 11.5 -16.5t28 -19.5t58.5 -18t92 -7q67 0 115 19t71.5 51.5t33 64
t9.5 66.5v6q-1 -1 -13 -8t-20 -11t-26.5 -12.5t-35.5 -14t-44.5 -12t-56 -10.5t-66.5 -7t-80 -3h-12q-119 0 -209 16t-144.5 42.5t-88 65.5t-46 80t-12.5 91v12q0 322 568 322h75q106 0 193.5 -15.5t149 -42t108.5 -64.5t75.5 -78.5t46 -89t24 -92.5t6.5 -91v-31
q0 -45 -5.5 -87.5t-22.5 -93.5t-43.5 -94.5t-72 -85t-104.5 -70.5t-144.5 -47t-189.5 -18h-61z" />
    <glyph glyph-name="space.tab" horiz-adv-x="942" 
 />
    <glyph glyph-name="comma.tab" horiz-adv-x="942" 
d="M315 -305q43 71 79.5 155.5t49.5 149.5h-239v428h528v-330q0 -186 -121 -403h-297z" />
    <glyph glyph-name="period.tab" horiz-adv-x="942" 
d="M733 0h-528v428h528v-428z" />
    <glyph glyph-name="colon.tab" horiz-adv-x="942" 
d="M733 0h-528v428h528v-428zM733 678h-528v428h528v-428z" />
    <glyph glyph-name="semicolon.tab" horiz-adv-x="942" 
d="M315 -305q43 71 79.5 155.5t49.5 149.5h-239v428h528v-330q0 -186 -121 -403h-297zM733 678h-528v428h528v-428z" />
    <glyph glyph-name="zero.lintab" 
d="M981 1548q136 0 250.5 -27t194.5 -72t142.5 -108t100.5 -129.5t62.5 -142t33.5 -141.5t9 -131v-62q0 -65 -9 -130.5t-34 -142t-63 -144t-100.5 -131.5t-142.5 -110t-194 -74t-250 -28h-76q-132 0 -244.5 27.5t-192.5 74t-143.5 110t-102.5 132t-65 144t-36 142t-10 130.5
v62q0 65 10 132t36 142t65 142t102.5 129.5t143.5 107t192.5 71.5t244.5 27h76zM1278 784q0 49 -8.5 98t-32 102t-59.5 93t-97 66t-139 26q-80 0 -142 -26t-97.5 -65.5t-57.5 -93.5t-29.5 -101.5t-7.5 -98.5v-24q0 -51 8.5 -100.5t32 -104t60 -95t97.5 -67t138 -26.5
t138 26.5t97 67t59 95t31.5 104t8.5 100.5v24z" />
    <glyph glyph-name="one.lintab" 
d="M238 0v358h542v615h-434v319q184 0 289 21.5t163.5 70t94.5 140.5h373v-1166h512v-358h-1540z" />
    <glyph glyph-name="two.lintab" 
d="M127 0v260q0 52 5 93t20.5 90.5t43 89.5t76 84.5t115 82.5t163 77t218.5 73l242 63q135 32 182 65t47 83v2q0 44 -21 72t-83 45.5t-170 17.5q-76 0 -133.5 -16t-87.5 -38.5t-49.5 -55t-25 -56t-7.5 -51.5h-510v14q0 51 7.5 98.5t29 104t56.5 104t94 93.5t136.5 78
t189.5 51.5t248 19.5h88q172 0 303 -23.5t215.5 -64.5t137.5 -102.5t74.5 -131.5t21.5 -157v-16q0 -202 -141.5 -305t-472.5 -158q-198 -36 -283 -56q-97 -21 -161.5 -41t-95 -38t-41.5 -32.5t-11 -31.5h1239v-387h-1659z" />
    <glyph glyph-name="three.lintab" 
d="M874 -23q-141 0 -257.5 20.5t-196.5 53t-142 79t-97.5 93.5t-58.5 100.5t-30.5 97t-7.5 85.5v22h508q20 -182 334 -182q106 0 177.5 13t106 37t47.5 49t13 57v2q0 62 -38.5 91.5t-148.5 29.5h-456v327h454q98 0 133 28t35 81v2q0 31 -11 51.5t-43.5 40.5t-101 29.5
t-173.5 9.5q-82 0 -143 -11.5t-93 -26.5t-52 -38t-25 -38t-7 -33h-496v24q0 37 6.5 74t26.5 85t52.5 90.5t91 84.5t134.5 72t189 48.5t250 18.5h104q775 0 775 -389v-14q0 -215 -240 -279q58 -13 107.5 -38.5t91.5 -67t66 -104.5t24 -142v-14q0 -55 -9 -104.5t-34 -103
t-64 -97.5t-103.5 -85t-149 -68.5t-203.5 -44t-263 -16.5h-82z" />
    <glyph glyph-name="four.lintab" 
d="M106 606l799 928h611v-868h290v-357h-290v-309h-484v309h-926v297zM1032 1227l-477 -561h477v561z" />
    <glyph glyph-name="five.lintab" 
d="M932 -23q-139 0 -254.5 18t-194.5 47.5t-140 70.5t-96 82t-57.5 87.5t-30 83t-7.5 70.5v27h512q4 -14 12.5 -27.5t31 -31t54.5 -30t87 -21.5t124 -9q319 0 319 174v12q0 81 -73.5 120.5t-245.5 39.5q-83 0 -145.5 -10.5t-95.5 -28t-49.5 -33.5t-20.5 -32h-486v938h1501
v-365h-1022v-268q11 11 40 28t82 39.5t140.5 38t188.5 15.5h22q149 0 264 -26.5t186.5 -69.5t117.5 -105t64 -126.5t18 -139.5v-25q0 -54 -9 -105t-33 -106.5t-61.5 -102.5t-98 -90t-139 -73t-189.5 -48t-244 -18h-72z" />
    <glyph glyph-name="six.lintab" 
d="M926 -23q-146 0 -267 27.5t-204 72t-146.5 108.5t-100 129.5t-59.5 142.5t-30.5 140.5t-7.5 129.5v49q0 59 7.5 120t30.5 139t59.5 146.5t100 136t145.5 116t202.5 78.5t265.5 30h59q128 0 234.5 -16t182 -42.5t133.5 -65t93.5 -79.5t58 -89t31 -91t8.5 -88v-2h-483
q-3 13 -7.5 23.5t-23.5 31.5t-47 35t-82.5 25.5t-126.5 11.5q-89 0 -155 -26t-101.5 -62.5t-57 -89t-27 -93t-5.5 -85.5v-15q23 19 53 37t88.5 44t150.5 41.5t202 15.5h37q141 0 252 -22.5t184 -61.5t120.5 -95t68 -118.5t20.5 -135.5v-32q0 -49 -8.5 -96t-31 -100
t-59 -98.5t-97 -88t-138.5 -72.5t-190.5 -48t-247.5 -18h-84zM655 492q0 -32 14 -59t46 -53t96.5 -41t155.5 -15q315 0 315 165v9q0 159 -315 159q-74 0 -131 -10t-90.5 -25t-54.5 -37t-28.5 -42.5t-7.5 -44.5v-6z" />
    <glyph glyph-name="seven.lintab" 
d="M1786 1524v-340q-111 -165 -313 -484q-102 -159 -153.5 -272t-67 -197.5t-15.5 -203.5v-27h-530v111q0 192 64 322.5t261 352.5q41 47 97.5 109.5t90.5 101t68 77.5t50 61t16 30h-733v-260h-476v619h1641z" />
    <glyph glyph-name="eight.lintab" 
d="M979 1538q145 0 262 -14.5t195.5 -38t136 -58.5t89 -69.5t50.5 -78.5t24 -78t5 -75v-20q0 -120 -93.5 -202.5t-220.5 -104.5q148 -27 249.5 -116t101.5 -226v-23q0 -42 -6.5 -80.5t-27.5 -86.5t-55 -87.5t-95.5 -78.5t-143 -66t-202.5 -43.5t-269 -16.5h-74
q-799 0 -799 459v23q0 137 101.5 226t249.5 116q-61 11 -115.5 35t-100 61t-72 91.5t-26.5 119.5v20q0 39 5 73t24 77.5t50.5 78.5t89.5 70.5t136 59t195 38.5t262 15h74zM942 1217q-295 0 -295 -136v-4q0 -129 295 -129t295 129v4q0 136 -295 136zM942 633
q-328 0 -328 -146v-4q0 -161 328 -161t328 161v4q0 146 -328 146z" />
    <glyph glyph-name="nine.lintab" 
d="M1229 1028q0 30 -14 57t-47 53.5t-98 42t-155 15.5q-97 0 -164 -16t-97.5 -43t-42 -52.5t-11.5 -54.5v-8q0 -160 315 -160q92 0 157 14.5t97.5 39t46 50.5t13.5 56v6zM903 -23q-174 0 -309 31.5t-214.5 79.5t-130.5 113t-69 124.5t-18 120.5v3h483q33 -125 289 -125
q88 0 153.5 26t100.5 63t56.5 88.5t27.5 92.5t6 86v14q-27 -20 -39 -28t-60.5 -33t-95.5 -38.5t-127 -25.5t-170 -12h-36q-139 0 -250 24t-184.5 64.5t-122.5 97.5t-70 119.5t-21 132.5v33q0 51 8 98.5t30.5 100t58.5 97t95.5 85.5t137 70t188 46t244.5 17h103
q144 0 263.5 -27.5t201.5 -72.5t144.5 -109t99 -130t59.5 -143t31 -140.5t8 -128.5v-50q0 -59 -8 -120.5t-31 -139t-60 -146t-99.5 -135.5t-144 -115.5t-200 -78t-260.5 -29.5h-68z" />
    <glyph glyph-name="Euro.lintab" 
d="M1778 598q0 -86 -21.5 -168t-76 -166t-137 -146t-215.5 -101.5t-300 -39.5h-80q-142 0 -259.5 32.5t-198 86t-140.5 128t-93 151t-50 162.5h-191v178h168v82q0 24 2 34h-170v177h193q19 84 53 158.5t94 145.5t140 121.5t196 81.5t256 31h80q166 0 298 -37t215 -97
t138 -141t77 -163t22 -170v-8h-473q-2 27 -10.5 56t-31 66.5t-56.5 66.5t-93 49t-133 20q-225 0 -295 -180h440v-177h-475q0 -7 -1 -23t-1 -24v-26q0 -7 1 -21.5t1 -21.5h475v-178h-438q78 -187 295 -187q75 0 134 20t92 49t55.5 66.5t30.5 66t10 54.5h473v-8z" />
    <glyph glyph-name="yen.lintab" 
d="M715 305h-496v178h496v119h-496v176h389l-631 746h570l422 -533l428 533h510l-609 -746h390v-176h-496v-119h496v-178h-496v-305h-477v305z" />
    <glyph glyph-name="sterling.lintab" 
d="M1796 0h-1710v336h123q188 0 188 149v7q0 71 -37 172h-274v200h209q-29 114 -29 189v14q0 79 21 146.5t71.5 129t128 105t197 69t272.5 25.5h76q105 0 194.5 -12t156.5 -32t121 -50t91 -63t64.5 -74.5t43 -80t25 -84.5t12.5 -83t3 -80v-6h-494q0 225 -266 225
q-131 0 -188.5 -57.5t-57.5 -153.5q0 -39 15 -127h649v-200h-615q7 -51 7 -84q0 -100 -49 -161.5t-111 -82.5h672v229h491v-565z" />
    <glyph glyph-name="dollar.lintab" 
d="M590 1104q0 -30 10 -52t35.5 -42.5t77 -32.5t127.5 -16v274q-99 -5 -155.5 -22t-75.5 -42t-19 -65v-2zM1296 469q0 33 -10 56t-37.5 43.5t-80 32t-132.5 15.5v-321q82 6 136.5 22.5t80 42.5t34.5 50.5t9 56.5v2zM840 -182v157q-734 28 -734 514v19h482q2 -17 4 -28.5
t8.5 -32.5t17 -37t29.5 -35t44 -33t63.5 -25.5t85.5 -17.5v324h-68q-146 5 -259 32t-185.5 69.5t-119.5 101.5t-66 122.5t-19 138.5v19q0 73 18.5 132.5t67.5 116.5t127.5 96t206.5 63.5t297 27.5v160h196v-160q175 -5 305.5 -35t205 -73.5t119.5 -105.5t59 -119t14 -126
v-16h-471q-4 21 -9.5 37.5t-21 38.5t-39 37.5t-65.5 29.5t-97 21v-277l72 -2q156 -5 272 -29.5t189.5 -63t118 -96t62 -122t17.5 -147.5v-25q0 -53 -7.5 -99.5t-28.5 -96.5t-55 -90.5t-90.5 -78.5t-131 -64.5t-181 -44t-237.5 -20.5v-157h-196z" />
    <glyph glyph-name="greater.lintab" 
d="M399 479l758 242l-758 242v319l1094 -399v-324l-1094 -401v321z" />
    <glyph glyph-name="less.lintab" 
d="M391 557v322l1094 403v-324l-758 -241l758 -240v-319z" />
    <glyph glyph-name="plus.lintab" 
d="M1110 578v-469h-336v469h-461v292h461v459h336v-459h461v-292h-461z" />
    <glyph glyph-name="minus.lintab" 
d="M1561 874v-301h-1237v301h1237z" />
    <glyph glyph-name="multiply.lintab" 
d="M940 487l-350 -344l-213 213l346 340l-348 340l225 221l346 -342l348 345l215 -211l-348 -344l348 -343l-217 -219z" />
    <glyph glyph-name="divide.lintab" 
d="M1151 1065h-418v334h418v-334zM1571 870v-292h-1258v292h1258zM1151 41h-418v336h418v-336z" />
    <glyph glyph-name="equal.lintab" 
d="M1546 1081v-274h-1208v274h1208zM1546 578v-275h-1208v275h1208z" />
    <glyph glyph-name="percent.lintab" 
d="M451 817q-94 0 -168 23.5t-118.5 60t-74 85t-40.5 93.5t-11 90v27q0 46 11 91t40.5 92t74 82.5t118.5 58t168 22.5h30q94 0 168.5 -22.5t119.5 -58t74.5 -82.5t40.5 -92t11 -91v-27q0 -45 -11 -90t-40.5 -93.5t-74.5 -85t-119.5 -60t-168.5 -23.5h-30zM1761 1524
l-1327 -1524h-319l1327 1524h319zM614 1188q0 66 -36 104.5t-111 38.5t-111.5 -38.5t-36.5 -104.5v-6q0 -66 37 -107t111 -41t110.5 41t36.5 107v6zM1401 -16q-94 0 -168 23.5t-118.5 60t-74 85t-40.5 93.5t-11 90v29q0 46 11 90.5t40.5 91.5t74 82t118.5 57.5t168 22.5h31
q94 0 168.5 -22.5t119 -57.5t74 -82t40.5 -91.5t11 -90.5v-29q0 -45 -11 -90t-40.5 -93.5t-74 -85t-119 -60t-168.5 -23.5h-31zM1565 356q0 65 -36.5 104.5t-111.5 39.5t-111 -39.5t-36 -106.5v-6q0 -66 36.5 -106.5t110.5 -40.5t111 41t37 108v6z" />
    <glyph glyph-name="perthousand.lintab" 
d="M391 932q-81 0 -144.5 19.5t-101.5 49.5t-62.5 70.5t-34 79t-9.5 78.5v22q0 39 9.5 77t34 77.5t62.5 69t101.5 48.5t144.5 19h27q80 0 143.5 -19t102 -48.5t64 -69t35 -77.5t9.5 -77v-22q0 -40 -9.5 -78.5t-35 -79t-64 -70.5t-102 -49.5t-143.5 -19.5h-27zM520 1243
q0 117 -114 117q-115 0 -115 -117v-6q0 -121 115 -121q114 0 114 123v4zM1493 983l-1446 -487v206l1446 492v-211zM1464 -16q-81 0 -144 19.5t-101 50t-62.5 71t-33.5 78.5t-9 78v22q0 39 9 77t33.5 77.5t62.5 69t101 48.5t144 19h27q79 0 142 -19t101.5 -48.5t64 -69
t35 -77.5t9.5 -77v-22q0 -39 -9.5 -77.5t-35 -79t-64 -71t-101.5 -50t-142 -19.5h-27zM668 -16q-80 0 -143 19.5t-101.5 50t-63 71t-34 79t-9.5 77.5v22q0 39 9.5 77t34 77.5t63 69t101.5 48.5t143 19h26q81 0 144 -19t101 -48.5t62.5 -69t33.5 -77.5t9 -77v-22
q0 -40 -9 -78t-33.5 -78.5t-62.5 -71t-101 -50t-144 -19.5h-26zM1591 295q0 115 -112 115q-115 0 -115 -115v-6q0 -119 115 -119q112 0 112 121v4zM795 295q0 115 -113 115t-113 -115v-6q0 -119 113 -119t113 121v4z" />
    <glyph glyph-name="IJ.alt" horiz-adv-x="2076" 
d="M670 0h-490v1524h490v-1524zM946 397h250q122 0 167.5 55.5t45.5 196.5v875h489v-985q0 -280 -119 -409.5t-386 -129.5h-447v397z" />
    <glyph glyph-name="a.alt2" horiz-adv-x="1757" 
d="M848 842q-73 0 -127 -25t-81.5 -66t-40.5 -85t-13 -91v-6q0 -45 13 -88.5t40.5 -85.5t81.5 -68t127 -26h18q59 0 106 16.5t76.5 43.5t50 62.5t28.5 71.5t8 74v6q0 38 -8 74.5t-28 72t-50 61.5t-77 42.5t-106 16.5h-18zM1597 1141v-1141h-464v143q-20 -23 -48.5 -46
t-79.5 -53t-128 -48.5t-166 -18.5h-25q-122 0 -222 34t-166 89.5t-111.5 131t-65 155.5t-19.5 164v43q0 84 20 163t66 153.5t113 130t168.5 89t224.5 33.5h23q74 0 140 -12.5t105 -26t81 -40t53 -35.5t37 -31v123h464z" />
    <glyph glyph-name="Jcircumflex.alt" horiz-adv-x="1228" 
d="M1366 1636h-440l-125 133l-127 -133h-432l290 318h541zM98 397h250q122 0 167.5 55.5t45.5 196.5v875h490v-985q0 -280 -119.5 -409.5t-386.5 -129.5h-447v397z" />
    <glyph glyph-name="aacute.alt" horiz-adv-x="1632" 
d="M766 1575h512l-248 -315h-455zM735 246q74 0 132 21t90.5 54.5t48.5 70t16 71.5v72q-92 -24 -229 -46q-137 -24 -184.5 -50t-47.5 -79v-4q0 -50 43 -80t131 -30zM1034 152q-156 -175 -442 -175h-33q-227 0 -344 102t-117 263v8q0 107 47 176t163 112.5t313 59.5l317 25
q46 4 65 20t19 48v2q0 22 -7 37.5t-27.5 31t-65.5 23.5t-113 8h-6q-209 0 -209 -115h-467v2q0 33 4.5 63.5t20.5 71t42.5 74t75.5 67.5t115 57.5t164.5 38.5t220.5 15h66q124 0 223 -13.5t165 -34.5t114.5 -54t74.5 -64.5t41 -74t19 -75t4 -73.5v-393q0 -153 10 -235.5
t33 -149.5h-451q-32 71 -35 152z" />
    <glyph glyph-name="aacute.alt2" horiz-adv-x="1757" 
d="M811 1575h512l-248 -315h-454zM848 842q-73 0 -127 -25t-81.5 -66t-40.5 -85t-13 -91v-6q0 -45 13 -88.5t40.5 -85.5t81.5 -68t127 -26h18q59 0 106 16.5t76.5 43.5t50 62.5t28.5 71.5t8 74v6q0 38 -8 74.5t-28 72t-50 61.5t-77 42.5t-106 16.5h-18zM1597 1141v-1141
h-464v143q-20 -23 -48.5 -46t-79.5 -53t-128 -48.5t-166 -18.5h-25q-122 0 -222 34t-166 89.5t-111.5 131t-65 155.5t-19.5 164v43q0 84 20 163t66 153.5t113 130t168.5 89t224.5 33.5h23q74 0 140 -12.5t105 -26t81 -40t53 -35.5t37 -31v123h464z" />
    <glyph glyph-name="abreve.alt" horiz-adv-x="1632" 
d="M735 246q74 0 132 21t90.5 54.5t48.5 70t16 71.5v72q-92 -24 -229 -46q-137 -24 -184.5 -50t-47.5 -79v-4q0 -50 43 -80t131 -30zM1034 152q-156 -175 -442 -175h-33q-227 0 -344 102t-117 263v8q0 107 47 176t163 112.5t313 59.5l317 25q46 4 65 20t19 48v2
q0 22 -7 37.5t-27.5 31t-65.5 23.5t-113 8h-6q-209 0 -209 -115h-467v2q0 33 4.5 63.5t20.5 71t42.5 74t75.5 67.5t115 57.5t164.5 38.5t220.5 15h66q124 0 223 -13.5t165 -34.5t114.5 -54t74.5 -64.5t41 -74t19 -75t4 -73.5v-393q0 -153 10 -235.5t33 -149.5h-451
q-32 71 -35 152zM778 1249q-101 0 -179 25.5t-121.5 63.5t-71.5 88t-37 92t-9 84v4h328q0 -16 4.5 -32.5t15.5 -36.5t36 -33t61 -13h2q34 0 58 13t35 33t15.5 37t4.5 32h325v-4q0 -40 -10.5 -83.5t-39.5 -93t-73.5 -87.5t-120.5 -63.5t-172 -25.5h-51z" />
    <glyph glyph-name="abreve.alt2" horiz-adv-x="1757" 
d="M848 842q-73 0 -127 -25t-81.5 -66t-40.5 -85t-13 -91v-6q0 -45 13 -88.5t40.5 -85.5t81.5 -68t127 -26h18q59 0 106 16.5t76.5 43.5t50 62.5t28.5 71.5t8 74v6q0 38 -8 74.5t-28 72t-50 61.5t-77 42.5t-106 16.5h-18zM1597 1141v-1141h-464v143q-20 -23 -48.5 -46
t-79.5 -53t-128 -48.5t-166 -18.5h-25q-122 0 -222 34t-166 89.5t-111.5 131t-65 155.5t-19.5 164v43q0 84 20 163t66 153.5t113 130t168.5 89t224.5 33.5h23q74 0 140 -12.5t105 -26t81 -40t53 -35.5t37 -31v123h464zM836 1249q-101 0 -179 25.5t-121.5 63.5t-71.5 88
t-37 92t-9 84v4h327q0 -16 4.5 -32.5t15.5 -36.5t36 -33t61 -13h2q34 0 58 13t35 33t15.5 37t4.5 32h326v-4q0 -40 -10.5 -83.5t-39.5 -93t-73.5 -87.5t-120.5 -63.5t-172 -25.5h-51z" />
    <glyph glyph-name="acircumflex.alt" horiz-adv-x="1632" 
d="M1364 1257h-442l-119 136l-119 -136h-434l280 318h549zM735 246q74 0 132 21t90.5 54.5t48.5 70t16 71.5v72q-92 -24 -229 -46q-137 -24 -184.5 -50t-47.5 -79v-4q0 -50 43 -80t131 -30zM1034 152q-156 -175 -442 -175h-33q-227 0 -344 102t-117 263v8q0 107 47 176
t163 112.5t313 59.5l317 25q46 4 65 20t19 48v2q0 22 -7 37.5t-27.5 31t-65.5 23.5t-113 8h-6q-209 0 -209 -115h-467v2q0 33 4.5 63.5t20.5 71t42.5 74t75.5 67.5t115 57.5t164.5 38.5t220.5 15h66q124 0 223 -13.5t165 -34.5t114.5 -54t74.5 -64.5t41 -74t19 -75t4 -73.5
v-393q0 -153 10 -235.5t33 -149.5h-451q-32 71 -35 152z" />
    <glyph glyph-name="acircumflex.alt2" horiz-adv-x="1757" 
d="M1421 1257h-442l-119 136l-119 -136h-434l281 318h549zM848 842q-73 0 -127 -25t-81.5 -66t-40.5 -85t-13 -91v-6q0 -45 13 -88.5t40.5 -85.5t81.5 -68t127 -26h18q59 0 106 16.5t76.5 43.5t50 62.5t28.5 71.5t8 74v6q0 38 -8 74.5t-28 72t-50 61.5t-77 42.5t-106 16.5
h-18zM1597 1141v-1141h-464v143q-20 -23 -48.5 -46t-79.5 -53t-128 -48.5t-166 -18.5h-25q-122 0 -222 34t-166 89.5t-111.5 131t-65 155.5t-19.5 164v43q0 84 20 163t66 153.5t113 130t168.5 89t224.5 33.5h23q74 0 140 -12.5t105 -26t81 -40t53 -35.5t37 -31v123h464z" />
    <glyph glyph-name="adieresis.alt" horiz-adv-x="1632" 
d="M745 1255h-444v299h444v-299zM1305 1255h-445v299h445v-299zM735 246q74 0 132 21t90.5 54.5t48.5 70t16 71.5v72q-92 -24 -229 -46q-137 -24 -184.5 -50t-47.5 -79v-4q0 -50 43 -80t131 -30zM1034 152q-156 -175 -442 -175h-33q-227 0 -344 102t-117 263v8q0 107 47 176
t163 112.5t313 59.5l317 25q46 4 65 20t19 48v2q0 22 -7 37.5t-27.5 31t-65.5 23.5t-113 8h-6q-209 0 -209 -115h-467v2q0 33 4.5 63.5t20.5 71t42.5 74t75.5 67.5t115 57.5t164.5 38.5t220.5 15h66q124 0 223 -13.5t165 -34.5t114.5 -54t74.5 -64.5t41 -74t19 -75t4 -73.5
v-393q0 -153 10 -235.5t33 -149.5h-451q-32 71 -35 152z" />
    <glyph glyph-name="adieresis.alt2" horiz-adv-x="1757" 
d="M807 1255h-445v299h445v-299zM1366 1255h-444v299h444v-299zM848 842q-73 0 -127 -25t-81.5 -66t-40.5 -85t-13 -91v-6q0 -45 13 -88.5t40.5 -85.5t81.5 -68t127 -26h18q59 0 106 16.5t76.5 43.5t50 62.5t28.5 71.5t8 74v6q0 38 -8 74.5t-28 72t-50 61.5t-77 42.5
t-106 16.5h-18zM1597 1141v-1141h-464v143q-20 -23 -48.5 -46t-79.5 -53t-128 -48.5t-166 -18.5h-25q-122 0 -222 34t-166 89.5t-111.5 131t-65 155.5t-19.5 164v43q0 84 20 163t66 153.5t113 130t168.5 89t224.5 33.5h23q74 0 140 -12.5t105 -26t81 -40t53 -35.5t37 -31
v123h464z" />
    <glyph glyph-name="agrave.alt" horiz-adv-x="1632" 
d="M735 246q74 0 132 21t90.5 54.5t48.5 70t16 71.5v72q-92 -24 -229 -46q-137 -24 -184.5 -50t-47.5 -79v-4q0 -50 43 -80t131 -30zM1034 152q-156 -175 -442 -175h-33q-227 0 -344 102t-117 263v8q0 107 47 176t163 112.5t313 59.5l317 25q46 4 65 20t19 48v2
q0 22 -7 37.5t-27.5 31t-65.5 23.5t-113 8h-6q-209 0 -209 -115h-467v2q0 33 4.5 63.5t20.5 71t42.5 74t75.5 67.5t115 57.5t164.5 38.5t220.5 15h66q124 0 223 -13.5t165 -34.5t114.5 -54t74.5 -64.5t41 -74t19 -75t4 -73.5v-393q0 -153 10 -235.5t33 -149.5h-451
q-32 71 -35 152zM1036 1260h-454l-248 315h512z" />
    <glyph glyph-name="agrave.alt2" horiz-adv-x="1757" 
d="M848 842q-73 0 -127 -25t-81.5 -66t-40.5 -85t-13 -91v-6q0 -45 13 -88.5t40.5 -85.5t81.5 -68t127 -26h18q59 0 106 16.5t76.5 43.5t50 62.5t28.5 71.5t8 74v6q0 38 -8 74.5t-28 72t-50 61.5t-77 42.5t-106 16.5h-18zM1597 1141v-1141h-464v143q-20 -23 -48.5 -46
t-79.5 -53t-128 -48.5t-166 -18.5h-25q-122 0 -222 34t-166 89.5t-111.5 131t-65 155.5t-19.5 164v43q0 84 20 163t66 153.5t113 130t168.5 89t224.5 33.5h23q74 0 140 -12.5t105 -26t81 -40t53 -35.5t37 -31v123h464zM1104 1260h-455l-248 315h512z" />
    <glyph glyph-name="amacron.alt" horiz-adv-x="1632" 
d="M735 246q74 0 132 21t90.5 54.5t48.5 70t16 71.5v72q-92 -24 -229 -46q-137 -24 -184.5 -50t-47.5 -79v-4q0 -50 43 -80t131 -30zM1034 152q-156 -175 -442 -175h-33q-227 0 -344 102t-117 263v8q0 107 47 176t163 112.5t313 59.5l317 25q46 4 65 20t19 48v2
q0 22 -7 37.5t-27.5 31t-65.5 23.5t-113 8h-6q-209 0 -209 -115h-467v2q0 33 4.5 63.5t20.5 71t42.5 74t75.5 67.5t115 57.5t164.5 38.5t220.5 15h66q124 0 223 -13.5t165 -34.5t114.5 -54t74.5 -64.5t41 -74t19 -75t4 -73.5v-393q0 -153 10 -235.5t33 -149.5h-451
q-32 71 -35 152zM399 1538h809v-258h-809v258z" />
    <glyph glyph-name="amacron.alt2" horiz-adv-x="1757" 
d="M457 1538h809v-258h-809v258zM848 842q-73 0 -127 -25t-81.5 -66t-40.5 -85t-13 -91v-6q0 -45 13 -88.5t40.5 -85.5t81.5 -68t127 -26h18q59 0 106 16.5t76.5 43.5t50 62.5t28.5 71.5t8 74v6q0 38 -8 74.5t-28 72t-50 61.5t-77 42.5t-106 16.5h-18zM1597 1141v-1141h-464
v143q-20 -23 -48.5 -46t-79.5 -53t-128 -48.5t-166 -18.5h-25q-122 0 -222 34t-166 89.5t-111.5 131t-65 155.5t-19.5 164v43q0 84 20 163t66 153.5t113 130t168.5 89t224.5 33.5h23q74 0 140 -12.5t105 -26t81 -40t53 -35.5t37 -31v123h464z" />
    <glyph glyph-name="aogonek.alt" horiz-adv-x="1632" 
d="M735 246q74 0 132 21t90.5 54.5t48.5 70t16 71.5v72q-92 -24 -229 -46q-137 -24 -184.5 -50t-47.5 -79v-4q0 -50 43 -80t131 -30zM1034 152q-156 -175 -442 -175h-33q-227 0 -344 102t-117 263v8q0 107 47 176t163 112.5t313 59.5l317 25q46 4 65 20t19 48v2
q0 22 -7 37.5t-27.5 31t-65.5 23.5t-113 8h-6q-209 0 -209 -115h-467v2q0 33 4.5 63.5t20.5 71t42.5 74t75.5 67.5t115 57.5t164.5 38.5t220.5 15h66q124 0 223 -13.5t165 -34.5t114.5 -54t74.5 -64.5t41 -74t19 -75t4 -73.5v-393q0 -153 10 -235.5t33 -149.5h-451
q-32 71 -35 152zM1204 -391q-264 0 -264 151v4q0 81 90.5 133.5t292.5 102.5h197q-55 -33 -81.5 -50.5t-46.5 -39.5t-20 -43q0 -49 78 -49h84v-209h-330z" />
    <glyph glyph-name="aogonek.alt2" horiz-adv-x="1757" 
d="M1280 -391q-264 0 -264 151v4q0 81 90.5 133.5t292.5 102.5h196q-80 -48 -113.5 -75.5t-33.5 -57.5q0 -49 78 -49h84v-209h-330zM848 842q-73 0 -127 -25t-81.5 -66t-40.5 -85t-13 -91v-6q0 -45 13 -88.5t40.5 -85.5t81.5 -68t127 -26h18q59 0 106 16.5t76.5 43.5
t50 62.5t28.5 71.5t8 74v6q0 38 -8 74.5t-28 72t-50 61.5t-77 42.5t-106 16.5h-18zM1597 1141v-1141h-464v143q-20 -23 -48.5 -46t-79.5 -53t-128 -48.5t-166 -18.5h-25q-122 0 -222 34t-166 89.5t-111.5 131t-65 155.5t-19.5 164v43q0 84 20 163t66 153.5t113 130t168.5 89
t224.5 33.5h23q74 0 140 -12.5t105 -26t81 -40t53 -35.5t37 -31v123h464z" />
    <glyph glyph-name="aring.alt" horiz-adv-x="1632" 
d="M440 1518q0 55 18 101t57.5 85.5t113 61.5t174.5 22q103 0 177 -22t113.5 -61.5t57.5 -85t18 -101.5t-17.5 -102.5t-57 -86.5t-114 -63t-177.5 -23q-102 0 -176 23t-113 63.5t-56.5 87t-17.5 101.5zM672 1518q0 -48 33 -80.5t98 -32.5q68 0 100.5 32t32.5 81
q0 48 -32.5 78t-100.5 30q-65 0 -98 -30.5t-33 -77.5zM735 246q74 0 132 21t90.5 54.5t48.5 70t16 71.5v72q-92 -24 -229 -46q-137 -24 -184.5 -50t-47.5 -79v-4q0 -50 43 -80t131 -30zM1034 152q-156 -175 -442 -175h-33q-227 0 -344 102t-117 263v8q0 107 47 176
t163 112.5t313 59.5l317 25q46 4 65 20t19 48v2q0 22 -7 37.5t-27.5 31t-65.5 23.5t-113 8h-6q-209 0 -209 -115h-467v2q0 33 4.5 63.5t20.5 71t42.5 74t75.5 67.5t115 57.5t164.5 38.5t220.5 15h66q124 0 223 -13.5t165 -34.5t114.5 -54t74.5 -64.5t41 -74t19 -75t4 -73.5
v-393q0 -153 10 -235.5t33 -149.5h-451q-32 71 -35 152z" />
    <glyph glyph-name="aring.alt2" horiz-adv-x="1757" 
d="M485 1518q0 55 18 101t57.5 85.5t113 61.5t174.5 22q103 0 177 -22t113.5 -61.5t57.5 -85t18 -101.5t-17.5 -102.5t-57 -86.5t-114 -63t-177.5 -23q-102 0 -176 23t-113 63.5t-56.5 87t-17.5 101.5zM717 1518q0 -48 33 -80.5t98 -32.5q68 0 100.5 32t32.5 81
q0 48 -32.5 78t-100.5 30q-65 0 -98 -30.5t-33 -77.5zM848 842q-73 0 -127 -25t-81.5 -66t-40.5 -85t-13 -91v-6q0 -45 13 -88.5t40.5 -85.5t81.5 -68t127 -26h18q59 0 106 16.5t76.5 43.5t50 62.5t28.5 71.5t8 74v6q0 38 -8 74.5t-28 72t-50 61.5t-77 42.5t-106 16.5h-18z
M1597 1141v-1141h-464v143q-20 -23 -48.5 -46t-79.5 -53t-128 -48.5t-166 -18.5h-25q-122 0 -222 34t-166 89.5t-111.5 131t-65 155.5t-19.5 164v43q0 84 20 163t66 153.5t113 130t168.5 89t224.5 33.5h23q74 0 140 -12.5t105 -26t81 -40t53 -35.5t37 -31v123h464z" />
    <glyph glyph-name="aringacute.alt" horiz-adv-x="1632" 
d="M766 2167h512l-248 -316h-455zM440 1518q0 55 18 101t57.5 85.5t113 61.5t174.5 22q103 0 177 -22t113.5 -61.5t57.5 -85t18 -101.5t-17.5 -102.5t-57 -86.5t-114 -63t-177.5 -23q-102 0 -176 23t-113 63.5t-56.5 87t-17.5 101.5zM672 1518q0 -48 33 -80.5t98 -32.5
q68 0 100.5 32t32.5 81q0 48 -32.5 78t-100.5 30q-65 0 -98 -30.5t-33 -77.5zM735 246q74 0 132 21t90.5 54.5t48.5 70t16 71.5v72q-92 -24 -229 -46q-137 -24 -184.5 -50t-47.5 -79v-4q0 -50 43 -80t131 -30zM1034 152q-156 -175 -442 -175h-33q-227 0 -344 102t-117 263v8
q0 107 47 176t163 112.5t313 59.5l317 25q46 4 65 20t19 48v2q0 22 -7 37.5t-27.5 31t-65.5 23.5t-113 8h-6q-209 0 -209 -115h-467v2q0 33 4.5 63.5t20.5 71t42.5 74t75.5 67.5t115 57.5t164.5 38.5t220.5 15h66q124 0 223 -13.5t165 -34.5t114.5 -54t74.5 -64.5t41 -74
t19 -75t4 -73.5v-393q0 -153 10 -235.5t33 -149.5h-451q-32 71 -35 152z" />
    <glyph glyph-name="aringacute.alt2" horiz-adv-x="1757" 
d="M811 2167h512l-248 -316h-454zM485 1518q0 55 18 101t57.5 85.5t113 61.5t174.5 22q103 0 177 -22t113.5 -61.5t57.5 -85t18 -101.5t-17.5 -102.5t-57 -86.5t-114 -63t-177.5 -23q-102 0 -176 23t-113 63.5t-56.5 87t-17.5 101.5zM717 1518q0 -48 33 -80.5t98 -32.5
q68 0 100.5 32t32.5 81q0 48 -32.5 78t-100.5 30q-65 0 -98 -30.5t-33 -77.5zM848 842q-73 0 -127 -25t-81.5 -66t-40.5 -85t-13 -91v-6q0 -45 13 -88.5t40.5 -85.5t81.5 -68t127 -26h18q59 0 106 16.5t76.5 43.5t50 62.5t28.5 71.5t8 74v6q0 38 -8 74.5t-28 72t-50 61.5
t-77 42.5t-106 16.5h-18zM1597 1141v-1141h-464v143q-20 -23 -48.5 -46t-79.5 -53t-128 -48.5t-166 -18.5h-25q-122 0 -222 34t-166 89.5t-111.5 131t-65 155.5t-19.5 164v43q0 84 20 163t66 153.5t113 130t168.5 89t224.5 33.5h23q74 0 140 -12.5t105 -26t81 -40t53 -35.5
t37 -31v123h464z" />
    <glyph glyph-name="atilde.alt" horiz-adv-x="1632" 
d="M735 246q74 0 132 21t90.5 54.5t48.5 70t16 71.5v72q-92 -24 -229 -46q-137 -24 -184.5 -50t-47.5 -79v-4q0 -50 43 -80t131 -30zM1034 152q-156 -175 -442 -175h-33q-227 0 -344 102t-117 263v8q0 107 47 176t163 112.5t313 59.5l317 25q46 4 65 20t19 48v2
q0 22 -7 37.5t-27.5 31t-65.5 23.5t-113 8h-6q-209 0 -209 -115h-467v2q0 33 4.5 63.5t20.5 71t42.5 74t75.5 67.5t115 57.5t164.5 38.5t220.5 15h66q124 0 223 -13.5t165 -34.5t114.5 -54t74.5 -64.5t41 -74t19 -75t4 -73.5v-393q0 -153 10 -235.5t33 -149.5h-451
q-32 71 -35 152zM1221 1470q0 -37 -9.5 -71.5t-30 -66.5t-59 -51t-90.5 -19h-4q-58 0 -107.5 15.5t-142.5 57.5q-82 43 -106 43q-31 0 -31 -45v-82h-254v176q0 38 9 72t28.5 66.5t58 51.5t90.5 19h7q58 0 105.5 -15.5t141.5 -59.5q83 -41 107 -41q31 0 31 43v84h256v-177z
" />
    <glyph glyph-name="atilde.alt2" horiz-adv-x="1757" 
d="M848 842q-73 0 -127 -25t-81.5 -66t-40.5 -85t-13 -91v-6q0 -45 13 -88.5t40.5 -85.5t81.5 -68t127 -26h18q59 0 106 16.5t76.5 43.5t50 62.5t28.5 71.5t8 74v6q0 38 -8 74.5t-28 72t-50 61.5t-77 42.5t-106 16.5h-18zM1597 1141v-1141h-464v143q-20 -23 -48.5 -46
t-79.5 -53t-128 -48.5t-166 -18.5h-25q-122 0 -222 34t-166 89.5t-111.5 131t-65 155.5t-19.5 164v43q0 84 20 163t66 153.5t113 130t168.5 89t224.5 33.5h23q74 0 140 -12.5t105 -26t81 -40t53 -35.5t37 -31v123h464zM1278 1470q0 -37 -9.5 -71.5t-30 -66.5t-58.5 -51
t-90 -19h-5q-57 0 -106 15.5t-143 57.5q-82 43 -107 43q-31 0 -31 -45v-82h-254v176q0 38 9 72t29 66.5t58.5 51.5t90.5 19h6q58 0 106.5 -15.5t141.5 -59.5q83 -41 106 -41q31 0 31 43v84h256v-177z" />
    <glyph glyph-name="racute.alt" horiz-adv-x="1161" 
d="M631 1575h512l-248 -315h-455zM160 1141h461v-232q31 53 65.5 93.5t88 80t129.5 61t171 21.5h8v-469q-42 11 -155 11q-157 0 -230 -53.5t-73 -161.5v-492h-465v1141z" />
    <glyph glyph-name="rcaron.alt" horiz-adv-x="1161" 
d="M94 1575h443l118 -133l119 133h434l-280 -315h-549zM160 1141h461v-232q31 53 65.5 93.5t88 80t129.5 61t171 21.5h8v-469q-42 11 -155 11q-157 0 -230 -53.5t-73 -161.5v-492h-465v1141z" />
    <glyph glyph-name="rcommaaccent.alt" horiz-adv-x="1161" 
d="M299 -586q50 82 63 172h-217v297h500v-229q0 -61 -24.5 -127.5t-57.5 -112.5h-264zM160 1141h461v-232q31 53 65.5 93.5t88 80t129.5 61t171 21.5h8v-469q-42 11 -155 11q-157 0 -230 -53.5t-73 -161.5v-492h-465v1141z" />
    <glyph glyph-name="space_uni0326.alt" horiz-adv-x="1548" 
d="M868 1729q-49 -93 -61 -173h215v-296h-496v231q0 59 24.5 125.5t57.5 112.5h260z" />
    <glyph glyph-name="ordfeminine.alt" horiz-adv-x="1404" 
d="M864 745q-15 -20 -40.5 -40.5t-68 -44.5t-108 -39t-143.5 -15h-15q-189 0 -282.5 83t-93.5 212v6q0 128 92 190.5t293 80.5l297 24q34 1 46.5 12.5t12.5 36.5q0 74 -164 74h-14q-41 0 -72.5 -5.5t-48 -14t-27 -19.5t-13.5 -20t-3 -19h-379v2q0 299 512 299h70
q138 0 238.5 -19t154 -46.5t84 -70t38 -77.5t7.5 -82v-323q0 -209 33 -307h-381q-22 60 -25 122zM631 821q103 0 163 55.5t60 131.5v34l-225 -36q-69 -11 -99 -32.5t-30 -62.5q0 -40 33.5 -65t97.5 -25z" />
    <glyph glyph-name="ordfeminine.alt2" horiz-adv-x="1488" 
d="M715 1288q-53 0 -92 -19t-59 -51.5t-29 -66.5t-9 -72v-2q0 -28 5.5 -55.5t19.5 -56.5t34.5 -51t54 -36t75.5 -14h14q51 0 89.5 19.5t59 51t30.5 66.5t10 72v6q0 81 -47 145t-142 64h-14zM1317 1532v-909h-393v112q-39 -49 -117.5 -89t-204.5 -40h-18q-120 0 -213.5 40
t-148 106.5t-82 145t-27.5 163.5v39q0 66 16.5 129t53 121.5t90 102t133 69.5t176.5 26h14q71 0 128 -10.5t97 -30.5t59.5 -33.5t43.5 -33.5v92h393z" />
    <glyph glyph-name="caron.alt" horiz-adv-x="1433" 
d="M547 1567h383l-66 -312h-358z" />
    <glyph glyph-name="plus.uc" horiz-adv-x="1390" 
d="M864 592v-391h-338v391h-385v293h385v389h338v-389h383v-293h-383z" />
    <glyph glyph-name="minus.uc" horiz-adv-x="1347" 
d="M1204 889v-301h-1063v301h1063z" />
    <glyph glyph-name="multiply.uc" horiz-adv-x="1253" 
d="M625 508l-303 -297l-213 211l299 295l-302 293l226 223l299 -295l301 295l215 -211l-303 -297l303 -295l-217 -219z" />
    <glyph glyph-name="divide.uc" horiz-adv-x="1382" 
d="M899 1012h-416v334h416v-334zM1241 885v-293h-1100v293h1100zM899 123h-416v336h416v-336z" />
    <glyph glyph-name="equal.uc" horiz-adv-x="1363" 
d="M1212 1096v-275h-1060v275h1060zM1212 659v-274h-1060v274h1060z" />
    <glyph glyph-name="less.uc" horiz-adv-x="1245" 
d="M150 578v321l946 352v-323l-607 -191l607 -188v-320z" />
    <glyph glyph-name="greater.uc" horiz-adv-x="1245" 
d="M150 549l604 188l-604 191v323l946 -352v-321l-946 -349v320z" />
    <glyph glyph-name="questiondown.uc" horiz-adv-x="1734" 
d="M1159 999v-90q0 -65 -11.5 -109.5t-44 -85.5t-92.5 -73t-155 -63l-108 -35q-94 -30 -127 -56t-33 -65q0 -33 18.5 -55t82.5 -38t177 -16q76 0 132 14t83.5 30.5t44.5 45.5t20 44t6 41q1 6 1 8h502v-27q0 -45 -5 -84t-23 -90.5t-48 -93t-85.5 -84t-130.5 -71t-187.5 -46.5
t-251.5 -18h-101q-735 0 -735 430v18q0 146 90.5 240.5t300.5 154.5l103 31q70 22 94 47t24 78v18h459zM678 1524h502v-402h-502v402z" />
    <glyph glyph-name="exclamdown.uc" horiz-adv-x="831" 
d="M131 0l170 999h225l172 -999h-567zM162 1524h502v-402h-502v402z" />
    <glyph glyph-name="hyphen.uc" horiz-adv-x="985" 
d="M844 881v-373h-703v373h703z" />
    <glyph glyph-name="endash.uc" horiz-adv-x="1708" 
d="M1567 848v-307h-1426v307h1426z" />
    <glyph glyph-name="emdash.uc" horiz-adv-x="2584" 
d="M2441 848v-307h-2300v307h2300z" />
    <glyph glyph-name="guilsinglleft.uc" horiz-adv-x="808" 
d="M350 279l-272 380l272 377h381l-274 -377l270 -380h-377z" />
    <glyph glyph-name="guilsinglright.uc" horiz-adv-x="808" 
d="M82 279l268 380l-274 377h383l272 -377l-272 -380h-377z" />
    <glyph glyph-name="guillemotleft.uc" horiz-adv-x="1349" 
d="M907 279l-254 380l256 377h365l-260 -377l252 -380h-359zM336 279l-258 380l254 377h366l-256 -377l256 -380h-362z" />
    <glyph glyph-name="guillemotright.uc" horiz-adv-x="1349" 
d="M84 281l252 381l-260 376h364l258 -376l-254 -381h-360zM653 281l254 381l-254 376h365l254 -376l-258 -381h-361z" />
    <glyph glyph-name="parenleft.uc" horiz-adv-x="794" 
d="M479 762q0 -468 275 -928h-254q-394 433 -394 928q0 125 25.5 245t64.5 213t94 182.5t104.5 150.5t105.5 118h254q-120 -190 -197.5 -422.5t-77.5 -486.5z" />
    <glyph glyph-name="parenright.uc" horiz-adv-x="796" 
d="M315 762q0 257 -76.5 487.5t-197.5 421.5h258q391 -405 391 -909q0 -497 -391 -928h-258q274 458 274 928z" />
    <glyph glyph-name="bracketleft.uc" horiz-adv-x="862" 
d="M162 1673h614v-243h-258v-1352h258v-244h-614v1839z" />
    <glyph glyph-name="bracketright.uc" horiz-adv-x="862" 
d="M86 78h262v1352h-262v243h616v-1839h-616v244z" />
    <glyph glyph-name="braceleft.uc" horiz-adv-x="858" 
d="M475 -164q-328 0 -328 238q0 68 40.5 167.5t81 189.5t40.5 134q0 38 -19 55t-63 17h-147v244h147q44 0 63 13.5t19 45.5q0 38 -25.5 102t-55.5 123.5t-55.5 134t-25.5 130.5q0 121 79 182t249 61h297v-237h-176q-86 0 -86 -72q0 -37 31 -111.5t62.5 -155.5t31.5 -134
q0 -86 -47.5 -134.5t-155.5 -68.5q105 -17 154 -58.5t49 -111.5q0 -58 -31.5 -147t-62.5 -169t-31 -116q0 -84 113 -84h149v-238h-297z" />
    <glyph glyph-name="braceright.uc" horiz-adv-x="858" 
d="M86 -164v238h150q112 0 112 84q0 36 -31 116t-62.5 169t-31.5 147q0 70 49 111.5t154 58.5q-108 20 -155.5 68.5t-47.5 134.5q0 53 31.5 134t62.5 155.5t31 111.5q0 72 -86 72h-176v237h299q169 0 248.5 -61t79.5 -182q0 -56 -25.5 -130.5t-55.5 -134t-55.5 -123.5
t-25.5 -102q0 -32 18 -45.5t62 -13.5h149v-244h-149q-44 0 -62 -16.5t-18 -55.5q0 -44 40.5 -134t81 -189.5t40.5 -167.5q0 -118 -83.5 -178t-244.5 -60h-299z" />
    <glyph glyph-name="slash.uc" horiz-adv-x="974" 
d="M334 -166h-336l627 1837h340z" />
    <glyph glyph-name="backslash.uc" horiz-adv-x="974" 
d="M639 -166l-627 1837h340l625 -1837h-338z" />
    <glyph glyph-name="bar.uc" horiz-adv-x="768" 
d="M547 -166h-326v1837h326v-1837z" />
    <glyph glyph-name="at.uc" horiz-adv-x="2609" 
d="M1311 -240q-209 0 -381 29t-294.5 78t-216 121t-150.5 151.5t-93 176.5t-49.5 188.5t-13.5 195.5v25q0 107 17 202.5t57.5 188.5t103 169.5t158 142.5t218.5 110.5t288.5 70t363.5 25.5h20q232 0 417.5 -30t307 -75.5t210 -117t134.5 -137t72.5 -153.5t32.5 -149.5
t6 -140.5v-18q0 -95 -18.5 -182t-64 -171t-115 -145.5t-180.5 -99t-251 -37.5h-22q-281 0 -355 158q-16 -21 -42 -43t-72.5 -50.5t-119.5 -46.5t-159 -18h-20q-127 0 -222 44t-147 117t-75 159.5t-17 181.5q0 8 4 57.5t4 57.5q9 84 40.5 156.5t87 132t143.5 94t200 34.5h25
q88 0 160.5 -16t122 -44t72.5 -46t48 -43l15 131h456l-78 -719q-10 -86 66 -86q111 0 181.5 118.5t70.5 309.5v8q0 71 -3 115t-21.5 114t-52.5 114.5t-101.5 97t-163 83t-242.5 51.5t-334 21h-20q-218 0 -382 -36t-266.5 -97.5t-166 -153t-87.5 -190.5t-24 -223v-25
q0 -81 10 -152t37.5 -146t71 -135.5t115 -116t165.5 -92.5t226 -59t293 -22q214 0 391 18.5t286.5 48.5t169.5 54t97 47l67 -215q-29 -18 -71 -36.5t-128 -43t-191.5 -42.5t-268.5 -31t-352 -13zM1513 721q5 97 -43 152t-149 55h-2q-105 0 -157.5 -58t-57.5 -155l-2 -29
q-8 -92 34.5 -157.5t143.5 -65.5h2q113 0 168.5 65.5t60.5 169.5z" />
    <glyph glyph-name="grave.uc" horiz-adv-x="1433" 
d="M362 1954h519l192 -314h-473z" />
    <glyph glyph-name="dieresis.uc" horiz-adv-x="1433" 
d="M657 1640h-450v299h450v-299zM1227 1640h-451v299h451v-299z" />
    <glyph glyph-name="macron.uc" horiz-adv-x="1447" 
d="M311 1925h824v-258h-824v258z" />
    <glyph glyph-name="acute.uc" horiz-adv-x="1433" 
d="M362 1640l193 314h518l-239 -314h-472z" />
    <glyph glyph-name="circumflex.uc" horiz-adv-x="1433" 
d="M1280 1636h-440l-125 133l-127 -133h-432l290 318h541z" />
    <glyph glyph-name="caron.uc" horiz-adv-x="1433" 
d="M154 1954h442l125 -133l127 133h434l-291 -314h-545z" />
    <glyph glyph-name="breve.uc" horiz-adv-x="1447" 
d="M698 1630q-103 0 -181.5 25.5t-123 62.5t-72 87t-36.5 91.5t-9 83.5v5h326q3 -20 8 -35t17.5 -35.5t37.5 -31.5t62 -11h2q28 0 49.5 8.5t33 19.5t20 28.5t11.5 29t5 27.5h323v-5q0 -40 -11 -83t-41 -92t-75.5 -87t-121 -63t-170.5 -25h-54z" />
    <glyph glyph-name="dotaccent.uc" horiz-adv-x="1433" 
d="M952 1640h-471v299h471v-299z" />
    <glyph glyph-name="ring.uc" horiz-adv-x="1447" 
d="M356 1896q0 55 18.5 101.5t59 85.5t114.5 61.5t175 22.5q83 0 148 -15t106 -40t67.5 -60.5t37 -73.5t10.5 -82q0 -55 -18 -101t-58 -86.5t-115 -63.5t-178 -23t-177.5 23t-114.5 63.5t-57.5 86.5t-17.5 101zM860 1896q0 48 -34 78.5t-103 30.5q-68 0 -101.5 -30.5
t-33.5 -78.5q0 -49 33.5 -81.5t101.5 -32.5q69 0 103 32.5t34 81.5z" />
    <glyph glyph-name="tilde.uc" horiz-adv-x="1447" 
d="M547 1632h-256v172q0 39 9.5 73.5t30 66.5t59 50.5t91.5 18.5h4q39 0 84 -10.5t79.5 -23.5t107.5 -42q9 -4 25.5 -10.5t22.5 -9t17 -7t16 -6t12 -3.5t12.5 -2.5t10.5 -0.5q29 0 29 46v79h256v-172q0 -39 -9.5 -73.5t-30 -66.5t-59 -50.5t-91.5 -18.5h-4q-39 0 -84 10.5
t-79.5 23.5t-107.5 42q-95 39 -117 39q-28 0 -28 -45v-80z" />
    <glyph glyph-name="hungarumlaut.uc" horiz-adv-x="1433" 
d="M297 1954h424l-148 -314h-417zM850 1954h428l-164 -314h-418z" />
    <glyph glyph-name="emdash.altuc" horiz-adv-x="4882" 
d="M4741 541h-4600v307h4600v-307z" />
    <glyph glyph-name="f.short" horiz-adv-x="1097" 
d="M1020 1286h-156q-45 0 -65.5 -20.5t-20.5 -67.5v-57h242v-316h-242v-825h-459v825h-243v316h243v73q0 84 16.5 143t57 104t113 67t180.5 22h334v-264z" />
    <glyph glyph-name="f_f.short" horiz-adv-x="2035" 
d="M319 0v825h-243v316h243v73q0 84 16.5 143t57 104t113 67t180.5 22h338v-264h-160q-45 0 -65.5 -20.5t-20.5 -67.5v-57h479v73q0 84 17 143t57.5 104t113.5 67t181 22h332v-264h-156q-44 0 -64 -20.5t-20 -67.5v-57h240v-316h-240v-825h-461v825h-479v-825h-459z" />
    <glyph glyph-name="j.short" horiz-adv-x="784" 
d="M627 1255h-469v299h469v-299zM84 -72q42 0 59 19.5t17 64.5v1129h465v-1227q0 -144 -67 -223.5t-196 -79.5h-370v317h92z" />
    <glyph glyph-name="divide.uctab" 
d="M1151 1079h-418v334h418v-334zM1571 885v-293h-1258v293h1258zM1151 55h-418v336h418v-336z" />
    <glyph glyph-name="equal.uctab" 
d="M1546 1096v-275h-1208v275h1208zM1546 592v-275h-1208v275h1208z" />
    <glyph glyph-name="florin.tab" 
d="M1120 635l-69 -1024h-453l66 1024h-428v313h448l14 213q6 93 28 157.5t67 112.5t119 70.5t182 22.5h544v-314h-370q-61 0 -86.5 -24t-30.5 -82l-10 -156h497v-313h-518z" />
    <glyph glyph-name="greater.uctab" 
d="M399 494l758 241l-758 242v319l1094 -399v-324l-1094 -401v322z" />
    <glyph glyph-name="less.uctab" 
d="M391 571v322l1094 403v-323l-758 -242l758 -239v-320z" />
    <glyph glyph-name="minus.uctab" 
d="M1561 889v-301h-1237v301h1237z" />
    <glyph glyph-name="multiply.uctab" 
d="M940 502l-350 -344l-213 213l346 340l-348 340l225 221l346 -342l348 344l215 -211l-348 -344l348 -342l-217 -219z" />
    <glyph glyph-name="plus.uctab" 
d="M1110 592v-469h-336v469h-461v293h461v458h336v-458h461v-293h-461z" />
    </font>
</defs>
</svg>
